G04 #@! TF.GenerationSoftware,KiCad,Pcbnew,5.1.5+dfsg1-2build2*
G04 #@! TF.CreationDate,2022-03-13T21:19:34-04:00*
G04 #@! TF.ProjectId,vdg_breakout,7664675f-6272-4656-916b-6f75742e6b69,rev?*
G04 #@! TF.SameCoordinates,Original*
G04 #@! TF.FileFunction,Legend,Top*
G04 #@! TF.FilePolarity,Positive*
%FSLAX46Y46*%
G04 Gerber Fmt 4.6, Leading zero omitted, Abs format (unit mm)*
G04 Created by KiCad (PCBNEW 5.1.5+dfsg1-2build2) date 2022-03-13 21:19:34*
%MOMM*%
%LPD*%
G04 APERTURE LIST*
%ADD10C,0.150000*%
%ADD11C,0.120000*%
G04 APERTURE END LIST*
D10*
X112453571Y-90489285D02*
X112453571Y-91251190D01*
X112072619Y-90870238D02*
X112834523Y-90870238D01*
X113072619Y-92203571D02*
X113072619Y-91727380D01*
X112596428Y-91679761D01*
X112644047Y-91727380D01*
X112691666Y-91822619D01*
X112691666Y-92060714D01*
X112644047Y-92155952D01*
X112596428Y-92203571D01*
X112501190Y-92251190D01*
X112263095Y-92251190D01*
X112167857Y-92203571D01*
X112120238Y-92155952D01*
X112072619Y-92060714D01*
X112072619Y-91822619D01*
X112120238Y-91727380D01*
X112167857Y-91679761D01*
X113072619Y-92536904D02*
X112072619Y-92870238D01*
X113072619Y-93203571D01*
D11*
X133620001Y-59295001D02*
G75*
G02X131620001Y-59295001I-1000000J0D01*
G01*
X131620001Y-59295001D02*
X126160001Y-59295001D01*
X126160001Y-59295001D02*
X126160001Y-110215001D01*
X126160001Y-110215001D02*
X139080001Y-110215001D01*
X139080001Y-110215001D02*
X139080001Y-59295001D01*
X139080001Y-59295001D02*
X133620001Y-59295001D01*
X123670001Y-59235001D02*
X123670001Y-110275001D01*
X123670001Y-110275001D02*
X141570001Y-110275001D01*
X141570001Y-110275001D02*
X141570001Y-59235001D01*
X141570001Y-59235001D02*
X123670001Y-59235001D01*
X139545000Y-59235001D02*
X121645000Y-59235001D01*
X139545000Y-110275001D02*
X139545000Y-59235001D01*
X121645000Y-110275001D02*
X139545000Y-110275001D01*
X121645000Y-59235001D02*
X121645000Y-110275001D01*
X137055000Y-59295001D02*
X131595000Y-59295001D01*
X137055000Y-110215001D02*
X137055000Y-59295001D01*
X124135000Y-110215001D02*
X137055000Y-110215001D01*
X124135000Y-59295001D02*
X124135000Y-110215001D01*
X129595000Y-59295001D02*
X124135000Y-59295001D01*
X131595000Y-59295001D02*
G75*
G02X129595000Y-59295001I-1000000J0D01*
G01*
X111685000Y-94590000D02*
X120805000Y-94590000D01*
X120805000Y-94590000D02*
X120805000Y-110090000D01*
X120805000Y-110090000D02*
X111685000Y-110090000D01*
X111685000Y-110090000D02*
X111685000Y-94590000D01*
X111685000Y-100290000D02*
X112995000Y-100290000D01*
X112995000Y-100290000D02*
X112995000Y-95890000D01*
X112995000Y-95890000D02*
X119495000Y-95890000D01*
X119495000Y-95890000D02*
X119495000Y-108790000D01*
X119495000Y-108790000D02*
X112995000Y-108790000D01*
X112995000Y-108790000D02*
X112995000Y-104390000D01*
X112995000Y-104390000D02*
X112995000Y-104390000D01*
X112995000Y-104390000D02*
X111685000Y-104390000D01*
X111295000Y-99800000D02*
X110295000Y-99300000D01*
X110295000Y-99300000D02*
X110295000Y-100300000D01*
X110295000Y-100300000D02*
X111295000Y-99800000D01*
X120270000Y-93505000D02*
X120270000Y-90845000D01*
X117670000Y-93505000D02*
X120270000Y-93505000D01*
X117670000Y-90845000D02*
X120270000Y-90845000D01*
X117670000Y-93505000D02*
X117670000Y-90845000D01*
X116400000Y-93505000D02*
X115070000Y-93505000D01*
X115070000Y-93505000D02*
X115070000Y-92175000D01*
D10*
X135566667Y-61352380D02*
X135566667Y-62066666D01*
X135519048Y-62209523D01*
X135423810Y-62304761D01*
X135280953Y-62352380D01*
X135185715Y-62352380D01*
X136566667Y-62352380D02*
X135995239Y-62352380D01*
X136280953Y-62352380D02*
X136280953Y-61352380D01*
X136185715Y-61495238D01*
X136090477Y-61590476D01*
X135995239Y-61638095D01*
X127016665Y-61377380D02*
X127016665Y-62091666D01*
X126969046Y-62234523D01*
X126873808Y-62329761D01*
X126730951Y-62377380D01*
X126635713Y-62377380D01*
X127445237Y-61472619D02*
X127492856Y-61425000D01*
X127588094Y-61377380D01*
X127826189Y-61377380D01*
X127921427Y-61425000D01*
X127969046Y-61472619D01*
X128016665Y-61567857D01*
X128016665Y-61663095D01*
X127969046Y-61805952D01*
X127397618Y-62377380D01*
X128016665Y-62377380D01*
X119966666Y-93502380D02*
X119966666Y-94216666D01*
X119919047Y-94359523D01*
X119823809Y-94454761D01*
X119680952Y-94502380D01*
X119585714Y-94502380D01*
X120347619Y-93502380D02*
X120966666Y-93502380D01*
X120633333Y-93883333D01*
X120776190Y-93883333D01*
X120871428Y-93930952D01*
X120919047Y-93978571D01*
X120966666Y-94073809D01*
X120966666Y-94311904D01*
X120919047Y-94407142D01*
X120871428Y-94454761D01*
X120776190Y-94502380D01*
X120490476Y-94502380D01*
X120395238Y-94454761D01*
X120347619Y-94407142D01*
X113522380Y-93008333D02*
X114236666Y-93008333D01*
X114379523Y-93055952D01*
X114474761Y-93151190D01*
X114522380Y-93294047D01*
X114522380Y-93389285D01*
X114522380Y-92532142D02*
X113522380Y-92532142D01*
X113522380Y-92151190D01*
X113570000Y-92055952D01*
X113617619Y-92008333D01*
X113712857Y-91960714D01*
X113855714Y-91960714D01*
X113950952Y-92008333D01*
X113998571Y-92055952D01*
X114046190Y-92151190D01*
X114046190Y-92532142D01*
X113522380Y-91103571D02*
X113522380Y-91294047D01*
X113570000Y-91389285D01*
X113617619Y-91436904D01*
X113760476Y-91532142D01*
X113950952Y-91579761D01*
X114331904Y-91579761D01*
X114427142Y-91532142D01*
X114474761Y-91484523D01*
X114522380Y-91389285D01*
X114522380Y-91198809D01*
X114474761Y-91103571D01*
X114427142Y-91055952D01*
X114331904Y-91008333D01*
X114093809Y-91008333D01*
X113998571Y-91055952D01*
X113950952Y-91103571D01*
X113903333Y-91198809D01*
X113903333Y-91389285D01*
X113950952Y-91484523D01*
X113998571Y-91532142D01*
X114093809Y-91579761D01*
M02*
