G04 #@! TF.GenerationSoftware,KiCad,Pcbnew,5.1.5+dfsg1-2build2*
G04 #@! TF.CreationDate,2022-03-13T21:19:34-04:00*
G04 #@! TF.ProjectId,vdg_breakout,7664675f-6272-4656-916b-6f75742e6b69,rev?*
G04 #@! TF.SameCoordinates,Original*
G04 #@! TF.FileFunction,Soldermask,Bot*
G04 #@! TF.FilePolarity,Negative*
%FSLAX46Y46*%
G04 Gerber Fmt 4.6, Leading zero omitted, Abs format (unit mm)*
G04 Created by KiCad (PCBNEW 5.1.5+dfsg1-2build2) date 2022-03-13 21:19:34*
%MOMM*%
%LPD*%
G04 APERTURE LIST*
%ADD10C,0.100000*%
G04 APERTURE END LIST*
D10*
G36*
X140488229Y-108066704D02*
G01*
X140643101Y-108130854D01*
X140782482Y-108223986D01*
X140901016Y-108342520D01*
X140994148Y-108481901D01*
X141058298Y-108636773D01*
X141091001Y-108801185D01*
X141091001Y-108968817D01*
X141058298Y-109133229D01*
X140994148Y-109288101D01*
X140901016Y-109427482D01*
X140782482Y-109546016D01*
X140643101Y-109639148D01*
X140488229Y-109703298D01*
X140323817Y-109736001D01*
X140156185Y-109736001D01*
X139991773Y-109703298D01*
X139836901Y-109639148D01*
X139697520Y-109546016D01*
X139578986Y-109427482D01*
X139485854Y-109288101D01*
X139421704Y-109133229D01*
X139389001Y-108968817D01*
X139389001Y-108801185D01*
X139421704Y-108636773D01*
X139485854Y-108481901D01*
X139578986Y-108342520D01*
X139697520Y-108223986D01*
X139836901Y-108130854D01*
X139991773Y-108066704D01*
X140156185Y-108034001D01*
X140323817Y-108034001D01*
X140488229Y-108066704D01*
G37*
G36*
X125248229Y-108066704D02*
G01*
X125403101Y-108130854D01*
X125542482Y-108223986D01*
X125661016Y-108342520D01*
X125754148Y-108481901D01*
X125818298Y-108636773D01*
X125851001Y-108801185D01*
X125851001Y-108968817D01*
X125818298Y-109133229D01*
X125754148Y-109288101D01*
X125661016Y-109427482D01*
X125542482Y-109546016D01*
X125403101Y-109639148D01*
X125248229Y-109703298D01*
X125083817Y-109736001D01*
X124916185Y-109736001D01*
X124751773Y-109703298D01*
X124596901Y-109639148D01*
X124457520Y-109546016D01*
X124338986Y-109427482D01*
X124245854Y-109288101D01*
X124181704Y-109133229D01*
X124149001Y-108968817D01*
X124149001Y-108801185D01*
X124181704Y-108636773D01*
X124245854Y-108481901D01*
X124338986Y-108342520D01*
X124457520Y-108223986D01*
X124596901Y-108130854D01*
X124751773Y-108066704D01*
X124916185Y-108034001D01*
X125083817Y-108034001D01*
X125248229Y-108066704D01*
G37*
G36*
X123223228Y-108066704D02*
G01*
X123378100Y-108130854D01*
X123517481Y-108223986D01*
X123636015Y-108342520D01*
X123729147Y-108481901D01*
X123793297Y-108636773D01*
X123826000Y-108801185D01*
X123826000Y-108968817D01*
X123793297Y-109133229D01*
X123729147Y-109288101D01*
X123636015Y-109427482D01*
X123517481Y-109546016D01*
X123378100Y-109639148D01*
X123223228Y-109703298D01*
X123058816Y-109736001D01*
X122891184Y-109736001D01*
X122726772Y-109703298D01*
X122571900Y-109639148D01*
X122432519Y-109546016D01*
X122313985Y-109427482D01*
X122220853Y-109288101D01*
X122156703Y-109133229D01*
X122124000Y-108968817D01*
X122124000Y-108801185D01*
X122156703Y-108636773D01*
X122220853Y-108481901D01*
X122313985Y-108342520D01*
X122432519Y-108223986D01*
X122571900Y-108130854D01*
X122726772Y-108066704D01*
X122891184Y-108034001D01*
X123058816Y-108034001D01*
X123223228Y-108066704D01*
G37*
G36*
X138463228Y-108066704D02*
G01*
X138618100Y-108130854D01*
X138757481Y-108223986D01*
X138876015Y-108342520D01*
X138969147Y-108481901D01*
X139033297Y-108636773D01*
X139066000Y-108801185D01*
X139066000Y-108968817D01*
X139033297Y-109133229D01*
X138969147Y-109288101D01*
X138876015Y-109427482D01*
X138757481Y-109546016D01*
X138618100Y-109639148D01*
X138463228Y-109703298D01*
X138298816Y-109736001D01*
X138131184Y-109736001D01*
X137966772Y-109703298D01*
X137811900Y-109639148D01*
X137672519Y-109546016D01*
X137553985Y-109427482D01*
X137460853Y-109288101D01*
X137396703Y-109133229D01*
X137364000Y-108968817D01*
X137364000Y-108801185D01*
X137396703Y-108636773D01*
X137460853Y-108481901D01*
X137553985Y-108342520D01*
X137672519Y-108223986D01*
X137811900Y-108130854D01*
X137966772Y-108066704D01*
X138131184Y-108034001D01*
X138298816Y-108034001D01*
X138463228Y-108066704D01*
G37*
G36*
X138463228Y-105526704D02*
G01*
X138618100Y-105590854D01*
X138757481Y-105683986D01*
X138876015Y-105802520D01*
X138969147Y-105941901D01*
X139033297Y-106096773D01*
X139066000Y-106261185D01*
X139066000Y-106428817D01*
X139033297Y-106593229D01*
X138969147Y-106748101D01*
X138876015Y-106887482D01*
X138757481Y-107006016D01*
X138618100Y-107099148D01*
X138463228Y-107163298D01*
X138298816Y-107196001D01*
X138131184Y-107196001D01*
X137966772Y-107163298D01*
X137811900Y-107099148D01*
X137672519Y-107006016D01*
X137553985Y-106887482D01*
X137460853Y-106748101D01*
X137396703Y-106593229D01*
X137364000Y-106428817D01*
X137364000Y-106261185D01*
X137396703Y-106096773D01*
X137460853Y-105941901D01*
X137553985Y-105802520D01*
X137672519Y-105683986D01*
X137811900Y-105590854D01*
X137966772Y-105526704D01*
X138131184Y-105494001D01*
X138298816Y-105494001D01*
X138463228Y-105526704D01*
G37*
G36*
X125248229Y-105526704D02*
G01*
X125403101Y-105590854D01*
X125542482Y-105683986D01*
X125661016Y-105802520D01*
X125754148Y-105941901D01*
X125818298Y-106096773D01*
X125851001Y-106261185D01*
X125851001Y-106428817D01*
X125818298Y-106593229D01*
X125754148Y-106748101D01*
X125661016Y-106887482D01*
X125542482Y-107006016D01*
X125403101Y-107099148D01*
X125248229Y-107163298D01*
X125083817Y-107196001D01*
X124916185Y-107196001D01*
X124751773Y-107163298D01*
X124596901Y-107099148D01*
X124457520Y-107006016D01*
X124338986Y-106887482D01*
X124245854Y-106748101D01*
X124181704Y-106593229D01*
X124149001Y-106428817D01*
X124149001Y-106261185D01*
X124181704Y-106096773D01*
X124245854Y-105941901D01*
X124338986Y-105802520D01*
X124457520Y-105683986D01*
X124596901Y-105590854D01*
X124751773Y-105526704D01*
X124916185Y-105494001D01*
X125083817Y-105494001D01*
X125248229Y-105526704D01*
G37*
G36*
X140488229Y-105526704D02*
G01*
X140643101Y-105590854D01*
X140782482Y-105683986D01*
X140901016Y-105802520D01*
X140994148Y-105941901D01*
X141058298Y-106096773D01*
X141091001Y-106261185D01*
X141091001Y-106428817D01*
X141058298Y-106593229D01*
X140994148Y-106748101D01*
X140901016Y-106887482D01*
X140782482Y-107006016D01*
X140643101Y-107099148D01*
X140488229Y-107163298D01*
X140323817Y-107196001D01*
X140156185Y-107196001D01*
X139991773Y-107163298D01*
X139836901Y-107099148D01*
X139697520Y-107006016D01*
X139578986Y-106887482D01*
X139485854Y-106748101D01*
X139421704Y-106593229D01*
X139389001Y-106428817D01*
X139389001Y-106261185D01*
X139421704Y-106096773D01*
X139485854Y-105941901D01*
X139578986Y-105802520D01*
X139697520Y-105683986D01*
X139836901Y-105590854D01*
X139991773Y-105526704D01*
X140156185Y-105494001D01*
X140323817Y-105494001D01*
X140488229Y-105526704D01*
G37*
G36*
X123223228Y-105526704D02*
G01*
X123378100Y-105590854D01*
X123517481Y-105683986D01*
X123636015Y-105802520D01*
X123729147Y-105941901D01*
X123793297Y-106096773D01*
X123826000Y-106261185D01*
X123826000Y-106428817D01*
X123793297Y-106593229D01*
X123729147Y-106748101D01*
X123636015Y-106887482D01*
X123517481Y-107006016D01*
X123378100Y-107099148D01*
X123223228Y-107163298D01*
X123058816Y-107196001D01*
X122891184Y-107196001D01*
X122726772Y-107163298D01*
X122571900Y-107099148D01*
X122432519Y-107006016D01*
X122313985Y-106887482D01*
X122220853Y-106748101D01*
X122156703Y-106593229D01*
X122124000Y-106428817D01*
X122124000Y-106261185D01*
X122156703Y-106096773D01*
X122220853Y-105941901D01*
X122313985Y-105802520D01*
X122432519Y-105683986D01*
X122571900Y-105590854D01*
X122726772Y-105526704D01*
X122891184Y-105494001D01*
X123058816Y-105494001D01*
X123223228Y-105526704D01*
G37*
G36*
X115088512Y-103983927D02*
G01*
X115237812Y-104013624D01*
X115401784Y-104081544D01*
X115549354Y-104180147D01*
X115674853Y-104305646D01*
X115773456Y-104453216D01*
X115841376Y-104617188D01*
X115876000Y-104791259D01*
X115876000Y-104968741D01*
X115841376Y-105142812D01*
X115773456Y-105306784D01*
X115674853Y-105454354D01*
X115549354Y-105579853D01*
X115401784Y-105678456D01*
X115237812Y-105746376D01*
X115088512Y-105776073D01*
X115063742Y-105781000D01*
X114886258Y-105781000D01*
X114861488Y-105776073D01*
X114712188Y-105746376D01*
X114548216Y-105678456D01*
X114400646Y-105579853D01*
X114275147Y-105454354D01*
X114176544Y-105306784D01*
X114108624Y-105142812D01*
X114074000Y-104968741D01*
X114074000Y-104791259D01*
X114108624Y-104617188D01*
X114176544Y-104453216D01*
X114275147Y-104305646D01*
X114400646Y-104180147D01*
X114548216Y-104081544D01*
X114712188Y-104013624D01*
X114861488Y-103983927D01*
X114886258Y-103979000D01*
X115063742Y-103979000D01*
X115088512Y-103983927D01*
G37*
G36*
X117628512Y-103983927D02*
G01*
X117777812Y-104013624D01*
X117941784Y-104081544D01*
X118089354Y-104180147D01*
X118214853Y-104305646D01*
X118313456Y-104453216D01*
X118381376Y-104617188D01*
X118416000Y-104791259D01*
X118416000Y-104968741D01*
X118381376Y-105142812D01*
X118313456Y-105306784D01*
X118214853Y-105454354D01*
X118089354Y-105579853D01*
X117941784Y-105678456D01*
X117777812Y-105746376D01*
X117628512Y-105776073D01*
X117603742Y-105781000D01*
X117426258Y-105781000D01*
X117401488Y-105776073D01*
X117252188Y-105746376D01*
X117088216Y-105678456D01*
X116940646Y-105579853D01*
X116815147Y-105454354D01*
X116716544Y-105306784D01*
X116648624Y-105142812D01*
X116614000Y-104968741D01*
X116614000Y-104791259D01*
X116648624Y-104617188D01*
X116716544Y-104453216D01*
X116815147Y-104305646D01*
X116940646Y-104180147D01*
X117088216Y-104081544D01*
X117252188Y-104013624D01*
X117401488Y-103983927D01*
X117426258Y-103979000D01*
X117603742Y-103979000D01*
X117628512Y-103983927D01*
G37*
G36*
X123223228Y-102986704D02*
G01*
X123378100Y-103050854D01*
X123517481Y-103143986D01*
X123636015Y-103262520D01*
X123729147Y-103401901D01*
X123793297Y-103556773D01*
X123826000Y-103721185D01*
X123826000Y-103888817D01*
X123793297Y-104053229D01*
X123729147Y-104208101D01*
X123636015Y-104347482D01*
X123517481Y-104466016D01*
X123378100Y-104559148D01*
X123223228Y-104623298D01*
X123058816Y-104656001D01*
X122891184Y-104656001D01*
X122726772Y-104623298D01*
X122571900Y-104559148D01*
X122432519Y-104466016D01*
X122313985Y-104347482D01*
X122220853Y-104208101D01*
X122156703Y-104053229D01*
X122124000Y-103888817D01*
X122124000Y-103721185D01*
X122156703Y-103556773D01*
X122220853Y-103401901D01*
X122313985Y-103262520D01*
X122432519Y-103143986D01*
X122571900Y-103050854D01*
X122726772Y-102986704D01*
X122891184Y-102954001D01*
X123058816Y-102954001D01*
X123223228Y-102986704D01*
G37*
G36*
X138463228Y-102986704D02*
G01*
X138618100Y-103050854D01*
X138757481Y-103143986D01*
X138876015Y-103262520D01*
X138969147Y-103401901D01*
X139033297Y-103556773D01*
X139066000Y-103721185D01*
X139066000Y-103888817D01*
X139033297Y-104053229D01*
X138969147Y-104208101D01*
X138876015Y-104347482D01*
X138757481Y-104466016D01*
X138618100Y-104559148D01*
X138463228Y-104623298D01*
X138298816Y-104656001D01*
X138131184Y-104656001D01*
X137966772Y-104623298D01*
X137811900Y-104559148D01*
X137672519Y-104466016D01*
X137553985Y-104347482D01*
X137460853Y-104208101D01*
X137396703Y-104053229D01*
X137364000Y-103888817D01*
X137364000Y-103721185D01*
X137396703Y-103556773D01*
X137460853Y-103401901D01*
X137553985Y-103262520D01*
X137672519Y-103143986D01*
X137811900Y-103050854D01*
X137966772Y-102986704D01*
X138131184Y-102954001D01*
X138298816Y-102954001D01*
X138463228Y-102986704D01*
G37*
G36*
X125248229Y-102986704D02*
G01*
X125403101Y-103050854D01*
X125542482Y-103143986D01*
X125661016Y-103262520D01*
X125754148Y-103401901D01*
X125818298Y-103556773D01*
X125851001Y-103721185D01*
X125851001Y-103888817D01*
X125818298Y-104053229D01*
X125754148Y-104208101D01*
X125661016Y-104347482D01*
X125542482Y-104466016D01*
X125403101Y-104559148D01*
X125248229Y-104623298D01*
X125083817Y-104656001D01*
X124916185Y-104656001D01*
X124751773Y-104623298D01*
X124596901Y-104559148D01*
X124457520Y-104466016D01*
X124338986Y-104347482D01*
X124245854Y-104208101D01*
X124181704Y-104053229D01*
X124149001Y-103888817D01*
X124149001Y-103721185D01*
X124181704Y-103556773D01*
X124245854Y-103401901D01*
X124338986Y-103262520D01*
X124457520Y-103143986D01*
X124596901Y-103050854D01*
X124751773Y-102986704D01*
X124916185Y-102954001D01*
X125083817Y-102954001D01*
X125248229Y-102986704D01*
G37*
G36*
X140488229Y-102986704D02*
G01*
X140643101Y-103050854D01*
X140782482Y-103143986D01*
X140901016Y-103262520D01*
X140994148Y-103401901D01*
X141058298Y-103556773D01*
X141091001Y-103721185D01*
X141091001Y-103888817D01*
X141058298Y-104053229D01*
X140994148Y-104208101D01*
X140901016Y-104347482D01*
X140782482Y-104466016D01*
X140643101Y-104559148D01*
X140488229Y-104623298D01*
X140323817Y-104656001D01*
X140156185Y-104656001D01*
X139991773Y-104623298D01*
X139836901Y-104559148D01*
X139697520Y-104466016D01*
X139578986Y-104347482D01*
X139485854Y-104208101D01*
X139421704Y-104053229D01*
X139389001Y-103888817D01*
X139389001Y-103721185D01*
X139421704Y-103556773D01*
X139485854Y-103401901D01*
X139578986Y-103262520D01*
X139697520Y-103143986D01*
X139836901Y-103050854D01*
X139991773Y-102986704D01*
X140156185Y-102954001D01*
X140323817Y-102954001D01*
X140488229Y-102986704D01*
G37*
G36*
X115088512Y-101443927D02*
G01*
X115237812Y-101473624D01*
X115401784Y-101541544D01*
X115549354Y-101640147D01*
X115674853Y-101765646D01*
X115773456Y-101913216D01*
X115841376Y-102077188D01*
X115876000Y-102251259D01*
X115876000Y-102428741D01*
X115841376Y-102602812D01*
X115773456Y-102766784D01*
X115674853Y-102914354D01*
X115549354Y-103039853D01*
X115401784Y-103138456D01*
X115237812Y-103206376D01*
X115088512Y-103236073D01*
X115063742Y-103241000D01*
X114886258Y-103241000D01*
X114861488Y-103236073D01*
X114712188Y-103206376D01*
X114548216Y-103138456D01*
X114400646Y-103039853D01*
X114275147Y-102914354D01*
X114176544Y-102766784D01*
X114108624Y-102602812D01*
X114074000Y-102428741D01*
X114074000Y-102251259D01*
X114108624Y-102077188D01*
X114176544Y-101913216D01*
X114275147Y-101765646D01*
X114400646Y-101640147D01*
X114548216Y-101541544D01*
X114712188Y-101473624D01*
X114861488Y-101443927D01*
X114886258Y-101439000D01*
X115063742Y-101439000D01*
X115088512Y-101443927D01*
G37*
G36*
X117628512Y-101443927D02*
G01*
X117777812Y-101473624D01*
X117941784Y-101541544D01*
X118089354Y-101640147D01*
X118214853Y-101765646D01*
X118313456Y-101913216D01*
X118381376Y-102077188D01*
X118416000Y-102251259D01*
X118416000Y-102428741D01*
X118381376Y-102602812D01*
X118313456Y-102766784D01*
X118214853Y-102914354D01*
X118089354Y-103039853D01*
X117941784Y-103138456D01*
X117777812Y-103206376D01*
X117628512Y-103236073D01*
X117603742Y-103241000D01*
X117426258Y-103241000D01*
X117401488Y-103236073D01*
X117252188Y-103206376D01*
X117088216Y-103138456D01*
X116940646Y-103039853D01*
X116815147Y-102914354D01*
X116716544Y-102766784D01*
X116648624Y-102602812D01*
X116614000Y-102428741D01*
X116614000Y-102251259D01*
X116648624Y-102077188D01*
X116716544Y-101913216D01*
X116815147Y-101765646D01*
X116940646Y-101640147D01*
X117088216Y-101541544D01*
X117252188Y-101473624D01*
X117401488Y-101443927D01*
X117426258Y-101439000D01*
X117603742Y-101439000D01*
X117628512Y-101443927D01*
G37*
G36*
X138463228Y-100446704D02*
G01*
X138618100Y-100510854D01*
X138757481Y-100603986D01*
X138876015Y-100722520D01*
X138969147Y-100861901D01*
X139033297Y-101016773D01*
X139066000Y-101181185D01*
X139066000Y-101348817D01*
X139033297Y-101513229D01*
X138969147Y-101668101D01*
X138876015Y-101807482D01*
X138757481Y-101926016D01*
X138618100Y-102019148D01*
X138463228Y-102083298D01*
X138298816Y-102116001D01*
X138131184Y-102116001D01*
X137966772Y-102083298D01*
X137811900Y-102019148D01*
X137672519Y-101926016D01*
X137553985Y-101807482D01*
X137460853Y-101668101D01*
X137396703Y-101513229D01*
X137364000Y-101348817D01*
X137364000Y-101181185D01*
X137396703Y-101016773D01*
X137460853Y-100861901D01*
X137553985Y-100722520D01*
X137672519Y-100603986D01*
X137811900Y-100510854D01*
X137966772Y-100446704D01*
X138131184Y-100414001D01*
X138298816Y-100414001D01*
X138463228Y-100446704D01*
G37*
G36*
X123223228Y-100446704D02*
G01*
X123378100Y-100510854D01*
X123517481Y-100603986D01*
X123636015Y-100722520D01*
X123729147Y-100861901D01*
X123793297Y-101016773D01*
X123826000Y-101181185D01*
X123826000Y-101348817D01*
X123793297Y-101513229D01*
X123729147Y-101668101D01*
X123636015Y-101807482D01*
X123517481Y-101926016D01*
X123378100Y-102019148D01*
X123223228Y-102083298D01*
X123058816Y-102116001D01*
X122891184Y-102116001D01*
X122726772Y-102083298D01*
X122571900Y-102019148D01*
X122432519Y-101926016D01*
X122313985Y-101807482D01*
X122220853Y-101668101D01*
X122156703Y-101513229D01*
X122124000Y-101348817D01*
X122124000Y-101181185D01*
X122156703Y-101016773D01*
X122220853Y-100861901D01*
X122313985Y-100722520D01*
X122432519Y-100603986D01*
X122571900Y-100510854D01*
X122726772Y-100446704D01*
X122891184Y-100414001D01*
X123058816Y-100414001D01*
X123223228Y-100446704D01*
G37*
G36*
X125248229Y-100446704D02*
G01*
X125403101Y-100510854D01*
X125542482Y-100603986D01*
X125661016Y-100722520D01*
X125754148Y-100861901D01*
X125818298Y-101016773D01*
X125851001Y-101181185D01*
X125851001Y-101348817D01*
X125818298Y-101513229D01*
X125754148Y-101668101D01*
X125661016Y-101807482D01*
X125542482Y-101926016D01*
X125403101Y-102019148D01*
X125248229Y-102083298D01*
X125083817Y-102116001D01*
X124916185Y-102116001D01*
X124751773Y-102083298D01*
X124596901Y-102019148D01*
X124457520Y-101926016D01*
X124338986Y-101807482D01*
X124245854Y-101668101D01*
X124181704Y-101513229D01*
X124149001Y-101348817D01*
X124149001Y-101181185D01*
X124181704Y-101016773D01*
X124245854Y-100861901D01*
X124338986Y-100722520D01*
X124457520Y-100603986D01*
X124596901Y-100510854D01*
X124751773Y-100446704D01*
X124916185Y-100414001D01*
X125083817Y-100414001D01*
X125248229Y-100446704D01*
G37*
G36*
X140488229Y-100446704D02*
G01*
X140643101Y-100510854D01*
X140782482Y-100603986D01*
X140901016Y-100722520D01*
X140994148Y-100861901D01*
X141058298Y-101016773D01*
X141091001Y-101181185D01*
X141091001Y-101348817D01*
X141058298Y-101513229D01*
X140994148Y-101668101D01*
X140901016Y-101807482D01*
X140782482Y-101926016D01*
X140643101Y-102019148D01*
X140488229Y-102083298D01*
X140323817Y-102116001D01*
X140156185Y-102116001D01*
X139991773Y-102083298D01*
X139836901Y-102019148D01*
X139697520Y-101926016D01*
X139578986Y-101807482D01*
X139485854Y-101668101D01*
X139421704Y-101513229D01*
X139389001Y-101348817D01*
X139389001Y-101181185D01*
X139421704Y-101016773D01*
X139485854Y-100861901D01*
X139578986Y-100722520D01*
X139697520Y-100603986D01*
X139836901Y-100510854D01*
X139991773Y-100446704D01*
X140156185Y-100414001D01*
X140323817Y-100414001D01*
X140488229Y-100446704D01*
G37*
G36*
X117623796Y-98902989D02*
G01*
X117777812Y-98933624D01*
X117941784Y-99001544D01*
X118089354Y-99100147D01*
X118214853Y-99225646D01*
X118313456Y-99373216D01*
X118381376Y-99537188D01*
X118416000Y-99711259D01*
X118416000Y-99888741D01*
X118381376Y-100062812D01*
X118313456Y-100226784D01*
X118214853Y-100374354D01*
X118089354Y-100499853D01*
X117941784Y-100598456D01*
X117777812Y-100666376D01*
X117629341Y-100695908D01*
X117603742Y-100701000D01*
X117426258Y-100701000D01*
X117400659Y-100695908D01*
X117252188Y-100666376D01*
X117088216Y-100598456D01*
X116940646Y-100499853D01*
X116815147Y-100374354D01*
X116716544Y-100226784D01*
X116648624Y-100062812D01*
X116614000Y-99888741D01*
X116614000Y-99711259D01*
X116648624Y-99537188D01*
X116716544Y-99373216D01*
X116815147Y-99225646D01*
X116940646Y-99100147D01*
X117088216Y-99001544D01*
X117252188Y-98933624D01*
X117406204Y-98902989D01*
X117426258Y-98899000D01*
X117603742Y-98899000D01*
X117623796Y-98902989D01*
G37*
G36*
X115733600Y-98902989D02*
G01*
X115766652Y-98913015D01*
X115797103Y-98929292D01*
X115823799Y-98951201D01*
X115845708Y-98977897D01*
X115861985Y-99008348D01*
X115872011Y-99041400D01*
X115876000Y-99081903D01*
X115876000Y-100518097D01*
X115872011Y-100558600D01*
X115861985Y-100591652D01*
X115845708Y-100622103D01*
X115823799Y-100648799D01*
X115797103Y-100670708D01*
X115766652Y-100686985D01*
X115733600Y-100697011D01*
X115693097Y-100701000D01*
X114256903Y-100701000D01*
X114216400Y-100697011D01*
X114183348Y-100686985D01*
X114152897Y-100670708D01*
X114126201Y-100648799D01*
X114104292Y-100622103D01*
X114088015Y-100591652D01*
X114077989Y-100558600D01*
X114074000Y-100518097D01*
X114074000Y-99081903D01*
X114077989Y-99041400D01*
X114088015Y-99008348D01*
X114104292Y-98977897D01*
X114126201Y-98951201D01*
X114152897Y-98929292D01*
X114183348Y-98913015D01*
X114216400Y-98902989D01*
X114256903Y-98899000D01*
X115693097Y-98899000D01*
X115733600Y-98902989D01*
G37*
G36*
X125248229Y-97906704D02*
G01*
X125403101Y-97970854D01*
X125542482Y-98063986D01*
X125661016Y-98182520D01*
X125754148Y-98321901D01*
X125818298Y-98476773D01*
X125851001Y-98641185D01*
X125851001Y-98808817D01*
X125818298Y-98973229D01*
X125754148Y-99128101D01*
X125661016Y-99267482D01*
X125542482Y-99386016D01*
X125403101Y-99479148D01*
X125248229Y-99543298D01*
X125083817Y-99576001D01*
X124916185Y-99576001D01*
X124751773Y-99543298D01*
X124596901Y-99479148D01*
X124457520Y-99386016D01*
X124338986Y-99267482D01*
X124245854Y-99128101D01*
X124181704Y-98973229D01*
X124149001Y-98808817D01*
X124149001Y-98641185D01*
X124181704Y-98476773D01*
X124245854Y-98321901D01*
X124338986Y-98182520D01*
X124457520Y-98063986D01*
X124596901Y-97970854D01*
X124751773Y-97906704D01*
X124916185Y-97874001D01*
X125083817Y-97874001D01*
X125248229Y-97906704D01*
G37*
G36*
X140488229Y-97906704D02*
G01*
X140643101Y-97970854D01*
X140782482Y-98063986D01*
X140901016Y-98182520D01*
X140994148Y-98321901D01*
X141058298Y-98476773D01*
X141091001Y-98641185D01*
X141091001Y-98808817D01*
X141058298Y-98973229D01*
X140994148Y-99128101D01*
X140901016Y-99267482D01*
X140782482Y-99386016D01*
X140643101Y-99479148D01*
X140488229Y-99543298D01*
X140323817Y-99576001D01*
X140156185Y-99576001D01*
X139991773Y-99543298D01*
X139836901Y-99479148D01*
X139697520Y-99386016D01*
X139578986Y-99267482D01*
X139485854Y-99128101D01*
X139421704Y-98973229D01*
X139389001Y-98808817D01*
X139389001Y-98641185D01*
X139421704Y-98476773D01*
X139485854Y-98321901D01*
X139578986Y-98182520D01*
X139697520Y-98063986D01*
X139836901Y-97970854D01*
X139991773Y-97906704D01*
X140156185Y-97874001D01*
X140323817Y-97874001D01*
X140488229Y-97906704D01*
G37*
G36*
X138463228Y-97906704D02*
G01*
X138618100Y-97970854D01*
X138757481Y-98063986D01*
X138876015Y-98182520D01*
X138969147Y-98321901D01*
X139033297Y-98476773D01*
X139066000Y-98641185D01*
X139066000Y-98808817D01*
X139033297Y-98973229D01*
X138969147Y-99128101D01*
X138876015Y-99267482D01*
X138757481Y-99386016D01*
X138618100Y-99479148D01*
X138463228Y-99543298D01*
X138298816Y-99576001D01*
X138131184Y-99576001D01*
X137966772Y-99543298D01*
X137811900Y-99479148D01*
X137672519Y-99386016D01*
X137553985Y-99267482D01*
X137460853Y-99128101D01*
X137396703Y-98973229D01*
X137364000Y-98808817D01*
X137364000Y-98641185D01*
X137396703Y-98476773D01*
X137460853Y-98321901D01*
X137553985Y-98182520D01*
X137672519Y-98063986D01*
X137811900Y-97970854D01*
X137966772Y-97906704D01*
X138131184Y-97874001D01*
X138298816Y-97874001D01*
X138463228Y-97906704D01*
G37*
G36*
X123223228Y-97906704D02*
G01*
X123378100Y-97970854D01*
X123517481Y-98063986D01*
X123636015Y-98182520D01*
X123729147Y-98321901D01*
X123793297Y-98476773D01*
X123826000Y-98641185D01*
X123826000Y-98808817D01*
X123793297Y-98973229D01*
X123729147Y-99128101D01*
X123636015Y-99267482D01*
X123517481Y-99386016D01*
X123378100Y-99479148D01*
X123223228Y-99543298D01*
X123058816Y-99576001D01*
X122891184Y-99576001D01*
X122726772Y-99543298D01*
X122571900Y-99479148D01*
X122432519Y-99386016D01*
X122313985Y-99267482D01*
X122220853Y-99128101D01*
X122156703Y-98973229D01*
X122124000Y-98808817D01*
X122124000Y-98641185D01*
X122156703Y-98476773D01*
X122220853Y-98321901D01*
X122313985Y-98182520D01*
X122432519Y-98063986D01*
X122571900Y-97970854D01*
X122726772Y-97906704D01*
X122891184Y-97874001D01*
X123058816Y-97874001D01*
X123223228Y-97906704D01*
G37*
G36*
X138463228Y-95366704D02*
G01*
X138618100Y-95430854D01*
X138757481Y-95523986D01*
X138876015Y-95642520D01*
X138969147Y-95781901D01*
X139033297Y-95936773D01*
X139066000Y-96101185D01*
X139066000Y-96268817D01*
X139033297Y-96433229D01*
X138969147Y-96588101D01*
X138876015Y-96727482D01*
X138757481Y-96846016D01*
X138618100Y-96939148D01*
X138463228Y-97003298D01*
X138298816Y-97036001D01*
X138131184Y-97036001D01*
X137966772Y-97003298D01*
X137811900Y-96939148D01*
X137672519Y-96846016D01*
X137553985Y-96727482D01*
X137460853Y-96588101D01*
X137396703Y-96433229D01*
X137364000Y-96268817D01*
X137364000Y-96101185D01*
X137396703Y-95936773D01*
X137460853Y-95781901D01*
X137553985Y-95642520D01*
X137672519Y-95523986D01*
X137811900Y-95430854D01*
X137966772Y-95366704D01*
X138131184Y-95334001D01*
X138298816Y-95334001D01*
X138463228Y-95366704D01*
G37*
G36*
X125248229Y-95366704D02*
G01*
X125403101Y-95430854D01*
X125542482Y-95523986D01*
X125661016Y-95642520D01*
X125754148Y-95781901D01*
X125818298Y-95936773D01*
X125851001Y-96101185D01*
X125851001Y-96268817D01*
X125818298Y-96433229D01*
X125754148Y-96588101D01*
X125661016Y-96727482D01*
X125542482Y-96846016D01*
X125403101Y-96939148D01*
X125248229Y-97003298D01*
X125083817Y-97036001D01*
X124916185Y-97036001D01*
X124751773Y-97003298D01*
X124596901Y-96939148D01*
X124457520Y-96846016D01*
X124338986Y-96727482D01*
X124245854Y-96588101D01*
X124181704Y-96433229D01*
X124149001Y-96268817D01*
X124149001Y-96101185D01*
X124181704Y-95936773D01*
X124245854Y-95781901D01*
X124338986Y-95642520D01*
X124457520Y-95523986D01*
X124596901Y-95430854D01*
X124751773Y-95366704D01*
X124916185Y-95334001D01*
X125083817Y-95334001D01*
X125248229Y-95366704D01*
G37*
G36*
X123223228Y-95366704D02*
G01*
X123378100Y-95430854D01*
X123517481Y-95523986D01*
X123636015Y-95642520D01*
X123729147Y-95781901D01*
X123793297Y-95936773D01*
X123826000Y-96101185D01*
X123826000Y-96268817D01*
X123793297Y-96433229D01*
X123729147Y-96588101D01*
X123636015Y-96727482D01*
X123517481Y-96846016D01*
X123378100Y-96939148D01*
X123223228Y-97003298D01*
X123058816Y-97036001D01*
X122891184Y-97036001D01*
X122726772Y-97003298D01*
X122571900Y-96939148D01*
X122432519Y-96846016D01*
X122313985Y-96727482D01*
X122220853Y-96588101D01*
X122156703Y-96433229D01*
X122124000Y-96268817D01*
X122124000Y-96101185D01*
X122156703Y-95936773D01*
X122220853Y-95781901D01*
X122313985Y-95642520D01*
X122432519Y-95523986D01*
X122571900Y-95430854D01*
X122726772Y-95366704D01*
X122891184Y-95334001D01*
X123058816Y-95334001D01*
X123223228Y-95366704D01*
G37*
G36*
X140488229Y-95366704D02*
G01*
X140643101Y-95430854D01*
X140782482Y-95523986D01*
X140901016Y-95642520D01*
X140994148Y-95781901D01*
X141058298Y-95936773D01*
X141091001Y-96101185D01*
X141091001Y-96268817D01*
X141058298Y-96433229D01*
X140994148Y-96588101D01*
X140901016Y-96727482D01*
X140782482Y-96846016D01*
X140643101Y-96939148D01*
X140488229Y-97003298D01*
X140323817Y-97036001D01*
X140156185Y-97036001D01*
X139991773Y-97003298D01*
X139836901Y-96939148D01*
X139697520Y-96846016D01*
X139578986Y-96727482D01*
X139485854Y-96588101D01*
X139421704Y-96433229D01*
X139389001Y-96268817D01*
X139389001Y-96101185D01*
X139421704Y-95936773D01*
X139485854Y-95781901D01*
X139578986Y-95642520D01*
X139697520Y-95523986D01*
X139836901Y-95430854D01*
X139991773Y-95366704D01*
X140156185Y-95334001D01*
X140323817Y-95334001D01*
X140488229Y-95366704D01*
G37*
G36*
X125248229Y-92826704D02*
G01*
X125403101Y-92890854D01*
X125542482Y-92983986D01*
X125661016Y-93102520D01*
X125754148Y-93241901D01*
X125818298Y-93396773D01*
X125851001Y-93561185D01*
X125851001Y-93728817D01*
X125818298Y-93893229D01*
X125754148Y-94048101D01*
X125661016Y-94187482D01*
X125542482Y-94306016D01*
X125403101Y-94399148D01*
X125248229Y-94463298D01*
X125083817Y-94496001D01*
X124916185Y-94496001D01*
X124751773Y-94463298D01*
X124596901Y-94399148D01*
X124457520Y-94306016D01*
X124338986Y-94187482D01*
X124245854Y-94048101D01*
X124181704Y-93893229D01*
X124149001Y-93728817D01*
X124149001Y-93561185D01*
X124181704Y-93396773D01*
X124245854Y-93241901D01*
X124338986Y-93102520D01*
X124457520Y-92983986D01*
X124596901Y-92890854D01*
X124751773Y-92826704D01*
X124916185Y-92794001D01*
X125083817Y-92794001D01*
X125248229Y-92826704D01*
G37*
G36*
X140488229Y-92826704D02*
G01*
X140643101Y-92890854D01*
X140782482Y-92983986D01*
X140901016Y-93102520D01*
X140994148Y-93241901D01*
X141058298Y-93396773D01*
X141091001Y-93561185D01*
X141091001Y-93728817D01*
X141058298Y-93893229D01*
X140994148Y-94048101D01*
X140901016Y-94187482D01*
X140782482Y-94306016D01*
X140643101Y-94399148D01*
X140488229Y-94463298D01*
X140323817Y-94496001D01*
X140156185Y-94496001D01*
X139991773Y-94463298D01*
X139836901Y-94399148D01*
X139697520Y-94306016D01*
X139578986Y-94187482D01*
X139485854Y-94048101D01*
X139421704Y-93893229D01*
X139389001Y-93728817D01*
X139389001Y-93561185D01*
X139421704Y-93396773D01*
X139485854Y-93241901D01*
X139578986Y-93102520D01*
X139697520Y-92983986D01*
X139836901Y-92890854D01*
X139991773Y-92826704D01*
X140156185Y-92794001D01*
X140323817Y-92794001D01*
X140488229Y-92826704D01*
G37*
G36*
X138463228Y-92826704D02*
G01*
X138618100Y-92890854D01*
X138757481Y-92983986D01*
X138876015Y-93102520D01*
X138969147Y-93241901D01*
X139033297Y-93396773D01*
X139066000Y-93561185D01*
X139066000Y-93728817D01*
X139033297Y-93893229D01*
X138969147Y-94048101D01*
X138876015Y-94187482D01*
X138757481Y-94306016D01*
X138618100Y-94399148D01*
X138463228Y-94463298D01*
X138298816Y-94496001D01*
X138131184Y-94496001D01*
X137966772Y-94463298D01*
X137811900Y-94399148D01*
X137672519Y-94306016D01*
X137553985Y-94187482D01*
X137460853Y-94048101D01*
X137396703Y-93893229D01*
X137364000Y-93728817D01*
X137364000Y-93561185D01*
X137396703Y-93396773D01*
X137460853Y-93241901D01*
X137553985Y-93102520D01*
X137672519Y-92983986D01*
X137811900Y-92890854D01*
X137966772Y-92826704D01*
X138131184Y-92794001D01*
X138298816Y-92794001D01*
X138463228Y-92826704D01*
G37*
G36*
X123223228Y-92826704D02*
G01*
X123378100Y-92890854D01*
X123517481Y-92983986D01*
X123636015Y-93102520D01*
X123729147Y-93241901D01*
X123793297Y-93396773D01*
X123826000Y-93561185D01*
X123826000Y-93728817D01*
X123793297Y-93893229D01*
X123729147Y-94048101D01*
X123636015Y-94187482D01*
X123517481Y-94306016D01*
X123378100Y-94399148D01*
X123223228Y-94463298D01*
X123058816Y-94496001D01*
X122891184Y-94496001D01*
X122726772Y-94463298D01*
X122571900Y-94399148D01*
X122432519Y-94306016D01*
X122313985Y-94187482D01*
X122220853Y-94048101D01*
X122156703Y-93893229D01*
X122124000Y-93728817D01*
X122124000Y-93561185D01*
X122156703Y-93396773D01*
X122220853Y-93241901D01*
X122313985Y-93102520D01*
X122432519Y-92983986D01*
X122571900Y-92890854D01*
X122726772Y-92826704D01*
X122891184Y-92794001D01*
X123058816Y-92794001D01*
X123223228Y-92826704D01*
G37*
G36*
X113462199Y-90899954D02*
G01*
X113474450Y-90900556D01*
X113492869Y-90900556D01*
X113515149Y-90902750D01*
X113599233Y-90919476D01*
X113620660Y-90925976D01*
X113699858Y-90958780D01*
X113705303Y-90961691D01*
X113705309Y-90961693D01*
X113714169Y-90966429D01*
X113714173Y-90966432D01*
X113719614Y-90969340D01*
X113790899Y-91016971D01*
X113808204Y-91031172D01*
X113868828Y-91091796D01*
X113883029Y-91109101D01*
X113930660Y-91180386D01*
X113933568Y-91185827D01*
X113933571Y-91185831D01*
X113938307Y-91194691D01*
X113938309Y-91194697D01*
X113941220Y-91200142D01*
X113974024Y-91279340D01*
X113980524Y-91300767D01*
X113997250Y-91384851D01*
X113999444Y-91407131D01*
X113999444Y-91425550D01*
X114000046Y-91437801D01*
X114001852Y-91456139D01*
X114001852Y-91943860D01*
X114000263Y-91959999D01*
X113997348Y-91969608D01*
X113992610Y-91978472D01*
X113986237Y-91986237D01*
X113973794Y-91996448D01*
X113963425Y-92003378D01*
X113946098Y-92020705D01*
X113932485Y-92041080D01*
X113923109Y-92063720D01*
X113918329Y-92087753D01*
X113918330Y-92112257D01*
X113923112Y-92136290D01*
X113932490Y-92158929D01*
X113946105Y-92179302D01*
X113963432Y-92196629D01*
X113973802Y-92203558D01*
X113986237Y-92213763D01*
X113992610Y-92221528D01*
X113997348Y-92230392D01*
X114000263Y-92240001D01*
X114001852Y-92256140D01*
X114001852Y-92743862D01*
X114000046Y-92762199D01*
X113999444Y-92774450D01*
X113999444Y-92792869D01*
X113997250Y-92815149D01*
X113980524Y-92899233D01*
X113974024Y-92920660D01*
X113941220Y-92999858D01*
X113938309Y-93005303D01*
X113938307Y-93005309D01*
X113933571Y-93014169D01*
X113933568Y-93014173D01*
X113930660Y-93019614D01*
X113883029Y-93090899D01*
X113868828Y-93108204D01*
X113808204Y-93168828D01*
X113790899Y-93183029D01*
X113719614Y-93230660D01*
X113714173Y-93233568D01*
X113714169Y-93233571D01*
X113705309Y-93238307D01*
X113705303Y-93238309D01*
X113699858Y-93241220D01*
X113620660Y-93274024D01*
X113599233Y-93280524D01*
X113515149Y-93297250D01*
X113492869Y-93299444D01*
X113474450Y-93299444D01*
X113462199Y-93300046D01*
X113443862Y-93301852D01*
X112956138Y-93301852D01*
X112937801Y-93300046D01*
X112925550Y-93299444D01*
X112907131Y-93299444D01*
X112884851Y-93297250D01*
X112800767Y-93280524D01*
X112779340Y-93274024D01*
X112700142Y-93241220D01*
X112694697Y-93238309D01*
X112694691Y-93238307D01*
X112685831Y-93233571D01*
X112685827Y-93233568D01*
X112680386Y-93230660D01*
X112609101Y-93183029D01*
X112591796Y-93168828D01*
X112531172Y-93108204D01*
X112516971Y-93090899D01*
X112469340Y-93019614D01*
X112466432Y-93014173D01*
X112466429Y-93014169D01*
X112461693Y-93005309D01*
X112461691Y-93005303D01*
X112458780Y-92999858D01*
X112425976Y-92920660D01*
X112419476Y-92899233D01*
X112402750Y-92815149D01*
X112400556Y-92792869D01*
X112400556Y-92774450D01*
X112399954Y-92762199D01*
X112398148Y-92743862D01*
X112398148Y-92256140D01*
X112399737Y-92240001D01*
X112402652Y-92230392D01*
X112407390Y-92221528D01*
X112413763Y-92213763D01*
X112426206Y-92203552D01*
X112436575Y-92196622D01*
X112453902Y-92179295D01*
X112467515Y-92158920D01*
X112476891Y-92136280D01*
X112481671Y-92112247D01*
X112481670Y-92087743D01*
X112476888Y-92063710D01*
X112467510Y-92041071D01*
X112453895Y-92020698D01*
X112436568Y-92003371D01*
X112426198Y-91996442D01*
X112413763Y-91986237D01*
X112407390Y-91978472D01*
X112402652Y-91969608D01*
X112399737Y-91959999D01*
X112398148Y-91943860D01*
X112398148Y-91456139D01*
X112399954Y-91437801D01*
X112400556Y-91425550D01*
X112400556Y-91407131D01*
X112402750Y-91384851D01*
X112419476Y-91300767D01*
X112425976Y-91279340D01*
X112458780Y-91200142D01*
X112461691Y-91194697D01*
X112461693Y-91194691D01*
X112466429Y-91185831D01*
X112466432Y-91185827D01*
X112469340Y-91180386D01*
X112516971Y-91109101D01*
X112531172Y-91091796D01*
X112591796Y-91031172D01*
X112609101Y-91016971D01*
X112680386Y-90969340D01*
X112685827Y-90966432D01*
X112685831Y-90966429D01*
X112694691Y-90961693D01*
X112694697Y-90961691D01*
X112700142Y-90958780D01*
X112779340Y-90925976D01*
X112800767Y-90919476D01*
X112884851Y-90902750D01*
X112907131Y-90900556D01*
X112925550Y-90900556D01*
X112937801Y-90899954D01*
X112956139Y-90898148D01*
X113443861Y-90898148D01*
X113462199Y-90899954D01*
G37*
G36*
X119053512Y-91278927D02*
G01*
X119202812Y-91308624D01*
X119366784Y-91376544D01*
X119514354Y-91475147D01*
X119639853Y-91600646D01*
X119738456Y-91748216D01*
X119806376Y-91912188D01*
X119841000Y-92086259D01*
X119841000Y-92263741D01*
X119806376Y-92437812D01*
X119738456Y-92601784D01*
X119639853Y-92749354D01*
X119514354Y-92874853D01*
X119366784Y-92973456D01*
X119202812Y-93041376D01*
X119053512Y-93071073D01*
X119028742Y-93076000D01*
X118851258Y-93076000D01*
X118826488Y-93071073D01*
X118677188Y-93041376D01*
X118513216Y-92973456D01*
X118365646Y-92874853D01*
X118240147Y-92749354D01*
X118141544Y-92601784D01*
X118073624Y-92437812D01*
X118039000Y-92263741D01*
X118039000Y-92086259D01*
X118073624Y-91912188D01*
X118141544Y-91748216D01*
X118240147Y-91600646D01*
X118365646Y-91475147D01*
X118513216Y-91376544D01*
X118677188Y-91308624D01*
X118826488Y-91278927D01*
X118851258Y-91274000D01*
X119028742Y-91274000D01*
X119053512Y-91278927D01*
G37*
G36*
X117301000Y-93076000D02*
G01*
X115499000Y-93076000D01*
X115499000Y-91274000D01*
X117301000Y-91274000D01*
X117301000Y-93076000D01*
G37*
G36*
X138463228Y-90286704D02*
G01*
X138618100Y-90350854D01*
X138757481Y-90443986D01*
X138876015Y-90562520D01*
X138969147Y-90701901D01*
X139033297Y-90856773D01*
X139066000Y-91021185D01*
X139066000Y-91188817D01*
X139033297Y-91353229D01*
X138969147Y-91508101D01*
X138876015Y-91647482D01*
X138757481Y-91766016D01*
X138618100Y-91859148D01*
X138463228Y-91923298D01*
X138298816Y-91956001D01*
X138131184Y-91956001D01*
X137966772Y-91923298D01*
X137811900Y-91859148D01*
X137672519Y-91766016D01*
X137553985Y-91647482D01*
X137460853Y-91508101D01*
X137396703Y-91353229D01*
X137364000Y-91188817D01*
X137364000Y-91021185D01*
X137396703Y-90856773D01*
X137460853Y-90701901D01*
X137553985Y-90562520D01*
X137672519Y-90443986D01*
X137811900Y-90350854D01*
X137966772Y-90286704D01*
X138131184Y-90254001D01*
X138298816Y-90254001D01*
X138463228Y-90286704D01*
G37*
G36*
X140488229Y-90286704D02*
G01*
X140643101Y-90350854D01*
X140782482Y-90443986D01*
X140901016Y-90562520D01*
X140994148Y-90701901D01*
X141058298Y-90856773D01*
X141091001Y-91021185D01*
X141091001Y-91188817D01*
X141058298Y-91353229D01*
X140994148Y-91508101D01*
X140901016Y-91647482D01*
X140782482Y-91766016D01*
X140643101Y-91859148D01*
X140488229Y-91923298D01*
X140323817Y-91956001D01*
X140156185Y-91956001D01*
X139991773Y-91923298D01*
X139836901Y-91859148D01*
X139697520Y-91766016D01*
X139578986Y-91647482D01*
X139485854Y-91508101D01*
X139421704Y-91353229D01*
X139389001Y-91188817D01*
X139389001Y-91021185D01*
X139421704Y-90856773D01*
X139485854Y-90701901D01*
X139578986Y-90562520D01*
X139697520Y-90443986D01*
X139836901Y-90350854D01*
X139991773Y-90286704D01*
X140156185Y-90254001D01*
X140323817Y-90254001D01*
X140488229Y-90286704D01*
G37*
G36*
X123223228Y-90286704D02*
G01*
X123378100Y-90350854D01*
X123517481Y-90443986D01*
X123636015Y-90562520D01*
X123729147Y-90701901D01*
X123793297Y-90856773D01*
X123826000Y-91021185D01*
X123826000Y-91188817D01*
X123793297Y-91353229D01*
X123729147Y-91508101D01*
X123636015Y-91647482D01*
X123517481Y-91766016D01*
X123378100Y-91859148D01*
X123223228Y-91923298D01*
X123058816Y-91956001D01*
X122891184Y-91956001D01*
X122726772Y-91923298D01*
X122571900Y-91859148D01*
X122432519Y-91766016D01*
X122313985Y-91647482D01*
X122220853Y-91508101D01*
X122156703Y-91353229D01*
X122124000Y-91188817D01*
X122124000Y-91021185D01*
X122156703Y-90856773D01*
X122220853Y-90701901D01*
X122313985Y-90562520D01*
X122432519Y-90443986D01*
X122571900Y-90350854D01*
X122726772Y-90286704D01*
X122891184Y-90254001D01*
X123058816Y-90254001D01*
X123223228Y-90286704D01*
G37*
G36*
X125248229Y-90286704D02*
G01*
X125403101Y-90350854D01*
X125542482Y-90443986D01*
X125661016Y-90562520D01*
X125754148Y-90701901D01*
X125818298Y-90856773D01*
X125851001Y-91021185D01*
X125851001Y-91188817D01*
X125818298Y-91353229D01*
X125754148Y-91508101D01*
X125661016Y-91647482D01*
X125542482Y-91766016D01*
X125403101Y-91859148D01*
X125248229Y-91923298D01*
X125083817Y-91956001D01*
X124916185Y-91956001D01*
X124751773Y-91923298D01*
X124596901Y-91859148D01*
X124457520Y-91766016D01*
X124338986Y-91647482D01*
X124245854Y-91508101D01*
X124181704Y-91353229D01*
X124149001Y-91188817D01*
X124149001Y-91021185D01*
X124181704Y-90856773D01*
X124245854Y-90701901D01*
X124338986Y-90562520D01*
X124457520Y-90443986D01*
X124596901Y-90350854D01*
X124751773Y-90286704D01*
X124916185Y-90254001D01*
X125083817Y-90254001D01*
X125248229Y-90286704D01*
G37*
G36*
X133037199Y-89474954D02*
G01*
X133049450Y-89475556D01*
X133067869Y-89475556D01*
X133090149Y-89477750D01*
X133174233Y-89494476D01*
X133195660Y-89500976D01*
X133274858Y-89533780D01*
X133280303Y-89536691D01*
X133280309Y-89536693D01*
X133289169Y-89541429D01*
X133289173Y-89541432D01*
X133294614Y-89544340D01*
X133365899Y-89591971D01*
X133383204Y-89606172D01*
X133443828Y-89666796D01*
X133458029Y-89684101D01*
X133505660Y-89755386D01*
X133508568Y-89760827D01*
X133508571Y-89760831D01*
X133513307Y-89769691D01*
X133513309Y-89769697D01*
X133516220Y-89775142D01*
X133549024Y-89854340D01*
X133555524Y-89875767D01*
X133572250Y-89959851D01*
X133574444Y-89982131D01*
X133574444Y-90000550D01*
X133575046Y-90012801D01*
X133576852Y-90031139D01*
X133576852Y-90518860D01*
X133575263Y-90534999D01*
X133572348Y-90544608D01*
X133567610Y-90553472D01*
X133561237Y-90561237D01*
X133548794Y-90571448D01*
X133538425Y-90578378D01*
X133521098Y-90595705D01*
X133507485Y-90616080D01*
X133498109Y-90638720D01*
X133493329Y-90662753D01*
X133493330Y-90687257D01*
X133498112Y-90711290D01*
X133507490Y-90733929D01*
X133521105Y-90754302D01*
X133538432Y-90771629D01*
X133548802Y-90778558D01*
X133561237Y-90788763D01*
X133567610Y-90796528D01*
X133572348Y-90805392D01*
X133575263Y-90815001D01*
X133576852Y-90831140D01*
X133576852Y-91318862D01*
X133575046Y-91337199D01*
X133574444Y-91349450D01*
X133574444Y-91367869D01*
X133572250Y-91390149D01*
X133555524Y-91474233D01*
X133549024Y-91495660D01*
X133516220Y-91574858D01*
X133513309Y-91580303D01*
X133513307Y-91580309D01*
X133508571Y-91589169D01*
X133508568Y-91589173D01*
X133505660Y-91594614D01*
X133458029Y-91665899D01*
X133443828Y-91683204D01*
X133383204Y-91743828D01*
X133365899Y-91758029D01*
X133294614Y-91805660D01*
X133289173Y-91808568D01*
X133289169Y-91808571D01*
X133280309Y-91813307D01*
X133280303Y-91813309D01*
X133274858Y-91816220D01*
X133195660Y-91849024D01*
X133174233Y-91855524D01*
X133090149Y-91872250D01*
X133067869Y-91874444D01*
X133049450Y-91874444D01*
X133037199Y-91875046D01*
X133018862Y-91876852D01*
X132531138Y-91876852D01*
X132512801Y-91875046D01*
X132500550Y-91874444D01*
X132482131Y-91874444D01*
X132459851Y-91872250D01*
X132375767Y-91855524D01*
X132354340Y-91849024D01*
X132275142Y-91816220D01*
X132269697Y-91813309D01*
X132269691Y-91813307D01*
X132260831Y-91808571D01*
X132260827Y-91808568D01*
X132255386Y-91805660D01*
X132184101Y-91758029D01*
X132166796Y-91743828D01*
X132106172Y-91683204D01*
X132091971Y-91665899D01*
X132044340Y-91594614D01*
X132041432Y-91589173D01*
X132041429Y-91589169D01*
X132036693Y-91580309D01*
X132036691Y-91580303D01*
X132033780Y-91574858D01*
X132000976Y-91495660D01*
X131994476Y-91474233D01*
X131977750Y-91390149D01*
X131975556Y-91367869D01*
X131975556Y-91349450D01*
X131974954Y-91337199D01*
X131973148Y-91318862D01*
X131973148Y-90831140D01*
X131974737Y-90815001D01*
X131977652Y-90805392D01*
X131982390Y-90796528D01*
X131988763Y-90788763D01*
X132001206Y-90778552D01*
X132011575Y-90771622D01*
X132028902Y-90754295D01*
X132042515Y-90733920D01*
X132051891Y-90711280D01*
X132056671Y-90687247D01*
X132056670Y-90662743D01*
X132051888Y-90638710D01*
X132042510Y-90616071D01*
X132028895Y-90595698D01*
X132011568Y-90578371D01*
X132001198Y-90571442D01*
X131988763Y-90561237D01*
X131982390Y-90553472D01*
X131977652Y-90544608D01*
X131974737Y-90534999D01*
X131973148Y-90518860D01*
X131973148Y-90031139D01*
X131974954Y-90012801D01*
X131975556Y-90000550D01*
X131975556Y-89982131D01*
X131977750Y-89959851D01*
X131994476Y-89875767D01*
X132000976Y-89854340D01*
X132033780Y-89775142D01*
X132036691Y-89769697D01*
X132036693Y-89769691D01*
X132041429Y-89760831D01*
X132041432Y-89760827D01*
X132044340Y-89755386D01*
X132091971Y-89684101D01*
X132106172Y-89666796D01*
X132166796Y-89606172D01*
X132184101Y-89591971D01*
X132255386Y-89544340D01*
X132260827Y-89541432D01*
X132260831Y-89541429D01*
X132269691Y-89536693D01*
X132269697Y-89536691D01*
X132275142Y-89533780D01*
X132354340Y-89500976D01*
X132375767Y-89494476D01*
X132459851Y-89477750D01*
X132482131Y-89475556D01*
X132500550Y-89475556D01*
X132512801Y-89474954D01*
X132531139Y-89473148D01*
X133018861Y-89473148D01*
X133037199Y-89474954D01*
G37*
G36*
X125248229Y-87746704D02*
G01*
X125403101Y-87810854D01*
X125542482Y-87903986D01*
X125661016Y-88022520D01*
X125754148Y-88161901D01*
X125818298Y-88316773D01*
X125851001Y-88481185D01*
X125851001Y-88648817D01*
X125818298Y-88813229D01*
X125754148Y-88968101D01*
X125661016Y-89107482D01*
X125542482Y-89226016D01*
X125403101Y-89319148D01*
X125248229Y-89383298D01*
X125083817Y-89416001D01*
X124916185Y-89416001D01*
X124751773Y-89383298D01*
X124596901Y-89319148D01*
X124457520Y-89226016D01*
X124338986Y-89107482D01*
X124245854Y-88968101D01*
X124181704Y-88813229D01*
X124149001Y-88648817D01*
X124149001Y-88481185D01*
X124181704Y-88316773D01*
X124245854Y-88161901D01*
X124338986Y-88022520D01*
X124457520Y-87903986D01*
X124596901Y-87810854D01*
X124751773Y-87746704D01*
X124916185Y-87714001D01*
X125083817Y-87714001D01*
X125248229Y-87746704D01*
G37*
G36*
X140488229Y-87746704D02*
G01*
X140643101Y-87810854D01*
X140782482Y-87903986D01*
X140901016Y-88022520D01*
X140994148Y-88161901D01*
X141058298Y-88316773D01*
X141091001Y-88481185D01*
X141091001Y-88648817D01*
X141058298Y-88813229D01*
X140994148Y-88968101D01*
X140901016Y-89107482D01*
X140782482Y-89226016D01*
X140643101Y-89319148D01*
X140488229Y-89383298D01*
X140323817Y-89416001D01*
X140156185Y-89416001D01*
X139991773Y-89383298D01*
X139836901Y-89319148D01*
X139697520Y-89226016D01*
X139578986Y-89107482D01*
X139485854Y-88968101D01*
X139421704Y-88813229D01*
X139389001Y-88648817D01*
X139389001Y-88481185D01*
X139421704Y-88316773D01*
X139485854Y-88161901D01*
X139578986Y-88022520D01*
X139697520Y-87903986D01*
X139836901Y-87810854D01*
X139991773Y-87746704D01*
X140156185Y-87714001D01*
X140323817Y-87714001D01*
X140488229Y-87746704D01*
G37*
G36*
X123223228Y-87746704D02*
G01*
X123378100Y-87810854D01*
X123517481Y-87903986D01*
X123636015Y-88022520D01*
X123729147Y-88161901D01*
X123793297Y-88316773D01*
X123826000Y-88481185D01*
X123826000Y-88648817D01*
X123793297Y-88813229D01*
X123729147Y-88968101D01*
X123636015Y-89107482D01*
X123517481Y-89226016D01*
X123378100Y-89319148D01*
X123223228Y-89383298D01*
X123058816Y-89416001D01*
X122891184Y-89416001D01*
X122726772Y-89383298D01*
X122571900Y-89319148D01*
X122432519Y-89226016D01*
X122313985Y-89107482D01*
X122220853Y-88968101D01*
X122156703Y-88813229D01*
X122124000Y-88648817D01*
X122124000Y-88481185D01*
X122156703Y-88316773D01*
X122220853Y-88161901D01*
X122313985Y-88022520D01*
X122432519Y-87903986D01*
X122571900Y-87810854D01*
X122726772Y-87746704D01*
X122891184Y-87714001D01*
X123058816Y-87714001D01*
X123223228Y-87746704D01*
G37*
G36*
X138463228Y-87746704D02*
G01*
X138618100Y-87810854D01*
X138757481Y-87903986D01*
X138876015Y-88022520D01*
X138969147Y-88161901D01*
X139033297Y-88316773D01*
X139066000Y-88481185D01*
X139066000Y-88648817D01*
X139033297Y-88813229D01*
X138969147Y-88968101D01*
X138876015Y-89107482D01*
X138757481Y-89226016D01*
X138618100Y-89319148D01*
X138463228Y-89383298D01*
X138298816Y-89416001D01*
X138131184Y-89416001D01*
X137966772Y-89383298D01*
X137811900Y-89319148D01*
X137672519Y-89226016D01*
X137553985Y-89107482D01*
X137460853Y-88968101D01*
X137396703Y-88813229D01*
X137364000Y-88648817D01*
X137364000Y-88481185D01*
X137396703Y-88316773D01*
X137460853Y-88161901D01*
X137553985Y-88022520D01*
X137672519Y-87903986D01*
X137811900Y-87810854D01*
X137966772Y-87746704D01*
X138131184Y-87714001D01*
X138298816Y-87714001D01*
X138463228Y-87746704D01*
G37*
G36*
X125248229Y-85206704D02*
G01*
X125403101Y-85270854D01*
X125542482Y-85363986D01*
X125661016Y-85482520D01*
X125754148Y-85621901D01*
X125818298Y-85776773D01*
X125851001Y-85941185D01*
X125851001Y-86108817D01*
X125818298Y-86273229D01*
X125754148Y-86428101D01*
X125661016Y-86567482D01*
X125542482Y-86686016D01*
X125403101Y-86779148D01*
X125248229Y-86843298D01*
X125083817Y-86876001D01*
X124916185Y-86876001D01*
X124751773Y-86843298D01*
X124596901Y-86779148D01*
X124457520Y-86686016D01*
X124338986Y-86567482D01*
X124245854Y-86428101D01*
X124181704Y-86273229D01*
X124149001Y-86108817D01*
X124149001Y-85941185D01*
X124181704Y-85776773D01*
X124245854Y-85621901D01*
X124338986Y-85482520D01*
X124457520Y-85363986D01*
X124596901Y-85270854D01*
X124751773Y-85206704D01*
X124916185Y-85174001D01*
X125083817Y-85174001D01*
X125248229Y-85206704D01*
G37*
G36*
X138463228Y-85206704D02*
G01*
X138618100Y-85270854D01*
X138757481Y-85363986D01*
X138876015Y-85482520D01*
X138969147Y-85621901D01*
X139033297Y-85776773D01*
X139066000Y-85941185D01*
X139066000Y-86108817D01*
X139033297Y-86273229D01*
X138969147Y-86428101D01*
X138876015Y-86567482D01*
X138757481Y-86686016D01*
X138618100Y-86779148D01*
X138463228Y-86843298D01*
X138298816Y-86876001D01*
X138131184Y-86876001D01*
X137966772Y-86843298D01*
X137811900Y-86779148D01*
X137672519Y-86686016D01*
X137553985Y-86567482D01*
X137460853Y-86428101D01*
X137396703Y-86273229D01*
X137364000Y-86108817D01*
X137364000Y-85941185D01*
X137396703Y-85776773D01*
X137460853Y-85621901D01*
X137553985Y-85482520D01*
X137672519Y-85363986D01*
X137811900Y-85270854D01*
X137966772Y-85206704D01*
X138131184Y-85174001D01*
X138298816Y-85174001D01*
X138463228Y-85206704D01*
G37*
G36*
X140488229Y-85206704D02*
G01*
X140643101Y-85270854D01*
X140782482Y-85363986D01*
X140901016Y-85482520D01*
X140994148Y-85621901D01*
X141058298Y-85776773D01*
X141091001Y-85941185D01*
X141091001Y-86108817D01*
X141058298Y-86273229D01*
X140994148Y-86428101D01*
X140901016Y-86567482D01*
X140782482Y-86686016D01*
X140643101Y-86779148D01*
X140488229Y-86843298D01*
X140323817Y-86876001D01*
X140156185Y-86876001D01*
X139991773Y-86843298D01*
X139836901Y-86779148D01*
X139697520Y-86686016D01*
X139578986Y-86567482D01*
X139485854Y-86428101D01*
X139421704Y-86273229D01*
X139389001Y-86108817D01*
X139389001Y-85941185D01*
X139421704Y-85776773D01*
X139485854Y-85621901D01*
X139578986Y-85482520D01*
X139697520Y-85363986D01*
X139836901Y-85270854D01*
X139991773Y-85206704D01*
X140156185Y-85174001D01*
X140323817Y-85174001D01*
X140488229Y-85206704D01*
G37*
G36*
X123223228Y-85206704D02*
G01*
X123378100Y-85270854D01*
X123517481Y-85363986D01*
X123636015Y-85482520D01*
X123729147Y-85621901D01*
X123793297Y-85776773D01*
X123826000Y-85941185D01*
X123826000Y-86108817D01*
X123793297Y-86273229D01*
X123729147Y-86428101D01*
X123636015Y-86567482D01*
X123517481Y-86686016D01*
X123378100Y-86779148D01*
X123223228Y-86843298D01*
X123058816Y-86876001D01*
X122891184Y-86876001D01*
X122726772Y-86843298D01*
X122571900Y-86779148D01*
X122432519Y-86686016D01*
X122313985Y-86567482D01*
X122220853Y-86428101D01*
X122156703Y-86273229D01*
X122124000Y-86108817D01*
X122124000Y-85941185D01*
X122156703Y-85776773D01*
X122220853Y-85621901D01*
X122313985Y-85482520D01*
X122432519Y-85363986D01*
X122571900Y-85270854D01*
X122726772Y-85206704D01*
X122891184Y-85174001D01*
X123058816Y-85174001D01*
X123223228Y-85206704D01*
G37*
G36*
X133037199Y-82549954D02*
G01*
X133049450Y-82550556D01*
X133067869Y-82550556D01*
X133090149Y-82552750D01*
X133174233Y-82569476D01*
X133195660Y-82575976D01*
X133274858Y-82608780D01*
X133280303Y-82611691D01*
X133280309Y-82611693D01*
X133289169Y-82616429D01*
X133289173Y-82616432D01*
X133294614Y-82619340D01*
X133365899Y-82666971D01*
X133383204Y-82681172D01*
X133443828Y-82741796D01*
X133458029Y-82759101D01*
X133505660Y-82830386D01*
X133508568Y-82835827D01*
X133508571Y-82835831D01*
X133513307Y-82844691D01*
X133513309Y-82844697D01*
X133516220Y-82850142D01*
X133549024Y-82929340D01*
X133555524Y-82950767D01*
X133572250Y-83034851D01*
X133574444Y-83057131D01*
X133574444Y-83075550D01*
X133575046Y-83087801D01*
X133576852Y-83106139D01*
X133576852Y-83593860D01*
X133575263Y-83609999D01*
X133572348Y-83619608D01*
X133567610Y-83628472D01*
X133561237Y-83636237D01*
X133548794Y-83646448D01*
X133538425Y-83653378D01*
X133521098Y-83670705D01*
X133507485Y-83691080D01*
X133498109Y-83713720D01*
X133493329Y-83737753D01*
X133493330Y-83762257D01*
X133498112Y-83786290D01*
X133507490Y-83808929D01*
X133521105Y-83829302D01*
X133538432Y-83846629D01*
X133548802Y-83853558D01*
X133561237Y-83863763D01*
X133567610Y-83871528D01*
X133572348Y-83880392D01*
X133575263Y-83890001D01*
X133576852Y-83906140D01*
X133576852Y-84393862D01*
X133575046Y-84412199D01*
X133574444Y-84424450D01*
X133574444Y-84442869D01*
X133572250Y-84465149D01*
X133555524Y-84549233D01*
X133549024Y-84570660D01*
X133516220Y-84649858D01*
X133513309Y-84655303D01*
X133513307Y-84655309D01*
X133508571Y-84664169D01*
X133508568Y-84664173D01*
X133505660Y-84669614D01*
X133458029Y-84740899D01*
X133443828Y-84758204D01*
X133383204Y-84818828D01*
X133365899Y-84833029D01*
X133294614Y-84880660D01*
X133289173Y-84883568D01*
X133289169Y-84883571D01*
X133280309Y-84888307D01*
X133280303Y-84888309D01*
X133274858Y-84891220D01*
X133195660Y-84924024D01*
X133174233Y-84930524D01*
X133090149Y-84947250D01*
X133067869Y-84949444D01*
X133049450Y-84949444D01*
X133037199Y-84950046D01*
X133018862Y-84951852D01*
X132531138Y-84951852D01*
X132512801Y-84950046D01*
X132500550Y-84949444D01*
X132482131Y-84949444D01*
X132459851Y-84947250D01*
X132375767Y-84930524D01*
X132354340Y-84924024D01*
X132275142Y-84891220D01*
X132269697Y-84888309D01*
X132269691Y-84888307D01*
X132260831Y-84883571D01*
X132260827Y-84883568D01*
X132255386Y-84880660D01*
X132184101Y-84833029D01*
X132166796Y-84818828D01*
X132106172Y-84758204D01*
X132091971Y-84740899D01*
X132044340Y-84669614D01*
X132041432Y-84664173D01*
X132041429Y-84664169D01*
X132036693Y-84655309D01*
X132036691Y-84655303D01*
X132033780Y-84649858D01*
X132000976Y-84570660D01*
X131994476Y-84549233D01*
X131977750Y-84465149D01*
X131975556Y-84442869D01*
X131975556Y-84424450D01*
X131974954Y-84412199D01*
X131973148Y-84393862D01*
X131973148Y-83906140D01*
X131974737Y-83890001D01*
X131977652Y-83880392D01*
X131982390Y-83871528D01*
X131988763Y-83863763D01*
X132001206Y-83853552D01*
X132011575Y-83846622D01*
X132028902Y-83829295D01*
X132042515Y-83808920D01*
X132051891Y-83786280D01*
X132056671Y-83762247D01*
X132056670Y-83737743D01*
X132051888Y-83713710D01*
X132042510Y-83691071D01*
X132028895Y-83670698D01*
X132011568Y-83653371D01*
X132001198Y-83646442D01*
X131988763Y-83636237D01*
X131982390Y-83628472D01*
X131977652Y-83619608D01*
X131974737Y-83609999D01*
X131973148Y-83593860D01*
X131973148Y-83106139D01*
X131974954Y-83087801D01*
X131975556Y-83075550D01*
X131975556Y-83057131D01*
X131977750Y-83034851D01*
X131994476Y-82950767D01*
X132000976Y-82929340D01*
X132033780Y-82850142D01*
X132036691Y-82844697D01*
X132036693Y-82844691D01*
X132041429Y-82835831D01*
X132041432Y-82835827D01*
X132044340Y-82830386D01*
X132091971Y-82759101D01*
X132106172Y-82741796D01*
X132166796Y-82681172D01*
X132184101Y-82666971D01*
X132255386Y-82619340D01*
X132260827Y-82616432D01*
X132260831Y-82616429D01*
X132269691Y-82611693D01*
X132269697Y-82611691D01*
X132275142Y-82608780D01*
X132354340Y-82575976D01*
X132375767Y-82569476D01*
X132459851Y-82552750D01*
X132482131Y-82550556D01*
X132500550Y-82550556D01*
X132512801Y-82549954D01*
X132531139Y-82548148D01*
X133018861Y-82548148D01*
X133037199Y-82549954D01*
G37*
G36*
X123223228Y-82666704D02*
G01*
X123378100Y-82730854D01*
X123517481Y-82823986D01*
X123636015Y-82942520D01*
X123729147Y-83081901D01*
X123793297Y-83236773D01*
X123826000Y-83401185D01*
X123826000Y-83568817D01*
X123793297Y-83733229D01*
X123729147Y-83888101D01*
X123636015Y-84027482D01*
X123517481Y-84146016D01*
X123378100Y-84239148D01*
X123223228Y-84303298D01*
X123058816Y-84336001D01*
X122891184Y-84336001D01*
X122726772Y-84303298D01*
X122571900Y-84239148D01*
X122432519Y-84146016D01*
X122313985Y-84027482D01*
X122220853Y-83888101D01*
X122156703Y-83733229D01*
X122124000Y-83568817D01*
X122124000Y-83401185D01*
X122156703Y-83236773D01*
X122220853Y-83081901D01*
X122313985Y-82942520D01*
X122432519Y-82823986D01*
X122571900Y-82730854D01*
X122726772Y-82666704D01*
X122891184Y-82634001D01*
X123058816Y-82634001D01*
X123223228Y-82666704D01*
G37*
G36*
X140488229Y-82666704D02*
G01*
X140643101Y-82730854D01*
X140782482Y-82823986D01*
X140901016Y-82942520D01*
X140994148Y-83081901D01*
X141058298Y-83236773D01*
X141091001Y-83401185D01*
X141091001Y-83568817D01*
X141058298Y-83733229D01*
X140994148Y-83888101D01*
X140901016Y-84027482D01*
X140782482Y-84146016D01*
X140643101Y-84239148D01*
X140488229Y-84303298D01*
X140323817Y-84336001D01*
X140156185Y-84336001D01*
X139991773Y-84303298D01*
X139836901Y-84239148D01*
X139697520Y-84146016D01*
X139578986Y-84027482D01*
X139485854Y-83888101D01*
X139421704Y-83733229D01*
X139389001Y-83568817D01*
X139389001Y-83401185D01*
X139421704Y-83236773D01*
X139485854Y-83081901D01*
X139578986Y-82942520D01*
X139697520Y-82823986D01*
X139836901Y-82730854D01*
X139991773Y-82666704D01*
X140156185Y-82634001D01*
X140323817Y-82634001D01*
X140488229Y-82666704D01*
G37*
G36*
X125248229Y-82666704D02*
G01*
X125403101Y-82730854D01*
X125542482Y-82823986D01*
X125661016Y-82942520D01*
X125754148Y-83081901D01*
X125818298Y-83236773D01*
X125851001Y-83401185D01*
X125851001Y-83568817D01*
X125818298Y-83733229D01*
X125754148Y-83888101D01*
X125661016Y-84027482D01*
X125542482Y-84146016D01*
X125403101Y-84239148D01*
X125248229Y-84303298D01*
X125083817Y-84336001D01*
X124916185Y-84336001D01*
X124751773Y-84303298D01*
X124596901Y-84239148D01*
X124457520Y-84146016D01*
X124338986Y-84027482D01*
X124245854Y-83888101D01*
X124181704Y-83733229D01*
X124149001Y-83568817D01*
X124149001Y-83401185D01*
X124181704Y-83236773D01*
X124245854Y-83081901D01*
X124338986Y-82942520D01*
X124457520Y-82823986D01*
X124596901Y-82730854D01*
X124751773Y-82666704D01*
X124916185Y-82634001D01*
X125083817Y-82634001D01*
X125248229Y-82666704D01*
G37*
G36*
X138463228Y-82666704D02*
G01*
X138618100Y-82730854D01*
X138757481Y-82823986D01*
X138876015Y-82942520D01*
X138969147Y-83081901D01*
X139033297Y-83236773D01*
X139066000Y-83401185D01*
X139066000Y-83568817D01*
X139033297Y-83733229D01*
X138969147Y-83888101D01*
X138876015Y-84027482D01*
X138757481Y-84146016D01*
X138618100Y-84239148D01*
X138463228Y-84303298D01*
X138298816Y-84336001D01*
X138131184Y-84336001D01*
X137966772Y-84303298D01*
X137811900Y-84239148D01*
X137672519Y-84146016D01*
X137553985Y-84027482D01*
X137460853Y-83888101D01*
X137396703Y-83733229D01*
X137364000Y-83568817D01*
X137364000Y-83401185D01*
X137396703Y-83236773D01*
X137460853Y-83081901D01*
X137553985Y-82942520D01*
X137672519Y-82823986D01*
X137811900Y-82730854D01*
X137966772Y-82666704D01*
X138131184Y-82634001D01*
X138298816Y-82634001D01*
X138463228Y-82666704D01*
G37*
G36*
X138463228Y-80126704D02*
G01*
X138618100Y-80190854D01*
X138757481Y-80283986D01*
X138876015Y-80402520D01*
X138969147Y-80541901D01*
X139033297Y-80696773D01*
X139066000Y-80861185D01*
X139066000Y-81028817D01*
X139033297Y-81193229D01*
X138969147Y-81348101D01*
X138876015Y-81487482D01*
X138757481Y-81606016D01*
X138618100Y-81699148D01*
X138463228Y-81763298D01*
X138298816Y-81796001D01*
X138131184Y-81796001D01*
X137966772Y-81763298D01*
X137811900Y-81699148D01*
X137672519Y-81606016D01*
X137553985Y-81487482D01*
X137460853Y-81348101D01*
X137396703Y-81193229D01*
X137364000Y-81028817D01*
X137364000Y-80861185D01*
X137396703Y-80696773D01*
X137460853Y-80541901D01*
X137553985Y-80402520D01*
X137672519Y-80283986D01*
X137811900Y-80190854D01*
X137966772Y-80126704D01*
X138131184Y-80094001D01*
X138298816Y-80094001D01*
X138463228Y-80126704D01*
G37*
G36*
X125248229Y-80126704D02*
G01*
X125403101Y-80190854D01*
X125542482Y-80283986D01*
X125661016Y-80402520D01*
X125754148Y-80541901D01*
X125818298Y-80696773D01*
X125851001Y-80861185D01*
X125851001Y-81028817D01*
X125818298Y-81193229D01*
X125754148Y-81348101D01*
X125661016Y-81487482D01*
X125542482Y-81606016D01*
X125403101Y-81699148D01*
X125248229Y-81763298D01*
X125083817Y-81796001D01*
X124916185Y-81796001D01*
X124751773Y-81763298D01*
X124596901Y-81699148D01*
X124457520Y-81606016D01*
X124338986Y-81487482D01*
X124245854Y-81348101D01*
X124181704Y-81193229D01*
X124149001Y-81028817D01*
X124149001Y-80861185D01*
X124181704Y-80696773D01*
X124245854Y-80541901D01*
X124338986Y-80402520D01*
X124457520Y-80283986D01*
X124596901Y-80190854D01*
X124751773Y-80126704D01*
X124916185Y-80094001D01*
X125083817Y-80094001D01*
X125248229Y-80126704D01*
G37*
G36*
X123223228Y-80126704D02*
G01*
X123378100Y-80190854D01*
X123517481Y-80283986D01*
X123636015Y-80402520D01*
X123729147Y-80541901D01*
X123793297Y-80696773D01*
X123826000Y-80861185D01*
X123826000Y-81028817D01*
X123793297Y-81193229D01*
X123729147Y-81348101D01*
X123636015Y-81487482D01*
X123517481Y-81606016D01*
X123378100Y-81699148D01*
X123223228Y-81763298D01*
X123058816Y-81796001D01*
X122891184Y-81796001D01*
X122726772Y-81763298D01*
X122571900Y-81699148D01*
X122432519Y-81606016D01*
X122313985Y-81487482D01*
X122220853Y-81348101D01*
X122156703Y-81193229D01*
X122124000Y-81028817D01*
X122124000Y-80861185D01*
X122156703Y-80696773D01*
X122220853Y-80541901D01*
X122313985Y-80402520D01*
X122432519Y-80283986D01*
X122571900Y-80190854D01*
X122726772Y-80126704D01*
X122891184Y-80094001D01*
X123058816Y-80094001D01*
X123223228Y-80126704D01*
G37*
G36*
X140488229Y-80126704D02*
G01*
X140643101Y-80190854D01*
X140782482Y-80283986D01*
X140901016Y-80402520D01*
X140994148Y-80541901D01*
X141058298Y-80696773D01*
X141091001Y-80861185D01*
X141091001Y-81028817D01*
X141058298Y-81193229D01*
X140994148Y-81348101D01*
X140901016Y-81487482D01*
X140782482Y-81606016D01*
X140643101Y-81699148D01*
X140488229Y-81763298D01*
X140323817Y-81796001D01*
X140156185Y-81796001D01*
X139991773Y-81763298D01*
X139836901Y-81699148D01*
X139697520Y-81606016D01*
X139578986Y-81487482D01*
X139485854Y-81348101D01*
X139421704Y-81193229D01*
X139389001Y-81028817D01*
X139389001Y-80861185D01*
X139421704Y-80696773D01*
X139485854Y-80541901D01*
X139578986Y-80402520D01*
X139697520Y-80283986D01*
X139836901Y-80190854D01*
X139991773Y-80126704D01*
X140156185Y-80094001D01*
X140323817Y-80094001D01*
X140488229Y-80126704D01*
G37*
G36*
X125248229Y-77586704D02*
G01*
X125403101Y-77650854D01*
X125542482Y-77743986D01*
X125661016Y-77862520D01*
X125754148Y-78001901D01*
X125818298Y-78156773D01*
X125851001Y-78321185D01*
X125851001Y-78488817D01*
X125818298Y-78653229D01*
X125754148Y-78808101D01*
X125661016Y-78947482D01*
X125542482Y-79066016D01*
X125403101Y-79159148D01*
X125248229Y-79223298D01*
X125083817Y-79256001D01*
X124916185Y-79256001D01*
X124751773Y-79223298D01*
X124596901Y-79159148D01*
X124457520Y-79066016D01*
X124338986Y-78947482D01*
X124245854Y-78808101D01*
X124181704Y-78653229D01*
X124149001Y-78488817D01*
X124149001Y-78321185D01*
X124181704Y-78156773D01*
X124245854Y-78001901D01*
X124338986Y-77862520D01*
X124457520Y-77743986D01*
X124596901Y-77650854D01*
X124751773Y-77586704D01*
X124916185Y-77554001D01*
X125083817Y-77554001D01*
X125248229Y-77586704D01*
G37*
G36*
X138463228Y-77586704D02*
G01*
X138618100Y-77650854D01*
X138757481Y-77743986D01*
X138876015Y-77862520D01*
X138969147Y-78001901D01*
X139033297Y-78156773D01*
X139066000Y-78321185D01*
X139066000Y-78488817D01*
X139033297Y-78653229D01*
X138969147Y-78808101D01*
X138876015Y-78947482D01*
X138757481Y-79066016D01*
X138618100Y-79159148D01*
X138463228Y-79223298D01*
X138298816Y-79256001D01*
X138131184Y-79256001D01*
X137966772Y-79223298D01*
X137811900Y-79159148D01*
X137672519Y-79066016D01*
X137553985Y-78947482D01*
X137460853Y-78808101D01*
X137396703Y-78653229D01*
X137364000Y-78488817D01*
X137364000Y-78321185D01*
X137396703Y-78156773D01*
X137460853Y-78001901D01*
X137553985Y-77862520D01*
X137672519Y-77743986D01*
X137811900Y-77650854D01*
X137966772Y-77586704D01*
X138131184Y-77554001D01*
X138298816Y-77554001D01*
X138463228Y-77586704D01*
G37*
G36*
X140488229Y-77586704D02*
G01*
X140643101Y-77650854D01*
X140782482Y-77743986D01*
X140901016Y-77862520D01*
X140994148Y-78001901D01*
X141058298Y-78156773D01*
X141091001Y-78321185D01*
X141091001Y-78488817D01*
X141058298Y-78653229D01*
X140994148Y-78808101D01*
X140901016Y-78947482D01*
X140782482Y-79066016D01*
X140643101Y-79159148D01*
X140488229Y-79223298D01*
X140323817Y-79256001D01*
X140156185Y-79256001D01*
X139991773Y-79223298D01*
X139836901Y-79159148D01*
X139697520Y-79066016D01*
X139578986Y-78947482D01*
X139485854Y-78808101D01*
X139421704Y-78653229D01*
X139389001Y-78488817D01*
X139389001Y-78321185D01*
X139421704Y-78156773D01*
X139485854Y-78001901D01*
X139578986Y-77862520D01*
X139697520Y-77743986D01*
X139836901Y-77650854D01*
X139991773Y-77586704D01*
X140156185Y-77554001D01*
X140323817Y-77554001D01*
X140488229Y-77586704D01*
G37*
G36*
X123223228Y-77586704D02*
G01*
X123378100Y-77650854D01*
X123517481Y-77743986D01*
X123636015Y-77862520D01*
X123729147Y-78001901D01*
X123793297Y-78156773D01*
X123826000Y-78321185D01*
X123826000Y-78488817D01*
X123793297Y-78653229D01*
X123729147Y-78808101D01*
X123636015Y-78947482D01*
X123517481Y-79066016D01*
X123378100Y-79159148D01*
X123223228Y-79223298D01*
X123058816Y-79256001D01*
X122891184Y-79256001D01*
X122726772Y-79223298D01*
X122571900Y-79159148D01*
X122432519Y-79066016D01*
X122313985Y-78947482D01*
X122220853Y-78808101D01*
X122156703Y-78653229D01*
X122124000Y-78488817D01*
X122124000Y-78321185D01*
X122156703Y-78156773D01*
X122220853Y-78001901D01*
X122313985Y-77862520D01*
X122432519Y-77743986D01*
X122571900Y-77650854D01*
X122726772Y-77586704D01*
X122891184Y-77554001D01*
X123058816Y-77554001D01*
X123223228Y-77586704D01*
G37*
G36*
X133037199Y-74962454D02*
G01*
X133049450Y-74963056D01*
X133067869Y-74963056D01*
X133090149Y-74965250D01*
X133174233Y-74981976D01*
X133195660Y-74988476D01*
X133274858Y-75021280D01*
X133280303Y-75024191D01*
X133280309Y-75024193D01*
X133289169Y-75028929D01*
X133289173Y-75028932D01*
X133294614Y-75031840D01*
X133365899Y-75079471D01*
X133383204Y-75093672D01*
X133443828Y-75154296D01*
X133458029Y-75171601D01*
X133505660Y-75242886D01*
X133508568Y-75248327D01*
X133508571Y-75248331D01*
X133513307Y-75257191D01*
X133513309Y-75257197D01*
X133516220Y-75262642D01*
X133549024Y-75341840D01*
X133555524Y-75363267D01*
X133572250Y-75447351D01*
X133574444Y-75469631D01*
X133574444Y-75488050D01*
X133575046Y-75500301D01*
X133576852Y-75518639D01*
X133576852Y-76006360D01*
X133575263Y-76022499D01*
X133572348Y-76032108D01*
X133567610Y-76040972D01*
X133561237Y-76048737D01*
X133548794Y-76058948D01*
X133538425Y-76065878D01*
X133521098Y-76083205D01*
X133507485Y-76103580D01*
X133498109Y-76126220D01*
X133493329Y-76150253D01*
X133493330Y-76174757D01*
X133498112Y-76198790D01*
X133507490Y-76221429D01*
X133521105Y-76241802D01*
X133538432Y-76259129D01*
X133548802Y-76266058D01*
X133561237Y-76276263D01*
X133567610Y-76284028D01*
X133572348Y-76292892D01*
X133575263Y-76302501D01*
X133576852Y-76318640D01*
X133576852Y-76806362D01*
X133575046Y-76824699D01*
X133574444Y-76836950D01*
X133574444Y-76855369D01*
X133572250Y-76877649D01*
X133555524Y-76961733D01*
X133549024Y-76983160D01*
X133516220Y-77062358D01*
X133513309Y-77067803D01*
X133513307Y-77067809D01*
X133508571Y-77076669D01*
X133508568Y-77076673D01*
X133505660Y-77082114D01*
X133458029Y-77153399D01*
X133443828Y-77170704D01*
X133383204Y-77231328D01*
X133365899Y-77245529D01*
X133294614Y-77293160D01*
X133289173Y-77296068D01*
X133289169Y-77296071D01*
X133280309Y-77300807D01*
X133280303Y-77300809D01*
X133274858Y-77303720D01*
X133195660Y-77336524D01*
X133174233Y-77343024D01*
X133090149Y-77359750D01*
X133067869Y-77361944D01*
X133049450Y-77361944D01*
X133037199Y-77362546D01*
X133018862Y-77364352D01*
X132531138Y-77364352D01*
X132512801Y-77362546D01*
X132500550Y-77361944D01*
X132482131Y-77361944D01*
X132459851Y-77359750D01*
X132375767Y-77343024D01*
X132354340Y-77336524D01*
X132275142Y-77303720D01*
X132269697Y-77300809D01*
X132269691Y-77300807D01*
X132260831Y-77296071D01*
X132260827Y-77296068D01*
X132255386Y-77293160D01*
X132184101Y-77245529D01*
X132166796Y-77231328D01*
X132106172Y-77170704D01*
X132091971Y-77153399D01*
X132044340Y-77082114D01*
X132041432Y-77076673D01*
X132041429Y-77076669D01*
X132036693Y-77067809D01*
X132036691Y-77067803D01*
X132033780Y-77062358D01*
X132000976Y-76983160D01*
X131994476Y-76961733D01*
X131977750Y-76877649D01*
X131975556Y-76855369D01*
X131975556Y-76836950D01*
X131974954Y-76824699D01*
X131973148Y-76806362D01*
X131973148Y-76318640D01*
X131974737Y-76302501D01*
X131977652Y-76292892D01*
X131982390Y-76284028D01*
X131988763Y-76276263D01*
X132001206Y-76266052D01*
X132011575Y-76259122D01*
X132028902Y-76241795D01*
X132042515Y-76221420D01*
X132051891Y-76198780D01*
X132056671Y-76174747D01*
X132056670Y-76150243D01*
X132051888Y-76126210D01*
X132042510Y-76103571D01*
X132028895Y-76083198D01*
X132011568Y-76065871D01*
X132001198Y-76058942D01*
X131988763Y-76048737D01*
X131982390Y-76040972D01*
X131977652Y-76032108D01*
X131974737Y-76022499D01*
X131973148Y-76006360D01*
X131973148Y-75518639D01*
X131974954Y-75500301D01*
X131975556Y-75488050D01*
X131975556Y-75469631D01*
X131977750Y-75447351D01*
X131994476Y-75363267D01*
X132000976Y-75341840D01*
X132033780Y-75262642D01*
X132036691Y-75257197D01*
X132036693Y-75257191D01*
X132041429Y-75248331D01*
X132041432Y-75248327D01*
X132044340Y-75242886D01*
X132091971Y-75171601D01*
X132106172Y-75154296D01*
X132166796Y-75093672D01*
X132184101Y-75079471D01*
X132255386Y-75031840D01*
X132260827Y-75028932D01*
X132260831Y-75028929D01*
X132269691Y-75024193D01*
X132269697Y-75024191D01*
X132275142Y-75021280D01*
X132354340Y-74988476D01*
X132375767Y-74981976D01*
X132459851Y-74965250D01*
X132482131Y-74963056D01*
X132500550Y-74963056D01*
X132512801Y-74962454D01*
X132531139Y-74960648D01*
X133018861Y-74960648D01*
X133037199Y-74962454D01*
G37*
G36*
X138463228Y-75046704D02*
G01*
X138618100Y-75110854D01*
X138757481Y-75203986D01*
X138876015Y-75322520D01*
X138969147Y-75461901D01*
X139033297Y-75616773D01*
X139066000Y-75781185D01*
X139066000Y-75948817D01*
X139033297Y-76113229D01*
X138969147Y-76268101D01*
X138876015Y-76407482D01*
X138757481Y-76526016D01*
X138618100Y-76619148D01*
X138463228Y-76683298D01*
X138298816Y-76716001D01*
X138131184Y-76716001D01*
X137966772Y-76683298D01*
X137811900Y-76619148D01*
X137672519Y-76526016D01*
X137553985Y-76407482D01*
X137460853Y-76268101D01*
X137396703Y-76113229D01*
X137364000Y-75948817D01*
X137364000Y-75781185D01*
X137396703Y-75616773D01*
X137460853Y-75461901D01*
X137553985Y-75322520D01*
X137672519Y-75203986D01*
X137811900Y-75110854D01*
X137966772Y-75046704D01*
X138131184Y-75014001D01*
X138298816Y-75014001D01*
X138463228Y-75046704D01*
G37*
G36*
X123223228Y-75046704D02*
G01*
X123378100Y-75110854D01*
X123517481Y-75203986D01*
X123636015Y-75322520D01*
X123729147Y-75461901D01*
X123793297Y-75616773D01*
X123826000Y-75781185D01*
X123826000Y-75948817D01*
X123793297Y-76113229D01*
X123729147Y-76268101D01*
X123636015Y-76407482D01*
X123517481Y-76526016D01*
X123378100Y-76619148D01*
X123223228Y-76683298D01*
X123058816Y-76716001D01*
X122891184Y-76716001D01*
X122726772Y-76683298D01*
X122571900Y-76619148D01*
X122432519Y-76526016D01*
X122313985Y-76407482D01*
X122220853Y-76268101D01*
X122156703Y-76113229D01*
X122124000Y-75948817D01*
X122124000Y-75781185D01*
X122156703Y-75616773D01*
X122220853Y-75461901D01*
X122313985Y-75322520D01*
X122432519Y-75203986D01*
X122571900Y-75110854D01*
X122726772Y-75046704D01*
X122891184Y-75014001D01*
X123058816Y-75014001D01*
X123223228Y-75046704D01*
G37*
G36*
X140488229Y-75046704D02*
G01*
X140643101Y-75110854D01*
X140782482Y-75203986D01*
X140901016Y-75322520D01*
X140994148Y-75461901D01*
X141058298Y-75616773D01*
X141091001Y-75781185D01*
X141091001Y-75948817D01*
X141058298Y-76113229D01*
X140994148Y-76268101D01*
X140901016Y-76407482D01*
X140782482Y-76526016D01*
X140643101Y-76619148D01*
X140488229Y-76683298D01*
X140323817Y-76716001D01*
X140156185Y-76716001D01*
X139991773Y-76683298D01*
X139836901Y-76619148D01*
X139697520Y-76526016D01*
X139578986Y-76407482D01*
X139485854Y-76268101D01*
X139421704Y-76113229D01*
X139389001Y-75948817D01*
X139389001Y-75781185D01*
X139421704Y-75616773D01*
X139485854Y-75461901D01*
X139578986Y-75322520D01*
X139697520Y-75203986D01*
X139836901Y-75110854D01*
X139991773Y-75046704D01*
X140156185Y-75014001D01*
X140323817Y-75014001D01*
X140488229Y-75046704D01*
G37*
G36*
X125248229Y-75046704D02*
G01*
X125403101Y-75110854D01*
X125542482Y-75203986D01*
X125661016Y-75322520D01*
X125754148Y-75461901D01*
X125818298Y-75616773D01*
X125851001Y-75781185D01*
X125851001Y-75948817D01*
X125818298Y-76113229D01*
X125754148Y-76268101D01*
X125661016Y-76407482D01*
X125542482Y-76526016D01*
X125403101Y-76619148D01*
X125248229Y-76683298D01*
X125083817Y-76716001D01*
X124916185Y-76716001D01*
X124751773Y-76683298D01*
X124596901Y-76619148D01*
X124457520Y-76526016D01*
X124338986Y-76407482D01*
X124245854Y-76268101D01*
X124181704Y-76113229D01*
X124149001Y-75948817D01*
X124149001Y-75781185D01*
X124181704Y-75616773D01*
X124245854Y-75461901D01*
X124338986Y-75322520D01*
X124457520Y-75203986D01*
X124596901Y-75110854D01*
X124751773Y-75046704D01*
X124916185Y-75014001D01*
X125083817Y-75014001D01*
X125248229Y-75046704D01*
G37*
G36*
X123223228Y-72506704D02*
G01*
X123378100Y-72570854D01*
X123517481Y-72663986D01*
X123636015Y-72782520D01*
X123729147Y-72921901D01*
X123793297Y-73076773D01*
X123826000Y-73241185D01*
X123826000Y-73408817D01*
X123793297Y-73573229D01*
X123729147Y-73728101D01*
X123636015Y-73867482D01*
X123517481Y-73986016D01*
X123378100Y-74079148D01*
X123223228Y-74143298D01*
X123058816Y-74176001D01*
X122891184Y-74176001D01*
X122726772Y-74143298D01*
X122571900Y-74079148D01*
X122432519Y-73986016D01*
X122313985Y-73867482D01*
X122220853Y-73728101D01*
X122156703Y-73573229D01*
X122124000Y-73408817D01*
X122124000Y-73241185D01*
X122156703Y-73076773D01*
X122220853Y-72921901D01*
X122313985Y-72782520D01*
X122432519Y-72663986D01*
X122571900Y-72570854D01*
X122726772Y-72506704D01*
X122891184Y-72474001D01*
X123058816Y-72474001D01*
X123223228Y-72506704D01*
G37*
G36*
X125248229Y-72506704D02*
G01*
X125403101Y-72570854D01*
X125542482Y-72663986D01*
X125661016Y-72782520D01*
X125754148Y-72921901D01*
X125818298Y-73076773D01*
X125851001Y-73241185D01*
X125851001Y-73408817D01*
X125818298Y-73573229D01*
X125754148Y-73728101D01*
X125661016Y-73867482D01*
X125542482Y-73986016D01*
X125403101Y-74079148D01*
X125248229Y-74143298D01*
X125083817Y-74176001D01*
X124916185Y-74176001D01*
X124751773Y-74143298D01*
X124596901Y-74079148D01*
X124457520Y-73986016D01*
X124338986Y-73867482D01*
X124245854Y-73728101D01*
X124181704Y-73573229D01*
X124149001Y-73408817D01*
X124149001Y-73241185D01*
X124181704Y-73076773D01*
X124245854Y-72921901D01*
X124338986Y-72782520D01*
X124457520Y-72663986D01*
X124596901Y-72570854D01*
X124751773Y-72506704D01*
X124916185Y-72474001D01*
X125083817Y-72474001D01*
X125248229Y-72506704D01*
G37*
G36*
X140488229Y-72506704D02*
G01*
X140643101Y-72570854D01*
X140782482Y-72663986D01*
X140901016Y-72782520D01*
X140994148Y-72921901D01*
X141058298Y-73076773D01*
X141091001Y-73241185D01*
X141091001Y-73408817D01*
X141058298Y-73573229D01*
X140994148Y-73728101D01*
X140901016Y-73867482D01*
X140782482Y-73986016D01*
X140643101Y-74079148D01*
X140488229Y-74143298D01*
X140323817Y-74176001D01*
X140156185Y-74176001D01*
X139991773Y-74143298D01*
X139836901Y-74079148D01*
X139697520Y-73986016D01*
X139578986Y-73867482D01*
X139485854Y-73728101D01*
X139421704Y-73573229D01*
X139389001Y-73408817D01*
X139389001Y-73241185D01*
X139421704Y-73076773D01*
X139485854Y-72921901D01*
X139578986Y-72782520D01*
X139697520Y-72663986D01*
X139836901Y-72570854D01*
X139991773Y-72506704D01*
X140156185Y-72474001D01*
X140323817Y-72474001D01*
X140488229Y-72506704D01*
G37*
G36*
X138463228Y-72506704D02*
G01*
X138618100Y-72570854D01*
X138757481Y-72663986D01*
X138876015Y-72782520D01*
X138969147Y-72921901D01*
X139033297Y-73076773D01*
X139066000Y-73241185D01*
X139066000Y-73408817D01*
X139033297Y-73573229D01*
X138969147Y-73728101D01*
X138876015Y-73867482D01*
X138757481Y-73986016D01*
X138618100Y-74079148D01*
X138463228Y-74143298D01*
X138298816Y-74176001D01*
X138131184Y-74176001D01*
X137966772Y-74143298D01*
X137811900Y-74079148D01*
X137672519Y-73986016D01*
X137553985Y-73867482D01*
X137460853Y-73728101D01*
X137396703Y-73573229D01*
X137364000Y-73408817D01*
X137364000Y-73241185D01*
X137396703Y-73076773D01*
X137460853Y-72921901D01*
X137553985Y-72782520D01*
X137672519Y-72663986D01*
X137811900Y-72570854D01*
X137966772Y-72506704D01*
X138131184Y-72474001D01*
X138298816Y-72474001D01*
X138463228Y-72506704D01*
G37*
G36*
X138463228Y-69966704D02*
G01*
X138618100Y-70030854D01*
X138757481Y-70123986D01*
X138876015Y-70242520D01*
X138969147Y-70381901D01*
X139033297Y-70536773D01*
X139066000Y-70701185D01*
X139066000Y-70868817D01*
X139033297Y-71033229D01*
X138969147Y-71188101D01*
X138876015Y-71327482D01*
X138757481Y-71446016D01*
X138618100Y-71539148D01*
X138463228Y-71603298D01*
X138298816Y-71636001D01*
X138131184Y-71636001D01*
X137966772Y-71603298D01*
X137811900Y-71539148D01*
X137672519Y-71446016D01*
X137553985Y-71327482D01*
X137460853Y-71188101D01*
X137396703Y-71033229D01*
X137364000Y-70868817D01*
X137364000Y-70701185D01*
X137396703Y-70536773D01*
X137460853Y-70381901D01*
X137553985Y-70242520D01*
X137672519Y-70123986D01*
X137811900Y-70030854D01*
X137966772Y-69966704D01*
X138131184Y-69934001D01*
X138298816Y-69934001D01*
X138463228Y-69966704D01*
G37*
G36*
X125248229Y-69966704D02*
G01*
X125403101Y-70030854D01*
X125542482Y-70123986D01*
X125661016Y-70242520D01*
X125754148Y-70381901D01*
X125818298Y-70536773D01*
X125851001Y-70701185D01*
X125851001Y-70868817D01*
X125818298Y-71033229D01*
X125754148Y-71188101D01*
X125661016Y-71327482D01*
X125542482Y-71446016D01*
X125403101Y-71539148D01*
X125248229Y-71603298D01*
X125083817Y-71636001D01*
X124916185Y-71636001D01*
X124751773Y-71603298D01*
X124596901Y-71539148D01*
X124457520Y-71446016D01*
X124338986Y-71327482D01*
X124245854Y-71188101D01*
X124181704Y-71033229D01*
X124149001Y-70868817D01*
X124149001Y-70701185D01*
X124181704Y-70536773D01*
X124245854Y-70381901D01*
X124338986Y-70242520D01*
X124457520Y-70123986D01*
X124596901Y-70030854D01*
X124751773Y-69966704D01*
X124916185Y-69934001D01*
X125083817Y-69934001D01*
X125248229Y-69966704D01*
G37*
G36*
X123223228Y-69966704D02*
G01*
X123378100Y-70030854D01*
X123517481Y-70123986D01*
X123636015Y-70242520D01*
X123729147Y-70381901D01*
X123793297Y-70536773D01*
X123826000Y-70701185D01*
X123826000Y-70868817D01*
X123793297Y-71033229D01*
X123729147Y-71188101D01*
X123636015Y-71327482D01*
X123517481Y-71446016D01*
X123378100Y-71539148D01*
X123223228Y-71603298D01*
X123058816Y-71636001D01*
X122891184Y-71636001D01*
X122726772Y-71603298D01*
X122571900Y-71539148D01*
X122432519Y-71446016D01*
X122313985Y-71327482D01*
X122220853Y-71188101D01*
X122156703Y-71033229D01*
X122124000Y-70868817D01*
X122124000Y-70701185D01*
X122156703Y-70536773D01*
X122220853Y-70381901D01*
X122313985Y-70242520D01*
X122432519Y-70123986D01*
X122571900Y-70030854D01*
X122726772Y-69966704D01*
X122891184Y-69934001D01*
X123058816Y-69934001D01*
X123223228Y-69966704D01*
G37*
G36*
X140488229Y-69966704D02*
G01*
X140643101Y-70030854D01*
X140782482Y-70123986D01*
X140901016Y-70242520D01*
X140994148Y-70381901D01*
X141058298Y-70536773D01*
X141091001Y-70701185D01*
X141091001Y-70868817D01*
X141058298Y-71033229D01*
X140994148Y-71188101D01*
X140901016Y-71327482D01*
X140782482Y-71446016D01*
X140643101Y-71539148D01*
X140488229Y-71603298D01*
X140323817Y-71636001D01*
X140156185Y-71636001D01*
X139991773Y-71603298D01*
X139836901Y-71539148D01*
X139697520Y-71446016D01*
X139578986Y-71327482D01*
X139485854Y-71188101D01*
X139421704Y-71033229D01*
X139389001Y-70868817D01*
X139389001Y-70701185D01*
X139421704Y-70536773D01*
X139485854Y-70381901D01*
X139578986Y-70242520D01*
X139697520Y-70123986D01*
X139836901Y-70030854D01*
X139991773Y-69966704D01*
X140156185Y-69934001D01*
X140323817Y-69934001D01*
X140488229Y-69966704D01*
G37*
G36*
X133037199Y-67374954D02*
G01*
X133049450Y-67375556D01*
X133067869Y-67375556D01*
X133090149Y-67377750D01*
X133174233Y-67394476D01*
X133195660Y-67400976D01*
X133274858Y-67433780D01*
X133280303Y-67436691D01*
X133280309Y-67436693D01*
X133289169Y-67441429D01*
X133289173Y-67441432D01*
X133294614Y-67444340D01*
X133365899Y-67491971D01*
X133383204Y-67506172D01*
X133443828Y-67566796D01*
X133458029Y-67584101D01*
X133505660Y-67655386D01*
X133508568Y-67660827D01*
X133508571Y-67660831D01*
X133513307Y-67669691D01*
X133513309Y-67669697D01*
X133516220Y-67675142D01*
X133549024Y-67754340D01*
X133555524Y-67775767D01*
X133572250Y-67859851D01*
X133574444Y-67882131D01*
X133574444Y-67900550D01*
X133575046Y-67912801D01*
X133576852Y-67931139D01*
X133576852Y-68418860D01*
X133575263Y-68434999D01*
X133572348Y-68444608D01*
X133567610Y-68453472D01*
X133561237Y-68461237D01*
X133548794Y-68471448D01*
X133538425Y-68478378D01*
X133521098Y-68495705D01*
X133507485Y-68516080D01*
X133498109Y-68538720D01*
X133493329Y-68562753D01*
X133493330Y-68587257D01*
X133498112Y-68611290D01*
X133507490Y-68633929D01*
X133521105Y-68654302D01*
X133538432Y-68671629D01*
X133548802Y-68678558D01*
X133561237Y-68688763D01*
X133567610Y-68696528D01*
X133572348Y-68705392D01*
X133575263Y-68715001D01*
X133576852Y-68731140D01*
X133576852Y-69218862D01*
X133575046Y-69237199D01*
X133574444Y-69249450D01*
X133574444Y-69267869D01*
X133572250Y-69290149D01*
X133555524Y-69374233D01*
X133549024Y-69395660D01*
X133516220Y-69474858D01*
X133513309Y-69480303D01*
X133513307Y-69480309D01*
X133508571Y-69489169D01*
X133508568Y-69489173D01*
X133505660Y-69494614D01*
X133458029Y-69565899D01*
X133443828Y-69583204D01*
X133383204Y-69643828D01*
X133365899Y-69658029D01*
X133294614Y-69705660D01*
X133289173Y-69708568D01*
X133289169Y-69708571D01*
X133280309Y-69713307D01*
X133280303Y-69713309D01*
X133274858Y-69716220D01*
X133195660Y-69749024D01*
X133174233Y-69755524D01*
X133090149Y-69772250D01*
X133067869Y-69774444D01*
X133049450Y-69774444D01*
X133037199Y-69775046D01*
X133018862Y-69776852D01*
X132531138Y-69776852D01*
X132512801Y-69775046D01*
X132500550Y-69774444D01*
X132482131Y-69774444D01*
X132459851Y-69772250D01*
X132375767Y-69755524D01*
X132354340Y-69749024D01*
X132275142Y-69716220D01*
X132269697Y-69713309D01*
X132269691Y-69713307D01*
X132260831Y-69708571D01*
X132260827Y-69708568D01*
X132255386Y-69705660D01*
X132184101Y-69658029D01*
X132166796Y-69643828D01*
X132106172Y-69583204D01*
X132091971Y-69565899D01*
X132044340Y-69494614D01*
X132041432Y-69489173D01*
X132041429Y-69489169D01*
X132036693Y-69480309D01*
X132036691Y-69480303D01*
X132033780Y-69474858D01*
X132000976Y-69395660D01*
X131994476Y-69374233D01*
X131977750Y-69290149D01*
X131975556Y-69267869D01*
X131975556Y-69249450D01*
X131974954Y-69237199D01*
X131973148Y-69218862D01*
X131973148Y-68731140D01*
X131974737Y-68715001D01*
X131977652Y-68705392D01*
X131982390Y-68696528D01*
X131988763Y-68688763D01*
X132001206Y-68678552D01*
X132011575Y-68671622D01*
X132028902Y-68654295D01*
X132042515Y-68633920D01*
X132051891Y-68611280D01*
X132056671Y-68587247D01*
X132056670Y-68562743D01*
X132051888Y-68538710D01*
X132042510Y-68516071D01*
X132028895Y-68495698D01*
X132011568Y-68478371D01*
X132001198Y-68471442D01*
X131988763Y-68461237D01*
X131982390Y-68453472D01*
X131977652Y-68444608D01*
X131974737Y-68434999D01*
X131973148Y-68418860D01*
X131973148Y-67931139D01*
X131974954Y-67912801D01*
X131975556Y-67900550D01*
X131975556Y-67882131D01*
X131977750Y-67859851D01*
X131994476Y-67775767D01*
X132000976Y-67754340D01*
X132033780Y-67675142D01*
X132036691Y-67669697D01*
X132036693Y-67669691D01*
X132041429Y-67660831D01*
X132041432Y-67660827D01*
X132044340Y-67655386D01*
X132091971Y-67584101D01*
X132106172Y-67566796D01*
X132166796Y-67506172D01*
X132184101Y-67491971D01*
X132255386Y-67444340D01*
X132260827Y-67441432D01*
X132260831Y-67441429D01*
X132269691Y-67436693D01*
X132269697Y-67436691D01*
X132275142Y-67433780D01*
X132354340Y-67400976D01*
X132375767Y-67394476D01*
X132459851Y-67377750D01*
X132482131Y-67375556D01*
X132500550Y-67375556D01*
X132512801Y-67374954D01*
X132531139Y-67373148D01*
X133018861Y-67373148D01*
X133037199Y-67374954D01*
G37*
G36*
X138463228Y-67426704D02*
G01*
X138618100Y-67490854D01*
X138757481Y-67583986D01*
X138876015Y-67702520D01*
X138969147Y-67841901D01*
X139033297Y-67996773D01*
X139066000Y-68161185D01*
X139066000Y-68328817D01*
X139033297Y-68493229D01*
X138969147Y-68648101D01*
X138876015Y-68787482D01*
X138757481Y-68906016D01*
X138618100Y-68999148D01*
X138463228Y-69063298D01*
X138298816Y-69096001D01*
X138131184Y-69096001D01*
X137966772Y-69063298D01*
X137811900Y-68999148D01*
X137672519Y-68906016D01*
X137553985Y-68787482D01*
X137460853Y-68648101D01*
X137396703Y-68493229D01*
X137364000Y-68328817D01*
X137364000Y-68161185D01*
X137396703Y-67996773D01*
X137460853Y-67841901D01*
X137553985Y-67702520D01*
X137672519Y-67583986D01*
X137811900Y-67490854D01*
X137966772Y-67426704D01*
X138131184Y-67394001D01*
X138298816Y-67394001D01*
X138463228Y-67426704D01*
G37*
G36*
X123223228Y-67426704D02*
G01*
X123378100Y-67490854D01*
X123517481Y-67583986D01*
X123636015Y-67702520D01*
X123729147Y-67841901D01*
X123793297Y-67996773D01*
X123826000Y-68161185D01*
X123826000Y-68328817D01*
X123793297Y-68493229D01*
X123729147Y-68648101D01*
X123636015Y-68787482D01*
X123517481Y-68906016D01*
X123378100Y-68999148D01*
X123223228Y-69063298D01*
X123058816Y-69096001D01*
X122891184Y-69096001D01*
X122726772Y-69063298D01*
X122571900Y-68999148D01*
X122432519Y-68906016D01*
X122313985Y-68787482D01*
X122220853Y-68648101D01*
X122156703Y-68493229D01*
X122124000Y-68328817D01*
X122124000Y-68161185D01*
X122156703Y-67996773D01*
X122220853Y-67841901D01*
X122313985Y-67702520D01*
X122432519Y-67583986D01*
X122571900Y-67490854D01*
X122726772Y-67426704D01*
X122891184Y-67394001D01*
X123058816Y-67394001D01*
X123223228Y-67426704D01*
G37*
G36*
X125248229Y-67426704D02*
G01*
X125403101Y-67490854D01*
X125542482Y-67583986D01*
X125661016Y-67702520D01*
X125754148Y-67841901D01*
X125818298Y-67996773D01*
X125851001Y-68161185D01*
X125851001Y-68328817D01*
X125818298Y-68493229D01*
X125754148Y-68648101D01*
X125661016Y-68787482D01*
X125542482Y-68906016D01*
X125403101Y-68999148D01*
X125248229Y-69063298D01*
X125083817Y-69096001D01*
X124916185Y-69096001D01*
X124751773Y-69063298D01*
X124596901Y-68999148D01*
X124457520Y-68906016D01*
X124338986Y-68787482D01*
X124245854Y-68648101D01*
X124181704Y-68493229D01*
X124149001Y-68328817D01*
X124149001Y-68161185D01*
X124181704Y-67996773D01*
X124245854Y-67841901D01*
X124338986Y-67702520D01*
X124457520Y-67583986D01*
X124596901Y-67490854D01*
X124751773Y-67426704D01*
X124916185Y-67394001D01*
X125083817Y-67394001D01*
X125248229Y-67426704D01*
G37*
G36*
X140488229Y-67426704D02*
G01*
X140643101Y-67490854D01*
X140782482Y-67583986D01*
X140901016Y-67702520D01*
X140994148Y-67841901D01*
X141058298Y-67996773D01*
X141091001Y-68161185D01*
X141091001Y-68328817D01*
X141058298Y-68493229D01*
X140994148Y-68648101D01*
X140901016Y-68787482D01*
X140782482Y-68906016D01*
X140643101Y-68999148D01*
X140488229Y-69063298D01*
X140323817Y-69096001D01*
X140156185Y-69096001D01*
X139991773Y-69063298D01*
X139836901Y-68999148D01*
X139697520Y-68906016D01*
X139578986Y-68787482D01*
X139485854Y-68648101D01*
X139421704Y-68493229D01*
X139389001Y-68328817D01*
X139389001Y-68161185D01*
X139421704Y-67996773D01*
X139485854Y-67841901D01*
X139578986Y-67702520D01*
X139697520Y-67583986D01*
X139836901Y-67490854D01*
X139991773Y-67426704D01*
X140156185Y-67394001D01*
X140323817Y-67394001D01*
X140488229Y-67426704D01*
G37*
G36*
X123223228Y-64886704D02*
G01*
X123378100Y-64950854D01*
X123517481Y-65043986D01*
X123636015Y-65162520D01*
X123729147Y-65301901D01*
X123793297Y-65456773D01*
X123826000Y-65621185D01*
X123826000Y-65788817D01*
X123793297Y-65953229D01*
X123729147Y-66108101D01*
X123636015Y-66247482D01*
X123517481Y-66366016D01*
X123378100Y-66459148D01*
X123223228Y-66523298D01*
X123058816Y-66556001D01*
X122891184Y-66556001D01*
X122726772Y-66523298D01*
X122571900Y-66459148D01*
X122432519Y-66366016D01*
X122313985Y-66247482D01*
X122220853Y-66108101D01*
X122156703Y-65953229D01*
X122124000Y-65788817D01*
X122124000Y-65621185D01*
X122156703Y-65456773D01*
X122220853Y-65301901D01*
X122313985Y-65162520D01*
X122432519Y-65043986D01*
X122571900Y-64950854D01*
X122726772Y-64886704D01*
X122891184Y-64854001D01*
X123058816Y-64854001D01*
X123223228Y-64886704D01*
G37*
G36*
X125248229Y-64886704D02*
G01*
X125403101Y-64950854D01*
X125542482Y-65043986D01*
X125661016Y-65162520D01*
X125754148Y-65301901D01*
X125818298Y-65456773D01*
X125851001Y-65621185D01*
X125851001Y-65788817D01*
X125818298Y-65953229D01*
X125754148Y-66108101D01*
X125661016Y-66247482D01*
X125542482Y-66366016D01*
X125403101Y-66459148D01*
X125248229Y-66523298D01*
X125083817Y-66556001D01*
X124916185Y-66556001D01*
X124751773Y-66523298D01*
X124596901Y-66459148D01*
X124457520Y-66366016D01*
X124338986Y-66247482D01*
X124245854Y-66108101D01*
X124181704Y-65953229D01*
X124149001Y-65788817D01*
X124149001Y-65621185D01*
X124181704Y-65456773D01*
X124245854Y-65301901D01*
X124338986Y-65162520D01*
X124457520Y-65043986D01*
X124596901Y-64950854D01*
X124751773Y-64886704D01*
X124916185Y-64854001D01*
X125083817Y-64854001D01*
X125248229Y-64886704D01*
G37*
G36*
X138463228Y-64886704D02*
G01*
X138618100Y-64950854D01*
X138757481Y-65043986D01*
X138876015Y-65162520D01*
X138969147Y-65301901D01*
X139033297Y-65456773D01*
X139066000Y-65621185D01*
X139066000Y-65788817D01*
X139033297Y-65953229D01*
X138969147Y-66108101D01*
X138876015Y-66247482D01*
X138757481Y-66366016D01*
X138618100Y-66459148D01*
X138463228Y-66523298D01*
X138298816Y-66556001D01*
X138131184Y-66556001D01*
X137966772Y-66523298D01*
X137811900Y-66459148D01*
X137672519Y-66366016D01*
X137553985Y-66247482D01*
X137460853Y-66108101D01*
X137396703Y-65953229D01*
X137364000Y-65788817D01*
X137364000Y-65621185D01*
X137396703Y-65456773D01*
X137460853Y-65301901D01*
X137553985Y-65162520D01*
X137672519Y-65043986D01*
X137811900Y-64950854D01*
X137966772Y-64886704D01*
X138131184Y-64854001D01*
X138298816Y-64854001D01*
X138463228Y-64886704D01*
G37*
G36*
X140488229Y-64886704D02*
G01*
X140643101Y-64950854D01*
X140782482Y-65043986D01*
X140901016Y-65162520D01*
X140994148Y-65301901D01*
X141058298Y-65456773D01*
X141091001Y-65621185D01*
X141091001Y-65788817D01*
X141058298Y-65953229D01*
X140994148Y-66108101D01*
X140901016Y-66247482D01*
X140782482Y-66366016D01*
X140643101Y-66459148D01*
X140488229Y-66523298D01*
X140323817Y-66556001D01*
X140156185Y-66556001D01*
X139991773Y-66523298D01*
X139836901Y-66459148D01*
X139697520Y-66366016D01*
X139578986Y-66247482D01*
X139485854Y-66108101D01*
X139421704Y-65953229D01*
X139389001Y-65788817D01*
X139389001Y-65621185D01*
X139421704Y-65456773D01*
X139485854Y-65301901D01*
X139578986Y-65162520D01*
X139697520Y-65043986D01*
X139836901Y-64950854D01*
X139991773Y-64886704D01*
X140156185Y-64854001D01*
X140323817Y-64854001D01*
X140488229Y-64886704D01*
G37*
G36*
X138463228Y-62346704D02*
G01*
X138618100Y-62410854D01*
X138757481Y-62503986D01*
X138876015Y-62622520D01*
X138969147Y-62761901D01*
X139033297Y-62916773D01*
X139066000Y-63081185D01*
X139066000Y-63248817D01*
X139033297Y-63413229D01*
X138969147Y-63568101D01*
X138876015Y-63707482D01*
X138757481Y-63826016D01*
X138618100Y-63919148D01*
X138463228Y-63983298D01*
X138298816Y-64016001D01*
X138131184Y-64016001D01*
X137966772Y-63983298D01*
X137811900Y-63919148D01*
X137672519Y-63826016D01*
X137553985Y-63707482D01*
X137460853Y-63568101D01*
X137396703Y-63413229D01*
X137364000Y-63248817D01*
X137364000Y-63081185D01*
X137396703Y-62916773D01*
X137460853Y-62761901D01*
X137553985Y-62622520D01*
X137672519Y-62503986D01*
X137811900Y-62410854D01*
X137966772Y-62346704D01*
X138131184Y-62314001D01*
X138298816Y-62314001D01*
X138463228Y-62346704D01*
G37*
G36*
X140488229Y-62346704D02*
G01*
X140643101Y-62410854D01*
X140782482Y-62503986D01*
X140901016Y-62622520D01*
X140994148Y-62761901D01*
X141058298Y-62916773D01*
X141091001Y-63081185D01*
X141091001Y-63248817D01*
X141058298Y-63413229D01*
X140994148Y-63568101D01*
X140901016Y-63707482D01*
X140782482Y-63826016D01*
X140643101Y-63919148D01*
X140488229Y-63983298D01*
X140323817Y-64016001D01*
X140156185Y-64016001D01*
X139991773Y-63983298D01*
X139836901Y-63919148D01*
X139697520Y-63826016D01*
X139578986Y-63707482D01*
X139485854Y-63568101D01*
X139421704Y-63413229D01*
X139389001Y-63248817D01*
X139389001Y-63081185D01*
X139421704Y-62916773D01*
X139485854Y-62761901D01*
X139578986Y-62622520D01*
X139697520Y-62503986D01*
X139836901Y-62410854D01*
X139991773Y-62346704D01*
X140156185Y-62314001D01*
X140323817Y-62314001D01*
X140488229Y-62346704D01*
G37*
G36*
X125248229Y-62346704D02*
G01*
X125403101Y-62410854D01*
X125542482Y-62503986D01*
X125661016Y-62622520D01*
X125754148Y-62761901D01*
X125818298Y-62916773D01*
X125851001Y-63081185D01*
X125851001Y-63248817D01*
X125818298Y-63413229D01*
X125754148Y-63568101D01*
X125661016Y-63707482D01*
X125542482Y-63826016D01*
X125403101Y-63919148D01*
X125248229Y-63983298D01*
X125083817Y-64016001D01*
X124916185Y-64016001D01*
X124751773Y-63983298D01*
X124596901Y-63919148D01*
X124457520Y-63826016D01*
X124338986Y-63707482D01*
X124245854Y-63568101D01*
X124181704Y-63413229D01*
X124149001Y-63248817D01*
X124149001Y-63081185D01*
X124181704Y-62916773D01*
X124245854Y-62761901D01*
X124338986Y-62622520D01*
X124457520Y-62503986D01*
X124596901Y-62410854D01*
X124751773Y-62346704D01*
X124916185Y-62314001D01*
X125083817Y-62314001D01*
X125248229Y-62346704D01*
G37*
G36*
X123223228Y-62346704D02*
G01*
X123378100Y-62410854D01*
X123517481Y-62503986D01*
X123636015Y-62622520D01*
X123729147Y-62761901D01*
X123793297Y-62916773D01*
X123826000Y-63081185D01*
X123826000Y-63248817D01*
X123793297Y-63413229D01*
X123729147Y-63568101D01*
X123636015Y-63707482D01*
X123517481Y-63826016D01*
X123378100Y-63919148D01*
X123223228Y-63983298D01*
X123058816Y-64016001D01*
X122891184Y-64016001D01*
X122726772Y-63983298D01*
X122571900Y-63919148D01*
X122432519Y-63826016D01*
X122313985Y-63707482D01*
X122220853Y-63568101D01*
X122156703Y-63413229D01*
X122124000Y-63248817D01*
X122124000Y-63081185D01*
X122156703Y-62916773D01*
X122220853Y-62761901D01*
X122313985Y-62622520D01*
X122432519Y-62503986D01*
X122571900Y-62410854D01*
X122726772Y-62346704D01*
X122891184Y-62314001D01*
X123058816Y-62314001D01*
X123223228Y-62346704D01*
G37*
G36*
X140488229Y-59806704D02*
G01*
X140643101Y-59870854D01*
X140782482Y-59963986D01*
X140901016Y-60082520D01*
X140994148Y-60221901D01*
X141058298Y-60376773D01*
X141091001Y-60541185D01*
X141091001Y-60708817D01*
X141058298Y-60873229D01*
X140994148Y-61028101D01*
X140901016Y-61167482D01*
X140782482Y-61286016D01*
X140643101Y-61379148D01*
X140488229Y-61443298D01*
X140323817Y-61476001D01*
X140156185Y-61476001D01*
X139991773Y-61443298D01*
X139836901Y-61379148D01*
X139697520Y-61286016D01*
X139578986Y-61167482D01*
X139485854Y-61028101D01*
X139421704Y-60873229D01*
X139389001Y-60708817D01*
X139389001Y-60541185D01*
X139421704Y-60376773D01*
X139485854Y-60221901D01*
X139578986Y-60082520D01*
X139697520Y-59963986D01*
X139836901Y-59870854D01*
X139991773Y-59806704D01*
X140156185Y-59774001D01*
X140323817Y-59774001D01*
X140488229Y-59806704D01*
G37*
G36*
X123826000Y-61476001D02*
G01*
X122124000Y-61476001D01*
X122124000Y-59774001D01*
X123826000Y-59774001D01*
X123826000Y-61476001D01*
G37*
G36*
X138463228Y-59806704D02*
G01*
X138618100Y-59870854D01*
X138757481Y-59963986D01*
X138876015Y-60082520D01*
X138969147Y-60221901D01*
X139033297Y-60376773D01*
X139066000Y-60541185D01*
X139066000Y-60708817D01*
X139033297Y-60873229D01*
X138969147Y-61028101D01*
X138876015Y-61167482D01*
X138757481Y-61286016D01*
X138618100Y-61379148D01*
X138463228Y-61443298D01*
X138298816Y-61476001D01*
X138131184Y-61476001D01*
X137966772Y-61443298D01*
X137811900Y-61379148D01*
X137672519Y-61286016D01*
X137553985Y-61167482D01*
X137460853Y-61028101D01*
X137396703Y-60873229D01*
X137364000Y-60708817D01*
X137364000Y-60541185D01*
X137396703Y-60376773D01*
X137460853Y-60221901D01*
X137553985Y-60082520D01*
X137672519Y-59963986D01*
X137811900Y-59870854D01*
X137966772Y-59806704D01*
X138131184Y-59774001D01*
X138298816Y-59774001D01*
X138463228Y-59806704D01*
G37*
G36*
X125851001Y-61476001D02*
G01*
X124149001Y-61476001D01*
X124149001Y-59774001D01*
X125851001Y-59774001D01*
X125851001Y-61476001D01*
G37*
M02*
