G04 #@! TF.GenerationSoftware,KiCad,Pcbnew,5.1.5+dfsg1-2build2*
G04 #@! TF.CreationDate,2022-03-13T21:19:34-04:00*
G04 #@! TF.ProjectId,vdg_breakout,7664675f-6272-4656-916b-6f75742e6b69,rev?*
G04 #@! TF.SameCoordinates,Original*
G04 #@! TF.FileFunction,Legend,Bot*
G04 #@! TF.FilePolarity,Positive*
%FSLAX46Y46*%
G04 Gerber Fmt 4.6, Leading zero omitted, Abs format (unit mm)*
G04 Created by KiCad (PCBNEW 5.1.5+dfsg1-2build2) date 2022-03-13 21:19:34*
%MOMM*%
%LPD*%
G04 APERTURE LIST*
%ADD10C,0.150000*%
%ADD11C,0.120000*%
G04 APERTURE END LIST*
D10*
X112946428Y-103609523D02*
X112898809Y-103466666D01*
X112851190Y-103419047D01*
X112755952Y-103371428D01*
X112613095Y-103371428D01*
X112517857Y-103419047D01*
X112470238Y-103466666D01*
X112422619Y-103561904D01*
X112422619Y-103942857D01*
X113422619Y-103942857D01*
X113422619Y-103609523D01*
X113375000Y-103514285D01*
X113327380Y-103466666D01*
X113232142Y-103419047D01*
X113136904Y-103419047D01*
X113041666Y-103466666D01*
X112994047Y-103514285D01*
X112946428Y-103609523D01*
X112946428Y-103942857D01*
X112422619Y-102466666D02*
X112422619Y-102942857D01*
X113422619Y-102942857D01*
X113422619Y-102133333D02*
X112613095Y-102133333D01*
X112517857Y-102085714D01*
X112470238Y-102038095D01*
X112422619Y-101942857D01*
X112422619Y-101752380D01*
X112470238Y-101657142D01*
X112517857Y-101609523D01*
X112613095Y-101561904D01*
X113422619Y-101561904D01*
X112946428Y-101085714D02*
X112946428Y-100752380D01*
X112422619Y-100609523D02*
X112422619Y-101085714D01*
X113422619Y-101085714D01*
X113422619Y-100609523D01*
X135350000Y-92416666D02*
X135397619Y-92511904D01*
X135397619Y-92654761D01*
X135350000Y-92797619D01*
X135254761Y-92892857D01*
X135159523Y-92940476D01*
X134969047Y-92988095D01*
X134826190Y-92988095D01*
X134635714Y-92940476D01*
X134540476Y-92892857D01*
X134445238Y-92797619D01*
X134397619Y-92654761D01*
X134397619Y-92559523D01*
X134445238Y-92416666D01*
X134492857Y-92369047D01*
X134826190Y-92369047D01*
X134826190Y-92559523D01*
X134397619Y-91369047D02*
X134873809Y-91702380D01*
X134397619Y-91940476D02*
X135397619Y-91940476D01*
X135397619Y-91559523D01*
X135350000Y-91464285D01*
X135302380Y-91416666D01*
X135207142Y-91369047D01*
X135064285Y-91369047D01*
X134969047Y-91416666D01*
X134921428Y-91464285D01*
X134873809Y-91559523D01*
X134873809Y-91940476D01*
X134921428Y-90940476D02*
X134921428Y-90607142D01*
X134397619Y-90464285D02*
X134397619Y-90940476D01*
X135397619Y-90940476D01*
X135397619Y-90464285D01*
X134921428Y-90035714D02*
X134921428Y-89702380D01*
X134397619Y-89559523D02*
X134397619Y-90035714D01*
X135397619Y-90035714D01*
X135397619Y-89559523D01*
X134397619Y-89130952D02*
X135397619Y-89130952D01*
X134397619Y-88559523D01*
X135397619Y-88559523D01*
X134472619Y-84267857D02*
X134948809Y-84601190D01*
X134472619Y-84839285D02*
X135472619Y-84839285D01*
X135472619Y-84458333D01*
X135425000Y-84363095D01*
X135377380Y-84315476D01*
X135282142Y-84267857D01*
X135139285Y-84267857D01*
X135044047Y-84315476D01*
X134996428Y-84363095D01*
X134948809Y-84458333D01*
X134948809Y-84839285D01*
X134996428Y-83839285D02*
X134996428Y-83505952D01*
X134472619Y-83363095D02*
X134472619Y-83839285D01*
X135472619Y-83839285D01*
X135472619Y-83363095D01*
X134472619Y-82934523D02*
X135472619Y-82934523D01*
X135472619Y-82696428D01*
X135425000Y-82553571D01*
X135329761Y-82458333D01*
X135234523Y-82410714D01*
X135044047Y-82363095D01*
X134901190Y-82363095D01*
X134710714Y-82410714D01*
X134615476Y-82458333D01*
X134520238Y-82553571D01*
X134472619Y-82696428D01*
X134472619Y-82934523D01*
X135071428Y-77559523D02*
X135023809Y-77416666D01*
X134976190Y-77369047D01*
X134880952Y-77321428D01*
X134738095Y-77321428D01*
X134642857Y-77369047D01*
X134595238Y-77416666D01*
X134547619Y-77511904D01*
X134547619Y-77892857D01*
X135547619Y-77892857D01*
X135547619Y-77559523D01*
X135500000Y-77464285D01*
X135452380Y-77416666D01*
X135357142Y-77369047D01*
X135261904Y-77369047D01*
X135166666Y-77416666D01*
X135119047Y-77464285D01*
X135071428Y-77559523D01*
X135071428Y-77892857D01*
X134547619Y-76416666D02*
X134547619Y-76892857D01*
X135547619Y-76892857D01*
X135547619Y-76083333D02*
X134738095Y-76083333D01*
X134642857Y-76035714D01*
X134595238Y-75988095D01*
X134547619Y-75892857D01*
X134547619Y-75702380D01*
X134595238Y-75607142D01*
X134642857Y-75559523D01*
X134738095Y-75511904D01*
X135547619Y-75511904D01*
X135071428Y-75035714D02*
X135071428Y-74702380D01*
X134547619Y-74559523D02*
X134547619Y-75035714D01*
X135547619Y-75035714D01*
X135547619Y-74559523D01*
X134583333Y-70641666D02*
X134583333Y-70165476D01*
X134297619Y-70736904D02*
X135297619Y-70403571D01*
X134297619Y-70070238D01*
X134345238Y-69784523D02*
X134297619Y-69641666D01*
X134297619Y-69403571D01*
X134345238Y-69308333D01*
X134392857Y-69260714D01*
X134488095Y-69213095D01*
X134583333Y-69213095D01*
X134678571Y-69260714D01*
X134726190Y-69308333D01*
X134773809Y-69403571D01*
X134821428Y-69594047D01*
X134869047Y-69689285D01*
X134916666Y-69736904D01*
X135011904Y-69784523D01*
X135107142Y-69784523D01*
X135202380Y-69736904D01*
X135250000Y-69689285D01*
X135297619Y-69594047D01*
X135297619Y-69355952D01*
X135250000Y-69213095D01*
X134773809Y-68594047D02*
X134297619Y-68594047D01*
X135297619Y-68927380D02*
X134773809Y-68594047D01*
X135297619Y-68260714D01*
X134297619Y-67927380D02*
X135297619Y-67927380D01*
X134297619Y-67355952D01*
X135297619Y-67355952D01*
X134392857Y-66308333D02*
X134345238Y-66355952D01*
X134297619Y-66498809D01*
X134297619Y-66594047D01*
X134345238Y-66736904D01*
X134440476Y-66832142D01*
X134535714Y-66879761D01*
X134726190Y-66927380D01*
X134869047Y-66927380D01*
X135059523Y-66879761D01*
X135154761Y-66832142D01*
X135250000Y-66736904D01*
X135297619Y-66594047D01*
X135297619Y-66498809D01*
X135250000Y-66355952D01*
X135202380Y-66308333D01*
X113825000Y-97836904D02*
X113872619Y-97932142D01*
X113872619Y-98075000D01*
X113825000Y-98217857D01*
X113729761Y-98313095D01*
X113634523Y-98360714D01*
X113444047Y-98408333D01*
X113301190Y-98408333D01*
X113110714Y-98360714D01*
X113015476Y-98313095D01*
X112920238Y-98217857D01*
X112872619Y-98075000D01*
X112872619Y-97979761D01*
X112920238Y-97836904D01*
X112967857Y-97789285D01*
X113301190Y-97789285D01*
X113301190Y-97979761D01*
X112872619Y-97360714D02*
X113872619Y-97360714D01*
X112872619Y-96789285D01*
X113872619Y-96789285D01*
X112872619Y-96313095D02*
X113872619Y-96313095D01*
X113872619Y-96075000D01*
X113825000Y-95932142D01*
X113729761Y-95836904D01*
X113634523Y-95789285D01*
X113444047Y-95741666D01*
X113301190Y-95741666D01*
X113110714Y-95789285D01*
X113015476Y-95836904D01*
X112920238Y-95932142D01*
X112872619Y-96075000D01*
X112872619Y-96313095D01*
X112872619Y-107742857D02*
X113348809Y-108076190D01*
X112872619Y-108314285D02*
X113872619Y-108314285D01*
X113872619Y-107933333D01*
X113825000Y-107838095D01*
X113777380Y-107790476D01*
X113682142Y-107742857D01*
X113539285Y-107742857D01*
X113444047Y-107790476D01*
X113396428Y-107838095D01*
X113348809Y-107933333D01*
X113348809Y-108314285D01*
X113396428Y-107314285D02*
X113396428Y-106980952D01*
X112872619Y-106838095D02*
X112872619Y-107314285D01*
X113872619Y-107314285D01*
X113872619Y-106838095D01*
X112872619Y-106409523D02*
X113872619Y-106409523D01*
X113872619Y-106171428D01*
X113825000Y-106028571D01*
X113729761Y-105933333D01*
X113634523Y-105885714D01*
X113444047Y-105838095D01*
X113301190Y-105838095D01*
X113110714Y-105885714D01*
X113015476Y-105933333D01*
X112920238Y-106028571D01*
X112872619Y-106171428D01*
X112872619Y-106409523D01*
X118583333Y-98641666D02*
X118583333Y-98165476D01*
X118297619Y-98736904D02*
X119297619Y-98403571D01*
X118297619Y-98070238D01*
X118345238Y-97784523D02*
X118297619Y-97641666D01*
X118297619Y-97403571D01*
X118345238Y-97308333D01*
X118392857Y-97260714D01*
X118488095Y-97213095D01*
X118583333Y-97213095D01*
X118678571Y-97260714D01*
X118726190Y-97308333D01*
X118773809Y-97403571D01*
X118821428Y-97594047D01*
X118869047Y-97689285D01*
X118916666Y-97736904D01*
X119011904Y-97784523D01*
X119107142Y-97784523D01*
X119202380Y-97736904D01*
X119250000Y-97689285D01*
X119297619Y-97594047D01*
X119297619Y-97355952D01*
X119250000Y-97213095D01*
X118773809Y-96594047D02*
X118297619Y-96594047D01*
X119297619Y-96927380D02*
X118773809Y-96594047D01*
X119297619Y-96260714D01*
X118297619Y-95927380D02*
X119297619Y-95927380D01*
X118297619Y-95355952D01*
X119297619Y-95355952D01*
X118392857Y-94308333D02*
X118345238Y-94355952D01*
X118297619Y-94498809D01*
X118297619Y-94594047D01*
X118345238Y-94736904D01*
X118440476Y-94832142D01*
X118535714Y-94879761D01*
X118726190Y-94927380D01*
X118869047Y-94927380D01*
X119059523Y-94879761D01*
X119154761Y-94832142D01*
X119250000Y-94736904D01*
X119297619Y-94594047D01*
X119297619Y-94498809D01*
X119250000Y-94355952D01*
X119202380Y-94308333D01*
X119975000Y-104141666D02*
X120022619Y-104236904D01*
X120022619Y-104379761D01*
X119975000Y-104522619D01*
X119879761Y-104617857D01*
X119784523Y-104665476D01*
X119594047Y-104713095D01*
X119451190Y-104713095D01*
X119260714Y-104665476D01*
X119165476Y-104617857D01*
X119070238Y-104522619D01*
X119022619Y-104379761D01*
X119022619Y-104284523D01*
X119070238Y-104141666D01*
X119117857Y-104094047D01*
X119451190Y-104094047D01*
X119451190Y-104284523D01*
X119022619Y-103094047D02*
X119498809Y-103427380D01*
X119022619Y-103665476D02*
X120022619Y-103665476D01*
X120022619Y-103284523D01*
X119975000Y-103189285D01*
X119927380Y-103141666D01*
X119832142Y-103094047D01*
X119689285Y-103094047D01*
X119594047Y-103141666D01*
X119546428Y-103189285D01*
X119498809Y-103284523D01*
X119498809Y-103665476D01*
X119546428Y-102665476D02*
X119546428Y-102332142D01*
X119022619Y-102189285D02*
X119022619Y-102665476D01*
X120022619Y-102665476D01*
X120022619Y-102189285D01*
X119546428Y-101760714D02*
X119546428Y-101427380D01*
X119022619Y-101284523D02*
X119022619Y-101760714D01*
X120022619Y-101760714D01*
X120022619Y-101284523D01*
X119022619Y-100855952D02*
X120022619Y-100855952D01*
X119022619Y-100284523D01*
X120022619Y-100284523D01*
X118478571Y-108735714D02*
X118478571Y-107973809D01*
X118097619Y-108354761D02*
X118859523Y-108354761D01*
X119097619Y-107021428D02*
X119097619Y-107497619D01*
X118621428Y-107545238D01*
X118669047Y-107497619D01*
X118716666Y-107402380D01*
X118716666Y-107164285D01*
X118669047Y-107069047D01*
X118621428Y-107021428D01*
X118526190Y-106973809D01*
X118288095Y-106973809D01*
X118192857Y-107021428D01*
X118145238Y-107069047D01*
X118097619Y-107164285D01*
X118097619Y-107402380D01*
X118145238Y-107497619D01*
X118192857Y-107545238D01*
X119097619Y-106688095D02*
X118097619Y-106354761D01*
X119097619Y-106021428D01*
X114678571Y-93985714D02*
X114678571Y-93223809D01*
X114297619Y-93604761D02*
X115059523Y-93604761D01*
X115297619Y-92271428D02*
X115297619Y-92747619D01*
X114821428Y-92795238D01*
X114869047Y-92747619D01*
X114916666Y-92652380D01*
X114916666Y-92414285D01*
X114869047Y-92319047D01*
X114821428Y-92271428D01*
X114726190Y-92223809D01*
X114488095Y-92223809D01*
X114392857Y-92271428D01*
X114345238Y-92319047D01*
X114297619Y-92414285D01*
X114297619Y-92652380D01*
X114345238Y-92747619D01*
X114392857Y-92795238D01*
X115297619Y-91938095D02*
X114297619Y-91604761D01*
X115297619Y-91271428D01*
X132825000Y-88376190D02*
X132825000Y-88852380D01*
X133158333Y-87852380D02*
X132825000Y-88376190D01*
X132491666Y-87852380D01*
X133301190Y-80727380D02*
X133205952Y-80727380D01*
X133110714Y-80775000D01*
X133063095Y-80822619D01*
X133015476Y-80917857D01*
X132967857Y-81108333D01*
X132967857Y-81346428D01*
X133015476Y-81536904D01*
X133063095Y-81632142D01*
X133110714Y-81679761D01*
X133205952Y-81727380D01*
X133301190Y-81727380D01*
X133396428Y-81679761D01*
X133444047Y-81632142D01*
X133491666Y-81536904D01*
X133539285Y-81346428D01*
X133539285Y-81108333D01*
X133491666Y-80917857D01*
X133444047Y-80822619D01*
X133396428Y-80775000D01*
X133301190Y-80727380D01*
X132586904Y-81441666D02*
X132110714Y-81441666D01*
X132682142Y-81727380D02*
X132348809Y-80727380D01*
X132015476Y-81727380D01*
X133372619Y-73002380D02*
X133277380Y-73002380D01*
X133182142Y-73050000D01*
X133134523Y-73097619D01*
X133086904Y-73192857D01*
X133039285Y-73383333D01*
X133039285Y-73621428D01*
X133086904Y-73811904D01*
X133134523Y-73907142D01*
X133182142Y-73954761D01*
X133277380Y-74002380D01*
X133372619Y-74002380D01*
X133467857Y-73954761D01*
X133515476Y-73907142D01*
X133563095Y-73811904D01*
X133610714Y-73621428D01*
X133610714Y-73383333D01*
X133563095Y-73192857D01*
X133515476Y-73097619D01*
X133467857Y-73050000D01*
X133372619Y-73002380D01*
X132277380Y-73478571D02*
X132134523Y-73526190D01*
X132086904Y-73573809D01*
X132039285Y-73669047D01*
X132039285Y-73811904D01*
X132086904Y-73907142D01*
X132134523Y-73954761D01*
X132229761Y-74002380D01*
X132610714Y-74002380D01*
X132610714Y-73002380D01*
X132277380Y-73002380D01*
X132182142Y-73050000D01*
X132134523Y-73097619D01*
X132086904Y-73192857D01*
X132086904Y-73288095D01*
X132134523Y-73383333D01*
X132182142Y-73430952D01*
X132277380Y-73478571D01*
X132610714Y-73478571D01*
X133436904Y-66352380D02*
X133436904Y-65352380D01*
X133436904Y-65828571D02*
X132865476Y-65828571D01*
X132865476Y-66352380D02*
X132865476Y-65352380D01*
X132436904Y-66304761D02*
X132294047Y-66352380D01*
X132055952Y-66352380D01*
X131960714Y-66304761D01*
X131913095Y-66257142D01*
X131865476Y-66161904D01*
X131865476Y-66066666D01*
X131913095Y-65971428D01*
X131960714Y-65923809D01*
X132055952Y-65876190D01*
X132246428Y-65828571D01*
X132341666Y-65780952D01*
X132389285Y-65733333D01*
X132436904Y-65638095D01*
X132436904Y-65542857D01*
X132389285Y-65447619D01*
X132341666Y-65400000D01*
X132246428Y-65352380D01*
X132008333Y-65352380D01*
X131865476Y-65400000D01*
D11*
X114200000Y-91400000D02*
G75*
G03X113500000Y-90700000I-700000J0D01*
G01*
X112900000Y-90700000D02*
G75*
G03X112200000Y-91400000I0J-700000D01*
G01*
X112200000Y-92800000D02*
G75*
G03X112900000Y-93500000I700000J0D01*
G01*
X113500000Y-93500000D02*
G75*
G03X114200000Y-92800000I0J700000D01*
G01*
X112900000Y-93500000D02*
X113500000Y-93500000D01*
X112200000Y-91400000D02*
X112200000Y-92800000D01*
X113500000Y-90700000D02*
X112900000Y-90700000D01*
X114200000Y-92800000D02*
X114200000Y-91400000D01*
X133775000Y-91375000D02*
X133775000Y-89975000D01*
X133075000Y-89275000D02*
X132475000Y-89275000D01*
X131775000Y-89975000D02*
X131775000Y-91375000D01*
X132475000Y-92075000D02*
X133075000Y-92075000D01*
X133075000Y-92075000D02*
G75*
G03X133775000Y-91375000I0J700000D01*
G01*
X131775000Y-91375000D02*
G75*
G03X132475000Y-92075000I700000J0D01*
G01*
X132475000Y-89275000D02*
G75*
G03X131775000Y-89975000I0J-700000D01*
G01*
X133775000Y-89975000D02*
G75*
G03X133075000Y-89275000I-700000J0D01*
G01*
X133775000Y-75462500D02*
G75*
G03X133075000Y-74762500I-700000J0D01*
G01*
X132475000Y-74762500D02*
G75*
G03X131775000Y-75462500I0J-700000D01*
G01*
X131775000Y-76862500D02*
G75*
G03X132475000Y-77562500I700000J0D01*
G01*
X133075000Y-77562500D02*
G75*
G03X133775000Y-76862500I0J700000D01*
G01*
X132475000Y-77562500D02*
X133075000Y-77562500D01*
X131775000Y-75462500D02*
X131775000Y-76862500D01*
X133075000Y-74762500D02*
X132475000Y-74762500D01*
X133775000Y-76862500D02*
X133775000Y-75462500D01*
X133775000Y-67875000D02*
G75*
G03X133075000Y-67175000I-700000J0D01*
G01*
X132475000Y-67175000D02*
G75*
G03X131775000Y-67875000I0J-700000D01*
G01*
X131775000Y-69275000D02*
G75*
G03X132475000Y-69975000I700000J0D01*
G01*
X133075000Y-69975000D02*
G75*
G03X133775000Y-69275000I0J700000D01*
G01*
X132475000Y-69975000D02*
X133075000Y-69975000D01*
X131775000Y-67875000D02*
X131775000Y-69275000D01*
X133075000Y-67175000D02*
X132475000Y-67175000D01*
X133775000Y-69275000D02*
X133775000Y-67875000D01*
X131775000Y-83050000D02*
X131775000Y-84450000D01*
X132475000Y-85150000D02*
X133075000Y-85150000D01*
X133775000Y-84450000D02*
X133775000Y-83050000D01*
X133075000Y-82350000D02*
X132475000Y-82350000D01*
X132475000Y-82350000D02*
G75*
G03X131775000Y-83050000I0J-700000D01*
G01*
X133775000Y-83050000D02*
G75*
G03X133075000Y-82350000I-700000J0D01*
G01*
X133075000Y-85150000D02*
G75*
G03X133775000Y-84450000I0J700000D01*
G01*
X131775000Y-84450000D02*
G75*
G03X132475000Y-85150000I700000J0D01*
G01*
D10*
X113908333Y-94277380D02*
X113908333Y-94991666D01*
X113955952Y-95134523D01*
X114051190Y-95229761D01*
X114194047Y-95277380D01*
X114289285Y-95277380D01*
X113432142Y-95277380D02*
X113432142Y-94277380D01*
X113051190Y-94277380D01*
X112955952Y-94325000D01*
X112908333Y-94372619D01*
X112860714Y-94467857D01*
X112860714Y-94610714D01*
X112908333Y-94705952D01*
X112955952Y-94753571D01*
X113051190Y-94801190D01*
X113432142Y-94801190D01*
X111908333Y-95277380D02*
X112479761Y-95277380D01*
X112194047Y-95277380D02*
X112194047Y-94277380D01*
X112289285Y-94420238D01*
X112384523Y-94515476D01*
X112479761Y-94563095D01*
X131297619Y-91508333D02*
X130583333Y-91508333D01*
X130440476Y-91555952D01*
X130345238Y-91651190D01*
X130297619Y-91794047D01*
X130297619Y-91889285D01*
X130297619Y-91032142D02*
X131297619Y-91032142D01*
X131297619Y-90651190D01*
X131250000Y-90555952D01*
X131202380Y-90508333D01*
X131107142Y-90460714D01*
X130964285Y-90460714D01*
X130869047Y-90508333D01*
X130821428Y-90555952D01*
X130773809Y-90651190D01*
X130773809Y-91032142D01*
X131202380Y-90079761D02*
X131250000Y-90032142D01*
X131297619Y-89936904D01*
X131297619Y-89698809D01*
X131250000Y-89603571D01*
X131202380Y-89555952D01*
X131107142Y-89508333D01*
X131011904Y-89508333D01*
X130869047Y-89555952D01*
X130297619Y-90127380D01*
X130297619Y-89508333D01*
X130027380Y-75229166D02*
X130741666Y-75229166D01*
X130884523Y-75181547D01*
X130979761Y-75086309D01*
X131027380Y-74943452D01*
X131027380Y-74848214D01*
X131027380Y-75705357D02*
X130027380Y-75705357D01*
X130027380Y-76086309D01*
X130075000Y-76181547D01*
X130122619Y-76229166D01*
X130217857Y-76276785D01*
X130360714Y-76276785D01*
X130455952Y-76229166D01*
X130503571Y-76181547D01*
X130551190Y-76086309D01*
X130551190Y-75705357D01*
X130027380Y-76610119D02*
X130027380Y-77229166D01*
X130408333Y-76895833D01*
X130408333Y-77038690D01*
X130455952Y-77133928D01*
X130503571Y-77181547D01*
X130598809Y-77229166D01*
X130836904Y-77229166D01*
X130932142Y-77181547D01*
X130979761Y-77133928D01*
X131027380Y-77038690D01*
X131027380Y-76752976D01*
X130979761Y-76657738D01*
X130932142Y-76610119D01*
X129977380Y-67716666D02*
X130691666Y-67716666D01*
X130834523Y-67669047D01*
X130929761Y-67573809D01*
X130977380Y-67430952D01*
X130977380Y-67335714D01*
X130977380Y-68192857D02*
X129977380Y-68192857D01*
X129977380Y-68573809D01*
X130025000Y-68669047D01*
X130072619Y-68716666D01*
X130167857Y-68764285D01*
X130310714Y-68764285D01*
X130405952Y-68716666D01*
X130453571Y-68669047D01*
X130501190Y-68573809D01*
X130501190Y-68192857D01*
X130310714Y-69621428D02*
X130977380Y-69621428D01*
X129929761Y-69383333D02*
X130644047Y-69145238D01*
X130644047Y-69764285D01*
X130427380Y-82916666D02*
X131141666Y-82916666D01*
X131284523Y-82869047D01*
X131379761Y-82773809D01*
X131427380Y-82630952D01*
X131427380Y-82535714D01*
X131427380Y-83392857D02*
X130427380Y-83392857D01*
X130427380Y-83773809D01*
X130475000Y-83869047D01*
X130522619Y-83916666D01*
X130617857Y-83964285D01*
X130760714Y-83964285D01*
X130855952Y-83916666D01*
X130903571Y-83869047D01*
X130951190Y-83773809D01*
X130951190Y-83392857D01*
X130427380Y-84869047D02*
X130427380Y-84392857D01*
X130903571Y-84345238D01*
X130855952Y-84392857D01*
X130808333Y-84488095D01*
X130808333Y-84726190D01*
X130855952Y-84821428D01*
X130903571Y-84869047D01*
X130998809Y-84916666D01*
X131236904Y-84916666D01*
X131332142Y-84869047D01*
X131379761Y-84821428D01*
X131427380Y-84726190D01*
X131427380Y-84488095D01*
X131379761Y-84392857D01*
X131332142Y-84345238D01*
M02*
