G04 #@! TF.GenerationSoftware,KiCad,Pcbnew,5.1.5+dfsg1-2build2*
G04 #@! TF.CreationDate,2022-03-13T21:19:34-04:00*
G04 #@! TF.ProjectId,vdg_breakout,7664675f-6272-4656-916b-6f75742e6b69,rev?*
G04 #@! TF.SameCoordinates,Original*
G04 #@! TF.FileFunction,Copper,L2,Bot*
G04 #@! TF.FilePolarity,Positive*
%FSLAX46Y46*%
G04 Gerber Fmt 4.6, Leading zero omitted, Abs format (unit mm)*
G04 Created by KiCad (PCBNEW 5.1.5+dfsg1-2build2) date 2022-03-13 21:19:34*
%MOMM*%
%LPD*%
G04 APERTURE LIST*
%ADD10R,1.600000X1.600000*%
%ADD11O,1.600000X1.600000*%
%ADD12C,0.100000*%
%ADD13C,1.700000*%
%ADD14R,1.700000X1.700000*%
%ADD15O,1.700000X1.700000*%
%ADD16C,0.800000*%
%ADD17C,1.500000*%
%ADD18C,0.500000*%
%ADD19C,0.254000*%
G04 APERTURE END LIST*
D10*
X125000001Y-60625001D03*
D11*
X140240001Y-108885001D03*
X125000001Y-63165001D03*
X140240001Y-106345001D03*
X125000001Y-65705001D03*
X140240001Y-103805001D03*
X125000001Y-68245001D03*
X140240001Y-101265001D03*
X125000001Y-70785001D03*
X140240001Y-98725001D03*
X125000001Y-73325001D03*
X140240001Y-96185001D03*
X125000001Y-75865001D03*
X140240001Y-93645001D03*
X125000001Y-78405001D03*
X140240001Y-91105001D03*
X125000001Y-80945001D03*
X140240001Y-88565001D03*
X125000001Y-83485001D03*
X140240001Y-86025001D03*
X125000001Y-86025001D03*
X140240001Y-83485001D03*
X125000001Y-88565001D03*
X140240001Y-80945001D03*
X125000001Y-91105001D03*
X140240001Y-78405001D03*
X125000001Y-93645001D03*
X140240001Y-75865001D03*
X125000001Y-96185001D03*
X140240001Y-73325001D03*
X125000001Y-98725001D03*
X140240001Y-70785001D03*
X125000001Y-101265001D03*
X140240001Y-68245001D03*
X125000001Y-103805001D03*
X140240001Y-65705001D03*
X125000001Y-106345001D03*
X140240001Y-63165001D03*
X125000001Y-108885001D03*
X140240001Y-60625001D03*
X138215000Y-60625001D03*
X122975000Y-108885001D03*
X138215000Y-63165001D03*
X122975000Y-106345001D03*
X138215000Y-65705001D03*
X122975000Y-103805001D03*
X138215000Y-68245001D03*
X122975000Y-101265001D03*
X138215000Y-70785001D03*
X122975000Y-98725001D03*
X138215000Y-73325001D03*
X122975000Y-96185001D03*
X138215000Y-75865001D03*
X122975000Y-93645001D03*
X138215000Y-78405001D03*
X122975000Y-91105001D03*
X138215000Y-80945001D03*
X122975000Y-88565001D03*
X138215000Y-83485001D03*
X122975000Y-86025001D03*
X138215000Y-86025001D03*
X122975000Y-83485001D03*
X138215000Y-88565001D03*
X122975000Y-80945001D03*
X138215000Y-91105001D03*
X122975000Y-78405001D03*
X138215000Y-93645001D03*
X122975000Y-75865001D03*
X138215000Y-96185001D03*
X122975000Y-73325001D03*
X138215000Y-98725001D03*
X122975000Y-70785001D03*
X138215000Y-101265001D03*
X122975000Y-68245001D03*
X138215000Y-103805001D03*
X122975000Y-65705001D03*
X138215000Y-106345001D03*
X122975000Y-63165001D03*
X138215000Y-108885001D03*
D10*
X122975000Y-60625001D03*
G04 #@! TA.AperFunction,ComponentPad*
D12*
G36*
X115599504Y-98951204D02*
G01*
X115623773Y-98954804D01*
X115647571Y-98960765D01*
X115670671Y-98969030D01*
X115692849Y-98979520D01*
X115713893Y-98992133D01*
X115733598Y-99006747D01*
X115751777Y-99023223D01*
X115768253Y-99041402D01*
X115782867Y-99061107D01*
X115795480Y-99082151D01*
X115805970Y-99104329D01*
X115814235Y-99127429D01*
X115820196Y-99151227D01*
X115823796Y-99175496D01*
X115825000Y-99200000D01*
X115825000Y-100400000D01*
X115823796Y-100424504D01*
X115820196Y-100448773D01*
X115814235Y-100472571D01*
X115805970Y-100495671D01*
X115795480Y-100517849D01*
X115782867Y-100538893D01*
X115768253Y-100558598D01*
X115751777Y-100576777D01*
X115733598Y-100593253D01*
X115713893Y-100607867D01*
X115692849Y-100620480D01*
X115670671Y-100630970D01*
X115647571Y-100639235D01*
X115623773Y-100645196D01*
X115599504Y-100648796D01*
X115575000Y-100650000D01*
X114375000Y-100650000D01*
X114350496Y-100648796D01*
X114326227Y-100645196D01*
X114302429Y-100639235D01*
X114279329Y-100630970D01*
X114257151Y-100620480D01*
X114236107Y-100607867D01*
X114216402Y-100593253D01*
X114198223Y-100576777D01*
X114181747Y-100558598D01*
X114167133Y-100538893D01*
X114154520Y-100517849D01*
X114144030Y-100495671D01*
X114135765Y-100472571D01*
X114129804Y-100448773D01*
X114126204Y-100424504D01*
X114125000Y-100400000D01*
X114125000Y-99200000D01*
X114126204Y-99175496D01*
X114129804Y-99151227D01*
X114135765Y-99127429D01*
X114144030Y-99104329D01*
X114154520Y-99082151D01*
X114167133Y-99061107D01*
X114181747Y-99041402D01*
X114198223Y-99023223D01*
X114216402Y-99006747D01*
X114236107Y-98992133D01*
X114257151Y-98979520D01*
X114279329Y-98969030D01*
X114302429Y-98960765D01*
X114326227Y-98954804D01*
X114350496Y-98951204D01*
X114375000Y-98950000D01*
X115575000Y-98950000D01*
X115599504Y-98951204D01*
G37*
G04 #@! TD.AperFunction*
D13*
X114975000Y-102340000D03*
X114975000Y-104880000D03*
X117515000Y-99800000D03*
X117515000Y-102340000D03*
X117515000Y-104880000D03*
G04 #@! TA.AperFunction,SMDPad,CuDef*
D12*
G36*
X113950000Y-92250000D02*
G01*
X113950000Y-92750000D01*
X113949398Y-92750000D01*
X113949398Y-92774534D01*
X113944588Y-92823365D01*
X113935016Y-92871490D01*
X113920772Y-92918445D01*
X113901995Y-92963778D01*
X113878864Y-93007051D01*
X113851604Y-93047850D01*
X113820476Y-93085779D01*
X113785779Y-93120476D01*
X113747850Y-93151604D01*
X113707051Y-93178864D01*
X113663778Y-93201995D01*
X113618445Y-93220772D01*
X113571490Y-93235016D01*
X113523365Y-93244588D01*
X113474534Y-93249398D01*
X113450000Y-93249398D01*
X113450000Y-93250000D01*
X112950000Y-93250000D01*
X112950000Y-93249398D01*
X112925466Y-93249398D01*
X112876635Y-93244588D01*
X112828510Y-93235016D01*
X112781555Y-93220772D01*
X112736222Y-93201995D01*
X112692949Y-93178864D01*
X112652150Y-93151604D01*
X112614221Y-93120476D01*
X112579524Y-93085779D01*
X112548396Y-93047850D01*
X112521136Y-93007051D01*
X112498005Y-92963778D01*
X112479228Y-92918445D01*
X112464984Y-92871490D01*
X112455412Y-92823365D01*
X112450602Y-92774534D01*
X112450602Y-92750000D01*
X112450000Y-92750000D01*
X112450000Y-92250000D01*
X113950000Y-92250000D01*
G37*
G04 #@! TD.AperFunction*
G04 #@! TA.AperFunction,SMDPad,CuDef*
G36*
X112450602Y-91450000D02*
G01*
X112450602Y-91425466D01*
X112455412Y-91376635D01*
X112464984Y-91328510D01*
X112479228Y-91281555D01*
X112498005Y-91236222D01*
X112521136Y-91192949D01*
X112548396Y-91152150D01*
X112579524Y-91114221D01*
X112614221Y-91079524D01*
X112652150Y-91048396D01*
X112692949Y-91021136D01*
X112736222Y-90998005D01*
X112781555Y-90979228D01*
X112828510Y-90964984D01*
X112876635Y-90955412D01*
X112925466Y-90950602D01*
X112950000Y-90950602D01*
X112950000Y-90950000D01*
X113450000Y-90950000D01*
X113450000Y-90950602D01*
X113474534Y-90950602D01*
X113523365Y-90955412D01*
X113571490Y-90964984D01*
X113618445Y-90979228D01*
X113663778Y-90998005D01*
X113707051Y-91021136D01*
X113747850Y-91048396D01*
X113785779Y-91079524D01*
X113820476Y-91114221D01*
X113851604Y-91152150D01*
X113878864Y-91192949D01*
X113901995Y-91236222D01*
X113920772Y-91281555D01*
X113935016Y-91328510D01*
X113944588Y-91376635D01*
X113949398Y-91425466D01*
X113949398Y-91450000D01*
X113950000Y-91450000D01*
X113950000Y-91950000D01*
X112450000Y-91950000D01*
X112450000Y-91450000D01*
X112450602Y-91450000D01*
G37*
G04 #@! TD.AperFunction*
G04 #@! TA.AperFunction,SMDPad,CuDef*
G36*
X132025602Y-90025000D02*
G01*
X132025602Y-90000466D01*
X132030412Y-89951635D01*
X132039984Y-89903510D01*
X132054228Y-89856555D01*
X132073005Y-89811222D01*
X132096136Y-89767949D01*
X132123396Y-89727150D01*
X132154524Y-89689221D01*
X132189221Y-89654524D01*
X132227150Y-89623396D01*
X132267949Y-89596136D01*
X132311222Y-89573005D01*
X132356555Y-89554228D01*
X132403510Y-89539984D01*
X132451635Y-89530412D01*
X132500466Y-89525602D01*
X132525000Y-89525602D01*
X132525000Y-89525000D01*
X133025000Y-89525000D01*
X133025000Y-89525602D01*
X133049534Y-89525602D01*
X133098365Y-89530412D01*
X133146490Y-89539984D01*
X133193445Y-89554228D01*
X133238778Y-89573005D01*
X133282051Y-89596136D01*
X133322850Y-89623396D01*
X133360779Y-89654524D01*
X133395476Y-89689221D01*
X133426604Y-89727150D01*
X133453864Y-89767949D01*
X133476995Y-89811222D01*
X133495772Y-89856555D01*
X133510016Y-89903510D01*
X133519588Y-89951635D01*
X133524398Y-90000466D01*
X133524398Y-90025000D01*
X133525000Y-90025000D01*
X133525000Y-90525000D01*
X132025000Y-90525000D01*
X132025000Y-90025000D01*
X132025602Y-90025000D01*
G37*
G04 #@! TD.AperFunction*
G04 #@! TA.AperFunction,SMDPad,CuDef*
G36*
X133525000Y-90825000D02*
G01*
X133525000Y-91325000D01*
X133524398Y-91325000D01*
X133524398Y-91349534D01*
X133519588Y-91398365D01*
X133510016Y-91446490D01*
X133495772Y-91493445D01*
X133476995Y-91538778D01*
X133453864Y-91582051D01*
X133426604Y-91622850D01*
X133395476Y-91660779D01*
X133360779Y-91695476D01*
X133322850Y-91726604D01*
X133282051Y-91753864D01*
X133238778Y-91776995D01*
X133193445Y-91795772D01*
X133146490Y-91810016D01*
X133098365Y-91819588D01*
X133049534Y-91824398D01*
X133025000Y-91824398D01*
X133025000Y-91825000D01*
X132525000Y-91825000D01*
X132525000Y-91824398D01*
X132500466Y-91824398D01*
X132451635Y-91819588D01*
X132403510Y-91810016D01*
X132356555Y-91795772D01*
X132311222Y-91776995D01*
X132267949Y-91753864D01*
X132227150Y-91726604D01*
X132189221Y-91695476D01*
X132154524Y-91660779D01*
X132123396Y-91622850D01*
X132096136Y-91582051D01*
X132073005Y-91538778D01*
X132054228Y-91493445D01*
X132039984Y-91446490D01*
X132030412Y-91398365D01*
X132025602Y-91349534D01*
X132025602Y-91325000D01*
X132025000Y-91325000D01*
X132025000Y-90825000D01*
X133525000Y-90825000D01*
G37*
G04 #@! TD.AperFunction*
G04 #@! TA.AperFunction,SMDPad,CuDef*
G36*
X133525000Y-76312500D02*
G01*
X133525000Y-76812500D01*
X133524398Y-76812500D01*
X133524398Y-76837034D01*
X133519588Y-76885865D01*
X133510016Y-76933990D01*
X133495772Y-76980945D01*
X133476995Y-77026278D01*
X133453864Y-77069551D01*
X133426604Y-77110350D01*
X133395476Y-77148279D01*
X133360779Y-77182976D01*
X133322850Y-77214104D01*
X133282051Y-77241364D01*
X133238778Y-77264495D01*
X133193445Y-77283272D01*
X133146490Y-77297516D01*
X133098365Y-77307088D01*
X133049534Y-77311898D01*
X133025000Y-77311898D01*
X133025000Y-77312500D01*
X132525000Y-77312500D01*
X132525000Y-77311898D01*
X132500466Y-77311898D01*
X132451635Y-77307088D01*
X132403510Y-77297516D01*
X132356555Y-77283272D01*
X132311222Y-77264495D01*
X132267949Y-77241364D01*
X132227150Y-77214104D01*
X132189221Y-77182976D01*
X132154524Y-77148279D01*
X132123396Y-77110350D01*
X132096136Y-77069551D01*
X132073005Y-77026278D01*
X132054228Y-76980945D01*
X132039984Y-76933990D01*
X132030412Y-76885865D01*
X132025602Y-76837034D01*
X132025602Y-76812500D01*
X132025000Y-76812500D01*
X132025000Y-76312500D01*
X133525000Y-76312500D01*
G37*
G04 #@! TD.AperFunction*
G04 #@! TA.AperFunction,SMDPad,CuDef*
G36*
X132025602Y-75512500D02*
G01*
X132025602Y-75487966D01*
X132030412Y-75439135D01*
X132039984Y-75391010D01*
X132054228Y-75344055D01*
X132073005Y-75298722D01*
X132096136Y-75255449D01*
X132123396Y-75214650D01*
X132154524Y-75176721D01*
X132189221Y-75142024D01*
X132227150Y-75110896D01*
X132267949Y-75083636D01*
X132311222Y-75060505D01*
X132356555Y-75041728D01*
X132403510Y-75027484D01*
X132451635Y-75017912D01*
X132500466Y-75013102D01*
X132525000Y-75013102D01*
X132525000Y-75012500D01*
X133025000Y-75012500D01*
X133025000Y-75013102D01*
X133049534Y-75013102D01*
X133098365Y-75017912D01*
X133146490Y-75027484D01*
X133193445Y-75041728D01*
X133238778Y-75060505D01*
X133282051Y-75083636D01*
X133322850Y-75110896D01*
X133360779Y-75142024D01*
X133395476Y-75176721D01*
X133426604Y-75214650D01*
X133453864Y-75255449D01*
X133476995Y-75298722D01*
X133495772Y-75344055D01*
X133510016Y-75391010D01*
X133519588Y-75439135D01*
X133524398Y-75487966D01*
X133524398Y-75512500D01*
X133525000Y-75512500D01*
X133525000Y-76012500D01*
X132025000Y-76012500D01*
X132025000Y-75512500D01*
X132025602Y-75512500D01*
G37*
G04 #@! TD.AperFunction*
G04 #@! TA.AperFunction,SMDPad,CuDef*
G36*
X133525000Y-68725000D02*
G01*
X133525000Y-69225000D01*
X133524398Y-69225000D01*
X133524398Y-69249534D01*
X133519588Y-69298365D01*
X133510016Y-69346490D01*
X133495772Y-69393445D01*
X133476995Y-69438778D01*
X133453864Y-69482051D01*
X133426604Y-69522850D01*
X133395476Y-69560779D01*
X133360779Y-69595476D01*
X133322850Y-69626604D01*
X133282051Y-69653864D01*
X133238778Y-69676995D01*
X133193445Y-69695772D01*
X133146490Y-69710016D01*
X133098365Y-69719588D01*
X133049534Y-69724398D01*
X133025000Y-69724398D01*
X133025000Y-69725000D01*
X132525000Y-69725000D01*
X132525000Y-69724398D01*
X132500466Y-69724398D01*
X132451635Y-69719588D01*
X132403510Y-69710016D01*
X132356555Y-69695772D01*
X132311222Y-69676995D01*
X132267949Y-69653864D01*
X132227150Y-69626604D01*
X132189221Y-69595476D01*
X132154524Y-69560779D01*
X132123396Y-69522850D01*
X132096136Y-69482051D01*
X132073005Y-69438778D01*
X132054228Y-69393445D01*
X132039984Y-69346490D01*
X132030412Y-69298365D01*
X132025602Y-69249534D01*
X132025602Y-69225000D01*
X132025000Y-69225000D01*
X132025000Y-68725000D01*
X133525000Y-68725000D01*
G37*
G04 #@! TD.AperFunction*
G04 #@! TA.AperFunction,SMDPad,CuDef*
G36*
X132025602Y-67925000D02*
G01*
X132025602Y-67900466D01*
X132030412Y-67851635D01*
X132039984Y-67803510D01*
X132054228Y-67756555D01*
X132073005Y-67711222D01*
X132096136Y-67667949D01*
X132123396Y-67627150D01*
X132154524Y-67589221D01*
X132189221Y-67554524D01*
X132227150Y-67523396D01*
X132267949Y-67496136D01*
X132311222Y-67473005D01*
X132356555Y-67454228D01*
X132403510Y-67439984D01*
X132451635Y-67430412D01*
X132500466Y-67425602D01*
X132525000Y-67425602D01*
X132525000Y-67425000D01*
X133025000Y-67425000D01*
X133025000Y-67425602D01*
X133049534Y-67425602D01*
X133098365Y-67430412D01*
X133146490Y-67439984D01*
X133193445Y-67454228D01*
X133238778Y-67473005D01*
X133282051Y-67496136D01*
X133322850Y-67523396D01*
X133360779Y-67554524D01*
X133395476Y-67589221D01*
X133426604Y-67627150D01*
X133453864Y-67667949D01*
X133476995Y-67711222D01*
X133495772Y-67756555D01*
X133510016Y-67803510D01*
X133519588Y-67851635D01*
X133524398Y-67900466D01*
X133524398Y-67925000D01*
X133525000Y-67925000D01*
X133525000Y-68425000D01*
X132025000Y-68425000D01*
X132025000Y-67925000D01*
X132025602Y-67925000D01*
G37*
G04 #@! TD.AperFunction*
G04 #@! TA.AperFunction,SMDPad,CuDef*
G36*
X133524398Y-84400000D02*
G01*
X133524398Y-84424534D01*
X133519588Y-84473365D01*
X133510016Y-84521490D01*
X133495772Y-84568445D01*
X133476995Y-84613778D01*
X133453864Y-84657051D01*
X133426604Y-84697850D01*
X133395476Y-84735779D01*
X133360779Y-84770476D01*
X133322850Y-84801604D01*
X133282051Y-84828864D01*
X133238778Y-84851995D01*
X133193445Y-84870772D01*
X133146490Y-84885016D01*
X133098365Y-84894588D01*
X133049534Y-84899398D01*
X133025000Y-84899398D01*
X133025000Y-84900000D01*
X132525000Y-84900000D01*
X132525000Y-84899398D01*
X132500466Y-84899398D01*
X132451635Y-84894588D01*
X132403510Y-84885016D01*
X132356555Y-84870772D01*
X132311222Y-84851995D01*
X132267949Y-84828864D01*
X132227150Y-84801604D01*
X132189221Y-84770476D01*
X132154524Y-84735779D01*
X132123396Y-84697850D01*
X132096136Y-84657051D01*
X132073005Y-84613778D01*
X132054228Y-84568445D01*
X132039984Y-84521490D01*
X132030412Y-84473365D01*
X132025602Y-84424534D01*
X132025602Y-84400000D01*
X132025000Y-84400000D01*
X132025000Y-83900000D01*
X133525000Y-83900000D01*
X133525000Y-84400000D01*
X133524398Y-84400000D01*
G37*
G04 #@! TD.AperFunction*
G04 #@! TA.AperFunction,SMDPad,CuDef*
G36*
X132025000Y-83600000D02*
G01*
X132025000Y-83100000D01*
X132025602Y-83100000D01*
X132025602Y-83075466D01*
X132030412Y-83026635D01*
X132039984Y-82978510D01*
X132054228Y-82931555D01*
X132073005Y-82886222D01*
X132096136Y-82842949D01*
X132123396Y-82802150D01*
X132154524Y-82764221D01*
X132189221Y-82729524D01*
X132227150Y-82698396D01*
X132267949Y-82671136D01*
X132311222Y-82648005D01*
X132356555Y-82629228D01*
X132403510Y-82614984D01*
X132451635Y-82605412D01*
X132500466Y-82600602D01*
X132525000Y-82600602D01*
X132525000Y-82600000D01*
X133025000Y-82600000D01*
X133025000Y-82600602D01*
X133049534Y-82600602D01*
X133098365Y-82605412D01*
X133146490Y-82614984D01*
X133193445Y-82629228D01*
X133238778Y-82648005D01*
X133282051Y-82671136D01*
X133322850Y-82698396D01*
X133360779Y-82729524D01*
X133395476Y-82764221D01*
X133426604Y-82802150D01*
X133453864Y-82842949D01*
X133476995Y-82886222D01*
X133495772Y-82931555D01*
X133510016Y-82978510D01*
X133519588Y-83026635D01*
X133524398Y-83075466D01*
X133524398Y-83100000D01*
X133525000Y-83100000D01*
X133525000Y-83600000D01*
X132025000Y-83600000D01*
G37*
G04 #@! TD.AperFunction*
D14*
X116400000Y-92175000D03*
D15*
X118940000Y-92175000D03*
D16*
X135325000Y-71950000D03*
X135525000Y-74350000D03*
X135775000Y-87050000D03*
X128525000Y-95450000D03*
X121000000Y-91650000D03*
X126325000Y-89800000D03*
X113675000Y-108925000D03*
X115200000Y-96300000D03*
X121025000Y-102400000D03*
X115200000Y-106450000D03*
X120679998Y-107595002D03*
X129500000Y-89950000D03*
D17*
X122975000Y-60625001D02*
X125000001Y-60625001D01*
D18*
X128525000Y-94884315D02*
X128525000Y-95450000D01*
X122394997Y-92375000D02*
X126015685Y-92375000D01*
X126015685Y-92375000D02*
X128525000Y-94884315D01*
X121669997Y-91650000D02*
X122394997Y-92375000D01*
X121000000Y-91650000D02*
X121669997Y-91650000D01*
X128525000Y-96015685D02*
X128525000Y-95450000D01*
X128525000Y-99590004D02*
X128525000Y-96015685D01*
X125560004Y-102555000D02*
X128525000Y-99590004D01*
X121745685Y-102555000D02*
X125560004Y-102555000D01*
X121590685Y-102400000D02*
X121745685Y-102555000D01*
X121025000Y-102400000D02*
X121590685Y-102400000D01*
D17*
X138215000Y-108885001D02*
X140240001Y-108885001D01*
X122975000Y-63165001D02*
X125000001Y-63165001D01*
X138215000Y-106345001D02*
X140240001Y-106345001D01*
X122975000Y-65705001D02*
X125000001Y-65705001D01*
X138215000Y-103805001D02*
X140240001Y-103805001D01*
X122975000Y-68245001D02*
X125000001Y-68245001D01*
X138215000Y-101265001D02*
X140240001Y-101265001D01*
X122975000Y-70785001D02*
X125000001Y-70785001D01*
X138215000Y-98725001D02*
X140240001Y-98725001D01*
X122975000Y-73325001D02*
X125000001Y-73325001D01*
X138215000Y-96185001D02*
X140240001Y-96185001D01*
X125000001Y-75865001D02*
X122975000Y-75865001D01*
X138215000Y-93645001D02*
X140240001Y-93645001D01*
X122975000Y-78405001D02*
X125000001Y-78405001D01*
D18*
X139440002Y-90305002D02*
X140240001Y-91105001D01*
X138990000Y-89855000D02*
X139440002Y-90305002D01*
X133692592Y-89855000D02*
X138990000Y-89855000D01*
X133522592Y-90025000D02*
X133692592Y-89855000D01*
X132775000Y-90025000D02*
X133522592Y-90025000D01*
X139440002Y-91905000D02*
X140240001Y-91105001D01*
X133375000Y-96634999D02*
X137654997Y-92355002D01*
X137654997Y-92355002D02*
X138990000Y-92355002D01*
X133375000Y-99820004D02*
X133375000Y-96634999D01*
X122335000Y-107635000D02*
X125560004Y-107635000D01*
X138990000Y-92355002D02*
X139440002Y-91905000D01*
X118815001Y-104115001D02*
X122335000Y-107635000D01*
X118815001Y-102340000D02*
X118815001Y-104115001D01*
X125560004Y-107635000D02*
X133375000Y-99820004D01*
X117515000Y-102340000D02*
X118815001Y-102340000D01*
D17*
X122975000Y-80945001D02*
X125000001Y-80945001D01*
X138215000Y-88565001D02*
X140240001Y-88565001D01*
D18*
X132320936Y-77266564D02*
X132775000Y-76812500D01*
X127392498Y-82195002D02*
X132320936Y-77266564D01*
X124264999Y-82195002D02*
X127392498Y-82195002D01*
X122975000Y-83485001D02*
X124264999Y-82195002D01*
D17*
X138215000Y-86025001D02*
X140240001Y-86025001D01*
D18*
X129850000Y-83100000D02*
X132775000Y-83100000D01*
X128214998Y-84735002D02*
X129850000Y-83100000D01*
X124400000Y-84735002D02*
X128214998Y-84735002D01*
X124394999Y-84730001D02*
X124400000Y-84735002D01*
X123099999Y-86025001D02*
X124394999Y-84730001D01*
X122975000Y-86025001D02*
X123099999Y-86025001D01*
D17*
X138215000Y-83485001D02*
X140240001Y-83485001D01*
X125000001Y-88565001D02*
X122975000Y-88565001D01*
X138215000Y-80945001D02*
X140240001Y-80945001D01*
X122975000Y-91105001D02*
X125000001Y-91105001D01*
X138215000Y-78405001D02*
X140240001Y-78405001D01*
X125000001Y-93645001D02*
X122975000Y-93645001D01*
X138215000Y-75865001D02*
X140240001Y-75865001D01*
X122975000Y-96185001D02*
X125000001Y-96185001D01*
X138215000Y-73325001D02*
X140240001Y-73325001D01*
X122975000Y-98725001D02*
X125000001Y-98725001D01*
X138215000Y-70785001D02*
X140240001Y-70785001D01*
X118940000Y-97230001D02*
X122975000Y-101265001D01*
X118940000Y-92175000D02*
X118940000Y-97230001D01*
X122975000Y-101265001D02*
X125000001Y-101265001D01*
D18*
X118940000Y-93377081D02*
X117617081Y-94700000D01*
X118940000Y-92175000D02*
X118940000Y-93377081D01*
X115150000Y-94700000D02*
X113200000Y-92750000D01*
X117617081Y-94700000D02*
X115150000Y-94700000D01*
D17*
X138215000Y-68245001D02*
X140240001Y-68245001D01*
X122975000Y-103805001D02*
X125000001Y-103805001D01*
D18*
X134695001Y-69225000D02*
X132775000Y-69225000D01*
X138215000Y-65705001D02*
X134695001Y-69225000D01*
D17*
X122975000Y-106345001D02*
X125000001Y-106345001D01*
X138215000Y-63165001D02*
X140240001Y-63165001D01*
X122975000Y-108885001D02*
X125000001Y-108885001D01*
X138215000Y-60625001D02*
X140240001Y-60625001D01*
D18*
X132994999Y-91105001D02*
X132775000Y-91325000D01*
X138215000Y-91105001D02*
X132994999Y-91105001D01*
X114620998Y-106450000D02*
X111775010Y-103604012D01*
X115200000Y-106450000D02*
X114620998Y-106450000D01*
X112452408Y-91450000D02*
X113200000Y-91450000D01*
X111775010Y-92127398D02*
X112452408Y-91450000D01*
X111775010Y-103604012D02*
X111775010Y-92127398D01*
X115675000Y-91450000D02*
X113200000Y-91450000D01*
X116400000Y-92175000D02*
X115675000Y-91450000D01*
X114610000Y-101975000D02*
X114975000Y-102340000D01*
X135087500Y-75512500D02*
X132775000Y-75512500D01*
X135150000Y-75575000D02*
X135087500Y-75512500D01*
X135150000Y-76810038D02*
X135150000Y-75575000D01*
X128475037Y-83485001D02*
X135150000Y-76810038D01*
X125000001Y-83485001D02*
X128475037Y-83485001D01*
X130300000Y-90483004D02*
X135150000Y-85633004D01*
X113175000Y-102725000D02*
X113175000Y-99075000D01*
X114250000Y-98000000D02*
X117725000Y-98000000D01*
X117725000Y-98000000D02*
X119625000Y-99900000D01*
X114975000Y-102340000D02*
X114125001Y-103189999D01*
X119625000Y-99900000D02*
X119625000Y-102575000D01*
X119625000Y-102575000D02*
X122145000Y-105095000D01*
X113175000Y-99075000D02*
X114250000Y-98000000D01*
X130300000Y-100355004D02*
X130300000Y-90483004D01*
X114125001Y-103189999D02*
X113639999Y-103189999D01*
X135150000Y-85633004D02*
X135150000Y-76810038D01*
X113639999Y-103189999D02*
X113175000Y-102725000D01*
X125560004Y-105095000D02*
X130300000Y-100355004D01*
X122145000Y-105095000D02*
X125560004Y-105095000D01*
X128500001Y-86025001D02*
X125000001Y-86025001D01*
X128487500Y-86012500D02*
X128500001Y-86025001D01*
X130100000Y-84400000D02*
X128487500Y-86012500D01*
X132775000Y-84400000D02*
X130100000Y-84400000D01*
X128925000Y-89950000D02*
X129500000Y-89950000D01*
X125000001Y-86025001D02*
X128925000Y-89950000D01*
X117690002Y-107595002D02*
X114975000Y-104880000D01*
X120679998Y-107595002D02*
X117690002Y-107595002D01*
X132775000Y-65400000D02*
X132775000Y-67925000D01*
X133720000Y-64455000D02*
X132775000Y-65400000D01*
X138990000Y-64455000D02*
X133720000Y-64455000D01*
X140240001Y-65705001D02*
X138990000Y-64455000D01*
D19*
G36*
X113964468Y-107045049D02*
G01*
X113992181Y-107078817D01*
X114025949Y-107106530D01*
X114025951Y-107106532D01*
X114126939Y-107189411D01*
X114280685Y-107271589D01*
X114447508Y-107322195D01*
X114577521Y-107335000D01*
X114577529Y-107335000D01*
X114620998Y-107339281D01*
X114661921Y-107335251D01*
X114709744Y-107367205D01*
X114898102Y-107445226D01*
X115098061Y-107485000D01*
X115301939Y-107485000D01*
X115501898Y-107445226D01*
X115690256Y-107367205D01*
X115859774Y-107253937D01*
X115978566Y-107135145D01*
X117033472Y-108190051D01*
X117061185Y-108223819D01*
X117094953Y-108251532D01*
X117094955Y-108251534D01*
X117195943Y-108334413D01*
X117349688Y-108416591D01*
X117513974Y-108466427D01*
X117516512Y-108467197D01*
X117646525Y-108480002D01*
X117646533Y-108480002D01*
X117690002Y-108484283D01*
X117733471Y-108480002D01*
X120141544Y-108480002D01*
X120189742Y-108512207D01*
X120378100Y-108590228D01*
X120578059Y-108630002D01*
X120781937Y-108630002D01*
X120981896Y-108590228D01*
X121170254Y-108512207D01*
X121339772Y-108398939D01*
X121483935Y-108254776D01*
X121571759Y-108123338D01*
X121678470Y-108230049D01*
X121688165Y-108241862D01*
X121595147Y-108466427D01*
X121540000Y-108743666D01*
X121540000Y-109026336D01*
X121595147Y-109303575D01*
X121703320Y-109564728D01*
X121860363Y-109799760D01*
X121900603Y-109840000D01*
X111960000Y-109840000D01*
X111960000Y-105040580D01*
X113964468Y-107045049D01*
G37*
X113964468Y-107045049D02*
X113992181Y-107078817D01*
X114025949Y-107106530D01*
X114025951Y-107106532D01*
X114126939Y-107189411D01*
X114280685Y-107271589D01*
X114447508Y-107322195D01*
X114577521Y-107335000D01*
X114577529Y-107335000D01*
X114620998Y-107339281D01*
X114661921Y-107335251D01*
X114709744Y-107367205D01*
X114898102Y-107445226D01*
X115098061Y-107485000D01*
X115301939Y-107485000D01*
X115501898Y-107445226D01*
X115690256Y-107367205D01*
X115859774Y-107253937D01*
X115978566Y-107135145D01*
X117033472Y-108190051D01*
X117061185Y-108223819D01*
X117094953Y-108251532D01*
X117094955Y-108251534D01*
X117195943Y-108334413D01*
X117349688Y-108416591D01*
X117513974Y-108466427D01*
X117516512Y-108467197D01*
X117646525Y-108480002D01*
X117646533Y-108480002D01*
X117690002Y-108484283D01*
X117733471Y-108480002D01*
X120141544Y-108480002D01*
X120189742Y-108512207D01*
X120378100Y-108590228D01*
X120578059Y-108630002D01*
X120781937Y-108630002D01*
X120981896Y-108590228D01*
X121170254Y-108512207D01*
X121339772Y-108398939D01*
X121483935Y-108254776D01*
X121571759Y-108123338D01*
X121678470Y-108230049D01*
X121688165Y-108241862D01*
X121595147Y-108466427D01*
X121540000Y-108743666D01*
X121540000Y-109026336D01*
X121595147Y-109303575D01*
X121703320Y-109564728D01*
X121860363Y-109799760D01*
X121900603Y-109840000D01*
X111960000Y-109840000D01*
X111960000Y-105040580D01*
X113964468Y-107045049D01*
G36*
X121717977Y-101966664D02*
G01*
X121860363Y-102179760D01*
X122060241Y-102379638D01*
X122292759Y-102535001D01*
X122060241Y-102690364D01*
X121860363Y-102890242D01*
X121703320Y-103125274D01*
X121622345Y-103320766D01*
X120510000Y-102208422D01*
X120510000Y-100758687D01*
X121717977Y-101966664D01*
G37*
X121717977Y-101966664D02*
X121860363Y-102179760D01*
X122060241Y-102379638D01*
X122292759Y-102535001D01*
X122060241Y-102690364D01*
X121860363Y-102890242D01*
X121703320Y-103125274D01*
X121622345Y-103320766D01*
X120510000Y-102208422D01*
X120510000Y-100758687D01*
X121717977Y-101966664D01*
G36*
X128268470Y-90545049D02*
G01*
X128296183Y-90578817D01*
X128329951Y-90606530D01*
X128329953Y-90606532D01*
X128356613Y-90628411D01*
X128430941Y-90689411D01*
X128584687Y-90771589D01*
X128751510Y-90822195D01*
X128881523Y-90835000D01*
X128881531Y-90835000D01*
X128925000Y-90839281D01*
X128962435Y-90835594D01*
X129009744Y-90867205D01*
X129198102Y-90945226D01*
X129398061Y-90985000D01*
X129415001Y-90985000D01*
X129415000Y-99988425D01*
X126273576Y-103129849D01*
X126271681Y-103125274D01*
X126114638Y-102890242D01*
X125914760Y-102690364D01*
X125682242Y-102535001D01*
X125914760Y-102379638D01*
X126114638Y-102179760D01*
X126271681Y-101944728D01*
X126379854Y-101683575D01*
X126435001Y-101406336D01*
X126435001Y-101123666D01*
X126379854Y-100846427D01*
X126271681Y-100585274D01*
X126114638Y-100350242D01*
X125914760Y-100150364D01*
X125682242Y-99995001D01*
X125914760Y-99839638D01*
X126114638Y-99639760D01*
X126271681Y-99404728D01*
X126379854Y-99143575D01*
X126435001Y-98866336D01*
X126435001Y-98583666D01*
X126379854Y-98306427D01*
X126271681Y-98045274D01*
X126114638Y-97810242D01*
X125914760Y-97610364D01*
X125682242Y-97455001D01*
X125914760Y-97299638D01*
X126114638Y-97099760D01*
X126271681Y-96864728D01*
X126379854Y-96603575D01*
X126435001Y-96326336D01*
X126435001Y-96043666D01*
X126379854Y-95766427D01*
X126271681Y-95505274D01*
X126114638Y-95270242D01*
X125914760Y-95070364D01*
X125682242Y-94915001D01*
X125914760Y-94759638D01*
X126114638Y-94559760D01*
X126271681Y-94324728D01*
X126379854Y-94063575D01*
X126435001Y-93786336D01*
X126435001Y-93503666D01*
X126379854Y-93226427D01*
X126271681Y-92965274D01*
X126114638Y-92730242D01*
X125914760Y-92530364D01*
X125682242Y-92375001D01*
X125914760Y-92219638D01*
X126114638Y-92019760D01*
X126271681Y-91784728D01*
X126379854Y-91523575D01*
X126435001Y-91246336D01*
X126435001Y-90963666D01*
X126379854Y-90686427D01*
X126271681Y-90425274D01*
X126114638Y-90190242D01*
X125914760Y-89990364D01*
X125682242Y-89835001D01*
X125914760Y-89679638D01*
X126114638Y-89479760D01*
X126271681Y-89244728D01*
X126379854Y-88983575D01*
X126434131Y-88710710D01*
X128268470Y-90545049D01*
G37*
X128268470Y-90545049D02*
X128296183Y-90578817D01*
X128329951Y-90606530D01*
X128329953Y-90606532D01*
X128356613Y-90628411D01*
X128430941Y-90689411D01*
X128584687Y-90771589D01*
X128751510Y-90822195D01*
X128881523Y-90835000D01*
X128881531Y-90835000D01*
X128925000Y-90839281D01*
X128962435Y-90835594D01*
X129009744Y-90867205D01*
X129198102Y-90945226D01*
X129398061Y-90985000D01*
X129415001Y-90985000D01*
X129415000Y-99988425D01*
X126273576Y-103129849D01*
X126271681Y-103125274D01*
X126114638Y-102890242D01*
X125914760Y-102690364D01*
X125682242Y-102535001D01*
X125914760Y-102379638D01*
X126114638Y-102179760D01*
X126271681Y-101944728D01*
X126379854Y-101683575D01*
X126435001Y-101406336D01*
X126435001Y-101123666D01*
X126379854Y-100846427D01*
X126271681Y-100585274D01*
X126114638Y-100350242D01*
X125914760Y-100150364D01*
X125682242Y-99995001D01*
X125914760Y-99839638D01*
X126114638Y-99639760D01*
X126271681Y-99404728D01*
X126379854Y-99143575D01*
X126435001Y-98866336D01*
X126435001Y-98583666D01*
X126379854Y-98306427D01*
X126271681Y-98045274D01*
X126114638Y-97810242D01*
X125914760Y-97610364D01*
X125682242Y-97455001D01*
X125914760Y-97299638D01*
X126114638Y-97099760D01*
X126271681Y-96864728D01*
X126379854Y-96603575D01*
X126435001Y-96326336D01*
X126435001Y-96043666D01*
X126379854Y-95766427D01*
X126271681Y-95505274D01*
X126114638Y-95270242D01*
X125914760Y-95070364D01*
X125682242Y-94915001D01*
X125914760Y-94759638D01*
X126114638Y-94559760D01*
X126271681Y-94324728D01*
X126379854Y-94063575D01*
X126435001Y-93786336D01*
X126435001Y-93503666D01*
X126379854Y-93226427D01*
X126271681Y-92965274D01*
X126114638Y-92730242D01*
X125914760Y-92530364D01*
X125682242Y-92375001D01*
X125914760Y-92219638D01*
X126114638Y-92019760D01*
X126271681Y-91784728D01*
X126379854Y-91523575D01*
X126435001Y-91246336D01*
X126435001Y-90963666D01*
X126379854Y-90686427D01*
X126271681Y-90425274D01*
X126114638Y-90190242D01*
X125914760Y-89990364D01*
X125682242Y-89835001D01*
X125914760Y-89679638D01*
X126114638Y-89479760D01*
X126271681Y-89244728D01*
X126379854Y-88983575D01*
X126434131Y-88710710D01*
X128268470Y-90545049D01*
G36*
X115102000Y-99673000D02*
G01*
X115122000Y-99673000D01*
X115122000Y-99927000D01*
X115102000Y-99927000D01*
X115102000Y-99947000D01*
X114848000Y-99947000D01*
X114848000Y-99927000D01*
X114828000Y-99927000D01*
X114828000Y-99673000D01*
X114848000Y-99673000D01*
X114848000Y-99653000D01*
X115102000Y-99653000D01*
X115102000Y-99673000D01*
G37*
X115102000Y-99673000D02*
X115122000Y-99673000D01*
X115122000Y-99927000D01*
X115102000Y-99927000D01*
X115102000Y-99947000D01*
X114848000Y-99947000D01*
X114848000Y-99927000D01*
X114828000Y-99927000D01*
X114828000Y-99673000D01*
X114848000Y-99673000D01*
X114848000Y-99653000D01*
X115102000Y-99653000D01*
X115102000Y-99673000D01*
G36*
X112680377Y-93854282D02*
G01*
X112776510Y-93873404D01*
X112900991Y-93885664D01*
X112925550Y-93885664D01*
X112950000Y-93888072D01*
X113086494Y-93888072D01*
X114493470Y-95295049D01*
X114521183Y-95328817D01*
X114554951Y-95356530D01*
X114554953Y-95356532D01*
X114622313Y-95411813D01*
X114655941Y-95439411D01*
X114809687Y-95521589D01*
X114976510Y-95572195D01*
X115106523Y-95585000D01*
X115106533Y-95585000D01*
X115149999Y-95589281D01*
X115193465Y-95585000D01*
X117555001Y-95585000D01*
X117555001Y-97115000D01*
X114293469Y-97115000D01*
X114250000Y-97110719D01*
X114206531Y-97115000D01*
X114206523Y-97115000D01*
X114076510Y-97127805D01*
X113909686Y-97178411D01*
X113755941Y-97260589D01*
X113654953Y-97343468D01*
X113654951Y-97343470D01*
X113621183Y-97371183D01*
X113593470Y-97404951D01*
X112660010Y-98338412D01*
X112660010Y-93848104D01*
X112680377Y-93854282D01*
G37*
X112680377Y-93854282D02*
X112776510Y-93873404D01*
X112900991Y-93885664D01*
X112925550Y-93885664D01*
X112950000Y-93888072D01*
X113086494Y-93888072D01*
X114493470Y-95295049D01*
X114521183Y-95328817D01*
X114554951Y-95356530D01*
X114554953Y-95356532D01*
X114622313Y-95411813D01*
X114655941Y-95439411D01*
X114809687Y-95521589D01*
X114976510Y-95572195D01*
X115106523Y-95585000D01*
X115106533Y-95585000D01*
X115149999Y-95589281D01*
X115193465Y-95585000D01*
X117555001Y-95585000D01*
X117555001Y-97115000D01*
X114293469Y-97115000D01*
X114250000Y-97110719D01*
X114206531Y-97115000D01*
X114206523Y-97115000D01*
X114076510Y-97127805D01*
X113909686Y-97178411D01*
X113755941Y-97260589D01*
X113654953Y-97343468D01*
X113654951Y-97343470D01*
X113621183Y-97371183D01*
X113593470Y-97404951D01*
X112660010Y-98338412D01*
X112660010Y-93848104D01*
X112680377Y-93854282D01*
G36*
X121540000Y-91246336D02*
G01*
X121595147Y-91523575D01*
X121703320Y-91784728D01*
X121860363Y-92019760D01*
X122060241Y-92219638D01*
X122292759Y-92375001D01*
X122060241Y-92530364D01*
X121860363Y-92730242D01*
X121703320Y-92965274D01*
X121595147Y-93226427D01*
X121540000Y-93503666D01*
X121540000Y-93786336D01*
X121595147Y-94063575D01*
X121703320Y-94324728D01*
X121860363Y-94559760D01*
X122060241Y-94759638D01*
X122292759Y-94915001D01*
X122060241Y-95070364D01*
X121860363Y-95270242D01*
X121703320Y-95505274D01*
X121595147Y-95766427D01*
X121540000Y-96043666D01*
X121540000Y-96326336D01*
X121595147Y-96603575D01*
X121703320Y-96864728D01*
X121860363Y-97099760D01*
X122060241Y-97299638D01*
X122292759Y-97455001D01*
X122060241Y-97610364D01*
X121860363Y-97810242D01*
X121707581Y-98038897D01*
X120325000Y-96656316D01*
X120325000Y-92711805D01*
X120367932Y-92608158D01*
X120425000Y-92321260D01*
X120425000Y-92028740D01*
X120367932Y-91741842D01*
X120255990Y-91471589D01*
X120093475Y-91228368D01*
X119900107Y-91035000D01*
X121392581Y-91035000D01*
X121425000Y-91038193D01*
X121457419Y-91035000D01*
X121540000Y-91026867D01*
X121540000Y-91246336D01*
G37*
X121540000Y-91246336D02*
X121595147Y-91523575D01*
X121703320Y-91784728D01*
X121860363Y-92019760D01*
X122060241Y-92219638D01*
X122292759Y-92375001D01*
X122060241Y-92530364D01*
X121860363Y-92730242D01*
X121703320Y-92965274D01*
X121595147Y-93226427D01*
X121540000Y-93503666D01*
X121540000Y-93786336D01*
X121595147Y-94063575D01*
X121703320Y-94324728D01*
X121860363Y-94559760D01*
X122060241Y-94759638D01*
X122292759Y-94915001D01*
X122060241Y-95070364D01*
X121860363Y-95270242D01*
X121703320Y-95505274D01*
X121595147Y-95766427D01*
X121540000Y-96043666D01*
X121540000Y-96326336D01*
X121595147Y-96603575D01*
X121703320Y-96864728D01*
X121860363Y-97099760D01*
X122060241Y-97299638D01*
X122292759Y-97455001D01*
X122060241Y-97610364D01*
X121860363Y-97810242D01*
X121707581Y-98038897D01*
X120325000Y-96656316D01*
X120325000Y-92711805D01*
X120367932Y-92608158D01*
X120425000Y-92321260D01*
X120425000Y-92028740D01*
X120367932Y-91741842D01*
X120255990Y-91471589D01*
X120093475Y-91228368D01*
X119900107Y-91035000D01*
X121392581Y-91035000D01*
X121425000Y-91038193D01*
X121457419Y-91035000D01*
X121540000Y-91026867D01*
X121540000Y-91246336D01*
G36*
X137100363Y-59710242D02*
G01*
X136943320Y-59945274D01*
X136835147Y-60206427D01*
X136780000Y-60483666D01*
X136780000Y-60766336D01*
X136835147Y-61043575D01*
X136943320Y-61304728D01*
X137100363Y-61539760D01*
X137300241Y-61739638D01*
X137532759Y-61895001D01*
X137300241Y-62050364D01*
X137100363Y-62250242D01*
X136943320Y-62485274D01*
X136835147Y-62746427D01*
X136780000Y-63023666D01*
X136780000Y-63306336D01*
X136832447Y-63570000D01*
X133763469Y-63570000D01*
X133720000Y-63565719D01*
X133676531Y-63570000D01*
X133676523Y-63570000D01*
X133546510Y-63582805D01*
X133379687Y-63633411D01*
X133259630Y-63697582D01*
X133225941Y-63715589D01*
X133124953Y-63798468D01*
X133124951Y-63798470D01*
X133091183Y-63826183D01*
X133063470Y-63859951D01*
X132179956Y-64743466D01*
X132146183Y-64771183D01*
X132035589Y-64905942D01*
X131953411Y-65059688D01*
X131938163Y-65109954D01*
X131907528Y-65210943D01*
X131902805Y-65226511D01*
X131890000Y-65356524D01*
X131890000Y-65356531D01*
X131885719Y-65400000D01*
X131890000Y-65443469D01*
X131890001Y-66983441D01*
X131853309Y-67007958D01*
X131756618Y-67087310D01*
X131687310Y-67156618D01*
X131607958Y-67253309D01*
X131553502Y-67334808D01*
X131494536Y-67445125D01*
X131457027Y-67535681D01*
X131420718Y-67655377D01*
X131401596Y-67751510D01*
X131389336Y-67875991D01*
X131389336Y-67900550D01*
X131386928Y-67925000D01*
X131386928Y-68425000D01*
X131399188Y-68549482D01*
X131406929Y-68575000D01*
X131399188Y-68600518D01*
X131386928Y-68725000D01*
X131386928Y-69225000D01*
X131389336Y-69249450D01*
X131389336Y-69274009D01*
X131401596Y-69398490D01*
X131420718Y-69494623D01*
X131457027Y-69614319D01*
X131494536Y-69704875D01*
X131553502Y-69815192D01*
X131607958Y-69896691D01*
X131687310Y-69993382D01*
X131756618Y-70062690D01*
X131853309Y-70142042D01*
X131934808Y-70196498D01*
X132045125Y-70255464D01*
X132135681Y-70292973D01*
X132255377Y-70329282D01*
X132351510Y-70348404D01*
X132475991Y-70360664D01*
X132500550Y-70360664D01*
X132525000Y-70363072D01*
X133025000Y-70363072D01*
X133049450Y-70360664D01*
X133074009Y-70360664D01*
X133198490Y-70348404D01*
X133294623Y-70329282D01*
X133414319Y-70292973D01*
X133504875Y-70255464D01*
X133615192Y-70196498D01*
X133696691Y-70142042D01*
X133735734Y-70110000D01*
X134651532Y-70110000D01*
X134695001Y-70114281D01*
X134738470Y-70110000D01*
X134738478Y-70110000D01*
X134868491Y-70097195D01*
X135035314Y-70046589D01*
X135189060Y-69964411D01*
X135323818Y-69853817D01*
X135351535Y-69820044D01*
X136780870Y-68390709D01*
X136835147Y-68663575D01*
X136943320Y-68924728D01*
X137100363Y-69159760D01*
X137300241Y-69359638D01*
X137532759Y-69515001D01*
X137300241Y-69670364D01*
X137100363Y-69870242D01*
X136943320Y-70105274D01*
X136835147Y-70366427D01*
X136780000Y-70643666D01*
X136780000Y-70926336D01*
X136835147Y-71203575D01*
X136943320Y-71464728D01*
X137100363Y-71699760D01*
X137300241Y-71899638D01*
X137532759Y-72055001D01*
X137300241Y-72210364D01*
X137100363Y-72410242D01*
X136943320Y-72645274D01*
X136835147Y-72906427D01*
X136780000Y-73183666D01*
X136780000Y-73466336D01*
X136835147Y-73743575D01*
X136943320Y-74004728D01*
X137100363Y-74239760D01*
X137300241Y-74439638D01*
X137532759Y-74595001D01*
X137300241Y-74750364D01*
X137100363Y-74950242D01*
X136943320Y-75185274D01*
X136835147Y-75446427D01*
X136780000Y-75723666D01*
X136780000Y-76006336D01*
X136835147Y-76283575D01*
X136943320Y-76544728D01*
X137100363Y-76779760D01*
X137300241Y-76979638D01*
X137532759Y-77135001D01*
X137300241Y-77290364D01*
X137100363Y-77490242D01*
X136943320Y-77725274D01*
X136835147Y-77986427D01*
X136780000Y-78263666D01*
X136780000Y-78546336D01*
X136835147Y-78823575D01*
X136943320Y-79084728D01*
X137100363Y-79319760D01*
X137300241Y-79519638D01*
X137532759Y-79675001D01*
X137300241Y-79830364D01*
X137100363Y-80030242D01*
X136943320Y-80265274D01*
X136835147Y-80526427D01*
X136780000Y-80803666D01*
X136780000Y-81086336D01*
X136835147Y-81363575D01*
X136943320Y-81624728D01*
X137100363Y-81859760D01*
X137300241Y-82059638D01*
X137532759Y-82215001D01*
X137300241Y-82370364D01*
X137100363Y-82570242D01*
X136943320Y-82805274D01*
X136835147Y-83066427D01*
X136780000Y-83343666D01*
X136780000Y-83626336D01*
X136835147Y-83903575D01*
X136943320Y-84164728D01*
X137100363Y-84399760D01*
X137300241Y-84599638D01*
X137532759Y-84755001D01*
X137300241Y-84910364D01*
X137100363Y-85110242D01*
X136943320Y-85345274D01*
X136835147Y-85606427D01*
X136780000Y-85883666D01*
X136780000Y-86166336D01*
X136835147Y-86443575D01*
X136943320Y-86704728D01*
X137100363Y-86939760D01*
X137300241Y-87139638D01*
X137532759Y-87295001D01*
X137300241Y-87450364D01*
X137100363Y-87650242D01*
X136943320Y-87885274D01*
X136835147Y-88146427D01*
X136780000Y-88423666D01*
X136780000Y-88706336D01*
X136832447Y-88970000D01*
X133736057Y-88970000D01*
X133692591Y-88965719D01*
X133649125Y-88970000D01*
X133649115Y-88970000D01*
X133519102Y-88982805D01*
X133494541Y-88990256D01*
X133414319Y-88957027D01*
X133294623Y-88920718D01*
X133198490Y-88901596D01*
X133138859Y-88895723D01*
X135745051Y-86289532D01*
X135778817Y-86261821D01*
X135841051Y-86185990D01*
X135889411Y-86127063D01*
X135889412Y-86127062D01*
X135971589Y-85973317D01*
X136022195Y-85806494D01*
X136035000Y-85676481D01*
X136035000Y-85676473D01*
X136039281Y-85633004D01*
X136035000Y-85589535D01*
X136035000Y-76853505D01*
X136039281Y-76810039D01*
X136035000Y-76766573D01*
X136035000Y-75618465D01*
X136039281Y-75574999D01*
X136035000Y-75531533D01*
X136035000Y-75531523D01*
X136022195Y-75401510D01*
X135971589Y-75234687D01*
X135889411Y-75080941D01*
X135778817Y-74946183D01*
X135745044Y-74918466D01*
X135744034Y-74917456D01*
X135716317Y-74883683D01*
X135581559Y-74773089D01*
X135427813Y-74690911D01*
X135260990Y-74640305D01*
X135130977Y-74627500D01*
X135130969Y-74627500D01*
X135087500Y-74623219D01*
X135044031Y-74627500D01*
X133735734Y-74627500D01*
X133696691Y-74595458D01*
X133615192Y-74541002D01*
X133504875Y-74482036D01*
X133414319Y-74444527D01*
X133294623Y-74408218D01*
X133198490Y-74389096D01*
X133074009Y-74376836D01*
X133049450Y-74376836D01*
X133025000Y-74374428D01*
X132525000Y-74374428D01*
X132500550Y-74376836D01*
X132475991Y-74376836D01*
X132351510Y-74389096D01*
X132255377Y-74408218D01*
X132135681Y-74444527D01*
X132045125Y-74482036D01*
X131934808Y-74541002D01*
X131853309Y-74595458D01*
X131756618Y-74674810D01*
X131687310Y-74744118D01*
X131607958Y-74840809D01*
X131553502Y-74922308D01*
X131494536Y-75032625D01*
X131457027Y-75123181D01*
X131420718Y-75242877D01*
X131401596Y-75339010D01*
X131389336Y-75463491D01*
X131389336Y-75488050D01*
X131386928Y-75512500D01*
X131386928Y-76012500D01*
X131399188Y-76136982D01*
X131406929Y-76162500D01*
X131399188Y-76188018D01*
X131386928Y-76312500D01*
X131386928Y-76812500D01*
X131389336Y-76836950D01*
X131389336Y-76861509D01*
X131396964Y-76938957D01*
X127025920Y-81310002D01*
X126390510Y-81310002D01*
X126435001Y-81086336D01*
X126435001Y-80803666D01*
X126379854Y-80526427D01*
X126271681Y-80265274D01*
X126114638Y-80030242D01*
X125914760Y-79830364D01*
X125682242Y-79675001D01*
X125914760Y-79519638D01*
X126114638Y-79319760D01*
X126271681Y-79084728D01*
X126379854Y-78823575D01*
X126435001Y-78546336D01*
X126435001Y-78263666D01*
X126379854Y-77986427D01*
X126271681Y-77725274D01*
X126114638Y-77490242D01*
X125914760Y-77290364D01*
X125682242Y-77135001D01*
X125914760Y-76979638D01*
X126114638Y-76779760D01*
X126271681Y-76544728D01*
X126379854Y-76283575D01*
X126435001Y-76006336D01*
X126435001Y-75723666D01*
X126379854Y-75446427D01*
X126271681Y-75185274D01*
X126114638Y-74950242D01*
X125914760Y-74750364D01*
X125682242Y-74595001D01*
X125914760Y-74439638D01*
X126114638Y-74239760D01*
X126271681Y-74004728D01*
X126379854Y-73743575D01*
X126435001Y-73466336D01*
X126435001Y-73183666D01*
X126379854Y-72906427D01*
X126271681Y-72645274D01*
X126114638Y-72410242D01*
X125914760Y-72210364D01*
X125682242Y-72055001D01*
X125914760Y-71899638D01*
X126114638Y-71699760D01*
X126271681Y-71464728D01*
X126379854Y-71203575D01*
X126435001Y-70926336D01*
X126435001Y-70643666D01*
X126379854Y-70366427D01*
X126271681Y-70105274D01*
X126114638Y-69870242D01*
X125914760Y-69670364D01*
X125682242Y-69515001D01*
X125914760Y-69359638D01*
X126114638Y-69159760D01*
X126271681Y-68924728D01*
X126379854Y-68663575D01*
X126435001Y-68386336D01*
X126435001Y-68103666D01*
X126379854Y-67826427D01*
X126271681Y-67565274D01*
X126114638Y-67330242D01*
X125914760Y-67130364D01*
X125682242Y-66975001D01*
X125914760Y-66819638D01*
X126114638Y-66619760D01*
X126271681Y-66384728D01*
X126379854Y-66123575D01*
X126435001Y-65846336D01*
X126435001Y-65563666D01*
X126379854Y-65286427D01*
X126271681Y-65025274D01*
X126114638Y-64790242D01*
X125914760Y-64590364D01*
X125682242Y-64435001D01*
X125914760Y-64279638D01*
X126114638Y-64079760D01*
X126271681Y-63844728D01*
X126379854Y-63583575D01*
X126435001Y-63306336D01*
X126435001Y-63023666D01*
X126379854Y-62746427D01*
X126271681Y-62485274D01*
X126114638Y-62250242D01*
X125916040Y-62051644D01*
X125924483Y-62050813D01*
X126044181Y-62014503D01*
X126154495Y-61955538D01*
X126251186Y-61876186D01*
X126330538Y-61779495D01*
X126389503Y-61669181D01*
X126425813Y-61549483D01*
X126438073Y-61425001D01*
X126435001Y-60910751D01*
X126276251Y-60752001D01*
X125127001Y-60752001D01*
X125127001Y-60772001D01*
X124873001Y-60772001D01*
X124873001Y-60752001D01*
X123102000Y-60752001D01*
X123102000Y-60772001D01*
X122848000Y-60772001D01*
X122848000Y-60752001D01*
X122828000Y-60752001D01*
X122828000Y-60498001D01*
X122848000Y-60498001D01*
X122848000Y-60478001D01*
X123102000Y-60478001D01*
X123102000Y-60498001D01*
X124873001Y-60498001D01*
X124873001Y-60478001D01*
X125127001Y-60478001D01*
X125127001Y-60498001D01*
X126276251Y-60498001D01*
X126435001Y-60339251D01*
X126438073Y-59825001D01*
X126425813Y-59700519D01*
X126398354Y-59610000D01*
X137200605Y-59610000D01*
X137100363Y-59710242D01*
G37*
X137100363Y-59710242D02*
X136943320Y-59945274D01*
X136835147Y-60206427D01*
X136780000Y-60483666D01*
X136780000Y-60766336D01*
X136835147Y-61043575D01*
X136943320Y-61304728D01*
X137100363Y-61539760D01*
X137300241Y-61739638D01*
X137532759Y-61895001D01*
X137300241Y-62050364D01*
X137100363Y-62250242D01*
X136943320Y-62485274D01*
X136835147Y-62746427D01*
X136780000Y-63023666D01*
X136780000Y-63306336D01*
X136832447Y-63570000D01*
X133763469Y-63570000D01*
X133720000Y-63565719D01*
X133676531Y-63570000D01*
X133676523Y-63570000D01*
X133546510Y-63582805D01*
X133379687Y-63633411D01*
X133259630Y-63697582D01*
X133225941Y-63715589D01*
X133124953Y-63798468D01*
X133124951Y-63798470D01*
X133091183Y-63826183D01*
X133063470Y-63859951D01*
X132179956Y-64743466D01*
X132146183Y-64771183D01*
X132035589Y-64905942D01*
X131953411Y-65059688D01*
X131938163Y-65109954D01*
X131907528Y-65210943D01*
X131902805Y-65226511D01*
X131890000Y-65356524D01*
X131890000Y-65356531D01*
X131885719Y-65400000D01*
X131890000Y-65443469D01*
X131890001Y-66983441D01*
X131853309Y-67007958D01*
X131756618Y-67087310D01*
X131687310Y-67156618D01*
X131607958Y-67253309D01*
X131553502Y-67334808D01*
X131494536Y-67445125D01*
X131457027Y-67535681D01*
X131420718Y-67655377D01*
X131401596Y-67751510D01*
X131389336Y-67875991D01*
X131389336Y-67900550D01*
X131386928Y-67925000D01*
X131386928Y-68425000D01*
X131399188Y-68549482D01*
X131406929Y-68575000D01*
X131399188Y-68600518D01*
X131386928Y-68725000D01*
X131386928Y-69225000D01*
X131389336Y-69249450D01*
X131389336Y-69274009D01*
X131401596Y-69398490D01*
X131420718Y-69494623D01*
X131457027Y-69614319D01*
X131494536Y-69704875D01*
X131553502Y-69815192D01*
X131607958Y-69896691D01*
X131687310Y-69993382D01*
X131756618Y-70062690D01*
X131853309Y-70142042D01*
X131934808Y-70196498D01*
X132045125Y-70255464D01*
X132135681Y-70292973D01*
X132255377Y-70329282D01*
X132351510Y-70348404D01*
X132475991Y-70360664D01*
X132500550Y-70360664D01*
X132525000Y-70363072D01*
X133025000Y-70363072D01*
X133049450Y-70360664D01*
X133074009Y-70360664D01*
X133198490Y-70348404D01*
X133294623Y-70329282D01*
X133414319Y-70292973D01*
X133504875Y-70255464D01*
X133615192Y-70196498D01*
X133696691Y-70142042D01*
X133735734Y-70110000D01*
X134651532Y-70110000D01*
X134695001Y-70114281D01*
X134738470Y-70110000D01*
X134738478Y-70110000D01*
X134868491Y-70097195D01*
X135035314Y-70046589D01*
X135189060Y-69964411D01*
X135323818Y-69853817D01*
X135351535Y-69820044D01*
X136780870Y-68390709D01*
X136835147Y-68663575D01*
X136943320Y-68924728D01*
X137100363Y-69159760D01*
X137300241Y-69359638D01*
X137532759Y-69515001D01*
X137300241Y-69670364D01*
X137100363Y-69870242D01*
X136943320Y-70105274D01*
X136835147Y-70366427D01*
X136780000Y-70643666D01*
X136780000Y-70926336D01*
X136835147Y-71203575D01*
X136943320Y-71464728D01*
X137100363Y-71699760D01*
X137300241Y-71899638D01*
X137532759Y-72055001D01*
X137300241Y-72210364D01*
X137100363Y-72410242D01*
X136943320Y-72645274D01*
X136835147Y-72906427D01*
X136780000Y-73183666D01*
X136780000Y-73466336D01*
X136835147Y-73743575D01*
X136943320Y-74004728D01*
X137100363Y-74239760D01*
X137300241Y-74439638D01*
X137532759Y-74595001D01*
X137300241Y-74750364D01*
X137100363Y-74950242D01*
X136943320Y-75185274D01*
X136835147Y-75446427D01*
X136780000Y-75723666D01*
X136780000Y-76006336D01*
X136835147Y-76283575D01*
X136943320Y-76544728D01*
X137100363Y-76779760D01*
X137300241Y-76979638D01*
X137532759Y-77135001D01*
X137300241Y-77290364D01*
X137100363Y-77490242D01*
X136943320Y-77725274D01*
X136835147Y-77986427D01*
X136780000Y-78263666D01*
X136780000Y-78546336D01*
X136835147Y-78823575D01*
X136943320Y-79084728D01*
X137100363Y-79319760D01*
X137300241Y-79519638D01*
X137532759Y-79675001D01*
X137300241Y-79830364D01*
X137100363Y-80030242D01*
X136943320Y-80265274D01*
X136835147Y-80526427D01*
X136780000Y-80803666D01*
X136780000Y-81086336D01*
X136835147Y-81363575D01*
X136943320Y-81624728D01*
X137100363Y-81859760D01*
X137300241Y-82059638D01*
X137532759Y-82215001D01*
X137300241Y-82370364D01*
X137100363Y-82570242D01*
X136943320Y-82805274D01*
X136835147Y-83066427D01*
X136780000Y-83343666D01*
X136780000Y-83626336D01*
X136835147Y-83903575D01*
X136943320Y-84164728D01*
X137100363Y-84399760D01*
X137300241Y-84599638D01*
X137532759Y-84755001D01*
X137300241Y-84910364D01*
X137100363Y-85110242D01*
X136943320Y-85345274D01*
X136835147Y-85606427D01*
X136780000Y-85883666D01*
X136780000Y-86166336D01*
X136835147Y-86443575D01*
X136943320Y-86704728D01*
X137100363Y-86939760D01*
X137300241Y-87139638D01*
X137532759Y-87295001D01*
X137300241Y-87450364D01*
X137100363Y-87650242D01*
X136943320Y-87885274D01*
X136835147Y-88146427D01*
X136780000Y-88423666D01*
X136780000Y-88706336D01*
X136832447Y-88970000D01*
X133736057Y-88970000D01*
X133692591Y-88965719D01*
X133649125Y-88970000D01*
X133649115Y-88970000D01*
X133519102Y-88982805D01*
X133494541Y-88990256D01*
X133414319Y-88957027D01*
X133294623Y-88920718D01*
X133198490Y-88901596D01*
X133138859Y-88895723D01*
X135745051Y-86289532D01*
X135778817Y-86261821D01*
X135841051Y-86185990D01*
X135889411Y-86127063D01*
X135889412Y-86127062D01*
X135971589Y-85973317D01*
X136022195Y-85806494D01*
X136035000Y-85676481D01*
X136035000Y-85676473D01*
X136039281Y-85633004D01*
X136035000Y-85589535D01*
X136035000Y-76853505D01*
X136039281Y-76810039D01*
X136035000Y-76766573D01*
X136035000Y-75618465D01*
X136039281Y-75574999D01*
X136035000Y-75531533D01*
X136035000Y-75531523D01*
X136022195Y-75401510D01*
X135971589Y-75234687D01*
X135889411Y-75080941D01*
X135778817Y-74946183D01*
X135745044Y-74918466D01*
X135744034Y-74917456D01*
X135716317Y-74883683D01*
X135581559Y-74773089D01*
X135427813Y-74690911D01*
X135260990Y-74640305D01*
X135130977Y-74627500D01*
X135130969Y-74627500D01*
X135087500Y-74623219D01*
X135044031Y-74627500D01*
X133735734Y-74627500D01*
X133696691Y-74595458D01*
X133615192Y-74541002D01*
X133504875Y-74482036D01*
X133414319Y-74444527D01*
X133294623Y-74408218D01*
X133198490Y-74389096D01*
X133074009Y-74376836D01*
X133049450Y-74376836D01*
X133025000Y-74374428D01*
X132525000Y-74374428D01*
X132500550Y-74376836D01*
X132475991Y-74376836D01*
X132351510Y-74389096D01*
X132255377Y-74408218D01*
X132135681Y-74444527D01*
X132045125Y-74482036D01*
X131934808Y-74541002D01*
X131853309Y-74595458D01*
X131756618Y-74674810D01*
X131687310Y-74744118D01*
X131607958Y-74840809D01*
X131553502Y-74922308D01*
X131494536Y-75032625D01*
X131457027Y-75123181D01*
X131420718Y-75242877D01*
X131401596Y-75339010D01*
X131389336Y-75463491D01*
X131389336Y-75488050D01*
X131386928Y-75512500D01*
X131386928Y-76012500D01*
X131399188Y-76136982D01*
X131406929Y-76162500D01*
X131399188Y-76188018D01*
X131386928Y-76312500D01*
X131386928Y-76812500D01*
X131389336Y-76836950D01*
X131389336Y-76861509D01*
X131396964Y-76938957D01*
X127025920Y-81310002D01*
X126390510Y-81310002D01*
X126435001Y-81086336D01*
X126435001Y-80803666D01*
X126379854Y-80526427D01*
X126271681Y-80265274D01*
X126114638Y-80030242D01*
X125914760Y-79830364D01*
X125682242Y-79675001D01*
X125914760Y-79519638D01*
X126114638Y-79319760D01*
X126271681Y-79084728D01*
X126379854Y-78823575D01*
X126435001Y-78546336D01*
X126435001Y-78263666D01*
X126379854Y-77986427D01*
X126271681Y-77725274D01*
X126114638Y-77490242D01*
X125914760Y-77290364D01*
X125682242Y-77135001D01*
X125914760Y-76979638D01*
X126114638Y-76779760D01*
X126271681Y-76544728D01*
X126379854Y-76283575D01*
X126435001Y-76006336D01*
X126435001Y-75723666D01*
X126379854Y-75446427D01*
X126271681Y-75185274D01*
X126114638Y-74950242D01*
X125914760Y-74750364D01*
X125682242Y-74595001D01*
X125914760Y-74439638D01*
X126114638Y-74239760D01*
X126271681Y-74004728D01*
X126379854Y-73743575D01*
X126435001Y-73466336D01*
X126435001Y-73183666D01*
X126379854Y-72906427D01*
X126271681Y-72645274D01*
X126114638Y-72410242D01*
X125914760Y-72210364D01*
X125682242Y-72055001D01*
X125914760Y-71899638D01*
X126114638Y-71699760D01*
X126271681Y-71464728D01*
X126379854Y-71203575D01*
X126435001Y-70926336D01*
X126435001Y-70643666D01*
X126379854Y-70366427D01*
X126271681Y-70105274D01*
X126114638Y-69870242D01*
X125914760Y-69670364D01*
X125682242Y-69515001D01*
X125914760Y-69359638D01*
X126114638Y-69159760D01*
X126271681Y-68924728D01*
X126379854Y-68663575D01*
X126435001Y-68386336D01*
X126435001Y-68103666D01*
X126379854Y-67826427D01*
X126271681Y-67565274D01*
X126114638Y-67330242D01*
X125914760Y-67130364D01*
X125682242Y-66975001D01*
X125914760Y-66819638D01*
X126114638Y-66619760D01*
X126271681Y-66384728D01*
X126379854Y-66123575D01*
X126435001Y-65846336D01*
X126435001Y-65563666D01*
X126379854Y-65286427D01*
X126271681Y-65025274D01*
X126114638Y-64790242D01*
X125914760Y-64590364D01*
X125682242Y-64435001D01*
X125914760Y-64279638D01*
X126114638Y-64079760D01*
X126271681Y-63844728D01*
X126379854Y-63583575D01*
X126435001Y-63306336D01*
X126435001Y-63023666D01*
X126379854Y-62746427D01*
X126271681Y-62485274D01*
X126114638Y-62250242D01*
X125916040Y-62051644D01*
X125924483Y-62050813D01*
X126044181Y-62014503D01*
X126154495Y-61955538D01*
X126251186Y-61876186D01*
X126330538Y-61779495D01*
X126389503Y-61669181D01*
X126425813Y-61549483D01*
X126438073Y-61425001D01*
X126435001Y-60910751D01*
X126276251Y-60752001D01*
X125127001Y-60752001D01*
X125127001Y-60772001D01*
X124873001Y-60772001D01*
X124873001Y-60752001D01*
X123102000Y-60752001D01*
X123102000Y-60772001D01*
X122848000Y-60772001D01*
X122848000Y-60752001D01*
X122828000Y-60752001D01*
X122828000Y-60498001D01*
X122848000Y-60498001D01*
X122848000Y-60478001D01*
X123102000Y-60478001D01*
X123102000Y-60498001D01*
X124873001Y-60498001D01*
X124873001Y-60478001D01*
X125127001Y-60478001D01*
X125127001Y-60498001D01*
X126276251Y-60498001D01*
X126435001Y-60339251D01*
X126438073Y-59825001D01*
X126425813Y-59700519D01*
X126398354Y-59610000D01*
X137200605Y-59610000D01*
X137100363Y-59710242D01*
M02*
