M48
; DRILL file {KiCad 5.1.5+dfsg1-2build2} date Sun 13 Mar 2022 09:19:38 PM EDT
; FORMAT={-:-/ absolute / inch / decimal}
; #@! TF.CreationDate,2022-03-13T21:19:38-04:00
; #@! TF.GenerationSoftware,Kicad,Pcbnew,5.1.5+dfsg1-2build2
FMAT,2
INCH
T1C0.0157
T2C0.0315
T3C0.0394
%
G90
G05
T1
X4.4754Y-4.2884
X4.5354Y-3.7913
X4.5354Y-4.1909
X4.7512Y-4.236
X4.7638Y-3.6083
X4.7648Y-4.0315
X4.9734Y-3.5354
X5.06Y-3.7579
X5.0984Y-3.5413
X5.3278Y-2.8327
X5.3356Y-2.9272
X5.3455Y-3.4272
T2
X4.9213Y-2.3868
X4.9213Y-2.4868
X4.9213Y-2.5868
X4.9213Y-2.6868
X4.9213Y-2.7868
X4.9213Y-2.8868
X4.9213Y-2.9868
X4.9213Y-3.0868
X4.9213Y-3.1868
X4.9213Y-3.2868
X4.9213Y-3.3868
X4.9213Y-3.4868
X4.9213Y-3.5868
X4.9213Y-3.6868
X4.9213Y-3.7868
X4.9213Y-3.8868
X4.9213Y-3.9868
X4.9213Y-4.0868
X4.9213Y-4.1868
X4.9213Y-4.2868
X5.5213Y-2.3868
X5.5213Y-2.4868
X5.5213Y-2.5868
X5.5213Y-2.6868
X5.5213Y-2.7868
X5.5213Y-2.8868
X5.5213Y-2.9868
X5.5213Y-3.0868
X5.5213Y-3.1868
X5.5213Y-3.2868
X5.5213Y-3.3868
X5.5213Y-3.4868
X5.5213Y-3.5868
X5.5213Y-3.6868
X5.5213Y-3.7868
X5.5213Y-3.8868
X5.5213Y-3.9868
X5.5213Y-4.0868
X5.5213Y-4.1868
X5.5213Y-4.2868
X4.8415Y-2.3868
X4.8415Y-2.4868
X4.8415Y-2.5868
X4.8415Y-2.6868
X4.8415Y-2.7868
X4.8415Y-2.8868
X4.8415Y-2.9868
X4.8415Y-3.0868
X4.8415Y-3.1868
X4.8415Y-3.2868
X4.8415Y-3.3868
X4.8415Y-3.4868
X4.8415Y-3.5868
X4.8415Y-3.6868
X4.8415Y-3.7868
X4.8415Y-3.8868
X4.8415Y-3.9868
X4.8415Y-4.0868
X4.8415Y-4.1868
X4.8415Y-4.2868
X5.4415Y-2.3868
X5.4415Y-2.4868
X5.4415Y-2.5868
X5.4415Y-2.6868
X5.4415Y-2.7868
X5.4415Y-2.8868
X5.4415Y-2.9868
X5.4415Y-3.0868
X5.4415Y-3.1868
X5.4415Y-3.2868
X5.4415Y-3.3868
X5.4415Y-3.4868
X5.4415Y-3.5868
X5.4415Y-3.6868
X5.4415Y-3.7868
X5.4415Y-3.8868
X5.4415Y-3.9868
X5.4415Y-4.0868
X5.4415Y-4.1868
X5.4415Y-4.2868
T3
X4.5827Y-3.6289
X4.6827Y-3.6289
X4.5266Y-3.9291
X4.5266Y-4.0291
X4.5266Y-4.1291
X4.6266Y-3.9291
X4.6266Y-4.0291
X4.6266Y-4.1291
T0
M30
