G04 #@! TF.GenerationSoftware,KiCad,Pcbnew,5.1.5+dfsg1-2build2*
G04 #@! TF.CreationDate,2022-03-13T21:18:42-04:00*
G04 #@! TF.ProjectId,vdg_breakout,7664675f-6272-4656-916b-6f75742e6b69,rev?*
G04 #@! TF.SameCoordinates,Original*
G04 #@! TF.FileFunction,Legend,Top*
G04 #@! TF.FilePolarity,Positive*
%FSLAX46Y46*%
G04 Gerber Fmt 4.6, Leading zero omitted, Abs format (unit mm)*
G04 Created by KiCad (PCBNEW 5.1.5+dfsg1-2build2) date 2022-03-13 21:18:42*
%MOMM*%
%LPD*%
G04 APERTURE LIST*
%ADD10C,0.150000*%
%ADD11C,0.120000*%
G04 APERTURE END LIST*
D10*
X121764285Y-119196428D02*
X122526190Y-119196428D01*
X122145238Y-119577380D02*
X122145238Y-118815476D01*
X123478571Y-118577380D02*
X123002380Y-118577380D01*
X122954761Y-119053571D01*
X123002380Y-119005952D01*
X123097619Y-118958333D01*
X123335714Y-118958333D01*
X123430952Y-119005952D01*
X123478571Y-119053571D01*
X123526190Y-119148809D01*
X123526190Y-119386904D01*
X123478571Y-119482142D01*
X123430952Y-119529761D01*
X123335714Y-119577380D01*
X123097619Y-119577380D01*
X123002380Y-119529761D01*
X122954761Y-119482142D01*
X123811904Y-118577380D02*
X124145238Y-119577380D01*
X124478571Y-118577380D01*
D11*
X133620001Y-59295001D02*
G75*
G02X131620001Y-59295001I-1000000J0D01*
G01*
X131620001Y-59295001D02*
X126160001Y-59295001D01*
X126160001Y-59295001D02*
X126160001Y-110215001D01*
X126160001Y-110215001D02*
X139080001Y-110215001D01*
X139080001Y-110215001D02*
X139080001Y-59295001D01*
X139080001Y-59295001D02*
X133620001Y-59295001D01*
X123670001Y-59235001D02*
X123670001Y-110275001D01*
X123670001Y-110275001D02*
X141570001Y-110275001D01*
X141570001Y-110275001D02*
X141570001Y-59235001D01*
X141570001Y-59235001D02*
X123670001Y-59235001D01*
X139545000Y-59235001D02*
X121645000Y-59235001D01*
X139545000Y-110275001D02*
X139545000Y-59235001D01*
X121645000Y-110275001D02*
X139545000Y-110275001D01*
X121645000Y-59235001D02*
X121645000Y-110275001D01*
X137055000Y-59295001D02*
X131595000Y-59295001D01*
X137055000Y-110215001D02*
X137055000Y-59295001D01*
X124135000Y-110215001D02*
X137055000Y-110215001D01*
X124135000Y-59295001D02*
X124135000Y-110215001D01*
X129595000Y-59295001D02*
X124135000Y-59295001D01*
X131595000Y-59295001D02*
G75*
G02X129595000Y-59295001I-1000000J0D01*
G01*
X125865000Y-119965000D02*
X125865000Y-110845000D01*
X125865000Y-110845000D02*
X141365000Y-110845000D01*
X141365000Y-110845000D02*
X141365000Y-119965000D01*
X141365000Y-119965000D02*
X125865000Y-119965000D01*
X131565000Y-119965000D02*
X131565000Y-118655000D01*
X131565000Y-118655000D02*
X127165000Y-118655000D01*
X127165000Y-118655000D02*
X127165000Y-112155000D01*
X127165000Y-112155000D02*
X140065000Y-112155000D01*
X140065000Y-112155000D02*
X140065000Y-118655000D01*
X140065000Y-118655000D02*
X135665000Y-118655000D01*
X135665000Y-118655000D02*
X135665000Y-118655000D01*
X135665000Y-118655000D02*
X135665000Y-119965000D01*
X131075000Y-120355000D02*
X130575000Y-121355000D01*
X130575000Y-121355000D02*
X131575000Y-121355000D01*
X131575000Y-121355000D02*
X131075000Y-120355000D01*
X124780000Y-111380000D02*
X122120000Y-111380000D01*
X124780000Y-113980000D02*
X124780000Y-111380000D01*
X122120000Y-113980000D02*
X122120000Y-111380000D01*
X124780000Y-113980000D02*
X122120000Y-113980000D01*
X124780000Y-115250000D02*
X124780000Y-116580000D01*
X124780000Y-116580000D02*
X123450000Y-116580000D01*
D10*
X135566667Y-61352380D02*
X135566667Y-62066666D01*
X135519048Y-62209523D01*
X135423810Y-62304761D01*
X135280953Y-62352380D01*
X135185715Y-62352380D01*
X136566667Y-62352380D02*
X135995239Y-62352380D01*
X136280953Y-62352380D02*
X136280953Y-61352380D01*
X136185715Y-61495238D01*
X136090477Y-61590476D01*
X135995239Y-61638095D01*
X127016665Y-61377380D02*
X127016665Y-62091666D01*
X126969046Y-62234523D01*
X126873808Y-62329761D01*
X126730951Y-62377380D01*
X126635713Y-62377380D01*
X127445237Y-61472619D02*
X127492856Y-61425000D01*
X127588094Y-61377380D01*
X127826189Y-61377380D01*
X127921427Y-61425000D01*
X127969046Y-61472619D01*
X128016665Y-61567857D01*
X128016665Y-61663095D01*
X127969046Y-61805952D01*
X127397618Y-62377380D01*
X128016665Y-62377380D01*
X124777380Y-111683333D02*
X125491666Y-111683333D01*
X125634523Y-111730952D01*
X125729761Y-111826190D01*
X125777380Y-111969047D01*
X125777380Y-112064285D01*
X124777380Y-111302380D02*
X124777380Y-110683333D01*
X125158333Y-111016666D01*
X125158333Y-110873809D01*
X125205952Y-110778571D01*
X125253571Y-110730952D01*
X125348809Y-110683333D01*
X125586904Y-110683333D01*
X125682142Y-110730952D01*
X125729761Y-110778571D01*
X125777380Y-110873809D01*
X125777380Y-111159523D01*
X125729761Y-111254761D01*
X125682142Y-111302380D01*
X122616666Y-117032380D02*
X122616666Y-117746666D01*
X122569047Y-117889523D01*
X122473809Y-117984761D01*
X122330952Y-118032380D01*
X122235714Y-118032380D01*
X123092857Y-118032380D02*
X123092857Y-117032380D01*
X123473809Y-117032380D01*
X123569047Y-117080000D01*
X123616666Y-117127619D01*
X123664285Y-117222857D01*
X123664285Y-117365714D01*
X123616666Y-117460952D01*
X123569047Y-117508571D01*
X123473809Y-117556190D01*
X123092857Y-117556190D01*
X124521428Y-117032380D02*
X124330952Y-117032380D01*
X124235714Y-117080000D01*
X124188095Y-117127619D01*
X124092857Y-117270476D01*
X124045238Y-117460952D01*
X124045238Y-117841904D01*
X124092857Y-117937142D01*
X124140476Y-117984761D01*
X124235714Y-118032380D01*
X124426190Y-118032380D01*
X124521428Y-117984761D01*
X124569047Y-117937142D01*
X124616666Y-117841904D01*
X124616666Y-117603809D01*
X124569047Y-117508571D01*
X124521428Y-117460952D01*
X124426190Y-117413333D01*
X124235714Y-117413333D01*
X124140476Y-117460952D01*
X124092857Y-117508571D01*
X124045238Y-117603809D01*
M02*
