G04 #@! TF.GenerationSoftware,KiCad,Pcbnew,5.1.5+dfsg1-2build2*
G04 #@! TF.CreationDate,2022-03-13T21:18:42-04:00*
G04 #@! TF.ProjectId,vdg_breakout,7664675f-6272-4656-916b-6f75742e6b69,rev?*
G04 #@! TF.SameCoordinates,Original*
G04 #@! TF.FileFunction,Copper,L1,Top*
G04 #@! TF.FilePolarity,Positive*
%FSLAX46Y46*%
G04 Gerber Fmt 4.6, Leading zero omitted, Abs format (unit mm)*
G04 Created by KiCad (PCBNEW 5.1.5+dfsg1-2build2) date 2022-03-13 21:18:42*
%MOMM*%
%LPD*%
G04 APERTURE LIST*
%ADD10R,1.600000X1.600000*%
%ADD11O,1.600000X1.600000*%
%ADD12C,0.100000*%
%ADD13C,1.700000*%
%ADD14R,1.700000X1.700000*%
%ADD15O,1.700000X1.700000*%
%ADD16C,0.800000*%
%ADD17C,1.500000*%
%ADD18C,0.500000*%
%ADD19C,1.250000*%
%ADD20C,0.254000*%
G04 APERTURE END LIST*
D10*
X125000001Y-60625001D03*
D11*
X140240001Y-108885001D03*
X125000001Y-63165001D03*
X140240001Y-106345001D03*
X125000001Y-65705001D03*
X140240001Y-103805001D03*
X125000001Y-68245001D03*
X140240001Y-101265001D03*
X125000001Y-70785001D03*
X140240001Y-98725001D03*
X125000001Y-73325001D03*
X140240001Y-96185001D03*
X125000001Y-75865001D03*
X140240001Y-93645001D03*
X125000001Y-78405001D03*
X140240001Y-91105001D03*
X125000001Y-80945001D03*
X140240001Y-88565001D03*
X125000001Y-83485001D03*
X140240001Y-86025001D03*
X125000001Y-86025001D03*
X140240001Y-83485001D03*
X125000001Y-88565001D03*
X140240001Y-80945001D03*
X125000001Y-91105001D03*
X140240001Y-78405001D03*
X125000001Y-93645001D03*
X140240001Y-75865001D03*
X125000001Y-96185001D03*
X140240001Y-73325001D03*
X125000001Y-98725001D03*
X140240001Y-70785001D03*
X125000001Y-101265001D03*
X140240001Y-68245001D03*
X125000001Y-103805001D03*
X140240001Y-65705001D03*
X125000001Y-106345001D03*
X140240001Y-63165001D03*
X125000001Y-108885001D03*
X140240001Y-60625001D03*
X138215000Y-60625001D03*
X122975000Y-108885001D03*
X138215000Y-63165001D03*
X122975000Y-106345001D03*
X138215000Y-65705001D03*
X122975000Y-103805001D03*
X138215000Y-68245001D03*
X122975000Y-101265001D03*
X138215000Y-70785001D03*
X122975000Y-98725001D03*
X138215000Y-73325001D03*
X122975000Y-96185001D03*
X138215000Y-75865001D03*
X122975000Y-93645001D03*
X138215000Y-78405001D03*
X122975000Y-91105001D03*
X138215000Y-80945001D03*
X122975000Y-88565001D03*
X138215000Y-83485001D03*
X122975000Y-86025001D03*
X138215000Y-86025001D03*
X122975000Y-83485001D03*
X138215000Y-88565001D03*
X122975000Y-80945001D03*
X138215000Y-91105001D03*
X122975000Y-78405001D03*
X138215000Y-93645001D03*
X122975000Y-75865001D03*
X138215000Y-96185001D03*
X122975000Y-73325001D03*
X138215000Y-98725001D03*
X122975000Y-70785001D03*
X138215000Y-101265001D03*
X122975000Y-68245001D03*
X138215000Y-103805001D03*
X122975000Y-65705001D03*
X138215000Y-106345001D03*
X122975000Y-63165001D03*
X138215000Y-108885001D03*
D10*
X122975000Y-60625001D03*
G04 #@! TA.AperFunction,ComponentPad*
D12*
G36*
X131699504Y-115826204D02*
G01*
X131723773Y-115829804D01*
X131747571Y-115835765D01*
X131770671Y-115844030D01*
X131792849Y-115854520D01*
X131813893Y-115867133D01*
X131833598Y-115881747D01*
X131851777Y-115898223D01*
X131868253Y-115916402D01*
X131882867Y-115936107D01*
X131895480Y-115957151D01*
X131905970Y-115979329D01*
X131914235Y-116002429D01*
X131920196Y-116026227D01*
X131923796Y-116050496D01*
X131925000Y-116075000D01*
X131925000Y-117275000D01*
X131923796Y-117299504D01*
X131920196Y-117323773D01*
X131914235Y-117347571D01*
X131905970Y-117370671D01*
X131895480Y-117392849D01*
X131882867Y-117413893D01*
X131868253Y-117433598D01*
X131851777Y-117451777D01*
X131833598Y-117468253D01*
X131813893Y-117482867D01*
X131792849Y-117495480D01*
X131770671Y-117505970D01*
X131747571Y-117514235D01*
X131723773Y-117520196D01*
X131699504Y-117523796D01*
X131675000Y-117525000D01*
X130475000Y-117525000D01*
X130450496Y-117523796D01*
X130426227Y-117520196D01*
X130402429Y-117514235D01*
X130379329Y-117505970D01*
X130357151Y-117495480D01*
X130336107Y-117482867D01*
X130316402Y-117468253D01*
X130298223Y-117451777D01*
X130281747Y-117433598D01*
X130267133Y-117413893D01*
X130254520Y-117392849D01*
X130244030Y-117370671D01*
X130235765Y-117347571D01*
X130229804Y-117323773D01*
X130226204Y-117299504D01*
X130225000Y-117275000D01*
X130225000Y-116075000D01*
X130226204Y-116050496D01*
X130229804Y-116026227D01*
X130235765Y-116002429D01*
X130244030Y-115979329D01*
X130254520Y-115957151D01*
X130267133Y-115936107D01*
X130281747Y-115916402D01*
X130298223Y-115898223D01*
X130316402Y-115881747D01*
X130336107Y-115867133D01*
X130357151Y-115854520D01*
X130379329Y-115844030D01*
X130402429Y-115835765D01*
X130426227Y-115829804D01*
X130450496Y-115826204D01*
X130475000Y-115825000D01*
X131675000Y-115825000D01*
X131699504Y-115826204D01*
G37*
G04 #@! TD.AperFunction*
D13*
X133615000Y-116675000D03*
X136155000Y-116675000D03*
X131075000Y-114135000D03*
X133615000Y-114135000D03*
X136155000Y-114135000D03*
D14*
X123450000Y-115250000D03*
D15*
X123450000Y-112710000D03*
D16*
X135325000Y-71950000D03*
X135525000Y-74350000D03*
X135775000Y-87050000D03*
X128525000Y-95450000D03*
D17*
X130225000Y-116675000D02*
X131075000Y-116675000D01*
X127275000Y-113725000D02*
X130225000Y-116675000D01*
X127275000Y-61425000D02*
X127275000Y-113725000D01*
X126475001Y-60625001D02*
X127275000Y-61425000D01*
X125000001Y-60625001D02*
X126475001Y-60625001D01*
D18*
X133615000Y-112932919D02*
X133615000Y-114135000D01*
X133615000Y-95685000D02*
X133615000Y-112932919D01*
X136925000Y-92375000D02*
X133615000Y-95685000D01*
X138970002Y-92375000D02*
X136925000Y-92375000D01*
X140240001Y-91105001D02*
X138970002Y-92375000D01*
D17*
X122975000Y-101265001D02*
X125000001Y-101265001D01*
D19*
X127625000Y-119425000D02*
X123450000Y-115250000D01*
X139075000Y-117775000D02*
X137425000Y-119425000D01*
X139075000Y-115852919D02*
X139075000Y-117775000D01*
X137425000Y-119425000D02*
X127625000Y-119425000D01*
X137357081Y-114135000D02*
X139075000Y-115852919D01*
X136155000Y-114135000D02*
X137357081Y-114135000D01*
D18*
X139440002Y-64905002D02*
X140240001Y-65705001D01*
X138990000Y-64455000D02*
X139440002Y-64905002D01*
X133695000Y-64455000D02*
X138990000Y-64455000D01*
X131075000Y-67075000D02*
X133695000Y-64455000D01*
X131075000Y-114135000D02*
X131075000Y-67075000D01*
D20*
G36*
X137100363Y-59710242D02*
G01*
X136943320Y-59945274D01*
X136835147Y-60206427D01*
X136780000Y-60483666D01*
X136780000Y-60766336D01*
X136835147Y-61043575D01*
X136943320Y-61304728D01*
X137100363Y-61539760D01*
X137300241Y-61739638D01*
X137532759Y-61895001D01*
X137300241Y-62050364D01*
X137100363Y-62250242D01*
X136943320Y-62485274D01*
X136835147Y-62746427D01*
X136780000Y-63023666D01*
X136780000Y-63306336D01*
X136832447Y-63570000D01*
X133738469Y-63570000D01*
X133695000Y-63565719D01*
X133651531Y-63570000D01*
X133651523Y-63570000D01*
X133521510Y-63582805D01*
X133354686Y-63633411D01*
X133200941Y-63715589D01*
X133099953Y-63798468D01*
X133099951Y-63798470D01*
X133066183Y-63826183D01*
X133038470Y-63859951D01*
X130479951Y-66418471D01*
X130446184Y-66446183D01*
X130418471Y-66479951D01*
X130418468Y-66479954D01*
X130335590Y-66580941D01*
X130253412Y-66734687D01*
X130202805Y-66901510D01*
X130185719Y-67075000D01*
X130190001Y-67118479D01*
X130190000Y-112940344D01*
X130128368Y-112981525D01*
X129921525Y-113188368D01*
X129759010Y-113431589D01*
X129647068Y-113701842D01*
X129590000Y-113988740D01*
X129590000Y-114281260D01*
X129647068Y-114568158D01*
X129759010Y-114838411D01*
X129921525Y-115081632D01*
X130053380Y-115213487D01*
X129980820Y-115235498D01*
X129870506Y-115294463D01*
X129773815Y-115373815D01*
X129694463Y-115470506D01*
X129635498Y-115580820D01*
X129599188Y-115700518D01*
X129586928Y-115825000D01*
X129590000Y-116389250D01*
X129748750Y-116548000D01*
X130948000Y-116548000D01*
X130948000Y-116528000D01*
X131202000Y-116528000D01*
X131202000Y-116548000D01*
X131222000Y-116548000D01*
X131222000Y-116802000D01*
X131202000Y-116802000D01*
X131202000Y-118001250D01*
X131360750Y-118160000D01*
X131925000Y-118163072D01*
X132049482Y-118150812D01*
X132169180Y-118114502D01*
X132279494Y-118055537D01*
X132376185Y-117976185D01*
X132455537Y-117879494D01*
X132514502Y-117769180D01*
X132536513Y-117696620D01*
X132668368Y-117828475D01*
X132911589Y-117990990D01*
X133181842Y-118102932D01*
X133468740Y-118160000D01*
X133761260Y-118160000D01*
X134048158Y-118102932D01*
X134318411Y-117990990D01*
X134561632Y-117828475D01*
X134768475Y-117621632D01*
X134885000Y-117447240D01*
X135001525Y-117621632D01*
X135208368Y-117828475D01*
X135451589Y-117990990D01*
X135721842Y-118102932D01*
X136008740Y-118160000D01*
X136301260Y-118160000D01*
X136588158Y-118102932D01*
X136858411Y-117990990D01*
X137101632Y-117828475D01*
X137308475Y-117621632D01*
X137470990Y-117378411D01*
X137582932Y-117108158D01*
X137640000Y-116821260D01*
X137640000Y-116528740D01*
X137582932Y-116241842D01*
X137512871Y-116072698D01*
X137815000Y-116374828D01*
X137815001Y-117253091D01*
X136903092Y-118165000D01*
X128146909Y-118165000D01*
X127506909Y-117525000D01*
X129586928Y-117525000D01*
X129599188Y-117649482D01*
X129635498Y-117769180D01*
X129694463Y-117879494D01*
X129773815Y-117976185D01*
X129870506Y-118055537D01*
X129980820Y-118114502D01*
X130100518Y-118150812D01*
X130225000Y-118163072D01*
X130789250Y-118160000D01*
X130948000Y-118001250D01*
X130948000Y-116802000D01*
X129748750Y-116802000D01*
X129590000Y-116960750D01*
X129586928Y-117525000D01*
X127506909Y-117525000D01*
X124938072Y-114956164D01*
X124938072Y-114400000D01*
X124925812Y-114275518D01*
X124889502Y-114155820D01*
X124830537Y-114045506D01*
X124751185Y-113948815D01*
X124654494Y-113869463D01*
X124544180Y-113810498D01*
X124471620Y-113788487D01*
X124603475Y-113656632D01*
X124765990Y-113413411D01*
X124877932Y-113143158D01*
X124935000Y-112856260D01*
X124935000Y-112563740D01*
X124877932Y-112276842D01*
X124765990Y-112006589D01*
X124603475Y-111763368D01*
X124396632Y-111556525D01*
X124153411Y-111394010D01*
X123883158Y-111282068D01*
X123596260Y-111225000D01*
X123303740Y-111225000D01*
X123016842Y-111282068D01*
X122746589Y-111394010D01*
X122503368Y-111556525D01*
X122296525Y-111763368D01*
X122134010Y-112006589D01*
X122085000Y-112124910D01*
X122085000Y-110016181D01*
X122295273Y-110156681D01*
X122556426Y-110264854D01*
X122833665Y-110320001D01*
X123116335Y-110320001D01*
X123393574Y-110264854D01*
X123654727Y-110156681D01*
X123889759Y-109999638D01*
X123987501Y-109901897D01*
X124085242Y-109999638D01*
X124320274Y-110156681D01*
X124581427Y-110264854D01*
X124858666Y-110320001D01*
X125141336Y-110320001D01*
X125418575Y-110264854D01*
X125679728Y-110156681D01*
X125914760Y-109999638D01*
X126114638Y-109799760D01*
X126271681Y-109564728D01*
X126379854Y-109303575D01*
X126435001Y-109026336D01*
X126435001Y-108743666D01*
X126379854Y-108466427D01*
X126271681Y-108205274D01*
X126114638Y-107970242D01*
X125914760Y-107770364D01*
X125682242Y-107615001D01*
X125914760Y-107459638D01*
X126114638Y-107259760D01*
X126271681Y-107024728D01*
X126379854Y-106763575D01*
X126435001Y-106486336D01*
X126435001Y-106203666D01*
X126379854Y-105926427D01*
X126271681Y-105665274D01*
X126114638Y-105430242D01*
X125914760Y-105230364D01*
X125682242Y-105075001D01*
X125914760Y-104919638D01*
X126114638Y-104719760D01*
X126271681Y-104484728D01*
X126379854Y-104223575D01*
X126435001Y-103946336D01*
X126435001Y-103663666D01*
X126379854Y-103386427D01*
X126271681Y-103125274D01*
X126114638Y-102890242D01*
X125914760Y-102690364D01*
X125682242Y-102535001D01*
X125914760Y-102379638D01*
X126114638Y-102179760D01*
X126271681Y-101944728D01*
X126379854Y-101683575D01*
X126435001Y-101406336D01*
X126435001Y-101123666D01*
X126379854Y-100846427D01*
X126271681Y-100585274D01*
X126114638Y-100350242D01*
X125914760Y-100150364D01*
X125682242Y-99995001D01*
X125914760Y-99839638D01*
X126114638Y-99639760D01*
X126271681Y-99404728D01*
X126379854Y-99143575D01*
X126435001Y-98866336D01*
X126435001Y-98583666D01*
X126379854Y-98306427D01*
X126271681Y-98045274D01*
X126114638Y-97810242D01*
X125914760Y-97610364D01*
X125682242Y-97455001D01*
X125914760Y-97299638D01*
X126114638Y-97099760D01*
X126271681Y-96864728D01*
X126379854Y-96603575D01*
X126435001Y-96326336D01*
X126435001Y-96043666D01*
X126379854Y-95766427D01*
X126271681Y-95505274D01*
X126114638Y-95270242D01*
X125914760Y-95070364D01*
X125682242Y-94915001D01*
X125914760Y-94759638D01*
X126114638Y-94559760D01*
X126271681Y-94324728D01*
X126379854Y-94063575D01*
X126435001Y-93786336D01*
X126435001Y-93503666D01*
X126379854Y-93226427D01*
X126271681Y-92965274D01*
X126114638Y-92730242D01*
X125914760Y-92530364D01*
X125682242Y-92375001D01*
X125914760Y-92219638D01*
X126114638Y-92019760D01*
X126271681Y-91784728D01*
X126379854Y-91523575D01*
X126435001Y-91246336D01*
X126435001Y-90963666D01*
X126379854Y-90686427D01*
X126271681Y-90425274D01*
X126114638Y-90190242D01*
X125914760Y-89990364D01*
X125682242Y-89835001D01*
X125914760Y-89679638D01*
X126114638Y-89479760D01*
X126271681Y-89244728D01*
X126379854Y-88983575D01*
X126435001Y-88706336D01*
X126435001Y-88423666D01*
X126379854Y-88146427D01*
X126271681Y-87885274D01*
X126114638Y-87650242D01*
X125914760Y-87450364D01*
X125682242Y-87295001D01*
X125914760Y-87139638D01*
X126114638Y-86939760D01*
X126271681Y-86704728D01*
X126379854Y-86443575D01*
X126435001Y-86166336D01*
X126435001Y-85883666D01*
X126379854Y-85606427D01*
X126271681Y-85345274D01*
X126114638Y-85110242D01*
X125914760Y-84910364D01*
X125682242Y-84755001D01*
X125914760Y-84599638D01*
X126114638Y-84399760D01*
X126271681Y-84164728D01*
X126379854Y-83903575D01*
X126435001Y-83626336D01*
X126435001Y-83343666D01*
X126379854Y-83066427D01*
X126271681Y-82805274D01*
X126114638Y-82570242D01*
X125914760Y-82370364D01*
X125682242Y-82215001D01*
X125914760Y-82059638D01*
X126114638Y-81859760D01*
X126271681Y-81624728D01*
X126379854Y-81363575D01*
X126435001Y-81086336D01*
X126435001Y-80803666D01*
X126379854Y-80526427D01*
X126271681Y-80265274D01*
X126114638Y-80030242D01*
X125914760Y-79830364D01*
X125682242Y-79675001D01*
X125914760Y-79519638D01*
X126114638Y-79319760D01*
X126271681Y-79084728D01*
X126379854Y-78823575D01*
X126435001Y-78546336D01*
X126435001Y-78263666D01*
X126379854Y-77986427D01*
X126271681Y-77725274D01*
X126114638Y-77490242D01*
X125914760Y-77290364D01*
X125682242Y-77135001D01*
X125914760Y-76979638D01*
X126114638Y-76779760D01*
X126271681Y-76544728D01*
X126379854Y-76283575D01*
X126435001Y-76006336D01*
X126435001Y-75723666D01*
X126379854Y-75446427D01*
X126271681Y-75185274D01*
X126114638Y-74950242D01*
X125914760Y-74750364D01*
X125682242Y-74595001D01*
X125914760Y-74439638D01*
X126114638Y-74239760D01*
X126271681Y-74004728D01*
X126379854Y-73743575D01*
X126435001Y-73466336D01*
X126435001Y-73183666D01*
X126379854Y-72906427D01*
X126271681Y-72645274D01*
X126114638Y-72410242D01*
X125914760Y-72210364D01*
X125682242Y-72055001D01*
X125914760Y-71899638D01*
X126114638Y-71699760D01*
X126271681Y-71464728D01*
X126379854Y-71203575D01*
X126435001Y-70926336D01*
X126435001Y-70643666D01*
X126379854Y-70366427D01*
X126271681Y-70105274D01*
X126114638Y-69870242D01*
X125914760Y-69670364D01*
X125682242Y-69515001D01*
X125914760Y-69359638D01*
X126114638Y-69159760D01*
X126271681Y-68924728D01*
X126379854Y-68663575D01*
X126435001Y-68386336D01*
X126435001Y-68103666D01*
X126379854Y-67826427D01*
X126271681Y-67565274D01*
X126114638Y-67330242D01*
X125914760Y-67130364D01*
X125682242Y-66975001D01*
X125914760Y-66819638D01*
X126114638Y-66619760D01*
X126271681Y-66384728D01*
X126379854Y-66123575D01*
X126435001Y-65846336D01*
X126435001Y-65563666D01*
X126379854Y-65286427D01*
X126271681Y-65025274D01*
X126114638Y-64790242D01*
X125914760Y-64590364D01*
X125682242Y-64435001D01*
X125914760Y-64279638D01*
X126114638Y-64079760D01*
X126271681Y-63844728D01*
X126379854Y-63583575D01*
X126435001Y-63306336D01*
X126435001Y-63023666D01*
X126379854Y-62746427D01*
X126271681Y-62485274D01*
X126114638Y-62250242D01*
X125916040Y-62051644D01*
X125924483Y-62050813D01*
X126044181Y-62014503D01*
X126154495Y-61955538D01*
X126251186Y-61876186D01*
X126330538Y-61779495D01*
X126389503Y-61669181D01*
X126425813Y-61549483D01*
X126438073Y-61425001D01*
X126435001Y-60910751D01*
X126276251Y-60752001D01*
X125127001Y-60752001D01*
X125127001Y-60772001D01*
X124873001Y-60772001D01*
X124873001Y-60752001D01*
X123102000Y-60752001D01*
X123102000Y-60772001D01*
X122848000Y-60772001D01*
X122848000Y-60752001D01*
X122828000Y-60752001D01*
X122828000Y-60498001D01*
X122848000Y-60498001D01*
X122848000Y-60478001D01*
X123102000Y-60478001D01*
X123102000Y-60498001D01*
X124873001Y-60498001D01*
X124873001Y-60478001D01*
X125127001Y-60478001D01*
X125127001Y-60498001D01*
X126276251Y-60498001D01*
X126435001Y-60339251D01*
X126438073Y-59825001D01*
X126425813Y-59700519D01*
X126398354Y-59610000D01*
X137200605Y-59610000D01*
X137100363Y-59710242D01*
G37*
X137100363Y-59710242D02*
X136943320Y-59945274D01*
X136835147Y-60206427D01*
X136780000Y-60483666D01*
X136780000Y-60766336D01*
X136835147Y-61043575D01*
X136943320Y-61304728D01*
X137100363Y-61539760D01*
X137300241Y-61739638D01*
X137532759Y-61895001D01*
X137300241Y-62050364D01*
X137100363Y-62250242D01*
X136943320Y-62485274D01*
X136835147Y-62746427D01*
X136780000Y-63023666D01*
X136780000Y-63306336D01*
X136832447Y-63570000D01*
X133738469Y-63570000D01*
X133695000Y-63565719D01*
X133651531Y-63570000D01*
X133651523Y-63570000D01*
X133521510Y-63582805D01*
X133354686Y-63633411D01*
X133200941Y-63715589D01*
X133099953Y-63798468D01*
X133099951Y-63798470D01*
X133066183Y-63826183D01*
X133038470Y-63859951D01*
X130479951Y-66418471D01*
X130446184Y-66446183D01*
X130418471Y-66479951D01*
X130418468Y-66479954D01*
X130335590Y-66580941D01*
X130253412Y-66734687D01*
X130202805Y-66901510D01*
X130185719Y-67075000D01*
X130190001Y-67118479D01*
X130190000Y-112940344D01*
X130128368Y-112981525D01*
X129921525Y-113188368D01*
X129759010Y-113431589D01*
X129647068Y-113701842D01*
X129590000Y-113988740D01*
X129590000Y-114281260D01*
X129647068Y-114568158D01*
X129759010Y-114838411D01*
X129921525Y-115081632D01*
X130053380Y-115213487D01*
X129980820Y-115235498D01*
X129870506Y-115294463D01*
X129773815Y-115373815D01*
X129694463Y-115470506D01*
X129635498Y-115580820D01*
X129599188Y-115700518D01*
X129586928Y-115825000D01*
X129590000Y-116389250D01*
X129748750Y-116548000D01*
X130948000Y-116548000D01*
X130948000Y-116528000D01*
X131202000Y-116528000D01*
X131202000Y-116548000D01*
X131222000Y-116548000D01*
X131222000Y-116802000D01*
X131202000Y-116802000D01*
X131202000Y-118001250D01*
X131360750Y-118160000D01*
X131925000Y-118163072D01*
X132049482Y-118150812D01*
X132169180Y-118114502D01*
X132279494Y-118055537D01*
X132376185Y-117976185D01*
X132455537Y-117879494D01*
X132514502Y-117769180D01*
X132536513Y-117696620D01*
X132668368Y-117828475D01*
X132911589Y-117990990D01*
X133181842Y-118102932D01*
X133468740Y-118160000D01*
X133761260Y-118160000D01*
X134048158Y-118102932D01*
X134318411Y-117990990D01*
X134561632Y-117828475D01*
X134768475Y-117621632D01*
X134885000Y-117447240D01*
X135001525Y-117621632D01*
X135208368Y-117828475D01*
X135451589Y-117990990D01*
X135721842Y-118102932D01*
X136008740Y-118160000D01*
X136301260Y-118160000D01*
X136588158Y-118102932D01*
X136858411Y-117990990D01*
X137101632Y-117828475D01*
X137308475Y-117621632D01*
X137470990Y-117378411D01*
X137582932Y-117108158D01*
X137640000Y-116821260D01*
X137640000Y-116528740D01*
X137582932Y-116241842D01*
X137512871Y-116072698D01*
X137815000Y-116374828D01*
X137815001Y-117253091D01*
X136903092Y-118165000D01*
X128146909Y-118165000D01*
X127506909Y-117525000D01*
X129586928Y-117525000D01*
X129599188Y-117649482D01*
X129635498Y-117769180D01*
X129694463Y-117879494D01*
X129773815Y-117976185D01*
X129870506Y-118055537D01*
X129980820Y-118114502D01*
X130100518Y-118150812D01*
X130225000Y-118163072D01*
X130789250Y-118160000D01*
X130948000Y-118001250D01*
X130948000Y-116802000D01*
X129748750Y-116802000D01*
X129590000Y-116960750D01*
X129586928Y-117525000D01*
X127506909Y-117525000D01*
X124938072Y-114956164D01*
X124938072Y-114400000D01*
X124925812Y-114275518D01*
X124889502Y-114155820D01*
X124830537Y-114045506D01*
X124751185Y-113948815D01*
X124654494Y-113869463D01*
X124544180Y-113810498D01*
X124471620Y-113788487D01*
X124603475Y-113656632D01*
X124765990Y-113413411D01*
X124877932Y-113143158D01*
X124935000Y-112856260D01*
X124935000Y-112563740D01*
X124877932Y-112276842D01*
X124765990Y-112006589D01*
X124603475Y-111763368D01*
X124396632Y-111556525D01*
X124153411Y-111394010D01*
X123883158Y-111282068D01*
X123596260Y-111225000D01*
X123303740Y-111225000D01*
X123016842Y-111282068D01*
X122746589Y-111394010D01*
X122503368Y-111556525D01*
X122296525Y-111763368D01*
X122134010Y-112006589D01*
X122085000Y-112124910D01*
X122085000Y-110016181D01*
X122295273Y-110156681D01*
X122556426Y-110264854D01*
X122833665Y-110320001D01*
X123116335Y-110320001D01*
X123393574Y-110264854D01*
X123654727Y-110156681D01*
X123889759Y-109999638D01*
X123987501Y-109901897D01*
X124085242Y-109999638D01*
X124320274Y-110156681D01*
X124581427Y-110264854D01*
X124858666Y-110320001D01*
X125141336Y-110320001D01*
X125418575Y-110264854D01*
X125679728Y-110156681D01*
X125914760Y-109999638D01*
X126114638Y-109799760D01*
X126271681Y-109564728D01*
X126379854Y-109303575D01*
X126435001Y-109026336D01*
X126435001Y-108743666D01*
X126379854Y-108466427D01*
X126271681Y-108205274D01*
X126114638Y-107970242D01*
X125914760Y-107770364D01*
X125682242Y-107615001D01*
X125914760Y-107459638D01*
X126114638Y-107259760D01*
X126271681Y-107024728D01*
X126379854Y-106763575D01*
X126435001Y-106486336D01*
X126435001Y-106203666D01*
X126379854Y-105926427D01*
X126271681Y-105665274D01*
X126114638Y-105430242D01*
X125914760Y-105230364D01*
X125682242Y-105075001D01*
X125914760Y-104919638D01*
X126114638Y-104719760D01*
X126271681Y-104484728D01*
X126379854Y-104223575D01*
X126435001Y-103946336D01*
X126435001Y-103663666D01*
X126379854Y-103386427D01*
X126271681Y-103125274D01*
X126114638Y-102890242D01*
X125914760Y-102690364D01*
X125682242Y-102535001D01*
X125914760Y-102379638D01*
X126114638Y-102179760D01*
X126271681Y-101944728D01*
X126379854Y-101683575D01*
X126435001Y-101406336D01*
X126435001Y-101123666D01*
X126379854Y-100846427D01*
X126271681Y-100585274D01*
X126114638Y-100350242D01*
X125914760Y-100150364D01*
X125682242Y-99995001D01*
X125914760Y-99839638D01*
X126114638Y-99639760D01*
X126271681Y-99404728D01*
X126379854Y-99143575D01*
X126435001Y-98866336D01*
X126435001Y-98583666D01*
X126379854Y-98306427D01*
X126271681Y-98045274D01*
X126114638Y-97810242D01*
X125914760Y-97610364D01*
X125682242Y-97455001D01*
X125914760Y-97299638D01*
X126114638Y-97099760D01*
X126271681Y-96864728D01*
X126379854Y-96603575D01*
X126435001Y-96326336D01*
X126435001Y-96043666D01*
X126379854Y-95766427D01*
X126271681Y-95505274D01*
X126114638Y-95270242D01*
X125914760Y-95070364D01*
X125682242Y-94915001D01*
X125914760Y-94759638D01*
X126114638Y-94559760D01*
X126271681Y-94324728D01*
X126379854Y-94063575D01*
X126435001Y-93786336D01*
X126435001Y-93503666D01*
X126379854Y-93226427D01*
X126271681Y-92965274D01*
X126114638Y-92730242D01*
X125914760Y-92530364D01*
X125682242Y-92375001D01*
X125914760Y-92219638D01*
X126114638Y-92019760D01*
X126271681Y-91784728D01*
X126379854Y-91523575D01*
X126435001Y-91246336D01*
X126435001Y-90963666D01*
X126379854Y-90686427D01*
X126271681Y-90425274D01*
X126114638Y-90190242D01*
X125914760Y-89990364D01*
X125682242Y-89835001D01*
X125914760Y-89679638D01*
X126114638Y-89479760D01*
X126271681Y-89244728D01*
X126379854Y-88983575D01*
X126435001Y-88706336D01*
X126435001Y-88423666D01*
X126379854Y-88146427D01*
X126271681Y-87885274D01*
X126114638Y-87650242D01*
X125914760Y-87450364D01*
X125682242Y-87295001D01*
X125914760Y-87139638D01*
X126114638Y-86939760D01*
X126271681Y-86704728D01*
X126379854Y-86443575D01*
X126435001Y-86166336D01*
X126435001Y-85883666D01*
X126379854Y-85606427D01*
X126271681Y-85345274D01*
X126114638Y-85110242D01*
X125914760Y-84910364D01*
X125682242Y-84755001D01*
X125914760Y-84599638D01*
X126114638Y-84399760D01*
X126271681Y-84164728D01*
X126379854Y-83903575D01*
X126435001Y-83626336D01*
X126435001Y-83343666D01*
X126379854Y-83066427D01*
X126271681Y-82805274D01*
X126114638Y-82570242D01*
X125914760Y-82370364D01*
X125682242Y-82215001D01*
X125914760Y-82059638D01*
X126114638Y-81859760D01*
X126271681Y-81624728D01*
X126379854Y-81363575D01*
X126435001Y-81086336D01*
X126435001Y-80803666D01*
X126379854Y-80526427D01*
X126271681Y-80265274D01*
X126114638Y-80030242D01*
X125914760Y-79830364D01*
X125682242Y-79675001D01*
X125914760Y-79519638D01*
X126114638Y-79319760D01*
X126271681Y-79084728D01*
X126379854Y-78823575D01*
X126435001Y-78546336D01*
X126435001Y-78263666D01*
X126379854Y-77986427D01*
X126271681Y-77725274D01*
X126114638Y-77490242D01*
X125914760Y-77290364D01*
X125682242Y-77135001D01*
X125914760Y-76979638D01*
X126114638Y-76779760D01*
X126271681Y-76544728D01*
X126379854Y-76283575D01*
X126435001Y-76006336D01*
X126435001Y-75723666D01*
X126379854Y-75446427D01*
X126271681Y-75185274D01*
X126114638Y-74950242D01*
X125914760Y-74750364D01*
X125682242Y-74595001D01*
X125914760Y-74439638D01*
X126114638Y-74239760D01*
X126271681Y-74004728D01*
X126379854Y-73743575D01*
X126435001Y-73466336D01*
X126435001Y-73183666D01*
X126379854Y-72906427D01*
X126271681Y-72645274D01*
X126114638Y-72410242D01*
X125914760Y-72210364D01*
X125682242Y-72055001D01*
X125914760Y-71899638D01*
X126114638Y-71699760D01*
X126271681Y-71464728D01*
X126379854Y-71203575D01*
X126435001Y-70926336D01*
X126435001Y-70643666D01*
X126379854Y-70366427D01*
X126271681Y-70105274D01*
X126114638Y-69870242D01*
X125914760Y-69670364D01*
X125682242Y-69515001D01*
X125914760Y-69359638D01*
X126114638Y-69159760D01*
X126271681Y-68924728D01*
X126379854Y-68663575D01*
X126435001Y-68386336D01*
X126435001Y-68103666D01*
X126379854Y-67826427D01*
X126271681Y-67565274D01*
X126114638Y-67330242D01*
X125914760Y-67130364D01*
X125682242Y-66975001D01*
X125914760Y-66819638D01*
X126114638Y-66619760D01*
X126271681Y-66384728D01*
X126379854Y-66123575D01*
X126435001Y-65846336D01*
X126435001Y-65563666D01*
X126379854Y-65286427D01*
X126271681Y-65025274D01*
X126114638Y-64790242D01*
X125914760Y-64590364D01*
X125682242Y-64435001D01*
X125914760Y-64279638D01*
X126114638Y-64079760D01*
X126271681Y-63844728D01*
X126379854Y-63583575D01*
X126435001Y-63306336D01*
X126435001Y-63023666D01*
X126379854Y-62746427D01*
X126271681Y-62485274D01*
X126114638Y-62250242D01*
X125916040Y-62051644D01*
X125924483Y-62050813D01*
X126044181Y-62014503D01*
X126154495Y-61955538D01*
X126251186Y-61876186D01*
X126330538Y-61779495D01*
X126389503Y-61669181D01*
X126425813Y-61549483D01*
X126438073Y-61425001D01*
X126435001Y-60910751D01*
X126276251Y-60752001D01*
X125127001Y-60752001D01*
X125127001Y-60772001D01*
X124873001Y-60772001D01*
X124873001Y-60752001D01*
X123102000Y-60752001D01*
X123102000Y-60772001D01*
X122848000Y-60772001D01*
X122848000Y-60752001D01*
X122828000Y-60752001D01*
X122828000Y-60498001D01*
X122848000Y-60498001D01*
X122848000Y-60478001D01*
X123102000Y-60478001D01*
X123102000Y-60498001D01*
X124873001Y-60498001D01*
X124873001Y-60478001D01*
X125127001Y-60478001D01*
X125127001Y-60498001D01*
X126276251Y-60498001D01*
X126435001Y-60339251D01*
X126438073Y-59825001D01*
X126425813Y-59700519D01*
X126398354Y-59610000D01*
X137200605Y-59610000D01*
X137100363Y-59710242D01*
G36*
X136780000Y-65563666D02*
G01*
X136780000Y-65846336D01*
X136835147Y-66123575D01*
X136943320Y-66384728D01*
X137100363Y-66619760D01*
X137300241Y-66819638D01*
X137532759Y-66975001D01*
X137300241Y-67130364D01*
X137100363Y-67330242D01*
X136943320Y-67565274D01*
X136835147Y-67826427D01*
X136780000Y-68103666D01*
X136780000Y-68386336D01*
X136835147Y-68663575D01*
X136943320Y-68924728D01*
X137100363Y-69159760D01*
X137300241Y-69359638D01*
X137532759Y-69515001D01*
X137300241Y-69670364D01*
X137100363Y-69870242D01*
X136943320Y-70105274D01*
X136835147Y-70366427D01*
X136780000Y-70643666D01*
X136780000Y-70926336D01*
X136835147Y-71203575D01*
X136943320Y-71464728D01*
X137100363Y-71699760D01*
X137300241Y-71899638D01*
X137532759Y-72055001D01*
X137300241Y-72210364D01*
X137100363Y-72410242D01*
X136943320Y-72645274D01*
X136835147Y-72906427D01*
X136780000Y-73183666D01*
X136780000Y-73466336D01*
X136835147Y-73743575D01*
X136943320Y-74004728D01*
X137100363Y-74239760D01*
X137300241Y-74439638D01*
X137532759Y-74595001D01*
X137300241Y-74750364D01*
X137100363Y-74950242D01*
X136943320Y-75185274D01*
X136835147Y-75446427D01*
X136780000Y-75723666D01*
X136780000Y-76006336D01*
X136835147Y-76283575D01*
X136943320Y-76544728D01*
X137100363Y-76779760D01*
X137300241Y-76979638D01*
X137532759Y-77135001D01*
X137300241Y-77290364D01*
X137100363Y-77490242D01*
X136943320Y-77725274D01*
X136835147Y-77986427D01*
X136780000Y-78263666D01*
X136780000Y-78546336D01*
X136835147Y-78823575D01*
X136943320Y-79084728D01*
X137100363Y-79319760D01*
X137300241Y-79519638D01*
X137532759Y-79675001D01*
X137300241Y-79830364D01*
X137100363Y-80030242D01*
X136943320Y-80265274D01*
X136835147Y-80526427D01*
X136780000Y-80803666D01*
X136780000Y-81086336D01*
X136835147Y-81363575D01*
X136943320Y-81624728D01*
X137100363Y-81859760D01*
X137300241Y-82059638D01*
X137532759Y-82215001D01*
X137300241Y-82370364D01*
X137100363Y-82570242D01*
X136943320Y-82805274D01*
X136835147Y-83066427D01*
X136780000Y-83343666D01*
X136780000Y-83626336D01*
X136835147Y-83903575D01*
X136943320Y-84164728D01*
X137100363Y-84399760D01*
X137300241Y-84599638D01*
X137532759Y-84755001D01*
X137300241Y-84910364D01*
X137100363Y-85110242D01*
X136943320Y-85345274D01*
X136835147Y-85606427D01*
X136780000Y-85883666D01*
X136780000Y-86166336D01*
X136835147Y-86443575D01*
X136943320Y-86704728D01*
X137100363Y-86939760D01*
X137300241Y-87139638D01*
X137532759Y-87295001D01*
X137300241Y-87450364D01*
X137100363Y-87650242D01*
X136943320Y-87885274D01*
X136835147Y-88146427D01*
X136780000Y-88423666D01*
X136780000Y-88706336D01*
X136835147Y-88983575D01*
X136943320Y-89244728D01*
X137100363Y-89479760D01*
X137300241Y-89679638D01*
X137532759Y-89835001D01*
X137300241Y-89990364D01*
X137100363Y-90190242D01*
X136943320Y-90425274D01*
X136835147Y-90686427D01*
X136780000Y-90963666D01*
X136780000Y-91246336D01*
X136829488Y-91495125D01*
X136751510Y-91502805D01*
X136584687Y-91553411D01*
X136499283Y-91599060D01*
X136430941Y-91635589D01*
X136329953Y-91718468D01*
X136329951Y-91718470D01*
X136296183Y-91746183D01*
X136268470Y-91779951D01*
X133019956Y-95028466D01*
X132986183Y-95056183D01*
X132875589Y-95190942D01*
X132793411Y-95344688D01*
X132742805Y-95511511D01*
X132730000Y-95641524D01*
X132730000Y-95641531D01*
X132725719Y-95685000D01*
X132730000Y-95728469D01*
X132730001Y-112889433D01*
X132730000Y-112889443D01*
X132730000Y-112940344D01*
X132668368Y-112981525D01*
X132461525Y-113188368D01*
X132345000Y-113362760D01*
X132228475Y-113188368D01*
X132021632Y-112981525D01*
X131960000Y-112940344D01*
X131960000Y-67441578D01*
X134061579Y-65340000D01*
X136824491Y-65340000D01*
X136780000Y-65563666D01*
G37*
X136780000Y-65563666D02*
X136780000Y-65846336D01*
X136835147Y-66123575D01*
X136943320Y-66384728D01*
X137100363Y-66619760D01*
X137300241Y-66819638D01*
X137532759Y-66975001D01*
X137300241Y-67130364D01*
X137100363Y-67330242D01*
X136943320Y-67565274D01*
X136835147Y-67826427D01*
X136780000Y-68103666D01*
X136780000Y-68386336D01*
X136835147Y-68663575D01*
X136943320Y-68924728D01*
X137100363Y-69159760D01*
X137300241Y-69359638D01*
X137532759Y-69515001D01*
X137300241Y-69670364D01*
X137100363Y-69870242D01*
X136943320Y-70105274D01*
X136835147Y-70366427D01*
X136780000Y-70643666D01*
X136780000Y-70926336D01*
X136835147Y-71203575D01*
X136943320Y-71464728D01*
X137100363Y-71699760D01*
X137300241Y-71899638D01*
X137532759Y-72055001D01*
X137300241Y-72210364D01*
X137100363Y-72410242D01*
X136943320Y-72645274D01*
X136835147Y-72906427D01*
X136780000Y-73183666D01*
X136780000Y-73466336D01*
X136835147Y-73743575D01*
X136943320Y-74004728D01*
X137100363Y-74239760D01*
X137300241Y-74439638D01*
X137532759Y-74595001D01*
X137300241Y-74750364D01*
X137100363Y-74950242D01*
X136943320Y-75185274D01*
X136835147Y-75446427D01*
X136780000Y-75723666D01*
X136780000Y-76006336D01*
X136835147Y-76283575D01*
X136943320Y-76544728D01*
X137100363Y-76779760D01*
X137300241Y-76979638D01*
X137532759Y-77135001D01*
X137300241Y-77290364D01*
X137100363Y-77490242D01*
X136943320Y-77725274D01*
X136835147Y-77986427D01*
X136780000Y-78263666D01*
X136780000Y-78546336D01*
X136835147Y-78823575D01*
X136943320Y-79084728D01*
X137100363Y-79319760D01*
X137300241Y-79519638D01*
X137532759Y-79675001D01*
X137300241Y-79830364D01*
X137100363Y-80030242D01*
X136943320Y-80265274D01*
X136835147Y-80526427D01*
X136780000Y-80803666D01*
X136780000Y-81086336D01*
X136835147Y-81363575D01*
X136943320Y-81624728D01*
X137100363Y-81859760D01*
X137300241Y-82059638D01*
X137532759Y-82215001D01*
X137300241Y-82370364D01*
X137100363Y-82570242D01*
X136943320Y-82805274D01*
X136835147Y-83066427D01*
X136780000Y-83343666D01*
X136780000Y-83626336D01*
X136835147Y-83903575D01*
X136943320Y-84164728D01*
X137100363Y-84399760D01*
X137300241Y-84599638D01*
X137532759Y-84755001D01*
X137300241Y-84910364D01*
X137100363Y-85110242D01*
X136943320Y-85345274D01*
X136835147Y-85606427D01*
X136780000Y-85883666D01*
X136780000Y-86166336D01*
X136835147Y-86443575D01*
X136943320Y-86704728D01*
X137100363Y-86939760D01*
X137300241Y-87139638D01*
X137532759Y-87295001D01*
X137300241Y-87450364D01*
X137100363Y-87650242D01*
X136943320Y-87885274D01*
X136835147Y-88146427D01*
X136780000Y-88423666D01*
X136780000Y-88706336D01*
X136835147Y-88983575D01*
X136943320Y-89244728D01*
X137100363Y-89479760D01*
X137300241Y-89679638D01*
X137532759Y-89835001D01*
X137300241Y-89990364D01*
X137100363Y-90190242D01*
X136943320Y-90425274D01*
X136835147Y-90686427D01*
X136780000Y-90963666D01*
X136780000Y-91246336D01*
X136829488Y-91495125D01*
X136751510Y-91502805D01*
X136584687Y-91553411D01*
X136499283Y-91599060D01*
X136430941Y-91635589D01*
X136329953Y-91718468D01*
X136329951Y-91718470D01*
X136296183Y-91746183D01*
X136268470Y-91779951D01*
X133019956Y-95028466D01*
X132986183Y-95056183D01*
X132875589Y-95190942D01*
X132793411Y-95344688D01*
X132742805Y-95511511D01*
X132730000Y-95641524D01*
X132730000Y-95641531D01*
X132725719Y-95685000D01*
X132730000Y-95728469D01*
X132730001Y-112889433D01*
X132730000Y-112889443D01*
X132730000Y-112940344D01*
X132668368Y-112981525D01*
X132461525Y-113188368D01*
X132345000Y-113362760D01*
X132228475Y-113188368D01*
X132021632Y-112981525D01*
X131960000Y-112940344D01*
X131960000Y-67441578D01*
X134061579Y-65340000D01*
X136824491Y-65340000D01*
X136780000Y-65563666D01*
M02*
