G04 #@! TF.GenerationSoftware,KiCad,Pcbnew,5.1.5+dfsg1-2build2*
G04 #@! TF.CreationDate,2022-03-13T21:18:42-04:00*
G04 #@! TF.ProjectId,vdg_breakout,7664675f-6272-4656-916b-6f75742e6b69,rev?*
G04 #@! TF.SameCoordinates,Original*
G04 #@! TF.FileFunction,Soldermask,Top*
G04 #@! TF.FilePolarity,Negative*
%FSLAX46Y46*%
G04 Gerber Fmt 4.6, Leading zero omitted, Abs format (unit mm)*
G04 Created by KiCad (PCBNEW 5.1.5+dfsg1-2build2) date 2022-03-13 21:18:42*
%MOMM*%
%LPD*%
G04 APERTURE LIST*
%ADD10C,0.100000*%
G04 APERTURE END LIST*
D10*
G36*
X131833600Y-115777989D02*
G01*
X131866652Y-115788015D01*
X131897103Y-115804292D01*
X131923799Y-115826201D01*
X131945708Y-115852897D01*
X131961985Y-115883348D01*
X131972011Y-115916400D01*
X131976000Y-115956903D01*
X131976000Y-117393097D01*
X131972011Y-117433600D01*
X131961985Y-117466652D01*
X131945708Y-117497103D01*
X131923799Y-117523799D01*
X131897103Y-117545708D01*
X131866652Y-117561985D01*
X131833600Y-117572011D01*
X131793097Y-117576000D01*
X130356903Y-117576000D01*
X130316400Y-117572011D01*
X130283348Y-117561985D01*
X130252897Y-117545708D01*
X130226201Y-117523799D01*
X130204292Y-117497103D01*
X130188015Y-117466652D01*
X130177989Y-117433600D01*
X130174000Y-117393097D01*
X130174000Y-115956903D01*
X130177989Y-115916400D01*
X130188015Y-115883348D01*
X130204292Y-115852897D01*
X130226201Y-115826201D01*
X130252897Y-115804292D01*
X130283348Y-115788015D01*
X130316400Y-115777989D01*
X130356903Y-115774000D01*
X131793097Y-115774000D01*
X131833600Y-115777989D01*
G37*
G36*
X136263796Y-115777989D02*
G01*
X136417812Y-115808624D01*
X136581784Y-115876544D01*
X136729354Y-115975147D01*
X136854853Y-116100646D01*
X136953456Y-116248216D01*
X137021376Y-116412188D01*
X137056000Y-116586259D01*
X137056000Y-116763741D01*
X137021376Y-116937812D01*
X136953456Y-117101784D01*
X136854853Y-117249354D01*
X136729354Y-117374853D01*
X136581784Y-117473456D01*
X136417812Y-117541376D01*
X136269341Y-117570908D01*
X136243742Y-117576000D01*
X136066258Y-117576000D01*
X136040659Y-117570908D01*
X135892188Y-117541376D01*
X135728216Y-117473456D01*
X135580646Y-117374853D01*
X135455147Y-117249354D01*
X135356544Y-117101784D01*
X135288624Y-116937812D01*
X135254000Y-116763741D01*
X135254000Y-116586259D01*
X135288624Y-116412188D01*
X135356544Y-116248216D01*
X135455147Y-116100646D01*
X135580646Y-115975147D01*
X135728216Y-115876544D01*
X135892188Y-115808624D01*
X136046204Y-115777989D01*
X136066258Y-115774000D01*
X136243742Y-115774000D01*
X136263796Y-115777989D01*
G37*
G36*
X133723796Y-115777989D02*
G01*
X133877812Y-115808624D01*
X134041784Y-115876544D01*
X134189354Y-115975147D01*
X134314853Y-116100646D01*
X134413456Y-116248216D01*
X134481376Y-116412188D01*
X134516000Y-116586259D01*
X134516000Y-116763741D01*
X134481376Y-116937812D01*
X134413456Y-117101784D01*
X134314853Y-117249354D01*
X134189354Y-117374853D01*
X134041784Y-117473456D01*
X133877812Y-117541376D01*
X133729341Y-117570908D01*
X133703742Y-117576000D01*
X133526258Y-117576000D01*
X133500659Y-117570908D01*
X133352188Y-117541376D01*
X133188216Y-117473456D01*
X133040646Y-117374853D01*
X132915147Y-117249354D01*
X132816544Y-117101784D01*
X132748624Y-116937812D01*
X132714000Y-116763741D01*
X132714000Y-116586259D01*
X132748624Y-116412188D01*
X132816544Y-116248216D01*
X132915147Y-116100646D01*
X133040646Y-115975147D01*
X133188216Y-115876544D01*
X133352188Y-115808624D01*
X133506204Y-115777989D01*
X133526258Y-115774000D01*
X133703742Y-115774000D01*
X133723796Y-115777989D01*
G37*
G36*
X124351000Y-116151000D02*
G01*
X122549000Y-116151000D01*
X122549000Y-114349000D01*
X124351000Y-114349000D01*
X124351000Y-116151000D01*
G37*
G36*
X136268512Y-113238927D02*
G01*
X136417812Y-113268624D01*
X136581784Y-113336544D01*
X136729354Y-113435147D01*
X136854853Y-113560646D01*
X136953456Y-113708216D01*
X137021376Y-113872188D01*
X137056000Y-114046259D01*
X137056000Y-114223741D01*
X137021376Y-114397812D01*
X136953456Y-114561784D01*
X136854853Y-114709354D01*
X136729354Y-114834853D01*
X136581784Y-114933456D01*
X136417812Y-115001376D01*
X136268512Y-115031073D01*
X136243742Y-115036000D01*
X136066258Y-115036000D01*
X136041488Y-115031073D01*
X135892188Y-115001376D01*
X135728216Y-114933456D01*
X135580646Y-114834853D01*
X135455147Y-114709354D01*
X135356544Y-114561784D01*
X135288624Y-114397812D01*
X135254000Y-114223741D01*
X135254000Y-114046259D01*
X135288624Y-113872188D01*
X135356544Y-113708216D01*
X135455147Y-113560646D01*
X135580646Y-113435147D01*
X135728216Y-113336544D01*
X135892188Y-113268624D01*
X136041488Y-113238927D01*
X136066258Y-113234000D01*
X136243742Y-113234000D01*
X136268512Y-113238927D01*
G37*
G36*
X133728512Y-113238927D02*
G01*
X133877812Y-113268624D01*
X134041784Y-113336544D01*
X134189354Y-113435147D01*
X134314853Y-113560646D01*
X134413456Y-113708216D01*
X134481376Y-113872188D01*
X134516000Y-114046259D01*
X134516000Y-114223741D01*
X134481376Y-114397812D01*
X134413456Y-114561784D01*
X134314853Y-114709354D01*
X134189354Y-114834853D01*
X134041784Y-114933456D01*
X133877812Y-115001376D01*
X133728512Y-115031073D01*
X133703742Y-115036000D01*
X133526258Y-115036000D01*
X133501488Y-115031073D01*
X133352188Y-115001376D01*
X133188216Y-114933456D01*
X133040646Y-114834853D01*
X132915147Y-114709354D01*
X132816544Y-114561784D01*
X132748624Y-114397812D01*
X132714000Y-114223741D01*
X132714000Y-114046259D01*
X132748624Y-113872188D01*
X132816544Y-113708216D01*
X132915147Y-113560646D01*
X133040646Y-113435147D01*
X133188216Y-113336544D01*
X133352188Y-113268624D01*
X133501488Y-113238927D01*
X133526258Y-113234000D01*
X133703742Y-113234000D01*
X133728512Y-113238927D01*
G37*
G36*
X131188512Y-113238927D02*
G01*
X131337812Y-113268624D01*
X131501784Y-113336544D01*
X131649354Y-113435147D01*
X131774853Y-113560646D01*
X131873456Y-113708216D01*
X131941376Y-113872188D01*
X131976000Y-114046259D01*
X131976000Y-114223741D01*
X131941376Y-114397812D01*
X131873456Y-114561784D01*
X131774853Y-114709354D01*
X131649354Y-114834853D01*
X131501784Y-114933456D01*
X131337812Y-115001376D01*
X131188512Y-115031073D01*
X131163742Y-115036000D01*
X130986258Y-115036000D01*
X130961488Y-115031073D01*
X130812188Y-115001376D01*
X130648216Y-114933456D01*
X130500646Y-114834853D01*
X130375147Y-114709354D01*
X130276544Y-114561784D01*
X130208624Y-114397812D01*
X130174000Y-114223741D01*
X130174000Y-114046259D01*
X130208624Y-113872188D01*
X130276544Y-113708216D01*
X130375147Y-113560646D01*
X130500646Y-113435147D01*
X130648216Y-113336544D01*
X130812188Y-113268624D01*
X130961488Y-113238927D01*
X130986258Y-113234000D01*
X131163742Y-113234000D01*
X131188512Y-113238927D01*
G37*
G36*
X123563512Y-111813927D02*
G01*
X123712812Y-111843624D01*
X123876784Y-111911544D01*
X124024354Y-112010147D01*
X124149853Y-112135646D01*
X124248456Y-112283216D01*
X124316376Y-112447188D01*
X124351000Y-112621259D01*
X124351000Y-112798741D01*
X124316376Y-112972812D01*
X124248456Y-113136784D01*
X124149853Y-113284354D01*
X124024354Y-113409853D01*
X123876784Y-113508456D01*
X123712812Y-113576376D01*
X123563512Y-113606073D01*
X123538742Y-113611000D01*
X123361258Y-113611000D01*
X123336488Y-113606073D01*
X123187188Y-113576376D01*
X123023216Y-113508456D01*
X122875646Y-113409853D01*
X122750147Y-113284354D01*
X122651544Y-113136784D01*
X122583624Y-112972812D01*
X122549000Y-112798741D01*
X122549000Y-112621259D01*
X122583624Y-112447188D01*
X122651544Y-112283216D01*
X122750147Y-112135646D01*
X122875646Y-112010147D01*
X123023216Y-111911544D01*
X123187188Y-111843624D01*
X123336488Y-111813927D01*
X123361258Y-111809000D01*
X123538742Y-111809000D01*
X123563512Y-111813927D01*
G37*
G36*
X123223228Y-108066704D02*
G01*
X123378100Y-108130854D01*
X123517481Y-108223986D01*
X123636015Y-108342520D01*
X123729147Y-108481901D01*
X123793297Y-108636773D01*
X123826000Y-108801185D01*
X123826000Y-108968817D01*
X123793297Y-109133229D01*
X123729147Y-109288101D01*
X123636015Y-109427482D01*
X123517481Y-109546016D01*
X123378100Y-109639148D01*
X123223228Y-109703298D01*
X123058816Y-109736001D01*
X122891184Y-109736001D01*
X122726772Y-109703298D01*
X122571900Y-109639148D01*
X122432519Y-109546016D01*
X122313985Y-109427482D01*
X122220853Y-109288101D01*
X122156703Y-109133229D01*
X122124000Y-108968817D01*
X122124000Y-108801185D01*
X122156703Y-108636773D01*
X122220853Y-108481901D01*
X122313985Y-108342520D01*
X122432519Y-108223986D01*
X122571900Y-108130854D01*
X122726772Y-108066704D01*
X122891184Y-108034001D01*
X123058816Y-108034001D01*
X123223228Y-108066704D01*
G37*
G36*
X125248229Y-108066704D02*
G01*
X125403101Y-108130854D01*
X125542482Y-108223986D01*
X125661016Y-108342520D01*
X125754148Y-108481901D01*
X125818298Y-108636773D01*
X125851001Y-108801185D01*
X125851001Y-108968817D01*
X125818298Y-109133229D01*
X125754148Y-109288101D01*
X125661016Y-109427482D01*
X125542482Y-109546016D01*
X125403101Y-109639148D01*
X125248229Y-109703298D01*
X125083817Y-109736001D01*
X124916185Y-109736001D01*
X124751773Y-109703298D01*
X124596901Y-109639148D01*
X124457520Y-109546016D01*
X124338986Y-109427482D01*
X124245854Y-109288101D01*
X124181704Y-109133229D01*
X124149001Y-108968817D01*
X124149001Y-108801185D01*
X124181704Y-108636773D01*
X124245854Y-108481901D01*
X124338986Y-108342520D01*
X124457520Y-108223986D01*
X124596901Y-108130854D01*
X124751773Y-108066704D01*
X124916185Y-108034001D01*
X125083817Y-108034001D01*
X125248229Y-108066704D01*
G37*
G36*
X138463228Y-108066704D02*
G01*
X138618100Y-108130854D01*
X138757481Y-108223986D01*
X138876015Y-108342520D01*
X138969147Y-108481901D01*
X139033297Y-108636773D01*
X139066000Y-108801185D01*
X139066000Y-108968817D01*
X139033297Y-109133229D01*
X138969147Y-109288101D01*
X138876015Y-109427482D01*
X138757481Y-109546016D01*
X138618100Y-109639148D01*
X138463228Y-109703298D01*
X138298816Y-109736001D01*
X138131184Y-109736001D01*
X137966772Y-109703298D01*
X137811900Y-109639148D01*
X137672519Y-109546016D01*
X137553985Y-109427482D01*
X137460853Y-109288101D01*
X137396703Y-109133229D01*
X137364000Y-108968817D01*
X137364000Y-108801185D01*
X137396703Y-108636773D01*
X137460853Y-108481901D01*
X137553985Y-108342520D01*
X137672519Y-108223986D01*
X137811900Y-108130854D01*
X137966772Y-108066704D01*
X138131184Y-108034001D01*
X138298816Y-108034001D01*
X138463228Y-108066704D01*
G37*
G36*
X140488229Y-108066704D02*
G01*
X140643101Y-108130854D01*
X140782482Y-108223986D01*
X140901016Y-108342520D01*
X140994148Y-108481901D01*
X141058298Y-108636773D01*
X141091001Y-108801185D01*
X141091001Y-108968817D01*
X141058298Y-109133229D01*
X140994148Y-109288101D01*
X140901016Y-109427482D01*
X140782482Y-109546016D01*
X140643101Y-109639148D01*
X140488229Y-109703298D01*
X140323817Y-109736001D01*
X140156185Y-109736001D01*
X139991773Y-109703298D01*
X139836901Y-109639148D01*
X139697520Y-109546016D01*
X139578986Y-109427482D01*
X139485854Y-109288101D01*
X139421704Y-109133229D01*
X139389001Y-108968817D01*
X139389001Y-108801185D01*
X139421704Y-108636773D01*
X139485854Y-108481901D01*
X139578986Y-108342520D01*
X139697520Y-108223986D01*
X139836901Y-108130854D01*
X139991773Y-108066704D01*
X140156185Y-108034001D01*
X140323817Y-108034001D01*
X140488229Y-108066704D01*
G37*
G36*
X138463228Y-105526704D02*
G01*
X138618100Y-105590854D01*
X138757481Y-105683986D01*
X138876015Y-105802520D01*
X138969147Y-105941901D01*
X139033297Y-106096773D01*
X139066000Y-106261185D01*
X139066000Y-106428817D01*
X139033297Y-106593229D01*
X138969147Y-106748101D01*
X138876015Y-106887482D01*
X138757481Y-107006016D01*
X138618100Y-107099148D01*
X138463228Y-107163298D01*
X138298816Y-107196001D01*
X138131184Y-107196001D01*
X137966772Y-107163298D01*
X137811900Y-107099148D01*
X137672519Y-107006016D01*
X137553985Y-106887482D01*
X137460853Y-106748101D01*
X137396703Y-106593229D01*
X137364000Y-106428817D01*
X137364000Y-106261185D01*
X137396703Y-106096773D01*
X137460853Y-105941901D01*
X137553985Y-105802520D01*
X137672519Y-105683986D01*
X137811900Y-105590854D01*
X137966772Y-105526704D01*
X138131184Y-105494001D01*
X138298816Y-105494001D01*
X138463228Y-105526704D01*
G37*
G36*
X140488229Y-105526704D02*
G01*
X140643101Y-105590854D01*
X140782482Y-105683986D01*
X140901016Y-105802520D01*
X140994148Y-105941901D01*
X141058298Y-106096773D01*
X141091001Y-106261185D01*
X141091001Y-106428817D01*
X141058298Y-106593229D01*
X140994148Y-106748101D01*
X140901016Y-106887482D01*
X140782482Y-107006016D01*
X140643101Y-107099148D01*
X140488229Y-107163298D01*
X140323817Y-107196001D01*
X140156185Y-107196001D01*
X139991773Y-107163298D01*
X139836901Y-107099148D01*
X139697520Y-107006016D01*
X139578986Y-106887482D01*
X139485854Y-106748101D01*
X139421704Y-106593229D01*
X139389001Y-106428817D01*
X139389001Y-106261185D01*
X139421704Y-106096773D01*
X139485854Y-105941901D01*
X139578986Y-105802520D01*
X139697520Y-105683986D01*
X139836901Y-105590854D01*
X139991773Y-105526704D01*
X140156185Y-105494001D01*
X140323817Y-105494001D01*
X140488229Y-105526704D01*
G37*
G36*
X125248229Y-105526704D02*
G01*
X125403101Y-105590854D01*
X125542482Y-105683986D01*
X125661016Y-105802520D01*
X125754148Y-105941901D01*
X125818298Y-106096773D01*
X125851001Y-106261185D01*
X125851001Y-106428817D01*
X125818298Y-106593229D01*
X125754148Y-106748101D01*
X125661016Y-106887482D01*
X125542482Y-107006016D01*
X125403101Y-107099148D01*
X125248229Y-107163298D01*
X125083817Y-107196001D01*
X124916185Y-107196001D01*
X124751773Y-107163298D01*
X124596901Y-107099148D01*
X124457520Y-107006016D01*
X124338986Y-106887482D01*
X124245854Y-106748101D01*
X124181704Y-106593229D01*
X124149001Y-106428817D01*
X124149001Y-106261185D01*
X124181704Y-106096773D01*
X124245854Y-105941901D01*
X124338986Y-105802520D01*
X124457520Y-105683986D01*
X124596901Y-105590854D01*
X124751773Y-105526704D01*
X124916185Y-105494001D01*
X125083817Y-105494001D01*
X125248229Y-105526704D01*
G37*
G36*
X123223228Y-105526704D02*
G01*
X123378100Y-105590854D01*
X123517481Y-105683986D01*
X123636015Y-105802520D01*
X123729147Y-105941901D01*
X123793297Y-106096773D01*
X123826000Y-106261185D01*
X123826000Y-106428817D01*
X123793297Y-106593229D01*
X123729147Y-106748101D01*
X123636015Y-106887482D01*
X123517481Y-107006016D01*
X123378100Y-107099148D01*
X123223228Y-107163298D01*
X123058816Y-107196001D01*
X122891184Y-107196001D01*
X122726772Y-107163298D01*
X122571900Y-107099148D01*
X122432519Y-107006016D01*
X122313985Y-106887482D01*
X122220853Y-106748101D01*
X122156703Y-106593229D01*
X122124000Y-106428817D01*
X122124000Y-106261185D01*
X122156703Y-106096773D01*
X122220853Y-105941901D01*
X122313985Y-105802520D01*
X122432519Y-105683986D01*
X122571900Y-105590854D01*
X122726772Y-105526704D01*
X122891184Y-105494001D01*
X123058816Y-105494001D01*
X123223228Y-105526704D01*
G37*
G36*
X123223228Y-102986704D02*
G01*
X123378100Y-103050854D01*
X123517481Y-103143986D01*
X123636015Y-103262520D01*
X123729147Y-103401901D01*
X123793297Y-103556773D01*
X123826000Y-103721185D01*
X123826000Y-103888817D01*
X123793297Y-104053229D01*
X123729147Y-104208101D01*
X123636015Y-104347482D01*
X123517481Y-104466016D01*
X123378100Y-104559148D01*
X123223228Y-104623298D01*
X123058816Y-104656001D01*
X122891184Y-104656001D01*
X122726772Y-104623298D01*
X122571900Y-104559148D01*
X122432519Y-104466016D01*
X122313985Y-104347482D01*
X122220853Y-104208101D01*
X122156703Y-104053229D01*
X122124000Y-103888817D01*
X122124000Y-103721185D01*
X122156703Y-103556773D01*
X122220853Y-103401901D01*
X122313985Y-103262520D01*
X122432519Y-103143986D01*
X122571900Y-103050854D01*
X122726772Y-102986704D01*
X122891184Y-102954001D01*
X123058816Y-102954001D01*
X123223228Y-102986704D01*
G37*
G36*
X138463228Y-102986704D02*
G01*
X138618100Y-103050854D01*
X138757481Y-103143986D01*
X138876015Y-103262520D01*
X138969147Y-103401901D01*
X139033297Y-103556773D01*
X139066000Y-103721185D01*
X139066000Y-103888817D01*
X139033297Y-104053229D01*
X138969147Y-104208101D01*
X138876015Y-104347482D01*
X138757481Y-104466016D01*
X138618100Y-104559148D01*
X138463228Y-104623298D01*
X138298816Y-104656001D01*
X138131184Y-104656001D01*
X137966772Y-104623298D01*
X137811900Y-104559148D01*
X137672519Y-104466016D01*
X137553985Y-104347482D01*
X137460853Y-104208101D01*
X137396703Y-104053229D01*
X137364000Y-103888817D01*
X137364000Y-103721185D01*
X137396703Y-103556773D01*
X137460853Y-103401901D01*
X137553985Y-103262520D01*
X137672519Y-103143986D01*
X137811900Y-103050854D01*
X137966772Y-102986704D01*
X138131184Y-102954001D01*
X138298816Y-102954001D01*
X138463228Y-102986704D01*
G37*
G36*
X140488229Y-102986704D02*
G01*
X140643101Y-103050854D01*
X140782482Y-103143986D01*
X140901016Y-103262520D01*
X140994148Y-103401901D01*
X141058298Y-103556773D01*
X141091001Y-103721185D01*
X141091001Y-103888817D01*
X141058298Y-104053229D01*
X140994148Y-104208101D01*
X140901016Y-104347482D01*
X140782482Y-104466016D01*
X140643101Y-104559148D01*
X140488229Y-104623298D01*
X140323817Y-104656001D01*
X140156185Y-104656001D01*
X139991773Y-104623298D01*
X139836901Y-104559148D01*
X139697520Y-104466016D01*
X139578986Y-104347482D01*
X139485854Y-104208101D01*
X139421704Y-104053229D01*
X139389001Y-103888817D01*
X139389001Y-103721185D01*
X139421704Y-103556773D01*
X139485854Y-103401901D01*
X139578986Y-103262520D01*
X139697520Y-103143986D01*
X139836901Y-103050854D01*
X139991773Y-102986704D01*
X140156185Y-102954001D01*
X140323817Y-102954001D01*
X140488229Y-102986704D01*
G37*
G36*
X125248229Y-102986704D02*
G01*
X125403101Y-103050854D01*
X125542482Y-103143986D01*
X125661016Y-103262520D01*
X125754148Y-103401901D01*
X125818298Y-103556773D01*
X125851001Y-103721185D01*
X125851001Y-103888817D01*
X125818298Y-104053229D01*
X125754148Y-104208101D01*
X125661016Y-104347482D01*
X125542482Y-104466016D01*
X125403101Y-104559148D01*
X125248229Y-104623298D01*
X125083817Y-104656001D01*
X124916185Y-104656001D01*
X124751773Y-104623298D01*
X124596901Y-104559148D01*
X124457520Y-104466016D01*
X124338986Y-104347482D01*
X124245854Y-104208101D01*
X124181704Y-104053229D01*
X124149001Y-103888817D01*
X124149001Y-103721185D01*
X124181704Y-103556773D01*
X124245854Y-103401901D01*
X124338986Y-103262520D01*
X124457520Y-103143986D01*
X124596901Y-103050854D01*
X124751773Y-102986704D01*
X124916185Y-102954001D01*
X125083817Y-102954001D01*
X125248229Y-102986704D01*
G37*
G36*
X123223228Y-100446704D02*
G01*
X123378100Y-100510854D01*
X123517481Y-100603986D01*
X123636015Y-100722520D01*
X123729147Y-100861901D01*
X123793297Y-101016773D01*
X123826000Y-101181185D01*
X123826000Y-101348817D01*
X123793297Y-101513229D01*
X123729147Y-101668101D01*
X123636015Y-101807482D01*
X123517481Y-101926016D01*
X123378100Y-102019148D01*
X123223228Y-102083298D01*
X123058816Y-102116001D01*
X122891184Y-102116001D01*
X122726772Y-102083298D01*
X122571900Y-102019148D01*
X122432519Y-101926016D01*
X122313985Y-101807482D01*
X122220853Y-101668101D01*
X122156703Y-101513229D01*
X122124000Y-101348817D01*
X122124000Y-101181185D01*
X122156703Y-101016773D01*
X122220853Y-100861901D01*
X122313985Y-100722520D01*
X122432519Y-100603986D01*
X122571900Y-100510854D01*
X122726772Y-100446704D01*
X122891184Y-100414001D01*
X123058816Y-100414001D01*
X123223228Y-100446704D01*
G37*
G36*
X125248229Y-100446704D02*
G01*
X125403101Y-100510854D01*
X125542482Y-100603986D01*
X125661016Y-100722520D01*
X125754148Y-100861901D01*
X125818298Y-101016773D01*
X125851001Y-101181185D01*
X125851001Y-101348817D01*
X125818298Y-101513229D01*
X125754148Y-101668101D01*
X125661016Y-101807482D01*
X125542482Y-101926016D01*
X125403101Y-102019148D01*
X125248229Y-102083298D01*
X125083817Y-102116001D01*
X124916185Y-102116001D01*
X124751773Y-102083298D01*
X124596901Y-102019148D01*
X124457520Y-101926016D01*
X124338986Y-101807482D01*
X124245854Y-101668101D01*
X124181704Y-101513229D01*
X124149001Y-101348817D01*
X124149001Y-101181185D01*
X124181704Y-101016773D01*
X124245854Y-100861901D01*
X124338986Y-100722520D01*
X124457520Y-100603986D01*
X124596901Y-100510854D01*
X124751773Y-100446704D01*
X124916185Y-100414001D01*
X125083817Y-100414001D01*
X125248229Y-100446704D01*
G37*
G36*
X138463228Y-100446704D02*
G01*
X138618100Y-100510854D01*
X138757481Y-100603986D01*
X138876015Y-100722520D01*
X138969147Y-100861901D01*
X139033297Y-101016773D01*
X139066000Y-101181185D01*
X139066000Y-101348817D01*
X139033297Y-101513229D01*
X138969147Y-101668101D01*
X138876015Y-101807482D01*
X138757481Y-101926016D01*
X138618100Y-102019148D01*
X138463228Y-102083298D01*
X138298816Y-102116001D01*
X138131184Y-102116001D01*
X137966772Y-102083298D01*
X137811900Y-102019148D01*
X137672519Y-101926016D01*
X137553985Y-101807482D01*
X137460853Y-101668101D01*
X137396703Y-101513229D01*
X137364000Y-101348817D01*
X137364000Y-101181185D01*
X137396703Y-101016773D01*
X137460853Y-100861901D01*
X137553985Y-100722520D01*
X137672519Y-100603986D01*
X137811900Y-100510854D01*
X137966772Y-100446704D01*
X138131184Y-100414001D01*
X138298816Y-100414001D01*
X138463228Y-100446704D01*
G37*
G36*
X140488229Y-100446704D02*
G01*
X140643101Y-100510854D01*
X140782482Y-100603986D01*
X140901016Y-100722520D01*
X140994148Y-100861901D01*
X141058298Y-101016773D01*
X141091001Y-101181185D01*
X141091001Y-101348817D01*
X141058298Y-101513229D01*
X140994148Y-101668101D01*
X140901016Y-101807482D01*
X140782482Y-101926016D01*
X140643101Y-102019148D01*
X140488229Y-102083298D01*
X140323817Y-102116001D01*
X140156185Y-102116001D01*
X139991773Y-102083298D01*
X139836901Y-102019148D01*
X139697520Y-101926016D01*
X139578986Y-101807482D01*
X139485854Y-101668101D01*
X139421704Y-101513229D01*
X139389001Y-101348817D01*
X139389001Y-101181185D01*
X139421704Y-101016773D01*
X139485854Y-100861901D01*
X139578986Y-100722520D01*
X139697520Y-100603986D01*
X139836901Y-100510854D01*
X139991773Y-100446704D01*
X140156185Y-100414001D01*
X140323817Y-100414001D01*
X140488229Y-100446704D01*
G37*
G36*
X140488229Y-97906704D02*
G01*
X140643101Y-97970854D01*
X140782482Y-98063986D01*
X140901016Y-98182520D01*
X140994148Y-98321901D01*
X141058298Y-98476773D01*
X141091001Y-98641185D01*
X141091001Y-98808817D01*
X141058298Y-98973229D01*
X140994148Y-99128101D01*
X140901016Y-99267482D01*
X140782482Y-99386016D01*
X140643101Y-99479148D01*
X140488229Y-99543298D01*
X140323817Y-99576001D01*
X140156185Y-99576001D01*
X139991773Y-99543298D01*
X139836901Y-99479148D01*
X139697520Y-99386016D01*
X139578986Y-99267482D01*
X139485854Y-99128101D01*
X139421704Y-98973229D01*
X139389001Y-98808817D01*
X139389001Y-98641185D01*
X139421704Y-98476773D01*
X139485854Y-98321901D01*
X139578986Y-98182520D01*
X139697520Y-98063986D01*
X139836901Y-97970854D01*
X139991773Y-97906704D01*
X140156185Y-97874001D01*
X140323817Y-97874001D01*
X140488229Y-97906704D01*
G37*
G36*
X125248229Y-97906704D02*
G01*
X125403101Y-97970854D01*
X125542482Y-98063986D01*
X125661016Y-98182520D01*
X125754148Y-98321901D01*
X125818298Y-98476773D01*
X125851001Y-98641185D01*
X125851001Y-98808817D01*
X125818298Y-98973229D01*
X125754148Y-99128101D01*
X125661016Y-99267482D01*
X125542482Y-99386016D01*
X125403101Y-99479148D01*
X125248229Y-99543298D01*
X125083817Y-99576001D01*
X124916185Y-99576001D01*
X124751773Y-99543298D01*
X124596901Y-99479148D01*
X124457520Y-99386016D01*
X124338986Y-99267482D01*
X124245854Y-99128101D01*
X124181704Y-98973229D01*
X124149001Y-98808817D01*
X124149001Y-98641185D01*
X124181704Y-98476773D01*
X124245854Y-98321901D01*
X124338986Y-98182520D01*
X124457520Y-98063986D01*
X124596901Y-97970854D01*
X124751773Y-97906704D01*
X124916185Y-97874001D01*
X125083817Y-97874001D01*
X125248229Y-97906704D01*
G37*
G36*
X138463228Y-97906704D02*
G01*
X138618100Y-97970854D01*
X138757481Y-98063986D01*
X138876015Y-98182520D01*
X138969147Y-98321901D01*
X139033297Y-98476773D01*
X139066000Y-98641185D01*
X139066000Y-98808817D01*
X139033297Y-98973229D01*
X138969147Y-99128101D01*
X138876015Y-99267482D01*
X138757481Y-99386016D01*
X138618100Y-99479148D01*
X138463228Y-99543298D01*
X138298816Y-99576001D01*
X138131184Y-99576001D01*
X137966772Y-99543298D01*
X137811900Y-99479148D01*
X137672519Y-99386016D01*
X137553985Y-99267482D01*
X137460853Y-99128101D01*
X137396703Y-98973229D01*
X137364000Y-98808817D01*
X137364000Y-98641185D01*
X137396703Y-98476773D01*
X137460853Y-98321901D01*
X137553985Y-98182520D01*
X137672519Y-98063986D01*
X137811900Y-97970854D01*
X137966772Y-97906704D01*
X138131184Y-97874001D01*
X138298816Y-97874001D01*
X138463228Y-97906704D01*
G37*
G36*
X123223228Y-97906704D02*
G01*
X123378100Y-97970854D01*
X123517481Y-98063986D01*
X123636015Y-98182520D01*
X123729147Y-98321901D01*
X123793297Y-98476773D01*
X123826000Y-98641185D01*
X123826000Y-98808817D01*
X123793297Y-98973229D01*
X123729147Y-99128101D01*
X123636015Y-99267482D01*
X123517481Y-99386016D01*
X123378100Y-99479148D01*
X123223228Y-99543298D01*
X123058816Y-99576001D01*
X122891184Y-99576001D01*
X122726772Y-99543298D01*
X122571900Y-99479148D01*
X122432519Y-99386016D01*
X122313985Y-99267482D01*
X122220853Y-99128101D01*
X122156703Y-98973229D01*
X122124000Y-98808817D01*
X122124000Y-98641185D01*
X122156703Y-98476773D01*
X122220853Y-98321901D01*
X122313985Y-98182520D01*
X122432519Y-98063986D01*
X122571900Y-97970854D01*
X122726772Y-97906704D01*
X122891184Y-97874001D01*
X123058816Y-97874001D01*
X123223228Y-97906704D01*
G37*
G36*
X140488229Y-95366704D02*
G01*
X140643101Y-95430854D01*
X140782482Y-95523986D01*
X140901016Y-95642520D01*
X140994148Y-95781901D01*
X141058298Y-95936773D01*
X141091001Y-96101185D01*
X141091001Y-96268817D01*
X141058298Y-96433229D01*
X140994148Y-96588101D01*
X140901016Y-96727482D01*
X140782482Y-96846016D01*
X140643101Y-96939148D01*
X140488229Y-97003298D01*
X140323817Y-97036001D01*
X140156185Y-97036001D01*
X139991773Y-97003298D01*
X139836901Y-96939148D01*
X139697520Y-96846016D01*
X139578986Y-96727482D01*
X139485854Y-96588101D01*
X139421704Y-96433229D01*
X139389001Y-96268817D01*
X139389001Y-96101185D01*
X139421704Y-95936773D01*
X139485854Y-95781901D01*
X139578986Y-95642520D01*
X139697520Y-95523986D01*
X139836901Y-95430854D01*
X139991773Y-95366704D01*
X140156185Y-95334001D01*
X140323817Y-95334001D01*
X140488229Y-95366704D01*
G37*
G36*
X125248229Y-95366704D02*
G01*
X125403101Y-95430854D01*
X125542482Y-95523986D01*
X125661016Y-95642520D01*
X125754148Y-95781901D01*
X125818298Y-95936773D01*
X125851001Y-96101185D01*
X125851001Y-96268817D01*
X125818298Y-96433229D01*
X125754148Y-96588101D01*
X125661016Y-96727482D01*
X125542482Y-96846016D01*
X125403101Y-96939148D01*
X125248229Y-97003298D01*
X125083817Y-97036001D01*
X124916185Y-97036001D01*
X124751773Y-97003298D01*
X124596901Y-96939148D01*
X124457520Y-96846016D01*
X124338986Y-96727482D01*
X124245854Y-96588101D01*
X124181704Y-96433229D01*
X124149001Y-96268817D01*
X124149001Y-96101185D01*
X124181704Y-95936773D01*
X124245854Y-95781901D01*
X124338986Y-95642520D01*
X124457520Y-95523986D01*
X124596901Y-95430854D01*
X124751773Y-95366704D01*
X124916185Y-95334001D01*
X125083817Y-95334001D01*
X125248229Y-95366704D01*
G37*
G36*
X123223228Y-95366704D02*
G01*
X123378100Y-95430854D01*
X123517481Y-95523986D01*
X123636015Y-95642520D01*
X123729147Y-95781901D01*
X123793297Y-95936773D01*
X123826000Y-96101185D01*
X123826000Y-96268817D01*
X123793297Y-96433229D01*
X123729147Y-96588101D01*
X123636015Y-96727482D01*
X123517481Y-96846016D01*
X123378100Y-96939148D01*
X123223228Y-97003298D01*
X123058816Y-97036001D01*
X122891184Y-97036001D01*
X122726772Y-97003298D01*
X122571900Y-96939148D01*
X122432519Y-96846016D01*
X122313985Y-96727482D01*
X122220853Y-96588101D01*
X122156703Y-96433229D01*
X122124000Y-96268817D01*
X122124000Y-96101185D01*
X122156703Y-95936773D01*
X122220853Y-95781901D01*
X122313985Y-95642520D01*
X122432519Y-95523986D01*
X122571900Y-95430854D01*
X122726772Y-95366704D01*
X122891184Y-95334001D01*
X123058816Y-95334001D01*
X123223228Y-95366704D01*
G37*
G36*
X138463228Y-95366704D02*
G01*
X138618100Y-95430854D01*
X138757481Y-95523986D01*
X138876015Y-95642520D01*
X138969147Y-95781901D01*
X139033297Y-95936773D01*
X139066000Y-96101185D01*
X139066000Y-96268817D01*
X139033297Y-96433229D01*
X138969147Y-96588101D01*
X138876015Y-96727482D01*
X138757481Y-96846016D01*
X138618100Y-96939148D01*
X138463228Y-97003298D01*
X138298816Y-97036001D01*
X138131184Y-97036001D01*
X137966772Y-97003298D01*
X137811900Y-96939148D01*
X137672519Y-96846016D01*
X137553985Y-96727482D01*
X137460853Y-96588101D01*
X137396703Y-96433229D01*
X137364000Y-96268817D01*
X137364000Y-96101185D01*
X137396703Y-95936773D01*
X137460853Y-95781901D01*
X137553985Y-95642520D01*
X137672519Y-95523986D01*
X137811900Y-95430854D01*
X137966772Y-95366704D01*
X138131184Y-95334001D01*
X138298816Y-95334001D01*
X138463228Y-95366704D01*
G37*
G36*
X125248229Y-92826704D02*
G01*
X125403101Y-92890854D01*
X125542482Y-92983986D01*
X125661016Y-93102520D01*
X125754148Y-93241901D01*
X125818298Y-93396773D01*
X125851001Y-93561185D01*
X125851001Y-93728817D01*
X125818298Y-93893229D01*
X125754148Y-94048101D01*
X125661016Y-94187482D01*
X125542482Y-94306016D01*
X125403101Y-94399148D01*
X125248229Y-94463298D01*
X125083817Y-94496001D01*
X124916185Y-94496001D01*
X124751773Y-94463298D01*
X124596901Y-94399148D01*
X124457520Y-94306016D01*
X124338986Y-94187482D01*
X124245854Y-94048101D01*
X124181704Y-93893229D01*
X124149001Y-93728817D01*
X124149001Y-93561185D01*
X124181704Y-93396773D01*
X124245854Y-93241901D01*
X124338986Y-93102520D01*
X124457520Y-92983986D01*
X124596901Y-92890854D01*
X124751773Y-92826704D01*
X124916185Y-92794001D01*
X125083817Y-92794001D01*
X125248229Y-92826704D01*
G37*
G36*
X123223228Y-92826704D02*
G01*
X123378100Y-92890854D01*
X123517481Y-92983986D01*
X123636015Y-93102520D01*
X123729147Y-93241901D01*
X123793297Y-93396773D01*
X123826000Y-93561185D01*
X123826000Y-93728817D01*
X123793297Y-93893229D01*
X123729147Y-94048101D01*
X123636015Y-94187482D01*
X123517481Y-94306016D01*
X123378100Y-94399148D01*
X123223228Y-94463298D01*
X123058816Y-94496001D01*
X122891184Y-94496001D01*
X122726772Y-94463298D01*
X122571900Y-94399148D01*
X122432519Y-94306016D01*
X122313985Y-94187482D01*
X122220853Y-94048101D01*
X122156703Y-93893229D01*
X122124000Y-93728817D01*
X122124000Y-93561185D01*
X122156703Y-93396773D01*
X122220853Y-93241901D01*
X122313985Y-93102520D01*
X122432519Y-92983986D01*
X122571900Y-92890854D01*
X122726772Y-92826704D01*
X122891184Y-92794001D01*
X123058816Y-92794001D01*
X123223228Y-92826704D01*
G37*
G36*
X140488229Y-92826704D02*
G01*
X140643101Y-92890854D01*
X140782482Y-92983986D01*
X140901016Y-93102520D01*
X140994148Y-93241901D01*
X141058298Y-93396773D01*
X141091001Y-93561185D01*
X141091001Y-93728817D01*
X141058298Y-93893229D01*
X140994148Y-94048101D01*
X140901016Y-94187482D01*
X140782482Y-94306016D01*
X140643101Y-94399148D01*
X140488229Y-94463298D01*
X140323817Y-94496001D01*
X140156185Y-94496001D01*
X139991773Y-94463298D01*
X139836901Y-94399148D01*
X139697520Y-94306016D01*
X139578986Y-94187482D01*
X139485854Y-94048101D01*
X139421704Y-93893229D01*
X139389001Y-93728817D01*
X139389001Y-93561185D01*
X139421704Y-93396773D01*
X139485854Y-93241901D01*
X139578986Y-93102520D01*
X139697520Y-92983986D01*
X139836901Y-92890854D01*
X139991773Y-92826704D01*
X140156185Y-92794001D01*
X140323817Y-92794001D01*
X140488229Y-92826704D01*
G37*
G36*
X138463228Y-92826704D02*
G01*
X138618100Y-92890854D01*
X138757481Y-92983986D01*
X138876015Y-93102520D01*
X138969147Y-93241901D01*
X139033297Y-93396773D01*
X139066000Y-93561185D01*
X139066000Y-93728817D01*
X139033297Y-93893229D01*
X138969147Y-94048101D01*
X138876015Y-94187482D01*
X138757481Y-94306016D01*
X138618100Y-94399148D01*
X138463228Y-94463298D01*
X138298816Y-94496001D01*
X138131184Y-94496001D01*
X137966772Y-94463298D01*
X137811900Y-94399148D01*
X137672519Y-94306016D01*
X137553985Y-94187482D01*
X137460853Y-94048101D01*
X137396703Y-93893229D01*
X137364000Y-93728817D01*
X137364000Y-93561185D01*
X137396703Y-93396773D01*
X137460853Y-93241901D01*
X137553985Y-93102520D01*
X137672519Y-92983986D01*
X137811900Y-92890854D01*
X137966772Y-92826704D01*
X138131184Y-92794001D01*
X138298816Y-92794001D01*
X138463228Y-92826704D01*
G37*
G36*
X125248229Y-90286704D02*
G01*
X125403101Y-90350854D01*
X125542482Y-90443986D01*
X125661016Y-90562520D01*
X125754148Y-90701901D01*
X125818298Y-90856773D01*
X125851001Y-91021185D01*
X125851001Y-91188817D01*
X125818298Y-91353229D01*
X125754148Y-91508101D01*
X125661016Y-91647482D01*
X125542482Y-91766016D01*
X125403101Y-91859148D01*
X125248229Y-91923298D01*
X125083817Y-91956001D01*
X124916185Y-91956001D01*
X124751773Y-91923298D01*
X124596901Y-91859148D01*
X124457520Y-91766016D01*
X124338986Y-91647482D01*
X124245854Y-91508101D01*
X124181704Y-91353229D01*
X124149001Y-91188817D01*
X124149001Y-91021185D01*
X124181704Y-90856773D01*
X124245854Y-90701901D01*
X124338986Y-90562520D01*
X124457520Y-90443986D01*
X124596901Y-90350854D01*
X124751773Y-90286704D01*
X124916185Y-90254001D01*
X125083817Y-90254001D01*
X125248229Y-90286704D01*
G37*
G36*
X140488229Y-90286704D02*
G01*
X140643101Y-90350854D01*
X140782482Y-90443986D01*
X140901016Y-90562520D01*
X140994148Y-90701901D01*
X141058298Y-90856773D01*
X141091001Y-91021185D01*
X141091001Y-91188817D01*
X141058298Y-91353229D01*
X140994148Y-91508101D01*
X140901016Y-91647482D01*
X140782482Y-91766016D01*
X140643101Y-91859148D01*
X140488229Y-91923298D01*
X140323817Y-91956001D01*
X140156185Y-91956001D01*
X139991773Y-91923298D01*
X139836901Y-91859148D01*
X139697520Y-91766016D01*
X139578986Y-91647482D01*
X139485854Y-91508101D01*
X139421704Y-91353229D01*
X139389001Y-91188817D01*
X139389001Y-91021185D01*
X139421704Y-90856773D01*
X139485854Y-90701901D01*
X139578986Y-90562520D01*
X139697520Y-90443986D01*
X139836901Y-90350854D01*
X139991773Y-90286704D01*
X140156185Y-90254001D01*
X140323817Y-90254001D01*
X140488229Y-90286704D01*
G37*
G36*
X123223228Y-90286704D02*
G01*
X123378100Y-90350854D01*
X123517481Y-90443986D01*
X123636015Y-90562520D01*
X123729147Y-90701901D01*
X123793297Y-90856773D01*
X123826000Y-91021185D01*
X123826000Y-91188817D01*
X123793297Y-91353229D01*
X123729147Y-91508101D01*
X123636015Y-91647482D01*
X123517481Y-91766016D01*
X123378100Y-91859148D01*
X123223228Y-91923298D01*
X123058816Y-91956001D01*
X122891184Y-91956001D01*
X122726772Y-91923298D01*
X122571900Y-91859148D01*
X122432519Y-91766016D01*
X122313985Y-91647482D01*
X122220853Y-91508101D01*
X122156703Y-91353229D01*
X122124000Y-91188817D01*
X122124000Y-91021185D01*
X122156703Y-90856773D01*
X122220853Y-90701901D01*
X122313985Y-90562520D01*
X122432519Y-90443986D01*
X122571900Y-90350854D01*
X122726772Y-90286704D01*
X122891184Y-90254001D01*
X123058816Y-90254001D01*
X123223228Y-90286704D01*
G37*
G36*
X138463228Y-90286704D02*
G01*
X138618100Y-90350854D01*
X138757481Y-90443986D01*
X138876015Y-90562520D01*
X138969147Y-90701901D01*
X139033297Y-90856773D01*
X139066000Y-91021185D01*
X139066000Y-91188817D01*
X139033297Y-91353229D01*
X138969147Y-91508101D01*
X138876015Y-91647482D01*
X138757481Y-91766016D01*
X138618100Y-91859148D01*
X138463228Y-91923298D01*
X138298816Y-91956001D01*
X138131184Y-91956001D01*
X137966772Y-91923298D01*
X137811900Y-91859148D01*
X137672519Y-91766016D01*
X137553985Y-91647482D01*
X137460853Y-91508101D01*
X137396703Y-91353229D01*
X137364000Y-91188817D01*
X137364000Y-91021185D01*
X137396703Y-90856773D01*
X137460853Y-90701901D01*
X137553985Y-90562520D01*
X137672519Y-90443986D01*
X137811900Y-90350854D01*
X137966772Y-90286704D01*
X138131184Y-90254001D01*
X138298816Y-90254001D01*
X138463228Y-90286704D01*
G37*
G36*
X123223228Y-87746704D02*
G01*
X123378100Y-87810854D01*
X123517481Y-87903986D01*
X123636015Y-88022520D01*
X123729147Y-88161901D01*
X123793297Y-88316773D01*
X123826000Y-88481185D01*
X123826000Y-88648817D01*
X123793297Y-88813229D01*
X123729147Y-88968101D01*
X123636015Y-89107482D01*
X123517481Y-89226016D01*
X123378100Y-89319148D01*
X123223228Y-89383298D01*
X123058816Y-89416001D01*
X122891184Y-89416001D01*
X122726772Y-89383298D01*
X122571900Y-89319148D01*
X122432519Y-89226016D01*
X122313985Y-89107482D01*
X122220853Y-88968101D01*
X122156703Y-88813229D01*
X122124000Y-88648817D01*
X122124000Y-88481185D01*
X122156703Y-88316773D01*
X122220853Y-88161901D01*
X122313985Y-88022520D01*
X122432519Y-87903986D01*
X122571900Y-87810854D01*
X122726772Y-87746704D01*
X122891184Y-87714001D01*
X123058816Y-87714001D01*
X123223228Y-87746704D01*
G37*
G36*
X125248229Y-87746704D02*
G01*
X125403101Y-87810854D01*
X125542482Y-87903986D01*
X125661016Y-88022520D01*
X125754148Y-88161901D01*
X125818298Y-88316773D01*
X125851001Y-88481185D01*
X125851001Y-88648817D01*
X125818298Y-88813229D01*
X125754148Y-88968101D01*
X125661016Y-89107482D01*
X125542482Y-89226016D01*
X125403101Y-89319148D01*
X125248229Y-89383298D01*
X125083817Y-89416001D01*
X124916185Y-89416001D01*
X124751773Y-89383298D01*
X124596901Y-89319148D01*
X124457520Y-89226016D01*
X124338986Y-89107482D01*
X124245854Y-88968101D01*
X124181704Y-88813229D01*
X124149001Y-88648817D01*
X124149001Y-88481185D01*
X124181704Y-88316773D01*
X124245854Y-88161901D01*
X124338986Y-88022520D01*
X124457520Y-87903986D01*
X124596901Y-87810854D01*
X124751773Y-87746704D01*
X124916185Y-87714001D01*
X125083817Y-87714001D01*
X125248229Y-87746704D01*
G37*
G36*
X140488229Y-87746704D02*
G01*
X140643101Y-87810854D01*
X140782482Y-87903986D01*
X140901016Y-88022520D01*
X140994148Y-88161901D01*
X141058298Y-88316773D01*
X141091001Y-88481185D01*
X141091001Y-88648817D01*
X141058298Y-88813229D01*
X140994148Y-88968101D01*
X140901016Y-89107482D01*
X140782482Y-89226016D01*
X140643101Y-89319148D01*
X140488229Y-89383298D01*
X140323817Y-89416001D01*
X140156185Y-89416001D01*
X139991773Y-89383298D01*
X139836901Y-89319148D01*
X139697520Y-89226016D01*
X139578986Y-89107482D01*
X139485854Y-88968101D01*
X139421704Y-88813229D01*
X139389001Y-88648817D01*
X139389001Y-88481185D01*
X139421704Y-88316773D01*
X139485854Y-88161901D01*
X139578986Y-88022520D01*
X139697520Y-87903986D01*
X139836901Y-87810854D01*
X139991773Y-87746704D01*
X140156185Y-87714001D01*
X140323817Y-87714001D01*
X140488229Y-87746704D01*
G37*
G36*
X138463228Y-87746704D02*
G01*
X138618100Y-87810854D01*
X138757481Y-87903986D01*
X138876015Y-88022520D01*
X138969147Y-88161901D01*
X139033297Y-88316773D01*
X139066000Y-88481185D01*
X139066000Y-88648817D01*
X139033297Y-88813229D01*
X138969147Y-88968101D01*
X138876015Y-89107482D01*
X138757481Y-89226016D01*
X138618100Y-89319148D01*
X138463228Y-89383298D01*
X138298816Y-89416001D01*
X138131184Y-89416001D01*
X137966772Y-89383298D01*
X137811900Y-89319148D01*
X137672519Y-89226016D01*
X137553985Y-89107482D01*
X137460853Y-88968101D01*
X137396703Y-88813229D01*
X137364000Y-88648817D01*
X137364000Y-88481185D01*
X137396703Y-88316773D01*
X137460853Y-88161901D01*
X137553985Y-88022520D01*
X137672519Y-87903986D01*
X137811900Y-87810854D01*
X137966772Y-87746704D01*
X138131184Y-87714001D01*
X138298816Y-87714001D01*
X138463228Y-87746704D01*
G37*
G36*
X123223228Y-85206704D02*
G01*
X123378100Y-85270854D01*
X123517481Y-85363986D01*
X123636015Y-85482520D01*
X123729147Y-85621901D01*
X123793297Y-85776773D01*
X123826000Y-85941185D01*
X123826000Y-86108817D01*
X123793297Y-86273229D01*
X123729147Y-86428101D01*
X123636015Y-86567482D01*
X123517481Y-86686016D01*
X123378100Y-86779148D01*
X123223228Y-86843298D01*
X123058816Y-86876001D01*
X122891184Y-86876001D01*
X122726772Y-86843298D01*
X122571900Y-86779148D01*
X122432519Y-86686016D01*
X122313985Y-86567482D01*
X122220853Y-86428101D01*
X122156703Y-86273229D01*
X122124000Y-86108817D01*
X122124000Y-85941185D01*
X122156703Y-85776773D01*
X122220853Y-85621901D01*
X122313985Y-85482520D01*
X122432519Y-85363986D01*
X122571900Y-85270854D01*
X122726772Y-85206704D01*
X122891184Y-85174001D01*
X123058816Y-85174001D01*
X123223228Y-85206704D01*
G37*
G36*
X140488229Y-85206704D02*
G01*
X140643101Y-85270854D01*
X140782482Y-85363986D01*
X140901016Y-85482520D01*
X140994148Y-85621901D01*
X141058298Y-85776773D01*
X141091001Y-85941185D01*
X141091001Y-86108817D01*
X141058298Y-86273229D01*
X140994148Y-86428101D01*
X140901016Y-86567482D01*
X140782482Y-86686016D01*
X140643101Y-86779148D01*
X140488229Y-86843298D01*
X140323817Y-86876001D01*
X140156185Y-86876001D01*
X139991773Y-86843298D01*
X139836901Y-86779148D01*
X139697520Y-86686016D01*
X139578986Y-86567482D01*
X139485854Y-86428101D01*
X139421704Y-86273229D01*
X139389001Y-86108817D01*
X139389001Y-85941185D01*
X139421704Y-85776773D01*
X139485854Y-85621901D01*
X139578986Y-85482520D01*
X139697520Y-85363986D01*
X139836901Y-85270854D01*
X139991773Y-85206704D01*
X140156185Y-85174001D01*
X140323817Y-85174001D01*
X140488229Y-85206704D01*
G37*
G36*
X138463228Y-85206704D02*
G01*
X138618100Y-85270854D01*
X138757481Y-85363986D01*
X138876015Y-85482520D01*
X138969147Y-85621901D01*
X139033297Y-85776773D01*
X139066000Y-85941185D01*
X139066000Y-86108817D01*
X139033297Y-86273229D01*
X138969147Y-86428101D01*
X138876015Y-86567482D01*
X138757481Y-86686016D01*
X138618100Y-86779148D01*
X138463228Y-86843298D01*
X138298816Y-86876001D01*
X138131184Y-86876001D01*
X137966772Y-86843298D01*
X137811900Y-86779148D01*
X137672519Y-86686016D01*
X137553985Y-86567482D01*
X137460853Y-86428101D01*
X137396703Y-86273229D01*
X137364000Y-86108817D01*
X137364000Y-85941185D01*
X137396703Y-85776773D01*
X137460853Y-85621901D01*
X137553985Y-85482520D01*
X137672519Y-85363986D01*
X137811900Y-85270854D01*
X137966772Y-85206704D01*
X138131184Y-85174001D01*
X138298816Y-85174001D01*
X138463228Y-85206704D01*
G37*
G36*
X125248229Y-85206704D02*
G01*
X125403101Y-85270854D01*
X125542482Y-85363986D01*
X125661016Y-85482520D01*
X125754148Y-85621901D01*
X125818298Y-85776773D01*
X125851001Y-85941185D01*
X125851001Y-86108817D01*
X125818298Y-86273229D01*
X125754148Y-86428101D01*
X125661016Y-86567482D01*
X125542482Y-86686016D01*
X125403101Y-86779148D01*
X125248229Y-86843298D01*
X125083817Y-86876001D01*
X124916185Y-86876001D01*
X124751773Y-86843298D01*
X124596901Y-86779148D01*
X124457520Y-86686016D01*
X124338986Y-86567482D01*
X124245854Y-86428101D01*
X124181704Y-86273229D01*
X124149001Y-86108817D01*
X124149001Y-85941185D01*
X124181704Y-85776773D01*
X124245854Y-85621901D01*
X124338986Y-85482520D01*
X124457520Y-85363986D01*
X124596901Y-85270854D01*
X124751773Y-85206704D01*
X124916185Y-85174001D01*
X125083817Y-85174001D01*
X125248229Y-85206704D01*
G37*
G36*
X125248229Y-82666704D02*
G01*
X125403101Y-82730854D01*
X125542482Y-82823986D01*
X125661016Y-82942520D01*
X125754148Y-83081901D01*
X125818298Y-83236773D01*
X125851001Y-83401185D01*
X125851001Y-83568817D01*
X125818298Y-83733229D01*
X125754148Y-83888101D01*
X125661016Y-84027482D01*
X125542482Y-84146016D01*
X125403101Y-84239148D01*
X125248229Y-84303298D01*
X125083817Y-84336001D01*
X124916185Y-84336001D01*
X124751773Y-84303298D01*
X124596901Y-84239148D01*
X124457520Y-84146016D01*
X124338986Y-84027482D01*
X124245854Y-83888101D01*
X124181704Y-83733229D01*
X124149001Y-83568817D01*
X124149001Y-83401185D01*
X124181704Y-83236773D01*
X124245854Y-83081901D01*
X124338986Y-82942520D01*
X124457520Y-82823986D01*
X124596901Y-82730854D01*
X124751773Y-82666704D01*
X124916185Y-82634001D01*
X125083817Y-82634001D01*
X125248229Y-82666704D01*
G37*
G36*
X123223228Y-82666704D02*
G01*
X123378100Y-82730854D01*
X123517481Y-82823986D01*
X123636015Y-82942520D01*
X123729147Y-83081901D01*
X123793297Y-83236773D01*
X123826000Y-83401185D01*
X123826000Y-83568817D01*
X123793297Y-83733229D01*
X123729147Y-83888101D01*
X123636015Y-84027482D01*
X123517481Y-84146016D01*
X123378100Y-84239148D01*
X123223228Y-84303298D01*
X123058816Y-84336001D01*
X122891184Y-84336001D01*
X122726772Y-84303298D01*
X122571900Y-84239148D01*
X122432519Y-84146016D01*
X122313985Y-84027482D01*
X122220853Y-83888101D01*
X122156703Y-83733229D01*
X122124000Y-83568817D01*
X122124000Y-83401185D01*
X122156703Y-83236773D01*
X122220853Y-83081901D01*
X122313985Y-82942520D01*
X122432519Y-82823986D01*
X122571900Y-82730854D01*
X122726772Y-82666704D01*
X122891184Y-82634001D01*
X123058816Y-82634001D01*
X123223228Y-82666704D01*
G37*
G36*
X140488229Y-82666704D02*
G01*
X140643101Y-82730854D01*
X140782482Y-82823986D01*
X140901016Y-82942520D01*
X140994148Y-83081901D01*
X141058298Y-83236773D01*
X141091001Y-83401185D01*
X141091001Y-83568817D01*
X141058298Y-83733229D01*
X140994148Y-83888101D01*
X140901016Y-84027482D01*
X140782482Y-84146016D01*
X140643101Y-84239148D01*
X140488229Y-84303298D01*
X140323817Y-84336001D01*
X140156185Y-84336001D01*
X139991773Y-84303298D01*
X139836901Y-84239148D01*
X139697520Y-84146016D01*
X139578986Y-84027482D01*
X139485854Y-83888101D01*
X139421704Y-83733229D01*
X139389001Y-83568817D01*
X139389001Y-83401185D01*
X139421704Y-83236773D01*
X139485854Y-83081901D01*
X139578986Y-82942520D01*
X139697520Y-82823986D01*
X139836901Y-82730854D01*
X139991773Y-82666704D01*
X140156185Y-82634001D01*
X140323817Y-82634001D01*
X140488229Y-82666704D01*
G37*
G36*
X138463228Y-82666704D02*
G01*
X138618100Y-82730854D01*
X138757481Y-82823986D01*
X138876015Y-82942520D01*
X138969147Y-83081901D01*
X139033297Y-83236773D01*
X139066000Y-83401185D01*
X139066000Y-83568817D01*
X139033297Y-83733229D01*
X138969147Y-83888101D01*
X138876015Y-84027482D01*
X138757481Y-84146016D01*
X138618100Y-84239148D01*
X138463228Y-84303298D01*
X138298816Y-84336001D01*
X138131184Y-84336001D01*
X137966772Y-84303298D01*
X137811900Y-84239148D01*
X137672519Y-84146016D01*
X137553985Y-84027482D01*
X137460853Y-83888101D01*
X137396703Y-83733229D01*
X137364000Y-83568817D01*
X137364000Y-83401185D01*
X137396703Y-83236773D01*
X137460853Y-83081901D01*
X137553985Y-82942520D01*
X137672519Y-82823986D01*
X137811900Y-82730854D01*
X137966772Y-82666704D01*
X138131184Y-82634001D01*
X138298816Y-82634001D01*
X138463228Y-82666704D01*
G37*
G36*
X138463228Y-80126704D02*
G01*
X138618100Y-80190854D01*
X138757481Y-80283986D01*
X138876015Y-80402520D01*
X138969147Y-80541901D01*
X139033297Y-80696773D01*
X139066000Y-80861185D01*
X139066000Y-81028817D01*
X139033297Y-81193229D01*
X138969147Y-81348101D01*
X138876015Y-81487482D01*
X138757481Y-81606016D01*
X138618100Y-81699148D01*
X138463228Y-81763298D01*
X138298816Y-81796001D01*
X138131184Y-81796001D01*
X137966772Y-81763298D01*
X137811900Y-81699148D01*
X137672519Y-81606016D01*
X137553985Y-81487482D01*
X137460853Y-81348101D01*
X137396703Y-81193229D01*
X137364000Y-81028817D01*
X137364000Y-80861185D01*
X137396703Y-80696773D01*
X137460853Y-80541901D01*
X137553985Y-80402520D01*
X137672519Y-80283986D01*
X137811900Y-80190854D01*
X137966772Y-80126704D01*
X138131184Y-80094001D01*
X138298816Y-80094001D01*
X138463228Y-80126704D01*
G37*
G36*
X125248229Y-80126704D02*
G01*
X125403101Y-80190854D01*
X125542482Y-80283986D01*
X125661016Y-80402520D01*
X125754148Y-80541901D01*
X125818298Y-80696773D01*
X125851001Y-80861185D01*
X125851001Y-81028817D01*
X125818298Y-81193229D01*
X125754148Y-81348101D01*
X125661016Y-81487482D01*
X125542482Y-81606016D01*
X125403101Y-81699148D01*
X125248229Y-81763298D01*
X125083817Y-81796001D01*
X124916185Y-81796001D01*
X124751773Y-81763298D01*
X124596901Y-81699148D01*
X124457520Y-81606016D01*
X124338986Y-81487482D01*
X124245854Y-81348101D01*
X124181704Y-81193229D01*
X124149001Y-81028817D01*
X124149001Y-80861185D01*
X124181704Y-80696773D01*
X124245854Y-80541901D01*
X124338986Y-80402520D01*
X124457520Y-80283986D01*
X124596901Y-80190854D01*
X124751773Y-80126704D01*
X124916185Y-80094001D01*
X125083817Y-80094001D01*
X125248229Y-80126704D01*
G37*
G36*
X140488229Y-80126704D02*
G01*
X140643101Y-80190854D01*
X140782482Y-80283986D01*
X140901016Y-80402520D01*
X140994148Y-80541901D01*
X141058298Y-80696773D01*
X141091001Y-80861185D01*
X141091001Y-81028817D01*
X141058298Y-81193229D01*
X140994148Y-81348101D01*
X140901016Y-81487482D01*
X140782482Y-81606016D01*
X140643101Y-81699148D01*
X140488229Y-81763298D01*
X140323817Y-81796001D01*
X140156185Y-81796001D01*
X139991773Y-81763298D01*
X139836901Y-81699148D01*
X139697520Y-81606016D01*
X139578986Y-81487482D01*
X139485854Y-81348101D01*
X139421704Y-81193229D01*
X139389001Y-81028817D01*
X139389001Y-80861185D01*
X139421704Y-80696773D01*
X139485854Y-80541901D01*
X139578986Y-80402520D01*
X139697520Y-80283986D01*
X139836901Y-80190854D01*
X139991773Y-80126704D01*
X140156185Y-80094001D01*
X140323817Y-80094001D01*
X140488229Y-80126704D01*
G37*
G36*
X123223228Y-80126704D02*
G01*
X123378100Y-80190854D01*
X123517481Y-80283986D01*
X123636015Y-80402520D01*
X123729147Y-80541901D01*
X123793297Y-80696773D01*
X123826000Y-80861185D01*
X123826000Y-81028817D01*
X123793297Y-81193229D01*
X123729147Y-81348101D01*
X123636015Y-81487482D01*
X123517481Y-81606016D01*
X123378100Y-81699148D01*
X123223228Y-81763298D01*
X123058816Y-81796001D01*
X122891184Y-81796001D01*
X122726772Y-81763298D01*
X122571900Y-81699148D01*
X122432519Y-81606016D01*
X122313985Y-81487482D01*
X122220853Y-81348101D01*
X122156703Y-81193229D01*
X122124000Y-81028817D01*
X122124000Y-80861185D01*
X122156703Y-80696773D01*
X122220853Y-80541901D01*
X122313985Y-80402520D01*
X122432519Y-80283986D01*
X122571900Y-80190854D01*
X122726772Y-80126704D01*
X122891184Y-80094001D01*
X123058816Y-80094001D01*
X123223228Y-80126704D01*
G37*
G36*
X123223228Y-77586704D02*
G01*
X123378100Y-77650854D01*
X123517481Y-77743986D01*
X123636015Y-77862520D01*
X123729147Y-78001901D01*
X123793297Y-78156773D01*
X123826000Y-78321185D01*
X123826000Y-78488817D01*
X123793297Y-78653229D01*
X123729147Y-78808101D01*
X123636015Y-78947482D01*
X123517481Y-79066016D01*
X123378100Y-79159148D01*
X123223228Y-79223298D01*
X123058816Y-79256001D01*
X122891184Y-79256001D01*
X122726772Y-79223298D01*
X122571900Y-79159148D01*
X122432519Y-79066016D01*
X122313985Y-78947482D01*
X122220853Y-78808101D01*
X122156703Y-78653229D01*
X122124000Y-78488817D01*
X122124000Y-78321185D01*
X122156703Y-78156773D01*
X122220853Y-78001901D01*
X122313985Y-77862520D01*
X122432519Y-77743986D01*
X122571900Y-77650854D01*
X122726772Y-77586704D01*
X122891184Y-77554001D01*
X123058816Y-77554001D01*
X123223228Y-77586704D01*
G37*
G36*
X140488229Y-77586704D02*
G01*
X140643101Y-77650854D01*
X140782482Y-77743986D01*
X140901016Y-77862520D01*
X140994148Y-78001901D01*
X141058298Y-78156773D01*
X141091001Y-78321185D01*
X141091001Y-78488817D01*
X141058298Y-78653229D01*
X140994148Y-78808101D01*
X140901016Y-78947482D01*
X140782482Y-79066016D01*
X140643101Y-79159148D01*
X140488229Y-79223298D01*
X140323817Y-79256001D01*
X140156185Y-79256001D01*
X139991773Y-79223298D01*
X139836901Y-79159148D01*
X139697520Y-79066016D01*
X139578986Y-78947482D01*
X139485854Y-78808101D01*
X139421704Y-78653229D01*
X139389001Y-78488817D01*
X139389001Y-78321185D01*
X139421704Y-78156773D01*
X139485854Y-78001901D01*
X139578986Y-77862520D01*
X139697520Y-77743986D01*
X139836901Y-77650854D01*
X139991773Y-77586704D01*
X140156185Y-77554001D01*
X140323817Y-77554001D01*
X140488229Y-77586704D01*
G37*
G36*
X125248229Y-77586704D02*
G01*
X125403101Y-77650854D01*
X125542482Y-77743986D01*
X125661016Y-77862520D01*
X125754148Y-78001901D01*
X125818298Y-78156773D01*
X125851001Y-78321185D01*
X125851001Y-78488817D01*
X125818298Y-78653229D01*
X125754148Y-78808101D01*
X125661016Y-78947482D01*
X125542482Y-79066016D01*
X125403101Y-79159148D01*
X125248229Y-79223298D01*
X125083817Y-79256001D01*
X124916185Y-79256001D01*
X124751773Y-79223298D01*
X124596901Y-79159148D01*
X124457520Y-79066016D01*
X124338986Y-78947482D01*
X124245854Y-78808101D01*
X124181704Y-78653229D01*
X124149001Y-78488817D01*
X124149001Y-78321185D01*
X124181704Y-78156773D01*
X124245854Y-78001901D01*
X124338986Y-77862520D01*
X124457520Y-77743986D01*
X124596901Y-77650854D01*
X124751773Y-77586704D01*
X124916185Y-77554001D01*
X125083817Y-77554001D01*
X125248229Y-77586704D01*
G37*
G36*
X138463228Y-77586704D02*
G01*
X138618100Y-77650854D01*
X138757481Y-77743986D01*
X138876015Y-77862520D01*
X138969147Y-78001901D01*
X139033297Y-78156773D01*
X139066000Y-78321185D01*
X139066000Y-78488817D01*
X139033297Y-78653229D01*
X138969147Y-78808101D01*
X138876015Y-78947482D01*
X138757481Y-79066016D01*
X138618100Y-79159148D01*
X138463228Y-79223298D01*
X138298816Y-79256001D01*
X138131184Y-79256001D01*
X137966772Y-79223298D01*
X137811900Y-79159148D01*
X137672519Y-79066016D01*
X137553985Y-78947482D01*
X137460853Y-78808101D01*
X137396703Y-78653229D01*
X137364000Y-78488817D01*
X137364000Y-78321185D01*
X137396703Y-78156773D01*
X137460853Y-78001901D01*
X137553985Y-77862520D01*
X137672519Y-77743986D01*
X137811900Y-77650854D01*
X137966772Y-77586704D01*
X138131184Y-77554001D01*
X138298816Y-77554001D01*
X138463228Y-77586704D01*
G37*
G36*
X138463228Y-75046704D02*
G01*
X138618100Y-75110854D01*
X138757481Y-75203986D01*
X138876015Y-75322520D01*
X138969147Y-75461901D01*
X139033297Y-75616773D01*
X139066000Y-75781185D01*
X139066000Y-75948817D01*
X139033297Y-76113229D01*
X138969147Y-76268101D01*
X138876015Y-76407482D01*
X138757481Y-76526016D01*
X138618100Y-76619148D01*
X138463228Y-76683298D01*
X138298816Y-76716001D01*
X138131184Y-76716001D01*
X137966772Y-76683298D01*
X137811900Y-76619148D01*
X137672519Y-76526016D01*
X137553985Y-76407482D01*
X137460853Y-76268101D01*
X137396703Y-76113229D01*
X137364000Y-75948817D01*
X137364000Y-75781185D01*
X137396703Y-75616773D01*
X137460853Y-75461901D01*
X137553985Y-75322520D01*
X137672519Y-75203986D01*
X137811900Y-75110854D01*
X137966772Y-75046704D01*
X138131184Y-75014001D01*
X138298816Y-75014001D01*
X138463228Y-75046704D01*
G37*
G36*
X125248229Y-75046704D02*
G01*
X125403101Y-75110854D01*
X125542482Y-75203986D01*
X125661016Y-75322520D01*
X125754148Y-75461901D01*
X125818298Y-75616773D01*
X125851001Y-75781185D01*
X125851001Y-75948817D01*
X125818298Y-76113229D01*
X125754148Y-76268101D01*
X125661016Y-76407482D01*
X125542482Y-76526016D01*
X125403101Y-76619148D01*
X125248229Y-76683298D01*
X125083817Y-76716001D01*
X124916185Y-76716001D01*
X124751773Y-76683298D01*
X124596901Y-76619148D01*
X124457520Y-76526016D01*
X124338986Y-76407482D01*
X124245854Y-76268101D01*
X124181704Y-76113229D01*
X124149001Y-75948817D01*
X124149001Y-75781185D01*
X124181704Y-75616773D01*
X124245854Y-75461901D01*
X124338986Y-75322520D01*
X124457520Y-75203986D01*
X124596901Y-75110854D01*
X124751773Y-75046704D01*
X124916185Y-75014001D01*
X125083817Y-75014001D01*
X125248229Y-75046704D01*
G37*
G36*
X123223228Y-75046704D02*
G01*
X123378100Y-75110854D01*
X123517481Y-75203986D01*
X123636015Y-75322520D01*
X123729147Y-75461901D01*
X123793297Y-75616773D01*
X123826000Y-75781185D01*
X123826000Y-75948817D01*
X123793297Y-76113229D01*
X123729147Y-76268101D01*
X123636015Y-76407482D01*
X123517481Y-76526016D01*
X123378100Y-76619148D01*
X123223228Y-76683298D01*
X123058816Y-76716001D01*
X122891184Y-76716001D01*
X122726772Y-76683298D01*
X122571900Y-76619148D01*
X122432519Y-76526016D01*
X122313985Y-76407482D01*
X122220853Y-76268101D01*
X122156703Y-76113229D01*
X122124000Y-75948817D01*
X122124000Y-75781185D01*
X122156703Y-75616773D01*
X122220853Y-75461901D01*
X122313985Y-75322520D01*
X122432519Y-75203986D01*
X122571900Y-75110854D01*
X122726772Y-75046704D01*
X122891184Y-75014001D01*
X123058816Y-75014001D01*
X123223228Y-75046704D01*
G37*
G36*
X140488229Y-75046704D02*
G01*
X140643101Y-75110854D01*
X140782482Y-75203986D01*
X140901016Y-75322520D01*
X140994148Y-75461901D01*
X141058298Y-75616773D01*
X141091001Y-75781185D01*
X141091001Y-75948817D01*
X141058298Y-76113229D01*
X140994148Y-76268101D01*
X140901016Y-76407482D01*
X140782482Y-76526016D01*
X140643101Y-76619148D01*
X140488229Y-76683298D01*
X140323817Y-76716001D01*
X140156185Y-76716001D01*
X139991773Y-76683298D01*
X139836901Y-76619148D01*
X139697520Y-76526016D01*
X139578986Y-76407482D01*
X139485854Y-76268101D01*
X139421704Y-76113229D01*
X139389001Y-75948817D01*
X139389001Y-75781185D01*
X139421704Y-75616773D01*
X139485854Y-75461901D01*
X139578986Y-75322520D01*
X139697520Y-75203986D01*
X139836901Y-75110854D01*
X139991773Y-75046704D01*
X140156185Y-75014001D01*
X140323817Y-75014001D01*
X140488229Y-75046704D01*
G37*
G36*
X125248229Y-72506704D02*
G01*
X125403101Y-72570854D01*
X125542482Y-72663986D01*
X125661016Y-72782520D01*
X125754148Y-72921901D01*
X125818298Y-73076773D01*
X125851001Y-73241185D01*
X125851001Y-73408817D01*
X125818298Y-73573229D01*
X125754148Y-73728101D01*
X125661016Y-73867482D01*
X125542482Y-73986016D01*
X125403101Y-74079148D01*
X125248229Y-74143298D01*
X125083817Y-74176001D01*
X124916185Y-74176001D01*
X124751773Y-74143298D01*
X124596901Y-74079148D01*
X124457520Y-73986016D01*
X124338986Y-73867482D01*
X124245854Y-73728101D01*
X124181704Y-73573229D01*
X124149001Y-73408817D01*
X124149001Y-73241185D01*
X124181704Y-73076773D01*
X124245854Y-72921901D01*
X124338986Y-72782520D01*
X124457520Y-72663986D01*
X124596901Y-72570854D01*
X124751773Y-72506704D01*
X124916185Y-72474001D01*
X125083817Y-72474001D01*
X125248229Y-72506704D01*
G37*
G36*
X140488229Y-72506704D02*
G01*
X140643101Y-72570854D01*
X140782482Y-72663986D01*
X140901016Y-72782520D01*
X140994148Y-72921901D01*
X141058298Y-73076773D01*
X141091001Y-73241185D01*
X141091001Y-73408817D01*
X141058298Y-73573229D01*
X140994148Y-73728101D01*
X140901016Y-73867482D01*
X140782482Y-73986016D01*
X140643101Y-74079148D01*
X140488229Y-74143298D01*
X140323817Y-74176001D01*
X140156185Y-74176001D01*
X139991773Y-74143298D01*
X139836901Y-74079148D01*
X139697520Y-73986016D01*
X139578986Y-73867482D01*
X139485854Y-73728101D01*
X139421704Y-73573229D01*
X139389001Y-73408817D01*
X139389001Y-73241185D01*
X139421704Y-73076773D01*
X139485854Y-72921901D01*
X139578986Y-72782520D01*
X139697520Y-72663986D01*
X139836901Y-72570854D01*
X139991773Y-72506704D01*
X140156185Y-72474001D01*
X140323817Y-72474001D01*
X140488229Y-72506704D01*
G37*
G36*
X123223228Y-72506704D02*
G01*
X123378100Y-72570854D01*
X123517481Y-72663986D01*
X123636015Y-72782520D01*
X123729147Y-72921901D01*
X123793297Y-73076773D01*
X123826000Y-73241185D01*
X123826000Y-73408817D01*
X123793297Y-73573229D01*
X123729147Y-73728101D01*
X123636015Y-73867482D01*
X123517481Y-73986016D01*
X123378100Y-74079148D01*
X123223228Y-74143298D01*
X123058816Y-74176001D01*
X122891184Y-74176001D01*
X122726772Y-74143298D01*
X122571900Y-74079148D01*
X122432519Y-73986016D01*
X122313985Y-73867482D01*
X122220853Y-73728101D01*
X122156703Y-73573229D01*
X122124000Y-73408817D01*
X122124000Y-73241185D01*
X122156703Y-73076773D01*
X122220853Y-72921901D01*
X122313985Y-72782520D01*
X122432519Y-72663986D01*
X122571900Y-72570854D01*
X122726772Y-72506704D01*
X122891184Y-72474001D01*
X123058816Y-72474001D01*
X123223228Y-72506704D01*
G37*
G36*
X138463228Y-72506704D02*
G01*
X138618100Y-72570854D01*
X138757481Y-72663986D01*
X138876015Y-72782520D01*
X138969147Y-72921901D01*
X139033297Y-73076773D01*
X139066000Y-73241185D01*
X139066000Y-73408817D01*
X139033297Y-73573229D01*
X138969147Y-73728101D01*
X138876015Y-73867482D01*
X138757481Y-73986016D01*
X138618100Y-74079148D01*
X138463228Y-74143298D01*
X138298816Y-74176001D01*
X138131184Y-74176001D01*
X137966772Y-74143298D01*
X137811900Y-74079148D01*
X137672519Y-73986016D01*
X137553985Y-73867482D01*
X137460853Y-73728101D01*
X137396703Y-73573229D01*
X137364000Y-73408817D01*
X137364000Y-73241185D01*
X137396703Y-73076773D01*
X137460853Y-72921901D01*
X137553985Y-72782520D01*
X137672519Y-72663986D01*
X137811900Y-72570854D01*
X137966772Y-72506704D01*
X138131184Y-72474001D01*
X138298816Y-72474001D01*
X138463228Y-72506704D01*
G37*
G36*
X140488229Y-69966704D02*
G01*
X140643101Y-70030854D01*
X140782482Y-70123986D01*
X140901016Y-70242520D01*
X140994148Y-70381901D01*
X141058298Y-70536773D01*
X141091001Y-70701185D01*
X141091001Y-70868817D01*
X141058298Y-71033229D01*
X140994148Y-71188101D01*
X140901016Y-71327482D01*
X140782482Y-71446016D01*
X140643101Y-71539148D01*
X140488229Y-71603298D01*
X140323817Y-71636001D01*
X140156185Y-71636001D01*
X139991773Y-71603298D01*
X139836901Y-71539148D01*
X139697520Y-71446016D01*
X139578986Y-71327482D01*
X139485854Y-71188101D01*
X139421704Y-71033229D01*
X139389001Y-70868817D01*
X139389001Y-70701185D01*
X139421704Y-70536773D01*
X139485854Y-70381901D01*
X139578986Y-70242520D01*
X139697520Y-70123986D01*
X139836901Y-70030854D01*
X139991773Y-69966704D01*
X140156185Y-69934001D01*
X140323817Y-69934001D01*
X140488229Y-69966704D01*
G37*
G36*
X123223228Y-69966704D02*
G01*
X123378100Y-70030854D01*
X123517481Y-70123986D01*
X123636015Y-70242520D01*
X123729147Y-70381901D01*
X123793297Y-70536773D01*
X123826000Y-70701185D01*
X123826000Y-70868817D01*
X123793297Y-71033229D01*
X123729147Y-71188101D01*
X123636015Y-71327482D01*
X123517481Y-71446016D01*
X123378100Y-71539148D01*
X123223228Y-71603298D01*
X123058816Y-71636001D01*
X122891184Y-71636001D01*
X122726772Y-71603298D01*
X122571900Y-71539148D01*
X122432519Y-71446016D01*
X122313985Y-71327482D01*
X122220853Y-71188101D01*
X122156703Y-71033229D01*
X122124000Y-70868817D01*
X122124000Y-70701185D01*
X122156703Y-70536773D01*
X122220853Y-70381901D01*
X122313985Y-70242520D01*
X122432519Y-70123986D01*
X122571900Y-70030854D01*
X122726772Y-69966704D01*
X122891184Y-69934001D01*
X123058816Y-69934001D01*
X123223228Y-69966704D01*
G37*
G36*
X125248229Y-69966704D02*
G01*
X125403101Y-70030854D01*
X125542482Y-70123986D01*
X125661016Y-70242520D01*
X125754148Y-70381901D01*
X125818298Y-70536773D01*
X125851001Y-70701185D01*
X125851001Y-70868817D01*
X125818298Y-71033229D01*
X125754148Y-71188101D01*
X125661016Y-71327482D01*
X125542482Y-71446016D01*
X125403101Y-71539148D01*
X125248229Y-71603298D01*
X125083817Y-71636001D01*
X124916185Y-71636001D01*
X124751773Y-71603298D01*
X124596901Y-71539148D01*
X124457520Y-71446016D01*
X124338986Y-71327482D01*
X124245854Y-71188101D01*
X124181704Y-71033229D01*
X124149001Y-70868817D01*
X124149001Y-70701185D01*
X124181704Y-70536773D01*
X124245854Y-70381901D01*
X124338986Y-70242520D01*
X124457520Y-70123986D01*
X124596901Y-70030854D01*
X124751773Y-69966704D01*
X124916185Y-69934001D01*
X125083817Y-69934001D01*
X125248229Y-69966704D01*
G37*
G36*
X138463228Y-69966704D02*
G01*
X138618100Y-70030854D01*
X138757481Y-70123986D01*
X138876015Y-70242520D01*
X138969147Y-70381901D01*
X139033297Y-70536773D01*
X139066000Y-70701185D01*
X139066000Y-70868817D01*
X139033297Y-71033229D01*
X138969147Y-71188101D01*
X138876015Y-71327482D01*
X138757481Y-71446016D01*
X138618100Y-71539148D01*
X138463228Y-71603298D01*
X138298816Y-71636001D01*
X138131184Y-71636001D01*
X137966772Y-71603298D01*
X137811900Y-71539148D01*
X137672519Y-71446016D01*
X137553985Y-71327482D01*
X137460853Y-71188101D01*
X137396703Y-71033229D01*
X137364000Y-70868817D01*
X137364000Y-70701185D01*
X137396703Y-70536773D01*
X137460853Y-70381901D01*
X137553985Y-70242520D01*
X137672519Y-70123986D01*
X137811900Y-70030854D01*
X137966772Y-69966704D01*
X138131184Y-69934001D01*
X138298816Y-69934001D01*
X138463228Y-69966704D01*
G37*
G36*
X138463228Y-67426704D02*
G01*
X138618100Y-67490854D01*
X138757481Y-67583986D01*
X138876015Y-67702520D01*
X138969147Y-67841901D01*
X139033297Y-67996773D01*
X139066000Y-68161185D01*
X139066000Y-68328817D01*
X139033297Y-68493229D01*
X138969147Y-68648101D01*
X138876015Y-68787482D01*
X138757481Y-68906016D01*
X138618100Y-68999148D01*
X138463228Y-69063298D01*
X138298816Y-69096001D01*
X138131184Y-69096001D01*
X137966772Y-69063298D01*
X137811900Y-68999148D01*
X137672519Y-68906016D01*
X137553985Y-68787482D01*
X137460853Y-68648101D01*
X137396703Y-68493229D01*
X137364000Y-68328817D01*
X137364000Y-68161185D01*
X137396703Y-67996773D01*
X137460853Y-67841901D01*
X137553985Y-67702520D01*
X137672519Y-67583986D01*
X137811900Y-67490854D01*
X137966772Y-67426704D01*
X138131184Y-67394001D01*
X138298816Y-67394001D01*
X138463228Y-67426704D01*
G37*
G36*
X140488229Y-67426704D02*
G01*
X140643101Y-67490854D01*
X140782482Y-67583986D01*
X140901016Y-67702520D01*
X140994148Y-67841901D01*
X141058298Y-67996773D01*
X141091001Y-68161185D01*
X141091001Y-68328817D01*
X141058298Y-68493229D01*
X140994148Y-68648101D01*
X140901016Y-68787482D01*
X140782482Y-68906016D01*
X140643101Y-68999148D01*
X140488229Y-69063298D01*
X140323817Y-69096001D01*
X140156185Y-69096001D01*
X139991773Y-69063298D01*
X139836901Y-68999148D01*
X139697520Y-68906016D01*
X139578986Y-68787482D01*
X139485854Y-68648101D01*
X139421704Y-68493229D01*
X139389001Y-68328817D01*
X139389001Y-68161185D01*
X139421704Y-67996773D01*
X139485854Y-67841901D01*
X139578986Y-67702520D01*
X139697520Y-67583986D01*
X139836901Y-67490854D01*
X139991773Y-67426704D01*
X140156185Y-67394001D01*
X140323817Y-67394001D01*
X140488229Y-67426704D01*
G37*
G36*
X125248229Y-67426704D02*
G01*
X125403101Y-67490854D01*
X125542482Y-67583986D01*
X125661016Y-67702520D01*
X125754148Y-67841901D01*
X125818298Y-67996773D01*
X125851001Y-68161185D01*
X125851001Y-68328817D01*
X125818298Y-68493229D01*
X125754148Y-68648101D01*
X125661016Y-68787482D01*
X125542482Y-68906016D01*
X125403101Y-68999148D01*
X125248229Y-69063298D01*
X125083817Y-69096001D01*
X124916185Y-69096001D01*
X124751773Y-69063298D01*
X124596901Y-68999148D01*
X124457520Y-68906016D01*
X124338986Y-68787482D01*
X124245854Y-68648101D01*
X124181704Y-68493229D01*
X124149001Y-68328817D01*
X124149001Y-68161185D01*
X124181704Y-67996773D01*
X124245854Y-67841901D01*
X124338986Y-67702520D01*
X124457520Y-67583986D01*
X124596901Y-67490854D01*
X124751773Y-67426704D01*
X124916185Y-67394001D01*
X125083817Y-67394001D01*
X125248229Y-67426704D01*
G37*
G36*
X123223228Y-67426704D02*
G01*
X123378100Y-67490854D01*
X123517481Y-67583986D01*
X123636015Y-67702520D01*
X123729147Y-67841901D01*
X123793297Y-67996773D01*
X123826000Y-68161185D01*
X123826000Y-68328817D01*
X123793297Y-68493229D01*
X123729147Y-68648101D01*
X123636015Y-68787482D01*
X123517481Y-68906016D01*
X123378100Y-68999148D01*
X123223228Y-69063298D01*
X123058816Y-69096001D01*
X122891184Y-69096001D01*
X122726772Y-69063298D01*
X122571900Y-68999148D01*
X122432519Y-68906016D01*
X122313985Y-68787482D01*
X122220853Y-68648101D01*
X122156703Y-68493229D01*
X122124000Y-68328817D01*
X122124000Y-68161185D01*
X122156703Y-67996773D01*
X122220853Y-67841901D01*
X122313985Y-67702520D01*
X122432519Y-67583986D01*
X122571900Y-67490854D01*
X122726772Y-67426704D01*
X122891184Y-67394001D01*
X123058816Y-67394001D01*
X123223228Y-67426704D01*
G37*
G36*
X125248229Y-64886704D02*
G01*
X125403101Y-64950854D01*
X125542482Y-65043986D01*
X125661016Y-65162520D01*
X125754148Y-65301901D01*
X125818298Y-65456773D01*
X125851001Y-65621185D01*
X125851001Y-65788817D01*
X125818298Y-65953229D01*
X125754148Y-66108101D01*
X125661016Y-66247482D01*
X125542482Y-66366016D01*
X125403101Y-66459148D01*
X125248229Y-66523298D01*
X125083817Y-66556001D01*
X124916185Y-66556001D01*
X124751773Y-66523298D01*
X124596901Y-66459148D01*
X124457520Y-66366016D01*
X124338986Y-66247482D01*
X124245854Y-66108101D01*
X124181704Y-65953229D01*
X124149001Y-65788817D01*
X124149001Y-65621185D01*
X124181704Y-65456773D01*
X124245854Y-65301901D01*
X124338986Y-65162520D01*
X124457520Y-65043986D01*
X124596901Y-64950854D01*
X124751773Y-64886704D01*
X124916185Y-64854001D01*
X125083817Y-64854001D01*
X125248229Y-64886704D01*
G37*
G36*
X138463228Y-64886704D02*
G01*
X138618100Y-64950854D01*
X138757481Y-65043986D01*
X138876015Y-65162520D01*
X138969147Y-65301901D01*
X139033297Y-65456773D01*
X139066000Y-65621185D01*
X139066000Y-65788817D01*
X139033297Y-65953229D01*
X138969147Y-66108101D01*
X138876015Y-66247482D01*
X138757481Y-66366016D01*
X138618100Y-66459148D01*
X138463228Y-66523298D01*
X138298816Y-66556001D01*
X138131184Y-66556001D01*
X137966772Y-66523298D01*
X137811900Y-66459148D01*
X137672519Y-66366016D01*
X137553985Y-66247482D01*
X137460853Y-66108101D01*
X137396703Y-65953229D01*
X137364000Y-65788817D01*
X137364000Y-65621185D01*
X137396703Y-65456773D01*
X137460853Y-65301901D01*
X137553985Y-65162520D01*
X137672519Y-65043986D01*
X137811900Y-64950854D01*
X137966772Y-64886704D01*
X138131184Y-64854001D01*
X138298816Y-64854001D01*
X138463228Y-64886704D01*
G37*
G36*
X140488229Y-64886704D02*
G01*
X140643101Y-64950854D01*
X140782482Y-65043986D01*
X140901016Y-65162520D01*
X140994148Y-65301901D01*
X141058298Y-65456773D01*
X141091001Y-65621185D01*
X141091001Y-65788817D01*
X141058298Y-65953229D01*
X140994148Y-66108101D01*
X140901016Y-66247482D01*
X140782482Y-66366016D01*
X140643101Y-66459148D01*
X140488229Y-66523298D01*
X140323817Y-66556001D01*
X140156185Y-66556001D01*
X139991773Y-66523298D01*
X139836901Y-66459148D01*
X139697520Y-66366016D01*
X139578986Y-66247482D01*
X139485854Y-66108101D01*
X139421704Y-65953229D01*
X139389001Y-65788817D01*
X139389001Y-65621185D01*
X139421704Y-65456773D01*
X139485854Y-65301901D01*
X139578986Y-65162520D01*
X139697520Y-65043986D01*
X139836901Y-64950854D01*
X139991773Y-64886704D01*
X140156185Y-64854001D01*
X140323817Y-64854001D01*
X140488229Y-64886704D01*
G37*
G36*
X123223228Y-64886704D02*
G01*
X123378100Y-64950854D01*
X123517481Y-65043986D01*
X123636015Y-65162520D01*
X123729147Y-65301901D01*
X123793297Y-65456773D01*
X123826000Y-65621185D01*
X123826000Y-65788817D01*
X123793297Y-65953229D01*
X123729147Y-66108101D01*
X123636015Y-66247482D01*
X123517481Y-66366016D01*
X123378100Y-66459148D01*
X123223228Y-66523298D01*
X123058816Y-66556001D01*
X122891184Y-66556001D01*
X122726772Y-66523298D01*
X122571900Y-66459148D01*
X122432519Y-66366016D01*
X122313985Y-66247482D01*
X122220853Y-66108101D01*
X122156703Y-65953229D01*
X122124000Y-65788817D01*
X122124000Y-65621185D01*
X122156703Y-65456773D01*
X122220853Y-65301901D01*
X122313985Y-65162520D01*
X122432519Y-65043986D01*
X122571900Y-64950854D01*
X122726772Y-64886704D01*
X122891184Y-64854001D01*
X123058816Y-64854001D01*
X123223228Y-64886704D01*
G37*
G36*
X123223228Y-62346704D02*
G01*
X123378100Y-62410854D01*
X123517481Y-62503986D01*
X123636015Y-62622520D01*
X123729147Y-62761901D01*
X123793297Y-62916773D01*
X123826000Y-63081185D01*
X123826000Y-63248817D01*
X123793297Y-63413229D01*
X123729147Y-63568101D01*
X123636015Y-63707482D01*
X123517481Y-63826016D01*
X123378100Y-63919148D01*
X123223228Y-63983298D01*
X123058816Y-64016001D01*
X122891184Y-64016001D01*
X122726772Y-63983298D01*
X122571900Y-63919148D01*
X122432519Y-63826016D01*
X122313985Y-63707482D01*
X122220853Y-63568101D01*
X122156703Y-63413229D01*
X122124000Y-63248817D01*
X122124000Y-63081185D01*
X122156703Y-62916773D01*
X122220853Y-62761901D01*
X122313985Y-62622520D01*
X122432519Y-62503986D01*
X122571900Y-62410854D01*
X122726772Y-62346704D01*
X122891184Y-62314001D01*
X123058816Y-62314001D01*
X123223228Y-62346704D01*
G37*
G36*
X140488229Y-62346704D02*
G01*
X140643101Y-62410854D01*
X140782482Y-62503986D01*
X140901016Y-62622520D01*
X140994148Y-62761901D01*
X141058298Y-62916773D01*
X141091001Y-63081185D01*
X141091001Y-63248817D01*
X141058298Y-63413229D01*
X140994148Y-63568101D01*
X140901016Y-63707482D01*
X140782482Y-63826016D01*
X140643101Y-63919148D01*
X140488229Y-63983298D01*
X140323817Y-64016001D01*
X140156185Y-64016001D01*
X139991773Y-63983298D01*
X139836901Y-63919148D01*
X139697520Y-63826016D01*
X139578986Y-63707482D01*
X139485854Y-63568101D01*
X139421704Y-63413229D01*
X139389001Y-63248817D01*
X139389001Y-63081185D01*
X139421704Y-62916773D01*
X139485854Y-62761901D01*
X139578986Y-62622520D01*
X139697520Y-62503986D01*
X139836901Y-62410854D01*
X139991773Y-62346704D01*
X140156185Y-62314001D01*
X140323817Y-62314001D01*
X140488229Y-62346704D01*
G37*
G36*
X138463228Y-62346704D02*
G01*
X138618100Y-62410854D01*
X138757481Y-62503986D01*
X138876015Y-62622520D01*
X138969147Y-62761901D01*
X139033297Y-62916773D01*
X139066000Y-63081185D01*
X139066000Y-63248817D01*
X139033297Y-63413229D01*
X138969147Y-63568101D01*
X138876015Y-63707482D01*
X138757481Y-63826016D01*
X138618100Y-63919148D01*
X138463228Y-63983298D01*
X138298816Y-64016001D01*
X138131184Y-64016001D01*
X137966772Y-63983298D01*
X137811900Y-63919148D01*
X137672519Y-63826016D01*
X137553985Y-63707482D01*
X137460853Y-63568101D01*
X137396703Y-63413229D01*
X137364000Y-63248817D01*
X137364000Y-63081185D01*
X137396703Y-62916773D01*
X137460853Y-62761901D01*
X137553985Y-62622520D01*
X137672519Y-62503986D01*
X137811900Y-62410854D01*
X137966772Y-62346704D01*
X138131184Y-62314001D01*
X138298816Y-62314001D01*
X138463228Y-62346704D01*
G37*
G36*
X125248229Y-62346704D02*
G01*
X125403101Y-62410854D01*
X125542482Y-62503986D01*
X125661016Y-62622520D01*
X125754148Y-62761901D01*
X125818298Y-62916773D01*
X125851001Y-63081185D01*
X125851001Y-63248817D01*
X125818298Y-63413229D01*
X125754148Y-63568101D01*
X125661016Y-63707482D01*
X125542482Y-63826016D01*
X125403101Y-63919148D01*
X125248229Y-63983298D01*
X125083817Y-64016001D01*
X124916185Y-64016001D01*
X124751773Y-63983298D01*
X124596901Y-63919148D01*
X124457520Y-63826016D01*
X124338986Y-63707482D01*
X124245854Y-63568101D01*
X124181704Y-63413229D01*
X124149001Y-63248817D01*
X124149001Y-63081185D01*
X124181704Y-62916773D01*
X124245854Y-62761901D01*
X124338986Y-62622520D01*
X124457520Y-62503986D01*
X124596901Y-62410854D01*
X124751773Y-62346704D01*
X124916185Y-62314001D01*
X125083817Y-62314001D01*
X125248229Y-62346704D01*
G37*
G36*
X125851001Y-61476001D02*
G01*
X124149001Y-61476001D01*
X124149001Y-59774001D01*
X125851001Y-59774001D01*
X125851001Y-61476001D01*
G37*
G36*
X123826000Y-61476001D02*
G01*
X122124000Y-61476001D01*
X122124000Y-59774001D01*
X123826000Y-59774001D01*
X123826000Y-61476001D01*
G37*
G36*
X138463228Y-59806704D02*
G01*
X138618100Y-59870854D01*
X138757481Y-59963986D01*
X138876015Y-60082520D01*
X138969147Y-60221901D01*
X139033297Y-60376773D01*
X139066000Y-60541185D01*
X139066000Y-60708817D01*
X139033297Y-60873229D01*
X138969147Y-61028101D01*
X138876015Y-61167482D01*
X138757481Y-61286016D01*
X138618100Y-61379148D01*
X138463228Y-61443298D01*
X138298816Y-61476001D01*
X138131184Y-61476001D01*
X137966772Y-61443298D01*
X137811900Y-61379148D01*
X137672519Y-61286016D01*
X137553985Y-61167482D01*
X137460853Y-61028101D01*
X137396703Y-60873229D01*
X137364000Y-60708817D01*
X137364000Y-60541185D01*
X137396703Y-60376773D01*
X137460853Y-60221901D01*
X137553985Y-60082520D01*
X137672519Y-59963986D01*
X137811900Y-59870854D01*
X137966772Y-59806704D01*
X138131184Y-59774001D01*
X138298816Y-59774001D01*
X138463228Y-59806704D01*
G37*
G36*
X140488229Y-59806704D02*
G01*
X140643101Y-59870854D01*
X140782482Y-59963986D01*
X140901016Y-60082520D01*
X140994148Y-60221901D01*
X141058298Y-60376773D01*
X141091001Y-60541185D01*
X141091001Y-60708817D01*
X141058298Y-60873229D01*
X140994148Y-61028101D01*
X140901016Y-61167482D01*
X140782482Y-61286016D01*
X140643101Y-61379148D01*
X140488229Y-61443298D01*
X140323817Y-61476001D01*
X140156185Y-61476001D01*
X139991773Y-61443298D01*
X139836901Y-61379148D01*
X139697520Y-61286016D01*
X139578986Y-61167482D01*
X139485854Y-61028101D01*
X139421704Y-60873229D01*
X139389001Y-60708817D01*
X139389001Y-60541185D01*
X139421704Y-60376773D01*
X139485854Y-60221901D01*
X139578986Y-60082520D01*
X139697520Y-59963986D01*
X139836901Y-59870854D01*
X139991773Y-59806704D01*
X140156185Y-59774001D01*
X140323817Y-59774001D01*
X140488229Y-59806704D01*
G37*
M02*
