G04 #@! TF.GenerationSoftware,KiCad,Pcbnew,5.1.5+dfsg1-2build2*
G04 #@! TF.CreationDate,2022-03-13T21:16:03-04:00*
G04 #@! TF.ProjectId,RGB_to_hdmi_adapter_coco3,5247425f-746f-45f6-9864-6d695f616461,rev?*
G04 #@! TF.SameCoordinates,Original*
G04 #@! TF.FileFunction,Copper,L2,Bot*
G04 #@! TF.FilePolarity,Positive*
%FSLAX46Y46*%
G04 Gerber Fmt 4.6, Leading zero omitted, Abs format (unit mm)*
G04 Created by KiCad (PCBNEW 5.1.5+dfsg1-2build2) date 2022-03-13 21:16:03*
%MOMM*%
%LPD*%
G04 APERTURE LIST*
%ADD10O,1.600000X1.600000*%
%ADD11R,1.600000X1.600000*%
%ADD12C,0.100000*%
%ADD13C,1.700000*%
%ADD14R,1.700000X1.700000*%
%ADD15O,1.700000X1.700000*%
%ADD16C,0.800000*%
%ADD17C,0.250000*%
%ADD18C,0.254000*%
G04 APERTURE END LIST*
D10*
X123350000Y-137700000D03*
D11*
X123350000Y-145320000D03*
X125950000Y-145320000D03*
D10*
X125950000Y-137700000D03*
G04 #@! TA.AperFunction,ComponentPad*
D12*
G36*
X141524504Y-121576204D02*
G01*
X141548773Y-121579804D01*
X141572571Y-121585765D01*
X141595671Y-121594030D01*
X141617849Y-121604520D01*
X141638893Y-121617133D01*
X141658598Y-121631747D01*
X141676777Y-121648223D01*
X141693253Y-121666402D01*
X141707867Y-121686107D01*
X141720480Y-121707151D01*
X141730970Y-121729329D01*
X141739235Y-121752429D01*
X141745196Y-121776227D01*
X141748796Y-121800496D01*
X141750000Y-121825000D01*
X141750000Y-123025000D01*
X141748796Y-123049504D01*
X141745196Y-123073773D01*
X141739235Y-123097571D01*
X141730970Y-123120671D01*
X141720480Y-123142849D01*
X141707867Y-123163893D01*
X141693253Y-123183598D01*
X141676777Y-123201777D01*
X141658598Y-123218253D01*
X141638893Y-123232867D01*
X141617849Y-123245480D01*
X141595671Y-123255970D01*
X141572571Y-123264235D01*
X141548773Y-123270196D01*
X141524504Y-123273796D01*
X141500000Y-123275000D01*
X140300000Y-123275000D01*
X140275496Y-123273796D01*
X140251227Y-123270196D01*
X140227429Y-123264235D01*
X140204329Y-123255970D01*
X140182151Y-123245480D01*
X140161107Y-123232867D01*
X140141402Y-123218253D01*
X140123223Y-123201777D01*
X140106747Y-123183598D01*
X140092133Y-123163893D01*
X140079520Y-123142849D01*
X140069030Y-123120671D01*
X140060765Y-123097571D01*
X140054804Y-123073773D01*
X140051204Y-123049504D01*
X140050000Y-123025000D01*
X140050000Y-121825000D01*
X140051204Y-121800496D01*
X140054804Y-121776227D01*
X140060765Y-121752429D01*
X140069030Y-121729329D01*
X140079520Y-121707151D01*
X140092133Y-121686107D01*
X140106747Y-121666402D01*
X140123223Y-121648223D01*
X140141402Y-121631747D01*
X140161107Y-121617133D01*
X140182151Y-121604520D01*
X140204329Y-121594030D01*
X140227429Y-121585765D01*
X140251227Y-121579804D01*
X140275496Y-121576204D01*
X140300000Y-121575000D01*
X141500000Y-121575000D01*
X141524504Y-121576204D01*
G37*
G04 #@! TD.AperFunction*
D13*
X138360000Y-122425000D03*
X135820000Y-122425000D03*
X133280000Y-122425000D03*
X130740000Y-122425000D03*
X140900000Y-124965000D03*
X138360000Y-124965000D03*
X135820000Y-124965000D03*
X133280000Y-124965000D03*
X130740000Y-124965000D03*
D14*
X140870000Y-130750000D03*
D15*
X140870000Y-133290000D03*
X138330000Y-130750000D03*
X138330000Y-133290000D03*
X135790000Y-130750000D03*
X135790000Y-133290000D03*
X133250000Y-130750000D03*
X133250000Y-133290000D03*
X130710000Y-130750000D03*
X130710000Y-133290000D03*
G04 #@! TA.AperFunction,ComponentPad*
D12*
G36*
X138989504Y-139301204D02*
G01*
X139013773Y-139304804D01*
X139037571Y-139310765D01*
X139060671Y-139319030D01*
X139082849Y-139329520D01*
X139103893Y-139342133D01*
X139123598Y-139356747D01*
X139141777Y-139373223D01*
X139158253Y-139391402D01*
X139172867Y-139411107D01*
X139185480Y-139432151D01*
X139195970Y-139454329D01*
X139204235Y-139477429D01*
X139210196Y-139501227D01*
X139213796Y-139525496D01*
X139215000Y-139550000D01*
X139215000Y-140750000D01*
X139213796Y-140774504D01*
X139210196Y-140798773D01*
X139204235Y-140822571D01*
X139195970Y-140845671D01*
X139185480Y-140867849D01*
X139172867Y-140888893D01*
X139158253Y-140908598D01*
X139141777Y-140926777D01*
X139123598Y-140943253D01*
X139103893Y-140957867D01*
X139082849Y-140970480D01*
X139060671Y-140980970D01*
X139037571Y-140989235D01*
X139013773Y-140995196D01*
X138989504Y-140998796D01*
X138965000Y-141000000D01*
X137765000Y-141000000D01*
X137740496Y-140998796D01*
X137716227Y-140995196D01*
X137692429Y-140989235D01*
X137669329Y-140980970D01*
X137647151Y-140970480D01*
X137626107Y-140957867D01*
X137606402Y-140943253D01*
X137588223Y-140926777D01*
X137571747Y-140908598D01*
X137557133Y-140888893D01*
X137544520Y-140867849D01*
X137534030Y-140845671D01*
X137525765Y-140822571D01*
X137519804Y-140798773D01*
X137516204Y-140774504D01*
X137515000Y-140750000D01*
X137515000Y-139550000D01*
X137516204Y-139525496D01*
X137519804Y-139501227D01*
X137525765Y-139477429D01*
X137534030Y-139454329D01*
X137544520Y-139432151D01*
X137557133Y-139411107D01*
X137571747Y-139391402D01*
X137588223Y-139373223D01*
X137606402Y-139356747D01*
X137626107Y-139342133D01*
X137647151Y-139329520D01*
X137669329Y-139319030D01*
X137692429Y-139310765D01*
X137716227Y-139304804D01*
X137740496Y-139301204D01*
X137765000Y-139300000D01*
X138965000Y-139300000D01*
X138989504Y-139301204D01*
G37*
G04 #@! TD.AperFunction*
D13*
X135825000Y-140150000D03*
X133285000Y-140150000D03*
X138365000Y-142690000D03*
X135825000Y-142690000D03*
X133285000Y-142690000D03*
D16*
X129900000Y-140950000D03*
X127075000Y-134300000D03*
D17*
X137480001Y-129900001D02*
X138330000Y-130750000D01*
X137184999Y-129604999D02*
X137480001Y-129900001D01*
X137184999Y-123600001D02*
X137184999Y-129604999D01*
X138360000Y-122425000D02*
X137184999Y-123600001D01*
X134425001Y-138750001D02*
X134975001Y-139300001D01*
X134425001Y-132114999D02*
X134425001Y-138750001D01*
X134975001Y-139300001D02*
X135825000Y-140150000D01*
X135790000Y-130750000D02*
X134425001Y-132114999D01*
X134099999Y-129900001D02*
X133250000Y-130750000D01*
X134644999Y-129355001D02*
X134099999Y-129900001D01*
X134644999Y-123789999D02*
X134644999Y-129355001D01*
X133280000Y-122425000D02*
X134644999Y-123789999D01*
X131559999Y-132440001D02*
X130710000Y-133290000D01*
X131885001Y-132114999D02*
X131559999Y-132440001D01*
X131885001Y-126110001D02*
X131885001Y-132114999D01*
X130740000Y-124965000D02*
X131885001Y-126110001D01*
D18*
G36*
X145940000Y-147565000D02*
G01*
X122735000Y-147565000D01*
X122735000Y-146758072D01*
X124150000Y-146758072D01*
X124274482Y-146745812D01*
X124394180Y-146709502D01*
X124504494Y-146650537D01*
X124601185Y-146571185D01*
X124650000Y-146511704D01*
X124698815Y-146571185D01*
X124795506Y-146650537D01*
X124905820Y-146709502D01*
X125025518Y-146745812D01*
X125150000Y-146758072D01*
X126750000Y-146758072D01*
X126874482Y-146745812D01*
X126994180Y-146709502D01*
X127104494Y-146650537D01*
X127201185Y-146571185D01*
X127280537Y-146474494D01*
X127339502Y-146364180D01*
X127375812Y-146244482D01*
X127388072Y-146120000D01*
X127388072Y-144520000D01*
X127375812Y-144395518D01*
X127339502Y-144275820D01*
X127280537Y-144165506D01*
X127201185Y-144068815D01*
X127104494Y-143989463D01*
X126994180Y-143930498D01*
X126874482Y-143894188D01*
X126750000Y-143881928D01*
X125150000Y-143881928D01*
X125025518Y-143894188D01*
X124905820Y-143930498D01*
X124795506Y-143989463D01*
X124698815Y-144068815D01*
X124650000Y-144128296D01*
X124601185Y-144068815D01*
X124504494Y-143989463D01*
X124394180Y-143930498D01*
X124274482Y-143894188D01*
X124150000Y-143881928D01*
X122735000Y-143881928D01*
X122735000Y-138998491D01*
X122931426Y-139079853D01*
X123208665Y-139135000D01*
X123491335Y-139135000D01*
X123768574Y-139079853D01*
X124029727Y-138971680D01*
X124264759Y-138814637D01*
X124464637Y-138614759D01*
X124621680Y-138379727D01*
X124650000Y-138311356D01*
X124678320Y-138379727D01*
X124835363Y-138614759D01*
X125035241Y-138814637D01*
X125270273Y-138971680D01*
X125531426Y-139079853D01*
X125808665Y-139135000D01*
X126091335Y-139135000D01*
X126368574Y-139079853D01*
X126629727Y-138971680D01*
X126864759Y-138814637D01*
X127064637Y-138614759D01*
X127221680Y-138379727D01*
X127329853Y-138118574D01*
X127385000Y-137841335D01*
X127385000Y-137558665D01*
X127329853Y-137281426D01*
X127221680Y-137020273D01*
X127064637Y-136785241D01*
X126864759Y-136585363D01*
X126629727Y-136428320D01*
X126368574Y-136320147D01*
X126091335Y-136265000D01*
X125808665Y-136265000D01*
X125531426Y-136320147D01*
X125270273Y-136428320D01*
X125035241Y-136585363D01*
X124835363Y-136785241D01*
X124678320Y-137020273D01*
X124650000Y-137088644D01*
X124621680Y-137020273D01*
X124464637Y-136785241D01*
X124264759Y-136585363D01*
X124029727Y-136428320D01*
X123768574Y-136320147D01*
X123491335Y-136265000D01*
X123208665Y-136265000D01*
X122931426Y-136320147D01*
X122735000Y-136401509D01*
X122735000Y-130603740D01*
X129225000Y-130603740D01*
X129225000Y-130896260D01*
X129282068Y-131183158D01*
X129394010Y-131453411D01*
X129556525Y-131696632D01*
X129763368Y-131903475D01*
X129937760Y-132020000D01*
X129763368Y-132136525D01*
X129556525Y-132343368D01*
X129394010Y-132586589D01*
X129282068Y-132856842D01*
X129225000Y-133143740D01*
X129225000Y-133436260D01*
X129282068Y-133723158D01*
X129394010Y-133993411D01*
X129556525Y-134236632D01*
X129763368Y-134443475D01*
X130006589Y-134605990D01*
X130276842Y-134717932D01*
X130563740Y-134775000D01*
X130856260Y-134775000D01*
X131143158Y-134717932D01*
X131413411Y-134605990D01*
X131656632Y-134443475D01*
X131863475Y-134236632D01*
X131980000Y-134062240D01*
X132096525Y-134236632D01*
X132303368Y-134443475D01*
X132546589Y-134605990D01*
X132816842Y-134717932D01*
X133103740Y-134775000D01*
X133396260Y-134775000D01*
X133665001Y-134721544D01*
X133665002Y-138711495D01*
X133431260Y-138665000D01*
X133138740Y-138665000D01*
X132851842Y-138722068D01*
X132581589Y-138834010D01*
X132338368Y-138996525D01*
X132131525Y-139203368D01*
X131969010Y-139446589D01*
X131857068Y-139716842D01*
X131800000Y-140003740D01*
X131800000Y-140296260D01*
X131857068Y-140583158D01*
X131969010Y-140853411D01*
X132131525Y-141096632D01*
X132338368Y-141303475D01*
X132512760Y-141420000D01*
X132338368Y-141536525D01*
X132131525Y-141743368D01*
X131969010Y-141986589D01*
X131857068Y-142256842D01*
X131800000Y-142543740D01*
X131800000Y-142836260D01*
X131857068Y-143123158D01*
X131969010Y-143393411D01*
X132131525Y-143636632D01*
X132338368Y-143843475D01*
X132581589Y-144005990D01*
X132851842Y-144117932D01*
X133138740Y-144175000D01*
X133431260Y-144175000D01*
X133718158Y-144117932D01*
X133988411Y-144005990D01*
X134231632Y-143843475D01*
X134438475Y-143636632D01*
X134555000Y-143462240D01*
X134671525Y-143636632D01*
X134878368Y-143843475D01*
X135121589Y-144005990D01*
X135391842Y-144117932D01*
X135678740Y-144175000D01*
X135971260Y-144175000D01*
X136258158Y-144117932D01*
X136528411Y-144005990D01*
X136771632Y-143843475D01*
X136978475Y-143636632D01*
X137095000Y-143462240D01*
X137211525Y-143636632D01*
X137418368Y-143843475D01*
X137661589Y-144005990D01*
X137931842Y-144117932D01*
X138218740Y-144175000D01*
X138511260Y-144175000D01*
X138798158Y-144117932D01*
X139068411Y-144005990D01*
X139311632Y-143843475D01*
X139518475Y-143636632D01*
X139680990Y-143393411D01*
X139792932Y-143123158D01*
X139850000Y-142836260D01*
X139850000Y-142543740D01*
X139792932Y-142256842D01*
X139680990Y-141986589D01*
X139518475Y-141743368D01*
X139386620Y-141611513D01*
X139459180Y-141589502D01*
X139569494Y-141530537D01*
X139666185Y-141451185D01*
X139745537Y-141354494D01*
X139804502Y-141244180D01*
X139840812Y-141124482D01*
X139853072Y-141000000D01*
X139850000Y-140435750D01*
X139691250Y-140277000D01*
X138492000Y-140277000D01*
X138492000Y-140297000D01*
X138238000Y-140297000D01*
X138238000Y-140277000D01*
X138218000Y-140277000D01*
X138218000Y-140023000D01*
X138238000Y-140023000D01*
X138238000Y-138823750D01*
X138492000Y-138823750D01*
X138492000Y-140023000D01*
X139691250Y-140023000D01*
X139850000Y-139864250D01*
X139853072Y-139300000D01*
X139840812Y-139175518D01*
X139804502Y-139055820D01*
X139745537Y-138945506D01*
X139666185Y-138848815D01*
X139569494Y-138769463D01*
X139459180Y-138710498D01*
X139339482Y-138674188D01*
X139215000Y-138661928D01*
X138650750Y-138665000D01*
X138492000Y-138823750D01*
X138238000Y-138823750D01*
X138079250Y-138665000D01*
X137515000Y-138661928D01*
X137390518Y-138674188D01*
X137270820Y-138710498D01*
X137160506Y-138769463D01*
X137063815Y-138848815D01*
X136984463Y-138945506D01*
X136925498Y-139055820D01*
X136903487Y-139128380D01*
X136771632Y-138996525D01*
X136528411Y-138834010D01*
X136258158Y-138722068D01*
X135971260Y-138665000D01*
X135678740Y-138665000D01*
X135458593Y-138708790D01*
X135185001Y-138435199D01*
X135185001Y-134646753D01*
X135356842Y-134717932D01*
X135643740Y-134775000D01*
X135936260Y-134775000D01*
X136223158Y-134717932D01*
X136493411Y-134605990D01*
X136736632Y-134443475D01*
X136943475Y-134236632D01*
X137060000Y-134062240D01*
X137176525Y-134236632D01*
X137383368Y-134443475D01*
X137626589Y-134605990D01*
X137896842Y-134717932D01*
X138183740Y-134775000D01*
X138476260Y-134775000D01*
X138763158Y-134717932D01*
X139033411Y-134605990D01*
X139276632Y-134443475D01*
X139483475Y-134236632D01*
X139605195Y-134054466D01*
X139674822Y-134171355D01*
X139869731Y-134387588D01*
X140103080Y-134561641D01*
X140365901Y-134686825D01*
X140513110Y-134731476D01*
X140743000Y-134610155D01*
X140743000Y-133417000D01*
X140997000Y-133417000D01*
X140997000Y-134610155D01*
X141226890Y-134731476D01*
X141374099Y-134686825D01*
X141636920Y-134561641D01*
X141870269Y-134387588D01*
X142065178Y-134171355D01*
X142214157Y-133921252D01*
X142311481Y-133646891D01*
X142190814Y-133417000D01*
X140997000Y-133417000D01*
X140743000Y-133417000D01*
X140723000Y-133417000D01*
X140723000Y-133163000D01*
X140743000Y-133163000D01*
X140743000Y-130877000D01*
X140997000Y-130877000D01*
X140997000Y-133163000D01*
X142190814Y-133163000D01*
X142311481Y-132933109D01*
X142214157Y-132658748D01*
X142065178Y-132408645D01*
X141888374Y-132212498D01*
X141964180Y-132189502D01*
X142074494Y-132130537D01*
X142171185Y-132051185D01*
X142250537Y-131954494D01*
X142309502Y-131844180D01*
X142345812Y-131724482D01*
X142358072Y-131600000D01*
X142355000Y-131035750D01*
X142196250Y-130877000D01*
X140997000Y-130877000D01*
X140743000Y-130877000D01*
X140723000Y-130877000D01*
X140723000Y-130623000D01*
X140743000Y-130623000D01*
X140743000Y-129423750D01*
X140997000Y-129423750D01*
X140997000Y-130623000D01*
X142196250Y-130623000D01*
X142355000Y-130464250D01*
X142358072Y-129900000D01*
X142345812Y-129775518D01*
X142309502Y-129655820D01*
X142250537Y-129545506D01*
X142171185Y-129448815D01*
X142074494Y-129369463D01*
X141964180Y-129310498D01*
X141844482Y-129274188D01*
X141720000Y-129261928D01*
X141155750Y-129265000D01*
X140997000Y-129423750D01*
X140743000Y-129423750D01*
X140584250Y-129265000D01*
X140020000Y-129261928D01*
X139895518Y-129274188D01*
X139775820Y-129310498D01*
X139665506Y-129369463D01*
X139568815Y-129448815D01*
X139489463Y-129545506D01*
X139430498Y-129655820D01*
X139408487Y-129728380D01*
X139276632Y-129596525D01*
X139033411Y-129434010D01*
X138763158Y-129322068D01*
X138476260Y-129265000D01*
X138183740Y-129265000D01*
X137963592Y-129308791D01*
X137944999Y-129290198D01*
X137944999Y-126396544D01*
X138213740Y-126450000D01*
X138506260Y-126450000D01*
X138793158Y-126392932D01*
X139063411Y-126280990D01*
X139306632Y-126118475D01*
X139431710Y-125993397D01*
X140051208Y-125993397D01*
X140128843Y-126242472D01*
X140392883Y-126368371D01*
X140676411Y-126440339D01*
X140968531Y-126455611D01*
X141258019Y-126413599D01*
X141533747Y-126315919D01*
X141671157Y-126242472D01*
X141748792Y-125993397D01*
X140900000Y-125144605D01*
X140051208Y-125993397D01*
X139431710Y-125993397D01*
X139513475Y-125911632D01*
X139629311Y-125738271D01*
X139871603Y-125813792D01*
X140720395Y-124965000D01*
X141079605Y-124965000D01*
X141928397Y-125813792D01*
X142177472Y-125736157D01*
X142303371Y-125472117D01*
X142375339Y-125188589D01*
X142390611Y-124896469D01*
X142348599Y-124606981D01*
X142250919Y-124331253D01*
X142177472Y-124193843D01*
X141928397Y-124116208D01*
X141079605Y-124965000D01*
X140720395Y-124965000D01*
X139871603Y-124116208D01*
X139629311Y-124191729D01*
X139513475Y-124018368D01*
X139306632Y-123811525D01*
X139132240Y-123695000D01*
X139306632Y-123578475D01*
X139438487Y-123446620D01*
X139460498Y-123519180D01*
X139519463Y-123629494D01*
X139598815Y-123726185D01*
X139695506Y-123805537D01*
X139805820Y-123864502D01*
X139925518Y-123900812D01*
X140050000Y-123913072D01*
X140058557Y-123913025D01*
X140051208Y-123936603D01*
X140900000Y-124785395D01*
X141748792Y-123936603D01*
X141741443Y-123913025D01*
X141750000Y-123913072D01*
X141874482Y-123900812D01*
X141994180Y-123864502D01*
X142104494Y-123805537D01*
X142201185Y-123726185D01*
X142280537Y-123629494D01*
X142339502Y-123519180D01*
X142375812Y-123399482D01*
X142388072Y-123275000D01*
X142385000Y-122710750D01*
X142226250Y-122552000D01*
X141027000Y-122552000D01*
X141027000Y-122572000D01*
X140773000Y-122572000D01*
X140773000Y-122552000D01*
X140753000Y-122552000D01*
X140753000Y-122298000D01*
X140773000Y-122298000D01*
X140773000Y-121098750D01*
X141027000Y-121098750D01*
X141027000Y-122298000D01*
X142226250Y-122298000D01*
X142385000Y-122139250D01*
X142388072Y-121575000D01*
X142375812Y-121450518D01*
X142339502Y-121330820D01*
X142280537Y-121220506D01*
X142201185Y-121123815D01*
X142104494Y-121044463D01*
X141994180Y-120985498D01*
X141874482Y-120949188D01*
X141750000Y-120936928D01*
X141185750Y-120940000D01*
X141027000Y-121098750D01*
X140773000Y-121098750D01*
X140614250Y-120940000D01*
X140050000Y-120936928D01*
X139925518Y-120949188D01*
X139805820Y-120985498D01*
X139695506Y-121044463D01*
X139598815Y-121123815D01*
X139519463Y-121220506D01*
X139460498Y-121330820D01*
X139438487Y-121403380D01*
X139306632Y-121271525D01*
X139063411Y-121109010D01*
X138793158Y-120997068D01*
X138506260Y-120940000D01*
X138213740Y-120940000D01*
X137926842Y-120997068D01*
X137656589Y-121109010D01*
X137413368Y-121271525D01*
X137206525Y-121478368D01*
X137090000Y-121652760D01*
X136973475Y-121478368D01*
X136766632Y-121271525D01*
X136523411Y-121109010D01*
X136253158Y-120997068D01*
X135966260Y-120940000D01*
X135673740Y-120940000D01*
X135386842Y-120997068D01*
X135116589Y-121109010D01*
X134873368Y-121271525D01*
X134666525Y-121478368D01*
X134550000Y-121652760D01*
X134433475Y-121478368D01*
X134226632Y-121271525D01*
X133983411Y-121109010D01*
X133713158Y-120997068D01*
X133426260Y-120940000D01*
X133133740Y-120940000D01*
X132846842Y-120997068D01*
X132576589Y-121109010D01*
X132333368Y-121271525D01*
X132126525Y-121478368D01*
X132010000Y-121652760D01*
X131893475Y-121478368D01*
X131686632Y-121271525D01*
X131443411Y-121109010D01*
X131173158Y-120997068D01*
X130886260Y-120940000D01*
X130593740Y-120940000D01*
X130306842Y-120997068D01*
X130036589Y-121109010D01*
X129793368Y-121271525D01*
X129586525Y-121478368D01*
X129424010Y-121721589D01*
X129312068Y-121991842D01*
X129255000Y-122278740D01*
X129255000Y-122571260D01*
X129312068Y-122858158D01*
X129424010Y-123128411D01*
X129586525Y-123371632D01*
X129793368Y-123578475D01*
X129967760Y-123695000D01*
X129793368Y-123811525D01*
X129586525Y-124018368D01*
X129424010Y-124261589D01*
X129312068Y-124531842D01*
X129255000Y-124818740D01*
X129255000Y-125111260D01*
X129312068Y-125398158D01*
X129424010Y-125668411D01*
X129586525Y-125911632D01*
X129793368Y-126118475D01*
X130036589Y-126280990D01*
X130306842Y-126392932D01*
X130593740Y-126450000D01*
X130886260Y-126450000D01*
X131106408Y-126406210D01*
X131125001Y-126424803D01*
X131125002Y-129318456D01*
X130856260Y-129265000D01*
X130563740Y-129265000D01*
X130276842Y-129322068D01*
X130006589Y-129434010D01*
X129763368Y-129596525D01*
X129556525Y-129803368D01*
X129394010Y-130046589D01*
X129282068Y-130316842D01*
X129225000Y-130603740D01*
X122735000Y-130603740D01*
X122735000Y-116560000D01*
X145940001Y-116560000D01*
X145940000Y-147565000D01*
G37*
X145940000Y-147565000D02*
X122735000Y-147565000D01*
X122735000Y-146758072D01*
X124150000Y-146758072D01*
X124274482Y-146745812D01*
X124394180Y-146709502D01*
X124504494Y-146650537D01*
X124601185Y-146571185D01*
X124650000Y-146511704D01*
X124698815Y-146571185D01*
X124795506Y-146650537D01*
X124905820Y-146709502D01*
X125025518Y-146745812D01*
X125150000Y-146758072D01*
X126750000Y-146758072D01*
X126874482Y-146745812D01*
X126994180Y-146709502D01*
X127104494Y-146650537D01*
X127201185Y-146571185D01*
X127280537Y-146474494D01*
X127339502Y-146364180D01*
X127375812Y-146244482D01*
X127388072Y-146120000D01*
X127388072Y-144520000D01*
X127375812Y-144395518D01*
X127339502Y-144275820D01*
X127280537Y-144165506D01*
X127201185Y-144068815D01*
X127104494Y-143989463D01*
X126994180Y-143930498D01*
X126874482Y-143894188D01*
X126750000Y-143881928D01*
X125150000Y-143881928D01*
X125025518Y-143894188D01*
X124905820Y-143930498D01*
X124795506Y-143989463D01*
X124698815Y-144068815D01*
X124650000Y-144128296D01*
X124601185Y-144068815D01*
X124504494Y-143989463D01*
X124394180Y-143930498D01*
X124274482Y-143894188D01*
X124150000Y-143881928D01*
X122735000Y-143881928D01*
X122735000Y-138998491D01*
X122931426Y-139079853D01*
X123208665Y-139135000D01*
X123491335Y-139135000D01*
X123768574Y-139079853D01*
X124029727Y-138971680D01*
X124264759Y-138814637D01*
X124464637Y-138614759D01*
X124621680Y-138379727D01*
X124650000Y-138311356D01*
X124678320Y-138379727D01*
X124835363Y-138614759D01*
X125035241Y-138814637D01*
X125270273Y-138971680D01*
X125531426Y-139079853D01*
X125808665Y-139135000D01*
X126091335Y-139135000D01*
X126368574Y-139079853D01*
X126629727Y-138971680D01*
X126864759Y-138814637D01*
X127064637Y-138614759D01*
X127221680Y-138379727D01*
X127329853Y-138118574D01*
X127385000Y-137841335D01*
X127385000Y-137558665D01*
X127329853Y-137281426D01*
X127221680Y-137020273D01*
X127064637Y-136785241D01*
X126864759Y-136585363D01*
X126629727Y-136428320D01*
X126368574Y-136320147D01*
X126091335Y-136265000D01*
X125808665Y-136265000D01*
X125531426Y-136320147D01*
X125270273Y-136428320D01*
X125035241Y-136585363D01*
X124835363Y-136785241D01*
X124678320Y-137020273D01*
X124650000Y-137088644D01*
X124621680Y-137020273D01*
X124464637Y-136785241D01*
X124264759Y-136585363D01*
X124029727Y-136428320D01*
X123768574Y-136320147D01*
X123491335Y-136265000D01*
X123208665Y-136265000D01*
X122931426Y-136320147D01*
X122735000Y-136401509D01*
X122735000Y-130603740D01*
X129225000Y-130603740D01*
X129225000Y-130896260D01*
X129282068Y-131183158D01*
X129394010Y-131453411D01*
X129556525Y-131696632D01*
X129763368Y-131903475D01*
X129937760Y-132020000D01*
X129763368Y-132136525D01*
X129556525Y-132343368D01*
X129394010Y-132586589D01*
X129282068Y-132856842D01*
X129225000Y-133143740D01*
X129225000Y-133436260D01*
X129282068Y-133723158D01*
X129394010Y-133993411D01*
X129556525Y-134236632D01*
X129763368Y-134443475D01*
X130006589Y-134605990D01*
X130276842Y-134717932D01*
X130563740Y-134775000D01*
X130856260Y-134775000D01*
X131143158Y-134717932D01*
X131413411Y-134605990D01*
X131656632Y-134443475D01*
X131863475Y-134236632D01*
X131980000Y-134062240D01*
X132096525Y-134236632D01*
X132303368Y-134443475D01*
X132546589Y-134605990D01*
X132816842Y-134717932D01*
X133103740Y-134775000D01*
X133396260Y-134775000D01*
X133665001Y-134721544D01*
X133665002Y-138711495D01*
X133431260Y-138665000D01*
X133138740Y-138665000D01*
X132851842Y-138722068D01*
X132581589Y-138834010D01*
X132338368Y-138996525D01*
X132131525Y-139203368D01*
X131969010Y-139446589D01*
X131857068Y-139716842D01*
X131800000Y-140003740D01*
X131800000Y-140296260D01*
X131857068Y-140583158D01*
X131969010Y-140853411D01*
X132131525Y-141096632D01*
X132338368Y-141303475D01*
X132512760Y-141420000D01*
X132338368Y-141536525D01*
X132131525Y-141743368D01*
X131969010Y-141986589D01*
X131857068Y-142256842D01*
X131800000Y-142543740D01*
X131800000Y-142836260D01*
X131857068Y-143123158D01*
X131969010Y-143393411D01*
X132131525Y-143636632D01*
X132338368Y-143843475D01*
X132581589Y-144005990D01*
X132851842Y-144117932D01*
X133138740Y-144175000D01*
X133431260Y-144175000D01*
X133718158Y-144117932D01*
X133988411Y-144005990D01*
X134231632Y-143843475D01*
X134438475Y-143636632D01*
X134555000Y-143462240D01*
X134671525Y-143636632D01*
X134878368Y-143843475D01*
X135121589Y-144005990D01*
X135391842Y-144117932D01*
X135678740Y-144175000D01*
X135971260Y-144175000D01*
X136258158Y-144117932D01*
X136528411Y-144005990D01*
X136771632Y-143843475D01*
X136978475Y-143636632D01*
X137095000Y-143462240D01*
X137211525Y-143636632D01*
X137418368Y-143843475D01*
X137661589Y-144005990D01*
X137931842Y-144117932D01*
X138218740Y-144175000D01*
X138511260Y-144175000D01*
X138798158Y-144117932D01*
X139068411Y-144005990D01*
X139311632Y-143843475D01*
X139518475Y-143636632D01*
X139680990Y-143393411D01*
X139792932Y-143123158D01*
X139850000Y-142836260D01*
X139850000Y-142543740D01*
X139792932Y-142256842D01*
X139680990Y-141986589D01*
X139518475Y-141743368D01*
X139386620Y-141611513D01*
X139459180Y-141589502D01*
X139569494Y-141530537D01*
X139666185Y-141451185D01*
X139745537Y-141354494D01*
X139804502Y-141244180D01*
X139840812Y-141124482D01*
X139853072Y-141000000D01*
X139850000Y-140435750D01*
X139691250Y-140277000D01*
X138492000Y-140277000D01*
X138492000Y-140297000D01*
X138238000Y-140297000D01*
X138238000Y-140277000D01*
X138218000Y-140277000D01*
X138218000Y-140023000D01*
X138238000Y-140023000D01*
X138238000Y-138823750D01*
X138492000Y-138823750D01*
X138492000Y-140023000D01*
X139691250Y-140023000D01*
X139850000Y-139864250D01*
X139853072Y-139300000D01*
X139840812Y-139175518D01*
X139804502Y-139055820D01*
X139745537Y-138945506D01*
X139666185Y-138848815D01*
X139569494Y-138769463D01*
X139459180Y-138710498D01*
X139339482Y-138674188D01*
X139215000Y-138661928D01*
X138650750Y-138665000D01*
X138492000Y-138823750D01*
X138238000Y-138823750D01*
X138079250Y-138665000D01*
X137515000Y-138661928D01*
X137390518Y-138674188D01*
X137270820Y-138710498D01*
X137160506Y-138769463D01*
X137063815Y-138848815D01*
X136984463Y-138945506D01*
X136925498Y-139055820D01*
X136903487Y-139128380D01*
X136771632Y-138996525D01*
X136528411Y-138834010D01*
X136258158Y-138722068D01*
X135971260Y-138665000D01*
X135678740Y-138665000D01*
X135458593Y-138708790D01*
X135185001Y-138435199D01*
X135185001Y-134646753D01*
X135356842Y-134717932D01*
X135643740Y-134775000D01*
X135936260Y-134775000D01*
X136223158Y-134717932D01*
X136493411Y-134605990D01*
X136736632Y-134443475D01*
X136943475Y-134236632D01*
X137060000Y-134062240D01*
X137176525Y-134236632D01*
X137383368Y-134443475D01*
X137626589Y-134605990D01*
X137896842Y-134717932D01*
X138183740Y-134775000D01*
X138476260Y-134775000D01*
X138763158Y-134717932D01*
X139033411Y-134605990D01*
X139276632Y-134443475D01*
X139483475Y-134236632D01*
X139605195Y-134054466D01*
X139674822Y-134171355D01*
X139869731Y-134387588D01*
X140103080Y-134561641D01*
X140365901Y-134686825D01*
X140513110Y-134731476D01*
X140743000Y-134610155D01*
X140743000Y-133417000D01*
X140997000Y-133417000D01*
X140997000Y-134610155D01*
X141226890Y-134731476D01*
X141374099Y-134686825D01*
X141636920Y-134561641D01*
X141870269Y-134387588D01*
X142065178Y-134171355D01*
X142214157Y-133921252D01*
X142311481Y-133646891D01*
X142190814Y-133417000D01*
X140997000Y-133417000D01*
X140743000Y-133417000D01*
X140723000Y-133417000D01*
X140723000Y-133163000D01*
X140743000Y-133163000D01*
X140743000Y-130877000D01*
X140997000Y-130877000D01*
X140997000Y-133163000D01*
X142190814Y-133163000D01*
X142311481Y-132933109D01*
X142214157Y-132658748D01*
X142065178Y-132408645D01*
X141888374Y-132212498D01*
X141964180Y-132189502D01*
X142074494Y-132130537D01*
X142171185Y-132051185D01*
X142250537Y-131954494D01*
X142309502Y-131844180D01*
X142345812Y-131724482D01*
X142358072Y-131600000D01*
X142355000Y-131035750D01*
X142196250Y-130877000D01*
X140997000Y-130877000D01*
X140743000Y-130877000D01*
X140723000Y-130877000D01*
X140723000Y-130623000D01*
X140743000Y-130623000D01*
X140743000Y-129423750D01*
X140997000Y-129423750D01*
X140997000Y-130623000D01*
X142196250Y-130623000D01*
X142355000Y-130464250D01*
X142358072Y-129900000D01*
X142345812Y-129775518D01*
X142309502Y-129655820D01*
X142250537Y-129545506D01*
X142171185Y-129448815D01*
X142074494Y-129369463D01*
X141964180Y-129310498D01*
X141844482Y-129274188D01*
X141720000Y-129261928D01*
X141155750Y-129265000D01*
X140997000Y-129423750D01*
X140743000Y-129423750D01*
X140584250Y-129265000D01*
X140020000Y-129261928D01*
X139895518Y-129274188D01*
X139775820Y-129310498D01*
X139665506Y-129369463D01*
X139568815Y-129448815D01*
X139489463Y-129545506D01*
X139430498Y-129655820D01*
X139408487Y-129728380D01*
X139276632Y-129596525D01*
X139033411Y-129434010D01*
X138763158Y-129322068D01*
X138476260Y-129265000D01*
X138183740Y-129265000D01*
X137963592Y-129308791D01*
X137944999Y-129290198D01*
X137944999Y-126396544D01*
X138213740Y-126450000D01*
X138506260Y-126450000D01*
X138793158Y-126392932D01*
X139063411Y-126280990D01*
X139306632Y-126118475D01*
X139431710Y-125993397D01*
X140051208Y-125993397D01*
X140128843Y-126242472D01*
X140392883Y-126368371D01*
X140676411Y-126440339D01*
X140968531Y-126455611D01*
X141258019Y-126413599D01*
X141533747Y-126315919D01*
X141671157Y-126242472D01*
X141748792Y-125993397D01*
X140900000Y-125144605D01*
X140051208Y-125993397D01*
X139431710Y-125993397D01*
X139513475Y-125911632D01*
X139629311Y-125738271D01*
X139871603Y-125813792D01*
X140720395Y-124965000D01*
X141079605Y-124965000D01*
X141928397Y-125813792D01*
X142177472Y-125736157D01*
X142303371Y-125472117D01*
X142375339Y-125188589D01*
X142390611Y-124896469D01*
X142348599Y-124606981D01*
X142250919Y-124331253D01*
X142177472Y-124193843D01*
X141928397Y-124116208D01*
X141079605Y-124965000D01*
X140720395Y-124965000D01*
X139871603Y-124116208D01*
X139629311Y-124191729D01*
X139513475Y-124018368D01*
X139306632Y-123811525D01*
X139132240Y-123695000D01*
X139306632Y-123578475D01*
X139438487Y-123446620D01*
X139460498Y-123519180D01*
X139519463Y-123629494D01*
X139598815Y-123726185D01*
X139695506Y-123805537D01*
X139805820Y-123864502D01*
X139925518Y-123900812D01*
X140050000Y-123913072D01*
X140058557Y-123913025D01*
X140051208Y-123936603D01*
X140900000Y-124785395D01*
X141748792Y-123936603D01*
X141741443Y-123913025D01*
X141750000Y-123913072D01*
X141874482Y-123900812D01*
X141994180Y-123864502D01*
X142104494Y-123805537D01*
X142201185Y-123726185D01*
X142280537Y-123629494D01*
X142339502Y-123519180D01*
X142375812Y-123399482D01*
X142388072Y-123275000D01*
X142385000Y-122710750D01*
X142226250Y-122552000D01*
X141027000Y-122552000D01*
X141027000Y-122572000D01*
X140773000Y-122572000D01*
X140773000Y-122552000D01*
X140753000Y-122552000D01*
X140753000Y-122298000D01*
X140773000Y-122298000D01*
X140773000Y-121098750D01*
X141027000Y-121098750D01*
X141027000Y-122298000D01*
X142226250Y-122298000D01*
X142385000Y-122139250D01*
X142388072Y-121575000D01*
X142375812Y-121450518D01*
X142339502Y-121330820D01*
X142280537Y-121220506D01*
X142201185Y-121123815D01*
X142104494Y-121044463D01*
X141994180Y-120985498D01*
X141874482Y-120949188D01*
X141750000Y-120936928D01*
X141185750Y-120940000D01*
X141027000Y-121098750D01*
X140773000Y-121098750D01*
X140614250Y-120940000D01*
X140050000Y-120936928D01*
X139925518Y-120949188D01*
X139805820Y-120985498D01*
X139695506Y-121044463D01*
X139598815Y-121123815D01*
X139519463Y-121220506D01*
X139460498Y-121330820D01*
X139438487Y-121403380D01*
X139306632Y-121271525D01*
X139063411Y-121109010D01*
X138793158Y-120997068D01*
X138506260Y-120940000D01*
X138213740Y-120940000D01*
X137926842Y-120997068D01*
X137656589Y-121109010D01*
X137413368Y-121271525D01*
X137206525Y-121478368D01*
X137090000Y-121652760D01*
X136973475Y-121478368D01*
X136766632Y-121271525D01*
X136523411Y-121109010D01*
X136253158Y-120997068D01*
X135966260Y-120940000D01*
X135673740Y-120940000D01*
X135386842Y-120997068D01*
X135116589Y-121109010D01*
X134873368Y-121271525D01*
X134666525Y-121478368D01*
X134550000Y-121652760D01*
X134433475Y-121478368D01*
X134226632Y-121271525D01*
X133983411Y-121109010D01*
X133713158Y-120997068D01*
X133426260Y-120940000D01*
X133133740Y-120940000D01*
X132846842Y-120997068D01*
X132576589Y-121109010D01*
X132333368Y-121271525D01*
X132126525Y-121478368D01*
X132010000Y-121652760D01*
X131893475Y-121478368D01*
X131686632Y-121271525D01*
X131443411Y-121109010D01*
X131173158Y-120997068D01*
X130886260Y-120940000D01*
X130593740Y-120940000D01*
X130306842Y-120997068D01*
X130036589Y-121109010D01*
X129793368Y-121271525D01*
X129586525Y-121478368D01*
X129424010Y-121721589D01*
X129312068Y-121991842D01*
X129255000Y-122278740D01*
X129255000Y-122571260D01*
X129312068Y-122858158D01*
X129424010Y-123128411D01*
X129586525Y-123371632D01*
X129793368Y-123578475D01*
X129967760Y-123695000D01*
X129793368Y-123811525D01*
X129586525Y-124018368D01*
X129424010Y-124261589D01*
X129312068Y-124531842D01*
X129255000Y-124818740D01*
X129255000Y-125111260D01*
X129312068Y-125398158D01*
X129424010Y-125668411D01*
X129586525Y-125911632D01*
X129793368Y-126118475D01*
X130036589Y-126280990D01*
X130306842Y-126392932D01*
X130593740Y-126450000D01*
X130886260Y-126450000D01*
X131106408Y-126406210D01*
X131125001Y-126424803D01*
X131125002Y-129318456D01*
X130856260Y-129265000D01*
X130563740Y-129265000D01*
X130276842Y-129322068D01*
X130006589Y-129434010D01*
X129763368Y-129596525D01*
X129556525Y-129803368D01*
X129394010Y-130046589D01*
X129282068Y-130316842D01*
X129225000Y-130603740D01*
X122735000Y-130603740D01*
X122735000Y-116560000D01*
X145940001Y-116560000D01*
X145940000Y-147565000D01*
M02*
