M48
; DRILL file {KiCad 5.1.5+dfsg1-2build2} date Sun 13 Mar 2022 09:16:09 PM EDT
; FORMAT={-:-/ absolute / inch / decimal}
; #@! TF.CreationDate,2022-03-13T21:16:09-04:00
; #@! TF.GenerationSoftware,Kicad,Pcbnew,5.1.5+dfsg1-2build2
FMAT,2
INCH
T1C0.0157
T2C0.0315
T3C0.0394
%
G90
G05
T1
X5.003Y-5.2874
X5.1142Y-5.5492
T2
X4.9587Y-5.4213
X4.9587Y-5.7213
X4.8563Y-5.4213
X4.8563Y-5.7213
T3
X5.1461Y-5.1476
X5.1461Y-5.2476
X5.2461Y-5.1476
X5.2461Y-5.2476
X5.3461Y-5.1476
X5.3461Y-5.2476
X5.4461Y-5.1476
X5.4461Y-5.2476
X5.5461Y-5.1476
X5.5461Y-5.2476
X5.2474Y-5.5177
X5.2474Y-5.6177
X5.3474Y-5.5177
X5.3474Y-5.6177
X5.4474Y-5.5177
X5.4474Y-5.6177
X5.1472Y-4.8199
X5.1472Y-4.9199
X5.2472Y-4.8199
X5.2472Y-4.9199
X5.3472Y-4.8199
X5.3472Y-4.9199
X5.4472Y-4.8199
X5.4472Y-4.9199
X5.5472Y-4.8199
X5.5472Y-4.9199
T0
M30
