G04 #@! TF.GenerationSoftware,KiCad,Pcbnew,5.1.5+dfsg1-2build2*
G04 #@! TF.CreationDate,2022-03-13T21:16:03-04:00*
G04 #@! TF.ProjectId,RGB_to_hdmi_adapter_coco3,5247425f-746f-45f6-9864-6d695f616461,rev?*
G04 #@! TF.SameCoordinates,Original*
G04 #@! TF.FileFunction,Legend,Top*
G04 #@! TF.FilePolarity,Positive*
%FSLAX46Y46*%
G04 Gerber Fmt 4.6, Leading zero omitted, Abs format (unit mm)*
G04 Created by KiCad (PCBNEW 5.1.5+dfsg1-2build2) date 2022-03-13 21:16:03*
%MOMM*%
%LPD*%
G04 APERTURE LIST*
%ADD10C,0.150000*%
%ADD11C,0.120000*%
G04 APERTURE END LIST*
D10*
X123222619Y-120776190D02*
X123698809Y-120442857D01*
X123222619Y-120204761D02*
X124222619Y-120204761D01*
X124222619Y-120585714D01*
X124175000Y-120680952D01*
X124127380Y-120728571D01*
X124032142Y-120776190D01*
X123889285Y-120776190D01*
X123794047Y-120728571D01*
X123746428Y-120680952D01*
X123698809Y-120585714D01*
X123698809Y-120204761D01*
X123222619Y-121347619D02*
X123270238Y-121252380D01*
X123317857Y-121204761D01*
X123413095Y-121157142D01*
X123698809Y-121157142D01*
X123794047Y-121204761D01*
X123841666Y-121252380D01*
X123889285Y-121347619D01*
X123889285Y-121490476D01*
X123841666Y-121585714D01*
X123794047Y-121633333D01*
X123698809Y-121680952D01*
X123413095Y-121680952D01*
X123317857Y-121633333D01*
X123270238Y-121585714D01*
X123222619Y-121490476D01*
X123222619Y-121347619D01*
X123270238Y-122538095D02*
X123222619Y-122442857D01*
X123222619Y-122252380D01*
X123270238Y-122157142D01*
X123317857Y-122109523D01*
X123413095Y-122061904D01*
X123698809Y-122061904D01*
X123794047Y-122109523D01*
X123841666Y-122157142D01*
X123889285Y-122252380D01*
X123889285Y-122442857D01*
X123841666Y-122538095D01*
X123222619Y-122966666D02*
X124222619Y-122966666D01*
X123603571Y-123061904D02*
X123222619Y-123347619D01*
X123889285Y-123347619D02*
X123508333Y-122966666D01*
X123889285Y-123680952D02*
X123222619Y-123919047D01*
X123889285Y-124157142D02*
X123222619Y-123919047D01*
X122984523Y-123823809D01*
X122936904Y-123776190D01*
X122889285Y-123680952D01*
X123222619Y-125300000D02*
X124222619Y-125300000D01*
X123746428Y-125300000D02*
X123746428Y-125871428D01*
X123222619Y-125871428D02*
X124222619Y-125871428D01*
X123222619Y-126347619D02*
X123889285Y-126347619D01*
X124222619Y-126347619D02*
X124175000Y-126300000D01*
X124127380Y-126347619D01*
X124175000Y-126395238D01*
X124222619Y-126347619D01*
X124127380Y-126347619D01*
X123222619Y-126966666D02*
X123270238Y-126871428D01*
X123365476Y-126823809D01*
X124222619Y-126823809D01*
X123222619Y-127490476D02*
X123270238Y-127395238D01*
X123365476Y-127347619D01*
X124222619Y-127347619D01*
X130500000Y-146727380D02*
X131071428Y-146727380D01*
X130785714Y-147727380D02*
X130785714Y-146727380D01*
X131547619Y-147727380D02*
X131452380Y-147679761D01*
X131404761Y-147632142D01*
X131357142Y-147536904D01*
X131357142Y-147251190D01*
X131404761Y-147155952D01*
X131452380Y-147108333D01*
X131547619Y-147060714D01*
X131690476Y-147060714D01*
X131785714Y-147108333D01*
X131833333Y-147155952D01*
X131880952Y-147251190D01*
X131880952Y-147536904D01*
X131833333Y-147632142D01*
X131785714Y-147679761D01*
X131690476Y-147727380D01*
X131547619Y-147727380D01*
X132214285Y-147060714D02*
X132404761Y-147727380D01*
X132595238Y-147251190D01*
X132785714Y-147727380D01*
X132976190Y-147060714D01*
X133785714Y-147727380D02*
X133785714Y-147203571D01*
X133738095Y-147108333D01*
X133642857Y-147060714D01*
X133452380Y-147060714D01*
X133357142Y-147108333D01*
X133785714Y-147679761D02*
X133690476Y-147727380D01*
X133452380Y-147727380D01*
X133357142Y-147679761D01*
X133309523Y-147584523D01*
X133309523Y-147489285D01*
X133357142Y-147394047D01*
X133452380Y-147346428D01*
X133690476Y-147346428D01*
X133785714Y-147298809D01*
X134261904Y-147727380D02*
X134261904Y-147060714D01*
X134261904Y-147251190D02*
X134309523Y-147155952D01*
X134357142Y-147108333D01*
X134452380Y-147060714D01*
X134547619Y-147060714D01*
X135309523Y-147727380D02*
X135309523Y-146727380D01*
X135309523Y-147679761D02*
X135214285Y-147727380D01*
X135023809Y-147727380D01*
X134928571Y-147679761D01*
X134880952Y-147632142D01*
X134833333Y-147536904D01*
X134833333Y-147251190D01*
X134880952Y-147155952D01*
X134928571Y-147108333D01*
X135023809Y-147060714D01*
X135214285Y-147060714D01*
X135309523Y-147108333D01*
X135738095Y-147679761D02*
X135833333Y-147727380D01*
X136023809Y-147727380D01*
X136119047Y-147679761D01*
X136166666Y-147584523D01*
X136166666Y-147536904D01*
X136119047Y-147441666D01*
X136023809Y-147394047D01*
X135880952Y-147394047D01*
X135785714Y-147346428D01*
X135738095Y-147251190D01*
X135738095Y-147203571D01*
X135785714Y-147108333D01*
X135880952Y-147060714D01*
X136023809Y-147060714D01*
X136119047Y-147108333D01*
X137357142Y-147727380D02*
X137357142Y-146727380D01*
X137357142Y-147108333D02*
X137452380Y-147060714D01*
X137642857Y-147060714D01*
X137738095Y-147108333D01*
X137785714Y-147155952D01*
X137833333Y-147251190D01*
X137833333Y-147536904D01*
X137785714Y-147632142D01*
X137738095Y-147679761D01*
X137642857Y-147727380D01*
X137452380Y-147727380D01*
X137357142Y-147679761D01*
X138690476Y-147727380D02*
X138690476Y-147203571D01*
X138642857Y-147108333D01*
X138547619Y-147060714D01*
X138357142Y-147060714D01*
X138261904Y-147108333D01*
X138690476Y-147679761D02*
X138595238Y-147727380D01*
X138357142Y-147727380D01*
X138261904Y-147679761D01*
X138214285Y-147584523D01*
X138214285Y-147489285D01*
X138261904Y-147394047D01*
X138357142Y-147346428D01*
X138595238Y-147346428D01*
X138690476Y-147298809D01*
X139595238Y-147679761D02*
X139500000Y-147727380D01*
X139309523Y-147727380D01*
X139214285Y-147679761D01*
X139166666Y-147632142D01*
X139119047Y-147536904D01*
X139119047Y-147251190D01*
X139166666Y-147155952D01*
X139214285Y-147108333D01*
X139309523Y-147060714D01*
X139500000Y-147060714D01*
X139595238Y-147108333D01*
X140023809Y-147727380D02*
X140023809Y-146727380D01*
X140119047Y-147346428D02*
X140404761Y-147727380D01*
X140404761Y-147060714D02*
X140023809Y-147441666D01*
X128534523Y-116227380D02*
X129105952Y-116227380D01*
X128820238Y-117227380D02*
X128820238Y-116227380D01*
X129582142Y-117227380D02*
X129486904Y-117179761D01*
X129439285Y-117132142D01*
X129391666Y-117036904D01*
X129391666Y-116751190D01*
X129439285Y-116655952D01*
X129486904Y-116608333D01*
X129582142Y-116560714D01*
X129725000Y-116560714D01*
X129820238Y-116608333D01*
X129867857Y-116655952D01*
X129915476Y-116751190D01*
X129915476Y-117036904D01*
X129867857Y-117132142D01*
X129820238Y-117179761D01*
X129725000Y-117227380D01*
X129582142Y-117227380D01*
X130248809Y-116560714D02*
X130439285Y-117227380D01*
X130629761Y-116751190D01*
X130820238Y-117227380D01*
X131010714Y-116560714D01*
X131820238Y-117227380D02*
X131820238Y-116703571D01*
X131772619Y-116608333D01*
X131677380Y-116560714D01*
X131486904Y-116560714D01*
X131391666Y-116608333D01*
X131820238Y-117179761D02*
X131725000Y-117227380D01*
X131486904Y-117227380D01*
X131391666Y-117179761D01*
X131344047Y-117084523D01*
X131344047Y-116989285D01*
X131391666Y-116894047D01*
X131486904Y-116846428D01*
X131725000Y-116846428D01*
X131820238Y-116798809D01*
X132296428Y-117227380D02*
X132296428Y-116560714D01*
X132296428Y-116751190D02*
X132344047Y-116655952D01*
X132391666Y-116608333D01*
X132486904Y-116560714D01*
X132582142Y-116560714D01*
X133344047Y-117227380D02*
X133344047Y-116227380D01*
X133344047Y-117179761D02*
X133248809Y-117227380D01*
X133058333Y-117227380D01*
X132963095Y-117179761D01*
X132915476Y-117132142D01*
X132867857Y-117036904D01*
X132867857Y-116751190D01*
X132915476Y-116655952D01*
X132963095Y-116608333D01*
X133058333Y-116560714D01*
X133248809Y-116560714D01*
X133344047Y-116608333D01*
X133772619Y-117179761D02*
X133867857Y-117227380D01*
X134058333Y-117227380D01*
X134153571Y-117179761D01*
X134201190Y-117084523D01*
X134201190Y-117036904D01*
X134153571Y-116941666D01*
X134058333Y-116894047D01*
X133915476Y-116894047D01*
X133820238Y-116846428D01*
X133772619Y-116751190D01*
X133772619Y-116703571D01*
X133820238Y-116608333D01*
X133915476Y-116560714D01*
X134058333Y-116560714D01*
X134153571Y-116608333D01*
X135391666Y-117227380D02*
X135391666Y-116227380D01*
X135963095Y-117227380D02*
X135534523Y-116655952D01*
X135963095Y-116227380D02*
X135391666Y-116798809D01*
X136772619Y-117179761D02*
X136677380Y-117227380D01*
X136486904Y-117227380D01*
X136391666Y-117179761D01*
X136344047Y-117084523D01*
X136344047Y-116703571D01*
X136391666Y-116608333D01*
X136486904Y-116560714D01*
X136677380Y-116560714D01*
X136772619Y-116608333D01*
X136820238Y-116703571D01*
X136820238Y-116798809D01*
X136344047Y-116894047D01*
X137153571Y-116560714D02*
X137391666Y-117227380D01*
X137629761Y-116560714D02*
X137391666Y-117227380D01*
X137296428Y-117465476D01*
X137248809Y-117513095D01*
X137153571Y-117560714D01*
X138010714Y-117227380D02*
X138010714Y-116227380D01*
X138010714Y-116608333D02*
X138105952Y-116560714D01*
X138296428Y-116560714D01*
X138391666Y-116608333D01*
X138439285Y-116655952D01*
X138486904Y-116751190D01*
X138486904Y-117036904D01*
X138439285Y-117132142D01*
X138391666Y-117179761D01*
X138296428Y-117227380D01*
X138105952Y-117227380D01*
X138010714Y-117179761D01*
X139058333Y-117227380D02*
X138963095Y-117179761D01*
X138915476Y-117132142D01*
X138867857Y-117036904D01*
X138867857Y-116751190D01*
X138915476Y-116655952D01*
X138963095Y-116608333D01*
X139058333Y-116560714D01*
X139201190Y-116560714D01*
X139296428Y-116608333D01*
X139344047Y-116655952D01*
X139391666Y-116751190D01*
X139391666Y-117036904D01*
X139344047Y-117132142D01*
X139296428Y-117179761D01*
X139201190Y-117227380D01*
X139058333Y-117227380D01*
X140248809Y-117227380D02*
X140248809Y-116703571D01*
X140201190Y-116608333D01*
X140105952Y-116560714D01*
X139915476Y-116560714D01*
X139820238Y-116608333D01*
X140248809Y-117179761D02*
X140153571Y-117227380D01*
X139915476Y-117227380D01*
X139820238Y-117179761D01*
X139772619Y-117084523D01*
X139772619Y-116989285D01*
X139820238Y-116894047D01*
X139915476Y-116846428D01*
X140153571Y-116846428D01*
X140248809Y-116798809D01*
X140725000Y-117227380D02*
X140725000Y-116560714D01*
X140725000Y-116751190D02*
X140772619Y-116655952D01*
X140820238Y-116608333D01*
X140915476Y-116560714D01*
X141010714Y-116560714D01*
X141772619Y-117227380D02*
X141772619Y-116227380D01*
X141772619Y-117179761D02*
X141677380Y-117227380D01*
X141486904Y-117227380D01*
X141391666Y-117179761D01*
X141344047Y-117132142D01*
X141296428Y-117036904D01*
X141296428Y-116751190D01*
X141344047Y-116655952D01*
X141391666Y-116608333D01*
X141486904Y-116560714D01*
X141677380Y-116560714D01*
X141772619Y-116608333D01*
D11*
X122230000Y-143030000D02*
X124470000Y-143030000D01*
X122230000Y-142790000D02*
X124470000Y-142790000D01*
X122230000Y-142910000D02*
X124470000Y-142910000D01*
X123350000Y-138740000D02*
X123350000Y-139390000D01*
X123350000Y-144280000D02*
X123350000Y-143630000D01*
X122230000Y-139390000D02*
X122230000Y-143630000D01*
X124470000Y-139390000D02*
X122230000Y-139390000D01*
X124470000Y-143630000D02*
X124470000Y-139390000D01*
X122230000Y-143630000D02*
X124470000Y-143630000D01*
X124830000Y-143630000D02*
X127070000Y-143630000D01*
X127070000Y-143630000D02*
X127070000Y-139390000D01*
X127070000Y-139390000D02*
X124830000Y-139390000D01*
X124830000Y-139390000D02*
X124830000Y-143630000D01*
X125950000Y-144280000D02*
X125950000Y-143630000D01*
X125950000Y-138740000D02*
X125950000Y-139390000D01*
X124830000Y-142910000D02*
X127070000Y-142910000D01*
X124830000Y-142790000D02*
X127070000Y-142790000D01*
X124830000Y-143030000D02*
X127070000Y-143030000D01*
X146110000Y-119135000D02*
X146110000Y-128255000D01*
X146110000Y-128255000D02*
X125530000Y-128255000D01*
X125530000Y-128255000D02*
X125530000Y-119135000D01*
X125530000Y-119135000D02*
X146110000Y-119135000D01*
X137870000Y-119135000D02*
X137870000Y-120445000D01*
X137870000Y-120445000D02*
X144810000Y-120445000D01*
X144810000Y-120445000D02*
X144810000Y-126945000D01*
X144810000Y-126945000D02*
X126830000Y-126945000D01*
X126830000Y-126945000D02*
X126830000Y-120445000D01*
X126830000Y-120445000D02*
X133770000Y-120445000D01*
X133770000Y-120445000D02*
X133770000Y-120445000D01*
X133770000Y-120445000D02*
X133770000Y-119135000D01*
X140900000Y-118745000D02*
X141400000Y-117745000D01*
X141400000Y-117745000D02*
X140400000Y-117745000D01*
X140400000Y-117745000D02*
X140900000Y-118745000D01*
X143575000Y-136860000D02*
X143575000Y-145980000D01*
X143575000Y-145980000D02*
X128075000Y-145980000D01*
X128075000Y-145980000D02*
X128075000Y-136860000D01*
X128075000Y-136860000D02*
X143575000Y-136860000D01*
X137875000Y-136860000D02*
X137875000Y-138170000D01*
X137875000Y-138170000D02*
X142275000Y-138170000D01*
X142275000Y-138170000D02*
X142275000Y-144670000D01*
X142275000Y-144670000D02*
X129375000Y-144670000D01*
X129375000Y-144670000D02*
X129375000Y-138170000D01*
X129375000Y-138170000D02*
X133775000Y-138170000D01*
X133775000Y-138170000D02*
X133775000Y-138170000D01*
X133775000Y-138170000D02*
X133775000Y-136860000D01*
X138365000Y-136470000D02*
X138865000Y-135470000D01*
X138865000Y-135470000D02*
X137865000Y-135470000D01*
X137865000Y-135470000D02*
X138365000Y-136470000D01*
D10*
X122686904Y-147452380D02*
X122686904Y-146452380D01*
X122925000Y-146452380D01*
X123067857Y-146500000D01*
X123163095Y-146595238D01*
X123210714Y-146690476D01*
X123258333Y-146880952D01*
X123258333Y-147023809D01*
X123210714Y-147214285D01*
X123163095Y-147309523D01*
X123067857Y-147404761D01*
X122925000Y-147452380D01*
X122686904Y-147452380D01*
X124210714Y-147452380D02*
X123639285Y-147452380D01*
X123925000Y-147452380D02*
X123925000Y-146452380D01*
X123829761Y-146595238D01*
X123734523Y-146690476D01*
X123639285Y-146738095D01*
X123852380Y-135862857D02*
X123852380Y-136434285D01*
X123852380Y-136148571D02*
X122852380Y-136148571D01*
X122995238Y-136243809D01*
X123090476Y-136339047D01*
X123138095Y-136434285D01*
X123852380Y-135434285D02*
X122852380Y-135434285D01*
X123852380Y-134862857D01*
X122852380Y-134862857D01*
X123185714Y-133958095D02*
X123852380Y-133958095D01*
X122804761Y-134196190D02*
X123519047Y-134434285D01*
X123519047Y-133815238D01*
X123852380Y-132910476D02*
X123852380Y-133481904D01*
X123852380Y-133196190D02*
X122852380Y-133196190D01*
X122995238Y-133291428D01*
X123090476Y-133386666D01*
X123138095Y-133481904D01*
X123185714Y-132053333D02*
X123852380Y-132053333D01*
X122804761Y-132291428D02*
X123519047Y-132529523D01*
X123519047Y-131910476D01*
X123280952Y-131386666D02*
X123233333Y-131481904D01*
X123185714Y-131529523D01*
X123090476Y-131577142D01*
X123042857Y-131577142D01*
X122947619Y-131529523D01*
X122900000Y-131481904D01*
X122852380Y-131386666D01*
X122852380Y-131196190D01*
X122900000Y-131100952D01*
X122947619Y-131053333D01*
X123042857Y-131005714D01*
X123090476Y-131005714D01*
X123185714Y-131053333D01*
X123233333Y-131100952D01*
X123280952Y-131196190D01*
X123280952Y-131386666D01*
X123328571Y-131481904D01*
X123376190Y-131529523D01*
X123471428Y-131577142D01*
X123661904Y-131577142D01*
X123757142Y-131529523D01*
X123804761Y-131481904D01*
X123852380Y-131386666D01*
X123852380Y-131196190D01*
X123804761Y-131100952D01*
X123757142Y-131053333D01*
X123661904Y-131005714D01*
X123471428Y-131005714D01*
X123376190Y-131053333D01*
X123328571Y-131100952D01*
X123280952Y-131196190D01*
X125311904Y-147502380D02*
X125311904Y-146502380D01*
X125550000Y-146502380D01*
X125692857Y-146550000D01*
X125788095Y-146645238D01*
X125835714Y-146740476D01*
X125883333Y-146930952D01*
X125883333Y-147073809D01*
X125835714Y-147264285D01*
X125788095Y-147359523D01*
X125692857Y-147454761D01*
X125550000Y-147502380D01*
X125311904Y-147502380D01*
X126264285Y-146597619D02*
X126311904Y-146550000D01*
X126407142Y-146502380D01*
X126645238Y-146502380D01*
X126740476Y-146550000D01*
X126788095Y-146597619D01*
X126835714Y-146692857D01*
X126835714Y-146788095D01*
X126788095Y-146930952D01*
X126216666Y-147502380D01*
X126835714Y-147502380D01*
X126602380Y-135887857D02*
X126602380Y-136459285D01*
X126602380Y-136173571D02*
X125602380Y-136173571D01*
X125745238Y-136268809D01*
X125840476Y-136364047D01*
X125888095Y-136459285D01*
X126602380Y-135459285D02*
X125602380Y-135459285D01*
X126602380Y-134887857D01*
X125602380Y-134887857D01*
X125935714Y-133983095D02*
X126602380Y-133983095D01*
X125554761Y-134221190D02*
X126269047Y-134459285D01*
X126269047Y-133840238D01*
X126602380Y-132935476D02*
X126602380Y-133506904D01*
X126602380Y-133221190D02*
X125602380Y-133221190D01*
X125745238Y-133316428D01*
X125840476Y-133411666D01*
X125888095Y-133506904D01*
X125935714Y-132078333D02*
X126602380Y-132078333D01*
X125554761Y-132316428D02*
X126269047Y-132554523D01*
X126269047Y-131935476D01*
X126030952Y-131411666D02*
X125983333Y-131506904D01*
X125935714Y-131554523D01*
X125840476Y-131602142D01*
X125792857Y-131602142D01*
X125697619Y-131554523D01*
X125650000Y-131506904D01*
X125602380Y-131411666D01*
X125602380Y-131221190D01*
X125650000Y-131125952D01*
X125697619Y-131078333D01*
X125792857Y-131030714D01*
X125840476Y-131030714D01*
X125935714Y-131078333D01*
X125983333Y-131125952D01*
X126030952Y-131221190D01*
X126030952Y-131411666D01*
X126078571Y-131506904D01*
X126126190Y-131554523D01*
X126221428Y-131602142D01*
X126411904Y-131602142D01*
X126507142Y-131554523D01*
X126554761Y-131506904D01*
X126602380Y-131411666D01*
X126602380Y-131221190D01*
X126554761Y-131125952D01*
X126507142Y-131078333D01*
X126411904Y-131030714D01*
X126221428Y-131030714D01*
X126126190Y-131078333D01*
X126078571Y-131125952D01*
X126030952Y-131221190D01*
X143716666Y-117427380D02*
X143716666Y-118141666D01*
X143669047Y-118284523D01*
X143573809Y-118379761D01*
X143430952Y-118427380D01*
X143335714Y-118427380D01*
X144716666Y-118427380D02*
X144145238Y-118427380D01*
X144430952Y-118427380D02*
X144430952Y-117427380D01*
X144335714Y-117570238D01*
X144240476Y-117665476D01*
X144145238Y-117713095D01*
X143917380Y-141753333D02*
X144631666Y-141753333D01*
X144774523Y-141800952D01*
X144869761Y-141896190D01*
X144917380Y-142039047D01*
X144917380Y-142134285D01*
X143917380Y-141372380D02*
X143917380Y-140753333D01*
X144298333Y-141086666D01*
X144298333Y-140943809D01*
X144345952Y-140848571D01*
X144393571Y-140800952D01*
X144488809Y-140753333D01*
X144726904Y-140753333D01*
X144822142Y-140800952D01*
X144869761Y-140848571D01*
X144917380Y-140943809D01*
X144917380Y-141229523D01*
X144869761Y-141324761D01*
X144822142Y-141372380D01*
M02*
